%TF.GenerationSoftware,KiCad,Pcbnew,10.0.3*%
%TF.CreationDate,2026-06-03T17:51:44+02:00*%
%TF.ProjectId,rapid_tank_level_indicator_sensor,72617069-645f-4746-916e-6b5f6c657665,rev?*%
%TF.SameCoordinates,Original*%
%TF.FileFunction,Copper,L2,Bot*%
%TF.FilePolarity,Positive*%
%FSLAX46Y46*%
G04 Gerber Fmt 4.6, Leading zero omitted, Abs format (unit mm)*
G04 Created by KiCad (PCBNEW 10.0.3) date 2026-06-03 17:51:44*
%MOMM*%
%LPD*%
G01*
G04 APERTURE LIST*
G04 Aperture macros list*
%AMRoundRect*
0 Rectangle with rounded corners*
0 $1 Rounding radius*
0 $2 $3 $4 $5 $6 $7 $8 $9 X,Y pos of 4 corners*
0 Add a 4 corners polygon primitive as box body*
4,1,4,$2,$3,$4,$5,$6,$7,$8,$9,$2,$3,0*
0 Add four circle primitives for the rounded corners*
1,1,$1+$1,$2,$3*
1,1,$1+$1,$4,$5*
1,1,$1+$1,$6,$7*
1,1,$1+$1,$8,$9*
0 Add four rect primitives between the rounded corners*
20,1,$1+$1,$2,$3,$4,$5,0*
20,1,$1+$1,$4,$5,$6,$7,0*
20,1,$1+$1,$6,$7,$8,$9,0*
20,1,$1+$1,$8,$9,$2,$3,0*%
G04 Aperture macros list end*
%TA.AperFunction,SMDPad,CuDef*%
%ADD10RoundRect,0.150000X0.587500X0.150000X-0.587500X0.150000X-0.587500X-0.150000X0.587500X-0.150000X0*%
%TD*%
%TA.AperFunction,SMDPad,CuDef*%
%ADD11RoundRect,0.105000X0.245000X1.395000X-0.245000X1.395000X-0.245000X-1.395000X0.245000X-1.395000X0*%
%TD*%
%TA.AperFunction,ViaPad*%
%ADD12C,0.600000*%
%TD*%
%TA.AperFunction,Conductor*%
%ADD13C,0.200000*%
%TD*%
%TA.AperFunction,Conductor*%
%ADD14C,0.500000*%
%TD*%
G04 APERTURE END LIST*
D10*
%TO.P,U7,1,V_{DD}_1*%
%TO.N,+5V_post_con*%
X135381836Y-297475000D03*
%TO.P,U7,2,V_{OUT}_2*%
%TO.N,TEMP_7*%
X135381836Y-299375000D03*
%TO.P,U7,3,GND_3*%
%TO.N,GND_pos_con*%
X133506836Y-298425000D03*
%TD*%
%TO.P,U15,1,V_{DD}_1*%
%TO.N,+5V_post_con*%
X135387500Y-122475000D03*
%TO.P,U15,2,V_{OUT}_2*%
%TO.N,TEMP_10*%
X135387500Y-124375000D03*
%TO.P,U15,3,GND_3*%
%TO.N,GND_pos_con*%
X133512500Y-123425000D03*
%TD*%
%TO.P,U4,1,V_{DD}_1*%
%TO.N,+5V_post_con*%
X135387500Y-647475000D03*
%TO.P,U4,2,V_{OUT}_2*%
%TO.N,TEMP_1*%
X135387500Y-649375000D03*
%TO.P,U4,3,GND_3*%
%TO.N,GND_pos_con*%
X133512500Y-648425000D03*
%TD*%
%TO.P,U6,1,V_{DD}_1*%
%TO.N,+5V_post_con*%
X135381836Y-589141667D03*
%TO.P,U6,2,V_{OUT}_2*%
%TO.N,TEMP_2*%
X135381836Y-591041667D03*
%TO.P,U6,3,GND_3*%
%TO.N,GND_pos_con*%
X133506836Y-590091667D03*
%TD*%
%TO.P,U8,1,V_{DD}_1*%
%TO.N,+5V_post_con*%
X135381836Y-530808333D03*
%TO.P,U8,2,V_{OUT}_2*%
%TO.N,TEMP_3*%
X135381836Y-532708333D03*
%TO.P,U8,3,GND_3*%
%TO.N,GND_pos_con*%
X133506836Y-531758333D03*
%TD*%
%TO.P,U9,1,V_{DD}_1*%
%TO.N,+5V_post_con*%
X135381836Y-239141667D03*
%TO.P,U9,2,V_{OUT}_2*%
%TO.N,TEMP_8*%
X135381836Y-241041667D03*
%TO.P,U9,3,GND_3*%
%TO.N,GND_pos_con*%
X133506836Y-240091667D03*
%TD*%
%TO.P,U12,1,V_{DD}_1*%
%TO.N,+5V_post_con*%
X135381836Y-472475000D03*
%TO.P,U12,2,V_{OUT}_2*%
%TO.N,TEMP_4*%
X135381836Y-474375000D03*
%TO.P,U12,3,GND_3*%
%TO.N,GND_pos_con*%
X133506836Y-473425000D03*
%TD*%
%TO.P,U14,1,V_{DD}_1*%
%TO.N,+5V_post_con*%
X135387500Y-414175000D03*
%TO.P,U14,2,V_{OUT}_2*%
%TO.N,TEMP_5*%
X135387500Y-416075000D03*
%TO.P,U14,3,GND_3*%
%TO.N,GND_pos_con*%
X133512500Y-415125000D03*
%TD*%
D11*
%TO.P,J4,1,Pin_1_1*%
%TO.N,GND_pos_con*%
X141500000Y-71520000D03*
%TO.P,J4,2,Pin_2_2*%
%TO.N,TEMP_1*%
X140500000Y-71520000D03*
%TO.P,J4,3,Pin_3_3*%
%TO.N,TEMP_2*%
X139500000Y-71520000D03*
%TO.P,J4,4,Pin_4_4*%
%TO.N,TEMP_3*%
X138500000Y-71520000D03*
%TO.P,J4,5,Pin_5_5*%
%TO.N,TEMP_4*%
X137500000Y-71520000D03*
%TO.P,J4,6,Pin_6_6*%
%TO.N,TEMP_5*%
X136500000Y-71520000D03*
%TO.P,J4,7,Pin_7_7*%
%TO.N,TEMP_6*%
X135500000Y-71520000D03*
%TO.P,J4,8,Pin_8_8*%
%TO.N,TEMP_7*%
X134500000Y-71520000D03*
%TO.P,J4,9,Pin_9_9*%
%TO.N,TEMP_8*%
X133500000Y-71520000D03*
%TO.P,J4,10,Pin_10_10*%
%TO.N,TEMP_9*%
X132500000Y-71520000D03*
%TO.P,J4,11,Pin_11_11*%
%TO.N,TEMP_10*%
X131500000Y-71520000D03*
%TO.P,J4,12,Pin_12_12*%
%TO.N,+5V_post_con*%
X130500000Y-71520000D03*
%TD*%
D10*
%TO.P,U13,1,V_{DD}_1*%
%TO.N,+5V_post_con*%
X135381836Y-180808333D03*
%TO.P,U13,2,V_{OUT}_2*%
%TO.N,TEMP_9*%
X135381836Y-182708333D03*
%TO.P,U13,3,GND_3*%
%TO.N,GND_pos_con*%
X133506836Y-181758333D03*
%TD*%
%TO.P,U10,1,V_{DD}_1*%
%TO.N,+5V_post_con*%
X135387500Y-355875000D03*
%TO.P,U10,2,V_{OUT}_2*%
%TO.N,TEMP_6*%
X135387500Y-357775000D03*
%TO.P,U10,3,GND_3*%
%TO.N,GND_pos_con*%
X133512500Y-356825000D03*
%TD*%
D12*
%TO.N,TEMP_7*%
X135400000Y-300400000D03*
%TO.N,TEMP_8*%
X135200000Y-242000000D03*
%TO.N,TEMP_3*%
X135400000Y-533900000D03*
%TO.N,TEMP_4*%
X135400000Y-475500000D03*
%TO.N,TEMP_2*%
X135400000Y-592400000D03*
%TO.N,TEMP_9*%
X135400000Y-184000000D03*
%TO.N,TEMP_10*%
X135400000Y-125400000D03*
%TO.N,TEMP_6*%
X135300000Y-358800000D03*
%TO.N,TEMP_1*%
X136800000Y-649300000D03*
%TO.N,TEMP_5*%
X135400000Y-417300000D03*
%TO.N,GND_pos_con*%
X133400000Y-410400000D03*
X141000000Y-593700000D03*
X132900000Y-588800000D03*
X130700000Y-648000000D03*
X132900000Y-530500000D03*
X136900000Y-476900000D03*
X141200000Y-243300000D03*
X133400000Y-593800000D03*
X137100000Y-651500000D03*
X133400000Y-177500000D03*
X141000000Y-185300000D03*
X135200000Y-298400000D03*
X141000000Y-418700000D03*
X133600000Y-526900000D03*
X141200000Y-647000000D03*
X135200000Y-123400000D03*
X135200000Y-473400000D03*
X135300000Y-531700000D03*
X132000000Y-116400000D03*
X140000000Y-650800000D03*
X133000000Y-121700000D03*
X130600000Y-236200000D03*
X141200000Y-360200000D03*
X135200000Y-415100000D03*
X130500000Y-351700000D03*
X141100000Y-410400000D03*
X141100000Y-526800000D03*
X132900000Y-472100000D03*
X135500000Y-177500000D03*
X133400000Y-360100000D03*
X141100000Y-95500000D03*
X132100000Y-107100000D03*
X132900000Y-297100000D03*
X135000000Y-107200000D03*
X135200000Y-240100000D03*
X136500000Y-410400000D03*
X130700000Y-647000000D03*
X133500000Y-476900000D03*
X131700000Y-87400000D03*
X141200000Y-82200000D03*
X133500000Y-243300000D03*
X133500000Y-352000000D03*
X136800000Y-360200000D03*
X137300000Y-585100000D03*
X130800000Y-649200000D03*
X131700000Y-95400000D03*
X135300000Y-590100000D03*
X141000000Y-468700000D03*
X132900000Y-126800000D03*
X133600000Y-236200000D03*
X141200000Y-116400000D03*
X130500000Y-410600000D03*
X136600000Y-243300000D03*
X141000000Y-476700000D03*
X141100000Y-535000000D03*
X140900000Y-642800000D03*
X141300000Y-352000000D03*
X141300000Y-649100000D03*
X140400000Y-177600000D03*
X131300000Y-650300000D03*
X132800000Y-355500000D03*
X130500000Y-177700000D03*
X137100000Y-593800000D03*
X136900000Y-535000000D03*
X133600000Y-651600000D03*
X130500000Y-126900000D03*
X137300000Y-526900000D03*
X133300000Y-185300000D03*
X141200000Y-294100000D03*
X136800000Y-185300000D03*
X133200000Y-301800000D03*
X135400000Y-82300000D03*
X135700000Y-236200000D03*
X136400000Y-126800000D03*
X139200000Y-651300000D03*
X133600000Y-585200000D03*
X133400000Y-535100000D03*
X133300000Y-294100000D03*
X135100000Y-87500000D03*
X132800000Y-180500000D03*
X141200000Y-236400000D03*
X138100000Y-651400000D03*
X133400000Y-418500000D03*
X130700000Y-301800000D03*
X140800000Y-650000000D03*
X136700000Y-418600000D03*
X133400000Y-642900000D03*
X130500000Y-185300000D03*
X135200000Y-648400000D03*
X132100000Y-651000000D03*
X141300000Y-107100000D03*
X132800000Y-238800000D03*
X135000000Y-651600000D03*
X136000000Y-294100000D03*
X135200000Y-181800000D03*
X140500000Y-126700000D03*
X136100000Y-651600000D03*
X136200000Y-352000000D03*
X141600000Y-177600000D03*
X130400000Y-243400000D03*
X132900000Y-413900000D03*
X136900000Y-301800000D03*
X141100000Y-585100000D03*
X137300000Y-642800000D03*
X136700000Y-468700000D03*
X135300000Y-95500000D03*
X141300000Y-648000000D03*
X130500000Y-293900000D03*
X141000000Y-301800000D03*
X135100000Y-120100000D03*
X135200000Y-356800000D03*
X131900000Y-82200000D03*
X141100000Y-87300000D03*
X135000000Y-116400000D03*
X133500000Y-468700000D03*
%TD*%
%TO.N,TEMP_7*%
D13*
X134500000Y-74260000D02*
X134500000Y-71520000D01*
X137603000Y-297153836D02*
X137603000Y-77363000D01*
X137603000Y-77363000D02*
X134500000Y-74260000D01*
X135381836Y-300381836D02*
X135400000Y-300400000D01*
X135381836Y-299375000D02*
X135381836Y-300381836D01*
X135381836Y-299375000D02*
X137603000Y-297153836D01*
%TO.N,TEMP_8*%
X137302000Y-239121503D02*
X137302000Y-77782000D01*
X137302000Y-77782000D02*
X133500000Y-73980000D01*
X135381836Y-241681836D02*
X135381836Y-241041667D01*
X133500000Y-73980000D02*
X133500000Y-71520000D01*
X135200000Y-241863672D02*
X135381836Y-241681836D01*
X135200000Y-242000000D02*
X135200000Y-241863672D01*
X135381836Y-241041667D02*
X137302000Y-239121503D01*
%TO.N,TEMP_3*%
X138807000Y-529283169D02*
X135381836Y-532708333D01*
X138807000Y-75890000D02*
X138500000Y-75583000D01*
X135381836Y-533881836D02*
X135400000Y-533900000D01*
X138500000Y-75583000D02*
X138500000Y-71520000D01*
X135381836Y-532708333D02*
X135381836Y-533881836D01*
X138807000Y-75890000D02*
X138807000Y-529283169D01*
%TO.N,TEMP_4*%
X137500000Y-75240000D02*
X137500000Y-71520000D01*
X135381836Y-474375000D02*
X135381836Y-475481836D01*
X138506000Y-471250836D02*
X138506000Y-76246000D01*
X135381836Y-475481836D02*
X135400000Y-475500000D01*
X135381836Y-474375000D02*
X138506000Y-471250836D01*
X138506000Y-76246000D02*
X137500000Y-75240000D01*
%TO.N,TEMP_2*%
X139107000Y-76107000D02*
X139107000Y-75773000D01*
X135381836Y-591041667D02*
X135381836Y-592381836D01*
X139108000Y-76108000D02*
X139107000Y-76107000D01*
X139108000Y-587315503D02*
X139108000Y-76108000D01*
X135381836Y-592381836D02*
X135400000Y-592400000D01*
X139107000Y-75773000D02*
X139500000Y-75380000D01*
X139500000Y-75380000D02*
X139500000Y-71520000D01*
X135381836Y-591041667D02*
X139108000Y-587315503D01*
%TO.N,TEMP_9*%
X135381836Y-182708333D02*
X137001000Y-181089169D01*
X137002000Y-78300000D02*
X137002000Y-78960000D01*
X132500000Y-71520000D02*
X132500000Y-73800000D01*
X135381836Y-182708333D02*
X135381836Y-183981836D01*
X132500000Y-73800000D02*
X136195000Y-77495000D01*
X136197000Y-77495000D02*
X137002000Y-78300000D01*
X137001000Y-181089169D02*
X137001000Y-78959000D01*
X136195000Y-77495000D02*
X136197000Y-77495000D01*
X135381836Y-183981836D02*
X135400000Y-184000000D01*
%TO.N,TEMP_10*%
X131500000Y-71520000D02*
X131500000Y-73460000D01*
X136700000Y-123062500D02*
X135387500Y-124375000D01*
X135387500Y-125387500D02*
X135387500Y-124375000D01*
X131500000Y-73460000D02*
X136700000Y-78660000D01*
X135400000Y-125400000D02*
X135387500Y-125387500D01*
X136700000Y-78660000D02*
X136700000Y-123062500D01*
%TO.N,TEMP_6*%
X135500000Y-74550000D02*
X135500000Y-71520000D01*
X135387500Y-358712500D02*
X135300000Y-358800000D01*
X135381836Y-357708333D02*
X137904000Y-355186169D01*
X137904000Y-355186169D02*
X137904000Y-76954000D01*
X137904000Y-76954000D02*
X135500000Y-74550000D01*
X135387500Y-357775000D02*
X135387500Y-358712500D01*
%TO.N,TEMP_1*%
X139409000Y-645353500D02*
X139409000Y-75901000D01*
X135387500Y-649375000D02*
X139409000Y-645353500D01*
X135387500Y-649375000D02*
X136725000Y-649375000D01*
X140500000Y-74810000D02*
X140500000Y-71520000D01*
X139409000Y-75901000D02*
X140500000Y-74810000D01*
X136725000Y-649375000D02*
X136800000Y-649300000D01*
%TO.N,TEMP_5*%
X135387500Y-417287500D02*
X135400000Y-417300000D01*
X138205000Y-413257500D02*
X138205000Y-76645000D01*
X135387500Y-416075000D02*
X135387500Y-417287500D01*
X135387500Y-416075000D02*
X138205000Y-413257500D01*
X138205000Y-76645000D02*
X136500000Y-74940000D01*
X136500000Y-74940000D02*
X136500000Y-71520000D01*
%TO.N,+5V_post_con*%
D14*
X131900000Y-236500000D02*
X131900000Y-294800000D01*
X135387500Y-122475000D02*
X131900000Y-118987500D01*
X134641667Y-589141667D02*
X131900000Y-586400000D01*
X130600000Y-71620000D02*
X130600000Y-117687500D01*
X134575000Y-472475000D02*
X131900000Y-469800000D01*
X135381836Y-297475000D02*
X134575000Y-297475000D01*
X135381836Y-589141667D02*
X134641667Y-589141667D01*
X135387500Y-355875000D02*
X134575000Y-355875000D01*
X135387500Y-414175000D02*
X134575000Y-414175000D01*
X131900000Y-177326497D02*
X131900000Y-236500000D01*
X134541667Y-239141667D02*
X131900000Y-236500000D01*
X131900000Y-294800000D02*
X131900000Y-353200000D01*
X134575000Y-414175000D02*
X131900000Y-411500000D01*
X131900000Y-469800000D02*
X131900000Y-528100000D01*
X134408333Y-180808333D02*
X131900000Y-178300000D01*
X131900000Y-353200000D02*
X131900000Y-411500000D01*
X130500000Y-71520000D02*
X130600000Y-71620000D01*
X131900000Y-178300000D02*
X131900000Y-177326497D01*
X135381836Y-530808333D02*
X134608333Y-530808333D01*
X135381836Y-180808333D02*
X134408333Y-180808333D01*
X131900000Y-411500000D02*
X131900000Y-469800000D01*
X131900000Y-643987500D02*
X135387500Y-647475000D01*
X131900000Y-586400000D02*
X131900000Y-643987500D01*
X134608333Y-530808333D02*
X131900000Y-528100000D01*
X135381836Y-472475000D02*
X134575000Y-472475000D01*
X131900000Y-118987500D02*
X131900000Y-177326497D01*
X134575000Y-297475000D02*
X131900000Y-294800000D01*
X130600000Y-117687500D02*
X131900000Y-118987500D01*
X134575000Y-355875000D02*
X131900000Y-353200000D01*
X135381836Y-239141667D02*
X134541667Y-239141667D01*
X131900000Y-528100000D02*
X131900000Y-586400000D01*
%TD*%
%TA.AperFunction,Conductor*%
%TO.N,GND_pos_con*%
G36*
X129842538Y-70019921D02*
G01*
X129888294Y-70072724D01*
X129899500Y-70124237D01*
X129899500Y-72948742D01*
X129907050Y-73000565D01*
X129909567Y-73017842D01*
X129961676Y-73124430D01*
X130045564Y-73208318D01*
X130045567Y-73208320D01*
X130045571Y-73208324D01*
X130045575Y-73208326D01*
X130047546Y-73209733D01*
X130049610Y-73212364D01*
X130052836Y-73215590D01*
X130052446Y-73215979D01*
X130090672Y-73264705D01*
X130099500Y-73310656D01*
X130099500Y-117753391D01*
X130133608Y-117880687D01*
X130166554Y-117937750D01*
X130199500Y-117994814D01*
X130199502Y-117994816D01*
X131363181Y-119158495D01*
X131396666Y-119219818D01*
X131399500Y-119246176D01*
X131399500Y-644053391D01*
X131433608Y-644180687D01*
X131466554Y-644237750D01*
X131499500Y-644294814D01*
X131499502Y-644294816D01*
X134368314Y-647163628D01*
X134401799Y-647224951D01*
X134403107Y-647270705D01*
X134399500Y-647293480D01*
X134399500Y-647519984D01*
X134379815Y-647587023D01*
X134327011Y-647632778D01*
X134257853Y-647642722D01*
X134240905Y-647639060D01*
X134202495Y-647627900D01*
X134202489Y-647627899D01*
X134165649Y-647625000D01*
X133762500Y-647625000D01*
X133762500Y-648175000D01*
X134747295Y-648175000D01*
X134747295Y-648174998D01*
X134747100Y-648172515D01*
X134746968Y-648171790D01*
X134747011Y-648171379D01*
X134746603Y-648166191D01*
X134747565Y-648166115D01*
X134754280Y-648102304D01*
X134797999Y-648047802D01*
X134864243Y-648025588D01*
X134868899Y-648025499D01*
X135941956Y-648025499D01*
X136008995Y-648045184D01*
X136054750Y-648097988D01*
X136064694Y-648167146D01*
X136035669Y-648230702D01*
X136029637Y-648237180D01*
X135478635Y-648788181D01*
X135417312Y-648821666D01*
X135390954Y-648824500D01*
X134868948Y-648824500D01*
X134801909Y-648804815D01*
X134756154Y-648752011D01*
X134746210Y-648682853D01*
X134746969Y-648678206D01*
X134747100Y-648677487D01*
X134747295Y-648675001D01*
X134747295Y-648675000D01*
X133762500Y-648675000D01*
X133762500Y-649225000D01*
X134165634Y-649225000D01*
X134165649Y-649224999D01*
X134202489Y-649222100D01*
X134202495Y-649222099D01*
X134240905Y-649210940D01*
X134310774Y-649211139D01*
X134369444Y-649249081D01*
X134398288Y-649312719D01*
X134399500Y-649330015D01*
X134399500Y-649556517D01*
X134410292Y-649624657D01*
X134414354Y-649650304D01*
X134471950Y-649763342D01*
X134471952Y-649763344D01*
X134471954Y-649763347D01*
X134561652Y-649853045D01*
X134561654Y-649853046D01*
X134561658Y-649853050D01*
X134674694Y-649910645D01*
X134674698Y-649910647D01*
X134768475Y-649925499D01*
X134768481Y-649925500D01*
X136006518Y-649925499D01*
X136100304Y-649910646D01*
X136213342Y-649853050D01*
X136256185Y-649810207D01*
X136304574Y-649761819D01*
X136331501Y-649747115D01*
X136357320Y-649730523D01*
X136363520Y-649729631D01*
X136365897Y-649728334D01*
X136392255Y-649725500D01*
X136402763Y-649725500D01*
X136464763Y-649742113D01*
X136587511Y-649812982D01*
X136587512Y-649812982D01*
X136587515Y-649812984D01*
X136727525Y-649850500D01*
X136727528Y-649850500D01*
X136872472Y-649850500D01*
X136872475Y-649850500D01*
X137012485Y-649812984D01*
X137138015Y-649740509D01*
X137240509Y-649638015D01*
X137312984Y-649512485D01*
X137350500Y-649372475D01*
X137350500Y-649227525D01*
X137312984Y-649087515D01*
X137248924Y-648976561D01*
X137240511Y-648961988D01*
X137240506Y-648961982D01*
X137138017Y-648859493D01*
X137138011Y-648859488D01*
X137012488Y-648787017D01*
X137012489Y-648787017D01*
X137001006Y-648783940D01*
X136872475Y-648749500D01*
X136808044Y-648749500D01*
X136741005Y-648729815D01*
X136695250Y-648677011D01*
X136685306Y-648607853D01*
X136714331Y-648544297D01*
X136720363Y-648537819D01*
X138171530Y-647086652D01*
X139689470Y-645568712D01*
X139735614Y-645488788D01*
X139759500Y-645399644D01*
X139759500Y-645307356D01*
X139759500Y-76097544D01*
X139779185Y-76030505D01*
X139795819Y-76009863D01*
X140780470Y-75025212D01*
X140826614Y-74945288D01*
X140834142Y-74917194D01*
X140835163Y-74913385D01*
X140843535Y-74882137D01*
X140850500Y-74856144D01*
X140850500Y-73587877D01*
X140870185Y-73520838D01*
X140882356Y-73510291D01*
X140880209Y-73888781D01*
X140900000Y-74900000D01*
X142499485Y-74900000D01*
X142497850Y-649345297D01*
X142497701Y-649351382D01*
X142481722Y-649676617D01*
X142481192Y-649683494D01*
X142473190Y-649759624D01*
X142472527Y-649764857D01*
X142430516Y-650048066D01*
X142429148Y-650055652D01*
X142414404Y-650125016D01*
X142413398Y-650129365D01*
X142342240Y-650413444D01*
X142339886Y-650421634D01*
X142321405Y-650478510D01*
X142320226Y-650481964D01*
X142217593Y-650768804D01*
X142214121Y-650777466D01*
X142198084Y-650813485D01*
X142196900Y-650816066D01*
X142057715Y-651110349D01*
X142051978Y-651121081D01*
X141869079Y-651426230D01*
X141862319Y-651436348D01*
X141650377Y-651722118D01*
X141642657Y-651731524D01*
X141403737Y-651995132D01*
X141395132Y-652003737D01*
X141131524Y-652242657D01*
X141122118Y-652250377D01*
X140836348Y-652462319D01*
X140826230Y-652469079D01*
X140521081Y-652651978D01*
X140510349Y-652657715D01*
X140216066Y-652796900D01*
X140213485Y-652798084D01*
X140177466Y-652814121D01*
X140168804Y-652817593D01*
X139881964Y-652920226D01*
X139878510Y-652921405D01*
X139821634Y-652939886D01*
X139813444Y-652942240D01*
X139529365Y-653013398D01*
X139525016Y-653014404D01*
X139455652Y-653029148D01*
X139448066Y-653030516D01*
X139164857Y-653072527D01*
X139159624Y-653073190D01*
X139083494Y-653081192D01*
X139076617Y-653081722D01*
X138751366Y-653097701D01*
X138745320Y-653097850D01*
X133502889Y-653099498D01*
X133497123Y-653099366D01*
X133169611Y-653084224D01*
X133163183Y-653083759D01*
X133088317Y-653076385D01*
X133083341Y-653075793D01*
X132796823Y-653035826D01*
X132789764Y-653034633D01*
X132721038Y-653020963D01*
X132716838Y-653020051D01*
X132429399Y-652952446D01*
X132421794Y-652950401D01*
X132364196Y-652932929D01*
X132360785Y-652931840D01*
X132316274Y-652916921D01*
X132070812Y-652834651D01*
X132062788Y-652831648D01*
X132023156Y-652815232D01*
X132020563Y-652814123D01*
X131906009Y-652763542D01*
X131724460Y-652683379D01*
X131716102Y-652679307D01*
X131706093Y-652673958D01*
X131704241Y-652672948D01*
X131517870Y-652569140D01*
X131399547Y-652503234D01*
X131389809Y-652497205D01*
X131094487Y-652294906D01*
X131085347Y-652288003D01*
X130809964Y-652059328D01*
X130801500Y-652051612D01*
X130548387Y-651798499D01*
X130540671Y-651790035D01*
X130488333Y-651727007D01*
X130311994Y-651514649D01*
X130305093Y-651505512D01*
X130102794Y-651210190D01*
X130096765Y-651200452D01*
X130012262Y-651048740D01*
X129927032Y-650895724D01*
X129926104Y-650894023D01*
X129920683Y-650883882D01*
X129916619Y-650875538D01*
X129785839Y-650579352D01*
X129784802Y-650576927D01*
X129768338Y-650537180D01*
X129765359Y-650529219D01*
X129668132Y-650239134D01*
X129667094Y-650235880D01*
X129649589Y-650178174D01*
X129647560Y-650170629D01*
X129579932Y-649883093D01*
X129579049Y-649879026D01*
X129565360Y-649810207D01*
X129564176Y-649803199D01*
X129524204Y-649516651D01*
X129523613Y-649511680D01*
X129516239Y-649436812D01*
X129515774Y-649430385D01*
X129511981Y-649348350D01*
X129500632Y-649102855D01*
X129500500Y-649097128D01*
X129500500Y-648675001D01*
X132277704Y-648675001D01*
X132277899Y-648677486D01*
X132323718Y-648835198D01*
X132407314Y-648976552D01*
X132407321Y-648976561D01*
X132523438Y-649092678D01*
X132523447Y-649092685D01*
X132664803Y-649176282D01*
X132664806Y-649176283D01*
X132822504Y-649222099D01*
X132822510Y-649222100D01*
X132859350Y-649224999D01*
X132859366Y-649225000D01*
X133262500Y-649225000D01*
X133262500Y-648675000D01*
X132277705Y-648675000D01*
X132277704Y-648675001D01*
X129500500Y-648675001D01*
X129500500Y-648174998D01*
X132277704Y-648174998D01*
X132277705Y-648175000D01*
X133262500Y-648175000D01*
X133262500Y-647625000D01*
X132859350Y-647625000D01*
X132822510Y-647627899D01*
X132822504Y-647627900D01*
X132664806Y-647673716D01*
X132664803Y-647673717D01*
X132523447Y-647757314D01*
X132523438Y-647757321D01*
X132407321Y-647873438D01*
X132407314Y-647873447D01*
X132323718Y-648014801D01*
X132277899Y-648172513D01*
X132277704Y-648174998D01*
X129500500Y-648174998D01*
X129500500Y-70124239D01*
X129503050Y-70115553D01*
X129501762Y-70106594D01*
X129512739Y-70082554D01*
X129520185Y-70057200D01*
X129527025Y-70051272D01*
X129530786Y-70043038D01*
X129553019Y-70028748D01*
X129572989Y-70011445D01*
X129583502Y-70009157D01*
X129589564Y-70005262D01*
X129624486Y-70000240D01*
X129775500Y-70000237D01*
X129842538Y-70019921D01*
G37*
%TD.AperFunction*%
%TA.AperFunction,Conductor*%
G36*
X132605703Y-587813963D02*
G01*
X132612181Y-587819995D01*
X133872172Y-589079986D01*
X133905657Y-589141309D01*
X133900673Y-589211001D01*
X133858801Y-589266934D01*
X133793337Y-589291351D01*
X133784491Y-589291667D01*
X133756836Y-589291667D01*
X133756836Y-589841667D01*
X134741631Y-589841667D01*
X134741631Y-589841665D01*
X134741436Y-589839182D01*
X134741304Y-589838457D01*
X134741347Y-589838046D01*
X134740939Y-589832858D01*
X134741901Y-589832782D01*
X134748616Y-589768971D01*
X134792335Y-589714469D01*
X134858579Y-589692255D01*
X134863235Y-589692166D01*
X135936292Y-589692166D01*
X136003331Y-589711851D01*
X136049086Y-589764655D01*
X136059030Y-589833813D01*
X136030005Y-589897369D01*
X136023973Y-589903847D01*
X135472971Y-590454848D01*
X135411648Y-590488333D01*
X135385290Y-590491167D01*
X134863284Y-590491167D01*
X134796245Y-590471482D01*
X134750490Y-590418678D01*
X134740546Y-590349520D01*
X134741305Y-590344873D01*
X134741436Y-590344154D01*
X134741631Y-590341668D01*
X134741631Y-590341667D01*
X133756836Y-590341667D01*
X133756836Y-590891667D01*
X134159970Y-590891667D01*
X134159985Y-590891666D01*
X134196825Y-590888767D01*
X134196831Y-590888766D01*
X134235241Y-590877607D01*
X134305110Y-590877806D01*
X134363780Y-590915748D01*
X134392624Y-590979386D01*
X134393836Y-590996682D01*
X134393836Y-591223184D01*
X134404628Y-591291324D01*
X134408690Y-591316971D01*
X134466286Y-591430009D01*
X134466288Y-591430011D01*
X134466290Y-591430014D01*
X134555988Y-591519712D01*
X134555990Y-591519713D01*
X134555994Y-591519717D01*
X134669030Y-591577312D01*
X134669034Y-591577314D01*
X134762811Y-591592166D01*
X134762817Y-591592167D01*
X134907336Y-591592166D01*
X134916021Y-591594716D01*
X134924983Y-591593428D01*
X134949020Y-591604405D01*
X134974375Y-591611850D01*
X134980303Y-591618692D01*
X134988539Y-591622453D01*
X135002825Y-591644684D01*
X135020130Y-591664654D01*
X135022417Y-591675169D01*
X135026313Y-591681231D01*
X135031336Y-591716166D01*
X135031336Y-591938778D01*
X135011651Y-592005817D01*
X134995017Y-592026459D01*
X134959493Y-592061982D01*
X134959488Y-592061988D01*
X134887017Y-592187511D01*
X134887016Y-592187515D01*
X134849500Y-592327525D01*
X134849500Y-592472475D01*
X134887016Y-592612485D01*
X134887017Y-592612488D01*
X134959488Y-592738011D01*
X134959490Y-592738013D01*
X134959491Y-592738015D01*
X135061985Y-592840509D01*
X135061986Y-592840510D01*
X135061988Y-592840511D01*
X135187511Y-592912982D01*
X135187512Y-592912982D01*
X135187515Y-592912984D01*
X135327525Y-592950500D01*
X135327528Y-592950500D01*
X135472472Y-592950500D01*
X135472475Y-592950500D01*
X135612485Y-592912984D01*
X135738015Y-592840509D01*
X135840509Y-592738015D01*
X135912984Y-592612485D01*
X135950500Y-592472475D01*
X135950500Y-592327525D01*
X135912984Y-592187515D01*
X135840509Y-592061985D01*
X135768654Y-591990130D01*
X135753949Y-591963199D01*
X135737359Y-591937384D01*
X135736467Y-591931181D01*
X135735170Y-591928806D01*
X135732336Y-591902449D01*
X135732336Y-591716166D01*
X135752021Y-591649127D01*
X135804825Y-591603372D01*
X135856336Y-591592166D01*
X136000853Y-591592166D01*
X136000854Y-591592166D01*
X136094640Y-591577313D01*
X136207678Y-591519717D01*
X136297386Y-591430009D01*
X136354982Y-591316971D01*
X136354982Y-591316969D01*
X136354983Y-591316968D01*
X136369835Y-591223191D01*
X136369836Y-591223186D01*
X136369835Y-590860149D01*
X136354982Y-590766363D01*
X136327644Y-590712710D01*
X136314748Y-590644044D01*
X136341024Y-590579303D01*
X136350439Y-590568745D01*
X138846819Y-588072366D01*
X138908142Y-588038881D01*
X138977834Y-588043865D01*
X139033767Y-588085737D01*
X139058184Y-588151201D01*
X139058500Y-588160047D01*
X139058500Y-645156955D01*
X139038815Y-645223994D01*
X139022181Y-645244636D01*
X136587180Y-647679636D01*
X136525857Y-647713121D01*
X136456165Y-647708137D01*
X136400232Y-647666265D01*
X136375815Y-647600801D01*
X136375499Y-647591978D01*
X136375499Y-647293482D01*
X136360646Y-647199696D01*
X136303050Y-647086658D01*
X136303046Y-647086654D01*
X136303045Y-647086652D01*
X136213347Y-646996954D01*
X136213344Y-646996952D01*
X136213342Y-646996950D01*
X136136517Y-646957805D01*
X136100301Y-646939352D01*
X136006524Y-646924500D01*
X136006519Y-646924500D01*
X135596176Y-646924500D01*
X135529137Y-646904815D01*
X135508495Y-646888181D01*
X132436819Y-643816505D01*
X132403334Y-643755182D01*
X132400500Y-643728824D01*
X132400500Y-590907385D01*
X132420185Y-590840346D01*
X132472989Y-590794591D01*
X132542147Y-590784647D01*
X132587622Y-590800653D01*
X132659143Y-590842951D01*
X132816840Y-590888766D01*
X132816846Y-590888767D01*
X132853686Y-590891666D01*
X132853702Y-590891667D01*
X133256836Y-590891667D01*
X133256836Y-589291667D01*
X132853686Y-589291667D01*
X132816846Y-589294566D01*
X132816840Y-589294567D01*
X132659142Y-589340383D01*
X132659139Y-589340384D01*
X132587621Y-589382680D01*
X132519897Y-589399863D01*
X132453634Y-589377703D01*
X132409871Y-589323237D01*
X132400500Y-589275948D01*
X132400500Y-587907676D01*
X132420185Y-587840637D01*
X132472989Y-587794882D01*
X132542147Y-587784938D01*
X132605703Y-587813963D01*
G37*
%TD.AperFunction*%
%TA.AperFunction,Conductor*%
G36*
X132605703Y-529513962D02*
G01*
X132612181Y-529519994D01*
X133838839Y-530746652D01*
X133872324Y-530807975D01*
X133867340Y-530877667D01*
X133825468Y-530933600D01*
X133760004Y-530958017D01*
X133757046Y-530958122D01*
X133756836Y-530958333D01*
X133756836Y-531508333D01*
X134741631Y-531508333D01*
X134741631Y-531508331D01*
X134741436Y-531505848D01*
X134741304Y-531505123D01*
X134741347Y-531504712D01*
X134740939Y-531499524D01*
X134741901Y-531499448D01*
X134748616Y-531435637D01*
X134792335Y-531381135D01*
X134858579Y-531358921D01*
X134863235Y-531358832D01*
X135936292Y-531358832D01*
X136003331Y-531378517D01*
X136049086Y-531431321D01*
X136059030Y-531500479D01*
X136030005Y-531564035D01*
X136023973Y-531570513D01*
X135472971Y-532121514D01*
X135411648Y-532154999D01*
X135385290Y-532157833D01*
X134863284Y-532157833D01*
X134796245Y-532138148D01*
X134750490Y-532085344D01*
X134740546Y-532016186D01*
X134741305Y-532011539D01*
X134741436Y-532010820D01*
X134741631Y-532008334D01*
X134741631Y-532008333D01*
X133756836Y-532008333D01*
X133756836Y-532558333D01*
X134159970Y-532558333D01*
X134159985Y-532558332D01*
X134196825Y-532555433D01*
X134196831Y-532555432D01*
X134235241Y-532544273D01*
X134305110Y-532544472D01*
X134363780Y-532582414D01*
X134392624Y-532646052D01*
X134393836Y-532663348D01*
X134393836Y-532889850D01*
X134404628Y-532957990D01*
X134408690Y-532983637D01*
X134466286Y-533096675D01*
X134466288Y-533096677D01*
X134466290Y-533096680D01*
X134555988Y-533186378D01*
X134555990Y-533186379D01*
X134555994Y-533186383D01*
X134669030Y-533243978D01*
X134669034Y-533243980D01*
X134762811Y-533258832D01*
X134762817Y-533258833D01*
X134907336Y-533258832D01*
X134916021Y-533261382D01*
X134924983Y-533260094D01*
X134949020Y-533271071D01*
X134974375Y-533278516D01*
X134980303Y-533285358D01*
X134988539Y-533289119D01*
X135002825Y-533311350D01*
X135020130Y-533331320D01*
X135022417Y-533341835D01*
X135026313Y-533347897D01*
X135031336Y-533382832D01*
X135031336Y-533438778D01*
X135011651Y-533505817D01*
X134995017Y-533526459D01*
X134959493Y-533561982D01*
X134959488Y-533561988D01*
X134887017Y-533687511D01*
X134887016Y-533687515D01*
X134849500Y-533827525D01*
X134849500Y-533972475D01*
X134887016Y-534112485D01*
X134887017Y-534112488D01*
X134959488Y-534238011D01*
X134959490Y-534238013D01*
X134959491Y-534238015D01*
X135061985Y-534340509D01*
X135061986Y-534340510D01*
X135061988Y-534340511D01*
X135187511Y-534412982D01*
X135187512Y-534412982D01*
X135187515Y-534412984D01*
X135327525Y-534450500D01*
X135327528Y-534450500D01*
X135472472Y-534450500D01*
X135472475Y-534450500D01*
X135612485Y-534412984D01*
X135738015Y-534340509D01*
X135840509Y-534238015D01*
X135912984Y-534112485D01*
X135950500Y-533972475D01*
X135950500Y-533827525D01*
X135912984Y-533687515D01*
X135840509Y-533561985D01*
X135768654Y-533490130D01*
X135753949Y-533463199D01*
X135737359Y-533437384D01*
X135736467Y-533431181D01*
X135735170Y-533428806D01*
X135732336Y-533402449D01*
X135732336Y-533382832D01*
X135752021Y-533315793D01*
X135804825Y-533270038D01*
X135856336Y-533258832D01*
X136000853Y-533258832D01*
X136000854Y-533258832D01*
X136094640Y-533243979D01*
X136207678Y-533186383D01*
X136297386Y-533096675D01*
X136354982Y-532983637D01*
X136354982Y-532983635D01*
X136354983Y-532983634D01*
X136369835Y-532889857D01*
X136369836Y-532889852D01*
X136369835Y-532526815D01*
X136354982Y-532433029D01*
X136327644Y-532379375D01*
X136314748Y-532310706D01*
X136341025Y-532245966D01*
X136350439Y-532235409D01*
X138545821Y-530040028D01*
X138607142Y-530006545D01*
X138676834Y-530011529D01*
X138732767Y-530053401D01*
X138757184Y-530118865D01*
X138757500Y-530127711D01*
X138757500Y-587118958D01*
X138737815Y-587185997D01*
X138721181Y-587206639D01*
X136581516Y-589346303D01*
X136520193Y-589379788D01*
X136450501Y-589374804D01*
X136394568Y-589332932D01*
X136370151Y-589267468D01*
X136369835Y-589258645D01*
X136369835Y-588960149D01*
X136354982Y-588866363D01*
X136297386Y-588753325D01*
X136297382Y-588753321D01*
X136297381Y-588753319D01*
X136207683Y-588663621D01*
X136207680Y-588663619D01*
X136207678Y-588663617D01*
X136130853Y-588624472D01*
X136094637Y-588606019D01*
X136000860Y-588591167D01*
X136000855Y-588591167D01*
X134850343Y-588591167D01*
X134783304Y-588571482D01*
X134762662Y-588554848D01*
X132436819Y-586229005D01*
X132403334Y-586167682D01*
X132400500Y-586141324D01*
X132400500Y-532574051D01*
X132420185Y-532507012D01*
X132472989Y-532461257D01*
X132542147Y-532451313D01*
X132587622Y-532467319D01*
X132659143Y-532509617D01*
X132816840Y-532555432D01*
X132816846Y-532555433D01*
X132853686Y-532558332D01*
X132853702Y-532558333D01*
X133256836Y-532558333D01*
X133256836Y-530958333D01*
X132853686Y-530958333D01*
X132816846Y-530961232D01*
X132816840Y-530961233D01*
X132659142Y-531007049D01*
X132659139Y-531007050D01*
X132587621Y-531049346D01*
X132519897Y-531066529D01*
X132453634Y-531044369D01*
X132409871Y-530989903D01*
X132400500Y-530942614D01*
X132400500Y-529607675D01*
X132420185Y-529540636D01*
X132472989Y-529494881D01*
X132542147Y-529484937D01*
X132605703Y-529513962D01*
G37*
%TD.AperFunction*%
%TA.AperFunction,Conductor*%
G36*
X132605703Y-471213962D02*
G01*
X132612181Y-471219994D01*
X133805506Y-472413319D01*
X133838991Y-472474642D01*
X133834007Y-472544334D01*
X133792135Y-472600267D01*
X133775283Y-472606552D01*
X133756836Y-472625000D01*
X133756836Y-473175000D01*
X134741631Y-473175000D01*
X134741631Y-473174998D01*
X134741436Y-473172515D01*
X134741304Y-473171790D01*
X134741347Y-473171379D01*
X134740939Y-473166191D01*
X134741901Y-473166115D01*
X134748616Y-473102304D01*
X134792335Y-473047802D01*
X134858579Y-473025588D01*
X134863235Y-473025499D01*
X135936292Y-473025499D01*
X136003331Y-473045184D01*
X136049086Y-473097988D01*
X136059030Y-473167146D01*
X136030005Y-473230702D01*
X136023973Y-473237180D01*
X135472971Y-473788181D01*
X135411648Y-473821666D01*
X135385290Y-473824500D01*
X134863284Y-473824500D01*
X134796245Y-473804815D01*
X134750490Y-473752011D01*
X134740546Y-473682853D01*
X134741305Y-473678206D01*
X134741436Y-473677487D01*
X134741631Y-473675001D01*
X134741631Y-473675000D01*
X133756836Y-473675000D01*
X133756836Y-474225000D01*
X134159970Y-474225000D01*
X134159985Y-474224999D01*
X134196825Y-474222100D01*
X134196831Y-474222099D01*
X134235241Y-474210940D01*
X134305110Y-474211139D01*
X134363780Y-474249081D01*
X134392624Y-474312719D01*
X134393836Y-474330015D01*
X134393836Y-474556517D01*
X134404628Y-474624657D01*
X134408690Y-474650304D01*
X134466286Y-474763342D01*
X134466288Y-474763344D01*
X134466290Y-474763347D01*
X134555988Y-474853045D01*
X134555990Y-474853046D01*
X134555994Y-474853050D01*
X134669030Y-474910645D01*
X134669034Y-474910647D01*
X134762811Y-474925499D01*
X134762817Y-474925500D01*
X134896614Y-474925499D01*
X134963653Y-474945183D01*
X135009408Y-474997987D01*
X135019352Y-475067145D01*
X134990328Y-475130701D01*
X134984297Y-475137179D01*
X134959488Y-475161988D01*
X134887017Y-475287511D01*
X134887016Y-475287515D01*
X134849500Y-475427525D01*
X134849500Y-475572475D01*
X134887016Y-475712485D01*
X134887017Y-475712488D01*
X134959488Y-475838011D01*
X134959490Y-475838013D01*
X134959491Y-475838015D01*
X135061985Y-475940509D01*
X135061986Y-475940510D01*
X135061988Y-475940511D01*
X135187511Y-476012982D01*
X135187512Y-476012982D01*
X135187515Y-476012984D01*
X135327525Y-476050500D01*
X135327528Y-476050500D01*
X135472472Y-476050500D01*
X135472475Y-476050500D01*
X135612485Y-476012984D01*
X135738015Y-475940509D01*
X135840509Y-475838015D01*
X135912984Y-475712485D01*
X135950500Y-475572475D01*
X135950500Y-475427525D01*
X135912984Y-475287515D01*
X135840509Y-475161985D01*
X135815703Y-475137179D01*
X135782219Y-475075857D01*
X135787203Y-475006165D01*
X135829075Y-474950232D01*
X135894539Y-474925815D01*
X135903385Y-474925499D01*
X136000853Y-474925499D01*
X136000854Y-474925499D01*
X136094640Y-474910646D01*
X136207678Y-474853050D01*
X136297386Y-474763342D01*
X136354982Y-474650304D01*
X136354982Y-474650302D01*
X136354983Y-474650301D01*
X136369835Y-474556524D01*
X136369836Y-474556519D01*
X136369835Y-474193482D01*
X136354982Y-474099696D01*
X136327644Y-474046043D01*
X136314748Y-473977377D01*
X136341024Y-473912636D01*
X136350439Y-473902078D01*
X138244819Y-472007699D01*
X138306142Y-471974214D01*
X138375834Y-471979198D01*
X138431767Y-472021070D01*
X138456184Y-472086534D01*
X138456500Y-472095380D01*
X138456500Y-529086624D01*
X138436815Y-529153663D01*
X138420181Y-529174305D01*
X136581516Y-531012969D01*
X136520193Y-531046454D01*
X136450501Y-531041470D01*
X136394568Y-530999598D01*
X136370151Y-530934134D01*
X136369835Y-530925311D01*
X136369835Y-530626815D01*
X136354982Y-530533029D01*
X136297386Y-530419991D01*
X136297382Y-530419987D01*
X136297381Y-530419985D01*
X136207683Y-530330287D01*
X136207680Y-530330285D01*
X136207678Y-530330283D01*
X136130853Y-530291138D01*
X136094637Y-530272685D01*
X136000860Y-530257833D01*
X136000855Y-530257833D01*
X134817009Y-530257833D01*
X134749970Y-530238148D01*
X134729328Y-530221514D01*
X132436819Y-527929005D01*
X132403334Y-527867682D01*
X132400500Y-527841324D01*
X132400500Y-474240718D01*
X132420185Y-474173679D01*
X132472989Y-474127924D01*
X132542147Y-474117980D01*
X132587622Y-474133986D01*
X132659143Y-474176284D01*
X132816840Y-474222099D01*
X132816846Y-474222100D01*
X132853686Y-474224999D01*
X132853702Y-474225000D01*
X133256836Y-474225000D01*
X133256836Y-472625000D01*
X132853686Y-472625000D01*
X132816846Y-472627899D01*
X132816840Y-472627900D01*
X132659142Y-472673716D01*
X132659139Y-472673717D01*
X132587621Y-472716013D01*
X132519897Y-472733196D01*
X132453634Y-472711036D01*
X132409871Y-472656570D01*
X132400500Y-472609281D01*
X132400500Y-471307675D01*
X132420185Y-471240636D01*
X132472989Y-471194881D01*
X132542147Y-471184937D01*
X132605703Y-471213962D01*
G37*
%TD.AperFunction*%
%TA.AperFunction,Conductor*%
G36*
X132605703Y-412913962D02*
G01*
X132612181Y-412919994D01*
X133805506Y-414113319D01*
X133838991Y-414174642D01*
X133834007Y-414244334D01*
X133792135Y-414300267D01*
X133784317Y-414303182D01*
X133762500Y-414325000D01*
X133762500Y-414875000D01*
X134747295Y-414875000D01*
X134747295Y-414874998D01*
X134747100Y-414872515D01*
X134746968Y-414871790D01*
X134747011Y-414871379D01*
X134746603Y-414866191D01*
X134747565Y-414866115D01*
X134754280Y-414802304D01*
X134797999Y-414747802D01*
X134864243Y-414725588D01*
X134868899Y-414725499D01*
X135941956Y-414725499D01*
X136008995Y-414745184D01*
X136054750Y-414797988D01*
X136064694Y-414867146D01*
X136035669Y-414930702D01*
X136029637Y-414937180D01*
X135478635Y-415488181D01*
X135417312Y-415521666D01*
X135390954Y-415524500D01*
X134868948Y-415524500D01*
X134801909Y-415504815D01*
X134756154Y-415452011D01*
X134746210Y-415382853D01*
X134746969Y-415378206D01*
X134747100Y-415377487D01*
X134747295Y-415375001D01*
X134747295Y-415375000D01*
X133762500Y-415375000D01*
X133762500Y-415925000D01*
X134165634Y-415925000D01*
X134165649Y-415924999D01*
X134202489Y-415922100D01*
X134202495Y-415922099D01*
X134240905Y-415910940D01*
X134310774Y-415911139D01*
X134369444Y-415949081D01*
X134398288Y-416012719D01*
X134399500Y-416030015D01*
X134399500Y-416256517D01*
X134410292Y-416324657D01*
X134414354Y-416350304D01*
X134471950Y-416463342D01*
X134471952Y-416463344D01*
X134471954Y-416463347D01*
X134561652Y-416553045D01*
X134561654Y-416553046D01*
X134561658Y-416553050D01*
X134674694Y-416610645D01*
X134674698Y-416610647D01*
X134768475Y-416625499D01*
X134768481Y-416625500D01*
X134913000Y-416625499D01*
X134921685Y-416628049D01*
X134930647Y-416626761D01*
X134954684Y-416637738D01*
X134980039Y-416645183D01*
X134985967Y-416652025D01*
X134994203Y-416655786D01*
X135008489Y-416678017D01*
X135025794Y-416697987D01*
X135028081Y-416708502D01*
X135031977Y-416714564D01*
X135037000Y-416749499D01*
X135037000Y-416833114D01*
X135017315Y-416900153D01*
X135000681Y-416920795D01*
X134959493Y-416961982D01*
X134959488Y-416961988D01*
X134887017Y-417087511D01*
X134887016Y-417087515D01*
X134849500Y-417227525D01*
X134849500Y-417372475D01*
X134887016Y-417512485D01*
X134887017Y-417512488D01*
X134959488Y-417638011D01*
X134959490Y-417638013D01*
X134959491Y-417638015D01*
X135061985Y-417740509D01*
X135061986Y-417740510D01*
X135061988Y-417740511D01*
X135187511Y-417812982D01*
X135187512Y-417812982D01*
X135187515Y-417812984D01*
X135327525Y-417850500D01*
X135327528Y-417850500D01*
X135472472Y-417850500D01*
X135472475Y-417850500D01*
X135612485Y-417812984D01*
X135738015Y-417740509D01*
X135840509Y-417638015D01*
X135912984Y-417512485D01*
X135950500Y-417372475D01*
X135950500Y-417227525D01*
X135912984Y-417087515D01*
X135840509Y-416961985D01*
X135774318Y-416895794D01*
X135759613Y-416868863D01*
X135743023Y-416843048D01*
X135742131Y-416836845D01*
X135740834Y-416834470D01*
X135738000Y-416808113D01*
X135738000Y-416749499D01*
X135757685Y-416682460D01*
X135810489Y-416636705D01*
X135862000Y-416625499D01*
X136006517Y-416625499D01*
X136006518Y-416625499D01*
X136100304Y-416610646D01*
X136213342Y-416553050D01*
X136303050Y-416463342D01*
X136360646Y-416350304D01*
X136360646Y-416350302D01*
X136360647Y-416350301D01*
X136375499Y-416256524D01*
X136375500Y-416256519D01*
X136375499Y-415893482D01*
X136360646Y-415799696D01*
X136333308Y-415746043D01*
X136320412Y-415677377D01*
X136346688Y-415612636D01*
X136356103Y-415602078D01*
X137943819Y-414014363D01*
X138005142Y-413980878D01*
X138074834Y-413985862D01*
X138130767Y-414027734D01*
X138155184Y-414093198D01*
X138155500Y-414102044D01*
X138155500Y-471054291D01*
X138135815Y-471121330D01*
X138119181Y-471141972D01*
X136581516Y-472679636D01*
X136520193Y-472713121D01*
X136450501Y-472708137D01*
X136394568Y-472666265D01*
X136370151Y-472600801D01*
X136369835Y-472591978D01*
X136369835Y-472293482D01*
X136354982Y-472199696D01*
X136297386Y-472086658D01*
X136297382Y-472086654D01*
X136297381Y-472086652D01*
X136207683Y-471996954D01*
X136207680Y-471996952D01*
X136207678Y-471996950D01*
X136130853Y-471957805D01*
X136094637Y-471939352D01*
X136000860Y-471924500D01*
X134783675Y-471924500D01*
X134716636Y-471904815D01*
X134695994Y-471888181D01*
X132436819Y-469629005D01*
X132403334Y-469567682D01*
X132400500Y-469541324D01*
X132400500Y-415937369D01*
X132420185Y-415870330D01*
X132472989Y-415824575D01*
X132542147Y-415814631D01*
X132587621Y-415830637D01*
X132664803Y-415876282D01*
X132664806Y-415876283D01*
X132822504Y-415922099D01*
X132822510Y-415922100D01*
X132859350Y-415924999D01*
X132859366Y-415925000D01*
X133262500Y-415925000D01*
X133262500Y-414325000D01*
X132859350Y-414325000D01*
X132822510Y-414327899D01*
X132822504Y-414327900D01*
X132664806Y-414373716D01*
X132664805Y-414373716D01*
X132587620Y-414419363D01*
X132519896Y-414436545D01*
X132453634Y-414414384D01*
X132409871Y-414359918D01*
X132400500Y-414312630D01*
X132400500Y-413007675D01*
X132420185Y-412940636D01*
X132472989Y-412894881D01*
X132542147Y-412884937D01*
X132605703Y-412913962D01*
G37*
%TD.AperFunction*%
%TA.AperFunction,Conductor*%
G36*
X132605703Y-354613962D02*
G01*
X132612181Y-354619994D01*
X133805506Y-355813319D01*
X133838991Y-355874642D01*
X133834007Y-355944334D01*
X133792135Y-356000267D01*
X133784317Y-356003182D01*
X133762500Y-356025000D01*
X133762500Y-356575000D01*
X134747295Y-356575000D01*
X134747295Y-356574998D01*
X134747100Y-356572515D01*
X134746968Y-356571790D01*
X134747011Y-356571379D01*
X134746603Y-356566191D01*
X134747565Y-356566115D01*
X134754280Y-356502304D01*
X134797999Y-356447802D01*
X134864243Y-356425588D01*
X134868899Y-356425499D01*
X135869625Y-356425499D01*
X135936664Y-356445184D01*
X135982419Y-356497988D01*
X135992363Y-356567146D01*
X135963338Y-356630702D01*
X135957306Y-356637180D01*
X135406304Y-357188181D01*
X135344981Y-357221666D01*
X135318623Y-357224500D01*
X134868948Y-357224500D01*
X134801909Y-357204815D01*
X134756154Y-357152011D01*
X134746210Y-357082853D01*
X134746969Y-357078206D01*
X134747100Y-357077487D01*
X134747295Y-357075001D01*
X134747295Y-357075000D01*
X133762500Y-357075000D01*
X133762500Y-357625000D01*
X134165634Y-357625000D01*
X134165649Y-357624999D01*
X134202489Y-357622100D01*
X134202495Y-357622099D01*
X134240905Y-357610940D01*
X134310774Y-357611139D01*
X134369444Y-357649081D01*
X134398288Y-357712719D01*
X134399500Y-357730015D01*
X134399500Y-357956517D01*
X134410292Y-358024657D01*
X134414354Y-358050304D01*
X134471950Y-358163342D01*
X134471952Y-358163344D01*
X134471954Y-358163347D01*
X134561652Y-358253045D01*
X134561654Y-358253046D01*
X134561658Y-358253050D01*
X134674696Y-358310646D01*
X134674697Y-358310646D01*
X134674699Y-358310647D01*
X134745862Y-358321918D01*
X134808997Y-358351847D01*
X134845929Y-358411158D01*
X134844931Y-358481021D01*
X134833852Y-358506391D01*
X134787017Y-358587511D01*
X134787016Y-358587515D01*
X134749500Y-358727525D01*
X134749500Y-358872475D01*
X134787016Y-359012485D01*
X134787017Y-359012488D01*
X134859488Y-359138011D01*
X134859490Y-359138013D01*
X134859491Y-359138015D01*
X134961985Y-359240509D01*
X134961986Y-359240510D01*
X134961988Y-359240511D01*
X135087511Y-359312982D01*
X135087512Y-359312982D01*
X135087515Y-359312984D01*
X135227525Y-359350500D01*
X135227528Y-359350500D01*
X135372472Y-359350500D01*
X135372475Y-359350500D01*
X135512485Y-359312984D01*
X135638015Y-359240509D01*
X135740509Y-359138015D01*
X135812984Y-359012485D01*
X135850500Y-358872475D01*
X135850500Y-358727525D01*
X135812984Y-358587515D01*
X135769095Y-358511498D01*
X135752623Y-358443600D01*
X135775475Y-358377573D01*
X135830396Y-358334382D01*
X135876483Y-358325499D01*
X136006517Y-358325499D01*
X136006518Y-358325499D01*
X136100304Y-358310646D01*
X136213342Y-358253050D01*
X136303050Y-358163342D01*
X136360646Y-358050304D01*
X136360646Y-358050302D01*
X136360647Y-358050301D01*
X136375499Y-357956524D01*
X136375500Y-357956519D01*
X136375499Y-357593482D01*
X136360646Y-357499696D01*
X136308892Y-357398124D01*
X136295997Y-357329459D01*
X136322273Y-357264719D01*
X136331688Y-357254161D01*
X137642820Y-355943029D01*
X137704142Y-355909546D01*
X137773834Y-355914530D01*
X137829767Y-355956402D01*
X137854184Y-356021866D01*
X137854500Y-356030712D01*
X137854500Y-413060955D01*
X137834815Y-413127994D01*
X137818181Y-413148636D01*
X136587180Y-414379636D01*
X136525857Y-414413121D01*
X136456165Y-414408137D01*
X136400232Y-414366265D01*
X136375815Y-414300801D01*
X136375499Y-414291978D01*
X136375499Y-413993482D01*
X136360646Y-413899696D01*
X136303050Y-413786658D01*
X136303046Y-413786654D01*
X136303045Y-413786652D01*
X136213347Y-413696954D01*
X136213344Y-413696952D01*
X136213342Y-413696950D01*
X136136517Y-413657805D01*
X136100301Y-413639352D01*
X136006524Y-413624500D01*
X134783676Y-413624500D01*
X134716637Y-413604815D01*
X134695995Y-413588181D01*
X132436819Y-411329005D01*
X132403334Y-411267682D01*
X132400500Y-411241324D01*
X132400500Y-357637369D01*
X132420185Y-357570330D01*
X132472989Y-357524575D01*
X132542147Y-357514631D01*
X132587621Y-357530637D01*
X132664803Y-357576282D01*
X132664806Y-357576283D01*
X132822504Y-357622099D01*
X132822510Y-357622100D01*
X132859350Y-357624999D01*
X132859366Y-357625000D01*
X133262500Y-357625000D01*
X133262500Y-356025000D01*
X132859350Y-356025000D01*
X132822510Y-356027899D01*
X132822504Y-356027900D01*
X132664806Y-356073716D01*
X132664805Y-356073716D01*
X132587620Y-356119363D01*
X132519896Y-356136545D01*
X132453634Y-356114384D01*
X132409871Y-356059918D01*
X132400500Y-356012630D01*
X132400500Y-354707675D01*
X132420185Y-354640636D01*
X132472989Y-354594881D01*
X132542147Y-354584937D01*
X132605703Y-354613962D01*
G37*
%TD.AperFunction*%
%TA.AperFunction,Conductor*%
G36*
X132605703Y-296213962D02*
G01*
X132612181Y-296219994D01*
X133805506Y-297413319D01*
X133838991Y-297474642D01*
X133834007Y-297544334D01*
X133792135Y-297600267D01*
X133775283Y-297606552D01*
X133756836Y-297625000D01*
X133756836Y-298175000D01*
X134741631Y-298175000D01*
X134741631Y-298174998D01*
X134741436Y-298172515D01*
X134741304Y-298171790D01*
X134741347Y-298171379D01*
X134740939Y-298166191D01*
X134741901Y-298166115D01*
X134748616Y-298102304D01*
X134792335Y-298047802D01*
X134858579Y-298025588D01*
X134863235Y-298025499D01*
X135936292Y-298025499D01*
X136003331Y-298045184D01*
X136049086Y-298097988D01*
X136059030Y-298167146D01*
X136030005Y-298230702D01*
X136023973Y-298237180D01*
X135472971Y-298788181D01*
X135411648Y-298821666D01*
X135385290Y-298824500D01*
X134863284Y-298824500D01*
X134796245Y-298804815D01*
X134750490Y-298752011D01*
X134740546Y-298682853D01*
X134741305Y-298678206D01*
X134741436Y-298677487D01*
X134741631Y-298675001D01*
X134741631Y-298675000D01*
X133756836Y-298675000D01*
X133756836Y-299225000D01*
X134159970Y-299225000D01*
X134159985Y-299224999D01*
X134196825Y-299222100D01*
X134196831Y-299222099D01*
X134235241Y-299210940D01*
X134305110Y-299211139D01*
X134363780Y-299249081D01*
X134392624Y-299312719D01*
X134393836Y-299330015D01*
X134393836Y-299556517D01*
X134404628Y-299624657D01*
X134408690Y-299650304D01*
X134466286Y-299763342D01*
X134466288Y-299763344D01*
X134466290Y-299763347D01*
X134555988Y-299853045D01*
X134555990Y-299853046D01*
X134555994Y-299853050D01*
X134669030Y-299910645D01*
X134669034Y-299910647D01*
X134762811Y-299925499D01*
X134762817Y-299925500D01*
X134823516Y-299925499D01*
X134890554Y-299945183D01*
X134936310Y-299997986D01*
X134946254Y-300067144D01*
X134930903Y-300111499D01*
X134887017Y-300187511D01*
X134887016Y-300187515D01*
X134849500Y-300327525D01*
X134849500Y-300472475D01*
X134887016Y-300612485D01*
X134887017Y-300612488D01*
X134959488Y-300738011D01*
X134959490Y-300738013D01*
X134959491Y-300738015D01*
X135061985Y-300840509D01*
X135061986Y-300840510D01*
X135061988Y-300840511D01*
X135187511Y-300912982D01*
X135187512Y-300912982D01*
X135187515Y-300912984D01*
X135327525Y-300950500D01*
X135327528Y-300950500D01*
X135472472Y-300950500D01*
X135472475Y-300950500D01*
X135612485Y-300912984D01*
X135738015Y-300840509D01*
X135840509Y-300738015D01*
X135912984Y-300612485D01*
X135950500Y-300472475D01*
X135950500Y-300327525D01*
X135912984Y-300187515D01*
X135869095Y-300111498D01*
X135852623Y-300043600D01*
X135875475Y-299977573D01*
X135930396Y-299934382D01*
X135976483Y-299925499D01*
X136000853Y-299925499D01*
X136000854Y-299925499D01*
X136094640Y-299910646D01*
X136207678Y-299853050D01*
X136297386Y-299763342D01*
X136354982Y-299650304D01*
X136354982Y-299650302D01*
X136354983Y-299650301D01*
X136369835Y-299556524D01*
X136369836Y-299556519D01*
X136369835Y-299193482D01*
X136354982Y-299099696D01*
X136327644Y-299046042D01*
X136314748Y-298977373D01*
X136341025Y-298912633D01*
X136350439Y-298902076D01*
X137341820Y-297910695D01*
X137403142Y-297877212D01*
X137472834Y-297882196D01*
X137528767Y-297924068D01*
X137553184Y-297989532D01*
X137553500Y-297998378D01*
X137553500Y-354989624D01*
X137533815Y-355056663D01*
X137517181Y-355077305D01*
X136587180Y-356007305D01*
X136525857Y-356040790D01*
X136456165Y-356035806D01*
X136400232Y-355993934D01*
X136375815Y-355928470D01*
X136375499Y-355919641D01*
X136375499Y-355693482D01*
X136360646Y-355599696D01*
X136303050Y-355486658D01*
X136303046Y-355486654D01*
X136303045Y-355486652D01*
X136213347Y-355396954D01*
X136213344Y-355396952D01*
X136213342Y-355396950D01*
X136136517Y-355357805D01*
X136100301Y-355339352D01*
X136006524Y-355324500D01*
X134783676Y-355324500D01*
X134716637Y-355304815D01*
X134695995Y-355288181D01*
X132436819Y-353029005D01*
X132403334Y-352967682D01*
X132400500Y-352941324D01*
X132400500Y-299240718D01*
X132420185Y-299173679D01*
X132472989Y-299127924D01*
X132542147Y-299117980D01*
X132587622Y-299133986D01*
X132659143Y-299176284D01*
X132816840Y-299222099D01*
X132816846Y-299222100D01*
X132853686Y-299224999D01*
X132853702Y-299225000D01*
X133256836Y-299225000D01*
X133256836Y-297625000D01*
X132853686Y-297625000D01*
X132816846Y-297627899D01*
X132816840Y-297627900D01*
X132659142Y-297673716D01*
X132659139Y-297673717D01*
X132587621Y-297716013D01*
X132519897Y-297733196D01*
X132453634Y-297711036D01*
X132409871Y-297656570D01*
X132400500Y-297609281D01*
X132400500Y-296307675D01*
X132420185Y-296240636D01*
X132472989Y-296194881D01*
X132542147Y-296184937D01*
X132605703Y-296213962D01*
G37*
%TD.AperFunction*%
%TA.AperFunction,Conductor*%
G36*
X132605703Y-237913962D02*
G01*
X132612181Y-237919994D01*
X133782664Y-239090477D01*
X133816149Y-239151800D01*
X133811165Y-239221492D01*
X133782664Y-239265839D01*
X133756836Y-239291667D01*
X133756836Y-239841667D01*
X134741631Y-239841667D01*
X134741631Y-239841665D01*
X134741436Y-239839182D01*
X134741304Y-239838457D01*
X134741347Y-239838046D01*
X134740939Y-239832858D01*
X134741901Y-239832782D01*
X134748616Y-239768971D01*
X134792335Y-239714469D01*
X134858579Y-239692255D01*
X134863235Y-239692166D01*
X135936292Y-239692166D01*
X136003331Y-239711851D01*
X136049086Y-239764655D01*
X136059030Y-239833813D01*
X136030005Y-239897369D01*
X136023973Y-239903847D01*
X135472971Y-240454848D01*
X135411648Y-240488333D01*
X135385290Y-240491167D01*
X134863284Y-240491167D01*
X134796245Y-240471482D01*
X134750490Y-240418678D01*
X134740546Y-240349520D01*
X134741305Y-240344873D01*
X134741436Y-240344154D01*
X134741631Y-240341668D01*
X134741631Y-240341667D01*
X133756836Y-240341667D01*
X133756836Y-240891667D01*
X134159970Y-240891667D01*
X134159985Y-240891666D01*
X134196825Y-240888767D01*
X134196831Y-240888766D01*
X134235241Y-240877607D01*
X134305110Y-240877806D01*
X134363780Y-240915748D01*
X134392624Y-240979386D01*
X134393836Y-240996682D01*
X134393836Y-241223184D01*
X134404628Y-241291324D01*
X134408690Y-241316971D01*
X134466286Y-241430009D01*
X134466288Y-241430011D01*
X134466290Y-241430014D01*
X134555988Y-241519712D01*
X134555997Y-241519719D01*
X134660275Y-241572852D01*
X134711071Y-241620826D01*
X134727866Y-241688647D01*
X134711368Y-241745335D01*
X134687017Y-241787512D01*
X134687016Y-241787514D01*
X134687016Y-241787515D01*
X134649500Y-241927525D01*
X134649500Y-242072475D01*
X134687016Y-242212485D01*
X134687017Y-242212488D01*
X134759488Y-242338011D01*
X134759490Y-242338013D01*
X134759491Y-242338015D01*
X134861985Y-242440509D01*
X134861986Y-242440510D01*
X134861988Y-242440511D01*
X134987511Y-242512982D01*
X134987512Y-242512982D01*
X134987515Y-242512984D01*
X135127525Y-242550500D01*
X135127528Y-242550500D01*
X135272472Y-242550500D01*
X135272475Y-242550500D01*
X135412485Y-242512984D01*
X135538015Y-242440509D01*
X135640509Y-242338015D01*
X135712984Y-242212485D01*
X135750500Y-242072475D01*
X135750500Y-241927525D01*
X135723281Y-241825948D01*
X135722776Y-241815025D01*
X135719895Y-241808247D01*
X135721465Y-241786698D01*
X135720830Y-241772966D01*
X135721796Y-241767312D01*
X135732336Y-241727980D01*
X135732336Y-241705648D01*
X135734109Y-241695275D01*
X135745022Y-241672959D01*
X135752021Y-241649127D01*
X135760104Y-241642122D01*
X135764806Y-241632510D01*
X135786055Y-241619635D01*
X135804825Y-241603372D01*
X135817423Y-241600631D01*
X135824564Y-241596305D01*
X135835925Y-241596606D01*
X135856336Y-241592166D01*
X136000853Y-241592166D01*
X136000854Y-241592166D01*
X136094640Y-241577313D01*
X136207678Y-241519717D01*
X136297386Y-241430009D01*
X136354982Y-241316971D01*
X136354982Y-241316969D01*
X136354983Y-241316968D01*
X136369835Y-241223191D01*
X136369836Y-241223186D01*
X136369835Y-240860149D01*
X136354982Y-240766363D01*
X136327644Y-240712710D01*
X136314748Y-240644044D01*
X136341024Y-240579303D01*
X136350439Y-240568745D01*
X137040819Y-239878366D01*
X137102142Y-239844881D01*
X137171834Y-239849865D01*
X137227767Y-239891737D01*
X137252184Y-239957201D01*
X137252500Y-239966047D01*
X137252500Y-296957291D01*
X137232815Y-297024330D01*
X137216181Y-297044972D01*
X136581516Y-297679636D01*
X136520193Y-297713121D01*
X136450501Y-297708137D01*
X136394568Y-297666265D01*
X136370151Y-297600801D01*
X136369835Y-297591978D01*
X136369835Y-297293482D01*
X136354982Y-297199696D01*
X136297386Y-297086658D01*
X136297382Y-297086654D01*
X136297381Y-297086652D01*
X136207683Y-296996954D01*
X136207680Y-296996952D01*
X136207678Y-296996950D01*
X136129843Y-296957291D01*
X136094637Y-296939352D01*
X136000860Y-296924500D01*
X134783675Y-296924500D01*
X134716636Y-296904815D01*
X134695994Y-296888181D01*
X132436819Y-294629005D01*
X132403334Y-294567682D01*
X132400500Y-294541324D01*
X132400500Y-240907385D01*
X132420185Y-240840346D01*
X132472989Y-240794591D01*
X132542147Y-240784647D01*
X132587622Y-240800653D01*
X132659143Y-240842951D01*
X132816840Y-240888766D01*
X132816846Y-240888767D01*
X132853686Y-240891666D01*
X132853702Y-240891667D01*
X133256836Y-240891667D01*
X133256836Y-239291667D01*
X132853686Y-239291667D01*
X132816846Y-239294566D01*
X132816840Y-239294567D01*
X132659142Y-239340383D01*
X132659139Y-239340384D01*
X132587621Y-239382680D01*
X132519897Y-239399863D01*
X132453634Y-239377703D01*
X132409871Y-239323237D01*
X132400500Y-239275948D01*
X132400500Y-238007675D01*
X132420185Y-237940636D01*
X132472989Y-237894881D01*
X132542147Y-237884937D01*
X132605703Y-237913962D01*
G37*
%TD.AperFunction*%
%TA.AperFunction,Conductor*%
G36*
X132605703Y-179713963D02*
G01*
X132612181Y-179719995D01*
X133720517Y-180828331D01*
X133754002Y-180889654D01*
X133756836Y-180916012D01*
X133756836Y-181508333D01*
X134741631Y-181508333D01*
X134741631Y-181508331D01*
X134741436Y-181505848D01*
X134741304Y-181505123D01*
X134741347Y-181504712D01*
X134740939Y-181499524D01*
X134741901Y-181499448D01*
X134748616Y-181435637D01*
X134792335Y-181381135D01*
X134858579Y-181358921D01*
X134863235Y-181358832D01*
X135936292Y-181358832D01*
X136003331Y-181378517D01*
X136049086Y-181431321D01*
X136059030Y-181500479D01*
X136030005Y-181564035D01*
X136023973Y-181570513D01*
X135472971Y-182121514D01*
X135411648Y-182154999D01*
X135385290Y-182157833D01*
X134863284Y-182157833D01*
X134796245Y-182138148D01*
X134750490Y-182085344D01*
X134740546Y-182016186D01*
X134741305Y-182011539D01*
X134741436Y-182010820D01*
X134741631Y-182008334D01*
X134741631Y-182008333D01*
X133756836Y-182008333D01*
X133756836Y-182558333D01*
X134159970Y-182558333D01*
X134159985Y-182558332D01*
X134196825Y-182555433D01*
X134196831Y-182555432D01*
X134235241Y-182544273D01*
X134305110Y-182544472D01*
X134363780Y-182582414D01*
X134392624Y-182646052D01*
X134393836Y-182663348D01*
X134393836Y-182889850D01*
X134404628Y-182957990D01*
X134408690Y-182983637D01*
X134466286Y-183096675D01*
X134466288Y-183096677D01*
X134466290Y-183096680D01*
X134555988Y-183186378D01*
X134555990Y-183186379D01*
X134555994Y-183186383D01*
X134669030Y-183243978D01*
X134669034Y-183243980D01*
X134762811Y-183258832D01*
X134762817Y-183258833D01*
X134907336Y-183258832D01*
X134916021Y-183261382D01*
X134924983Y-183260094D01*
X134949020Y-183271071D01*
X134974375Y-183278516D01*
X134980303Y-183285358D01*
X134988539Y-183289119D01*
X135002825Y-183311350D01*
X135020130Y-183331320D01*
X135022417Y-183341835D01*
X135026313Y-183347897D01*
X135031336Y-183382832D01*
X135031336Y-183538778D01*
X135011651Y-183605817D01*
X134995017Y-183626459D01*
X134959493Y-183661982D01*
X134959488Y-183661988D01*
X134887017Y-183787511D01*
X134887016Y-183787515D01*
X134849500Y-183927525D01*
X134849500Y-184072475D01*
X134887016Y-184212485D01*
X134887017Y-184212488D01*
X134959488Y-184338011D01*
X134959490Y-184338013D01*
X134959491Y-184338015D01*
X135061985Y-184440509D01*
X135061986Y-184440510D01*
X135061988Y-184440511D01*
X135187511Y-184512982D01*
X135187512Y-184512982D01*
X135187515Y-184512984D01*
X135327525Y-184550500D01*
X135327528Y-184550500D01*
X135472472Y-184550500D01*
X135472475Y-184550500D01*
X135612485Y-184512984D01*
X135738015Y-184440509D01*
X135840509Y-184338015D01*
X135912984Y-184212485D01*
X135950500Y-184072475D01*
X135950500Y-183927525D01*
X135912984Y-183787515D01*
X135840509Y-183661985D01*
X135768654Y-183590130D01*
X135753949Y-183563199D01*
X135737359Y-183537384D01*
X135736467Y-183531181D01*
X135735170Y-183528806D01*
X135732336Y-183502449D01*
X135732336Y-183382832D01*
X135752021Y-183315793D01*
X135804825Y-183270038D01*
X135856336Y-183258832D01*
X136000853Y-183258832D01*
X136000854Y-183258832D01*
X136094640Y-183243979D01*
X136207678Y-183186383D01*
X136297386Y-183096675D01*
X136354982Y-182983637D01*
X136354982Y-182983635D01*
X136354983Y-182983634D01*
X136369835Y-182889857D01*
X136369836Y-182889852D01*
X136369835Y-182526815D01*
X136354982Y-182433029D01*
X136327644Y-182379376D01*
X136314748Y-182310710D01*
X136341024Y-182245969D01*
X136350439Y-182235411D01*
X136739819Y-181846032D01*
X136801142Y-181812547D01*
X136870834Y-181817531D01*
X136926767Y-181859403D01*
X136951184Y-181924867D01*
X136951500Y-181933713D01*
X136951500Y-238924958D01*
X136931815Y-238991997D01*
X136915181Y-239012639D01*
X136581516Y-239346303D01*
X136520193Y-239379788D01*
X136450501Y-239374804D01*
X136394568Y-239332932D01*
X136370151Y-239267468D01*
X136369835Y-239258645D01*
X136369835Y-238960149D01*
X136354982Y-238866363D01*
X136297386Y-238753325D01*
X136297382Y-238753321D01*
X136297381Y-238753319D01*
X136207683Y-238663621D01*
X136207680Y-238663619D01*
X136207678Y-238663617D01*
X136130853Y-238624472D01*
X136094637Y-238606019D01*
X136000860Y-238591167D01*
X134762812Y-238591167D01*
X134760611Y-238591341D01*
X134759787Y-238591167D01*
X134757947Y-238591168D01*
X134757947Y-238590781D01*
X134692236Y-238576969D01*
X134663216Y-238555403D01*
X132436819Y-236329005D01*
X132403334Y-236267682D01*
X132400500Y-236241324D01*
X132400500Y-182574051D01*
X132420185Y-182507012D01*
X132472989Y-182461257D01*
X132542147Y-182451313D01*
X132587622Y-182467319D01*
X132659143Y-182509617D01*
X132816840Y-182555432D01*
X132816846Y-182555433D01*
X132853686Y-182558332D01*
X132853702Y-182558333D01*
X133256836Y-182558333D01*
X133256836Y-180958333D01*
X132853686Y-180958333D01*
X132816846Y-180961232D01*
X132816840Y-180961233D01*
X132659142Y-181007049D01*
X132659139Y-181007050D01*
X132587621Y-181049346D01*
X132519897Y-181066529D01*
X132453634Y-181044369D01*
X132409871Y-180989903D01*
X132400500Y-180942614D01*
X132400500Y-179807676D01*
X132420185Y-179740637D01*
X132472989Y-179694882D01*
X132542147Y-179684938D01*
X132605703Y-179713963D01*
G37*
%TD.AperFunction*%
%TA.AperFunction,Conductor*%
G36*
X132605703Y-120401463D02*
G01*
X132612181Y-120407495D01*
X134368314Y-122163628D01*
X134401799Y-122224951D01*
X134403107Y-122270705D01*
X134399500Y-122293480D01*
X134399500Y-122519984D01*
X134379815Y-122587023D01*
X134327011Y-122632778D01*
X134257853Y-122642722D01*
X134240905Y-122639060D01*
X134202495Y-122627900D01*
X134202489Y-122627899D01*
X134165649Y-122625000D01*
X133762500Y-122625000D01*
X133762500Y-123175000D01*
X134747295Y-123175000D01*
X134747295Y-123174998D01*
X134747100Y-123172515D01*
X134746968Y-123171790D01*
X134747011Y-123171379D01*
X134746603Y-123166191D01*
X134747565Y-123166115D01*
X134754280Y-123102304D01*
X134797999Y-123047802D01*
X134864243Y-123025588D01*
X134868899Y-123025499D01*
X135941956Y-123025499D01*
X136008995Y-123045184D01*
X136054750Y-123097988D01*
X136064694Y-123167146D01*
X136035669Y-123230702D01*
X136029637Y-123237180D01*
X135478635Y-123788181D01*
X135417312Y-123821666D01*
X135390954Y-123824500D01*
X134868948Y-123824500D01*
X134801909Y-123804815D01*
X134756154Y-123752011D01*
X134746210Y-123682853D01*
X134746969Y-123678206D01*
X134747100Y-123677487D01*
X134747295Y-123675001D01*
X134747295Y-123675000D01*
X133762500Y-123675000D01*
X133762500Y-124225000D01*
X134165634Y-124225000D01*
X134165649Y-124224999D01*
X134202489Y-124222100D01*
X134202495Y-124222099D01*
X134240905Y-124210940D01*
X134310774Y-124211139D01*
X134369444Y-124249081D01*
X134398288Y-124312719D01*
X134399500Y-124330015D01*
X134399500Y-124556517D01*
X134410292Y-124624657D01*
X134414354Y-124650304D01*
X134471950Y-124763342D01*
X134471952Y-124763344D01*
X134471954Y-124763347D01*
X134561652Y-124853045D01*
X134561654Y-124853046D01*
X134561658Y-124853050D01*
X134674694Y-124910645D01*
X134674698Y-124910647D01*
X134768475Y-124925499D01*
X134768481Y-124925500D01*
X134823516Y-124925499D01*
X134890554Y-124945182D01*
X134936310Y-124997986D01*
X134946254Y-125067144D01*
X134930903Y-125111499D01*
X134887017Y-125187511D01*
X134887016Y-125187515D01*
X134849500Y-125327525D01*
X134849500Y-125472475D01*
X134887016Y-125612485D01*
X134887017Y-125612488D01*
X134959488Y-125738011D01*
X134959490Y-125738013D01*
X134959491Y-125738015D01*
X135061985Y-125840509D01*
X135061986Y-125840510D01*
X135061988Y-125840511D01*
X135187511Y-125912982D01*
X135187512Y-125912982D01*
X135187515Y-125912984D01*
X135327525Y-125950500D01*
X135327528Y-125950500D01*
X135472472Y-125950500D01*
X135472475Y-125950500D01*
X135612485Y-125912984D01*
X135738015Y-125840509D01*
X135840509Y-125738015D01*
X135912984Y-125612485D01*
X135950500Y-125472475D01*
X135950500Y-125327525D01*
X135912984Y-125187515D01*
X135869095Y-125111498D01*
X135852623Y-125043600D01*
X135875475Y-124977573D01*
X135930396Y-124934382D01*
X135976483Y-124925499D01*
X136006517Y-124925499D01*
X136006518Y-124925499D01*
X136100304Y-124910646D01*
X136213342Y-124853050D01*
X136303050Y-124763342D01*
X136360646Y-124650304D01*
X136360646Y-124650302D01*
X136360647Y-124650301D01*
X136375499Y-124556524D01*
X136375500Y-124556519D01*
X136375499Y-124193482D01*
X136360646Y-124099696D01*
X136333307Y-124046041D01*
X136320412Y-123977375D01*
X136346688Y-123912634D01*
X136356112Y-123902068D01*
X136438819Y-123819361D01*
X136500142Y-123785876D01*
X136569834Y-123790860D01*
X136625767Y-123832732D01*
X136650184Y-123898196D01*
X136650500Y-123907042D01*
X136650500Y-180892624D01*
X136641855Y-180922064D01*
X136635332Y-180952051D01*
X136631577Y-180957066D01*
X136630815Y-180959663D01*
X136614181Y-180980305D01*
X136581516Y-181012970D01*
X136520193Y-181046455D01*
X136450501Y-181041471D01*
X136394568Y-180999599D01*
X136370151Y-180934135D01*
X136369835Y-180925312D01*
X136369835Y-180626815D01*
X136354982Y-180533029D01*
X136297386Y-180419991D01*
X136297382Y-180419987D01*
X136297381Y-180419985D01*
X136207683Y-180330287D01*
X136207680Y-180330285D01*
X136207678Y-180330283D01*
X136130853Y-180291138D01*
X136094637Y-180272685D01*
X136000860Y-180257833D01*
X134762818Y-180257833D01*
X134698917Y-180267954D01*
X134669032Y-180272687D01*
X134669030Y-180272687D01*
X134659394Y-180274214D01*
X134658943Y-180271366D01*
X134604599Y-180272901D01*
X134548480Y-180240666D01*
X132436819Y-178129005D01*
X132403334Y-178067682D01*
X132400500Y-178041324D01*
X132400500Y-124237369D01*
X132420185Y-124170330D01*
X132472989Y-124124575D01*
X132542147Y-124114631D01*
X132587621Y-124130637D01*
X132664803Y-124176282D01*
X132664806Y-124176283D01*
X132822504Y-124222099D01*
X132822510Y-124222100D01*
X132859350Y-124224999D01*
X132859366Y-124225000D01*
X133262500Y-124225000D01*
X133262500Y-122625000D01*
X132859350Y-122625000D01*
X132822510Y-122627899D01*
X132822504Y-122627900D01*
X132664806Y-122673716D01*
X132664805Y-122673716D01*
X132587620Y-122719363D01*
X132519896Y-122736545D01*
X132453634Y-122714384D01*
X132409871Y-122659918D01*
X132400500Y-122612630D01*
X132400500Y-120495176D01*
X132420185Y-120428137D01*
X132472989Y-120382382D01*
X132542147Y-120372438D01*
X132605703Y-120401463D01*
G37*
%TD.AperFunction*%
%TA.AperFunction,Conductor*%
G36*
X131305703Y-73761831D02*
G01*
X131312181Y-73767863D01*
X136313181Y-78768863D01*
X136346666Y-78830186D01*
X136349500Y-78856544D01*
X136349500Y-121863976D01*
X136329815Y-121931015D01*
X136277011Y-121976770D01*
X136207853Y-121986714D01*
X136169205Y-121974461D01*
X136100301Y-121939352D01*
X136006524Y-121924500D01*
X136006519Y-121924500D01*
X135596176Y-121924500D01*
X135529137Y-121904815D01*
X135508495Y-121888181D01*
X131136819Y-117516505D01*
X131103334Y-117455182D01*
X131100500Y-117428824D01*
X131100500Y-73855544D01*
X131120185Y-73788505D01*
X131172989Y-73742750D01*
X131242147Y-73732806D01*
X131305703Y-73761831D01*
G37*
%TD.AperFunction*%
%TD*%
%TA.AperFunction,Conductor*%
%TO.N,GND_pos_con*%
G36*
X142442539Y-69920185D02*
G01*
X142488294Y-69972989D01*
X142499499Y-70024498D01*
X142499495Y-71565925D01*
X142499485Y-74900000D01*
X140900000Y-74900000D01*
X140880209Y-73888781D01*
X140883790Y-73257390D01*
X140920040Y-73225135D01*
X140954429Y-73208324D01*
X140954430Y-73208323D01*
X141038322Y-73124432D01*
X141038323Y-73124430D01*
X141038324Y-73124429D01*
X141090433Y-73017840D01*
X141100500Y-72948742D01*
X141100500Y-70091258D01*
X141093378Y-70042374D01*
X141103193Y-69973199D01*
X141148849Y-69920310D01*
X141215852Y-69900500D01*
X142375500Y-69900500D01*
X142442539Y-69920185D01*
G37*
%TD.AperFunction*%
%TD*%
M02*
