%TF.GenerationSoftware,KiCad,Pcbnew,10.0.3*%
%TF.CreationDate,2026-06-03T17:51:44+02:00*%
%TF.ProjectId,rapid_tank_level_indicator_sensor,72617069-645f-4746-916e-6b5f6c657665,rev?*%
%TF.SameCoordinates,Original*%
%TF.FileFunction,Other,User*%
%FSLAX46Y46*%
G04 Gerber Fmt 4.6, Leading zero omitted, Abs format (unit mm)*
G04 Created by KiCad (PCBNEW 10.0.3) date 2026-06-03 17:51:44*
%MOMM*%
%LPD*%
G01*
G04 APERTURE LIST*
%ADD10C,0.100000*%
%ADD11C,0.150000*%
G04 APERTURE END LIST*
D10*
X129500000Y-70000000D02*
X142500000Y-70000000D01*
X142500000Y-78800000D01*
X129500000Y-78800000D01*
X129500000Y-70000000D01*
X131950000Y-413100000D02*
X136450000Y-413100000D01*
X136450000Y-420100000D01*
X131950000Y-420100000D01*
X131950000Y-413100000D01*
X132000000Y-587800000D02*
X136500000Y-587800000D01*
X136500000Y-594800000D01*
X132000000Y-594800000D01*
X132000000Y-587800000D01*
X132100000Y-354600000D02*
X136600000Y-354600000D01*
X136600000Y-361600000D01*
X132100000Y-361600000D01*
X132100000Y-354600000D01*
X132200000Y-121100000D02*
X136700000Y-121100000D01*
X136700000Y-128100000D01*
X132200000Y-128100000D01*
X132200000Y-121100000D01*
X132200000Y-296400000D02*
X136700000Y-296400000D01*
X136700000Y-303400000D01*
X132200000Y-303400000D01*
X132200000Y-296400000D01*
X132200000Y-529800000D02*
X136700000Y-529800000D01*
X136700000Y-536800000D01*
X132200000Y-536800000D01*
X132200000Y-529800000D01*
X132300000Y-179500000D02*
X136800000Y-179500000D01*
X136800000Y-186500000D01*
X132300000Y-186500000D01*
X132300000Y-179500000D01*
X132300000Y-237900000D02*
X136800000Y-237900000D01*
X136800000Y-244900000D01*
X132300000Y-244900000D01*
X132300000Y-237900000D01*
X132300000Y-646300000D02*
X139300000Y-646300000D01*
X139300000Y-650800000D01*
X132300000Y-650800000D01*
X132300000Y-646300000D01*
X132450000Y-471200000D02*
X136950000Y-471200000D01*
X136950000Y-478200000D01*
X132450000Y-478200000D01*
X132450000Y-471200000D01*
D11*
X137789160Y-416312256D02*
X137932017Y-416359875D01*
X137932017Y-416359875D02*
X138170112Y-416359875D01*
X138170112Y-416359875D02*
X138265350Y-416312256D01*
X138265350Y-416312256D02*
X138312969Y-416264636D01*
X138312969Y-416264636D02*
X138360588Y-416169398D01*
X138360588Y-416169398D02*
X138360588Y-416074160D01*
X138360588Y-416074160D02*
X138312969Y-415978922D01*
X138312969Y-415978922D02*
X138265350Y-415931303D01*
X138265350Y-415931303D02*
X138170112Y-415883684D01*
X138170112Y-415883684D02*
X137979636Y-415836065D01*
X137979636Y-415836065D02*
X137884398Y-415788446D01*
X137884398Y-415788446D02*
X137836779Y-415740827D01*
X137836779Y-415740827D02*
X137789160Y-415645589D01*
X137789160Y-415645589D02*
X137789160Y-415550351D01*
X137789160Y-415550351D02*
X137836779Y-415455113D01*
X137836779Y-415455113D02*
X137884398Y-415407494D01*
X137884398Y-415407494D02*
X137979636Y-415359875D01*
X137979636Y-415359875D02*
X138217731Y-415359875D01*
X138217731Y-415359875D02*
X138360588Y-415407494D01*
X138646303Y-415693208D02*
X139027255Y-415693208D01*
X138789160Y-415359875D02*
X138789160Y-416217017D01*
X138789160Y-416217017D02*
X138836779Y-416312256D01*
X138836779Y-416312256D02*
X138932017Y-416359875D01*
X138932017Y-416359875D02*
X139027255Y-416359875D01*
X139360589Y-416359875D02*
X139360589Y-415693208D01*
X139360589Y-415359875D02*
X139312970Y-415407494D01*
X139312970Y-415407494D02*
X139360589Y-415455113D01*
X139360589Y-415455113D02*
X139408208Y-415407494D01*
X139408208Y-415407494D02*
X139360589Y-415359875D01*
X139360589Y-415359875D02*
X139360589Y-415455113D01*
X139693922Y-415693208D02*
X140074874Y-415693208D01*
X139836779Y-416359875D02*
X139836779Y-415502732D01*
X139836779Y-415502732D02*
X139884398Y-415407494D01*
X139884398Y-415407494D02*
X139979636Y-415359875D01*
X139979636Y-415359875D02*
X140074874Y-415359875D01*
X140265351Y-415693208D02*
X140646303Y-415693208D01*
X140408208Y-416359875D02*
X140408208Y-415502732D01*
X140408208Y-415502732D02*
X140455827Y-415407494D01*
X140455827Y-415407494D02*
X140551065Y-415359875D01*
X140551065Y-415359875D02*
X140646303Y-415359875D01*
X141360589Y-416312256D02*
X141265351Y-416359875D01*
X141265351Y-416359875D02*
X141074875Y-416359875D01*
X141074875Y-416359875D02*
X140979637Y-416312256D01*
X140979637Y-416312256D02*
X140932018Y-416217017D01*
X140932018Y-416217017D02*
X140932018Y-415836065D01*
X140932018Y-415836065D02*
X140979637Y-415740827D01*
X140979637Y-415740827D02*
X141074875Y-415693208D01*
X141074875Y-415693208D02*
X141265351Y-415693208D01*
X141265351Y-415693208D02*
X141360589Y-415740827D01*
X141360589Y-415740827D02*
X141408208Y-415836065D01*
X141408208Y-415836065D02*
X141408208Y-415931303D01*
X141408208Y-415931303D02*
X140932018Y-416026541D01*
X141836780Y-415693208D02*
X141836780Y-416359875D01*
X141836780Y-415788446D02*
X141884399Y-415740827D01*
X141884399Y-415740827D02*
X141979637Y-415693208D01*
X141979637Y-415693208D02*
X142122494Y-415693208D01*
X142122494Y-415693208D02*
X142217732Y-415740827D01*
X142217732Y-415740827D02*
X142265351Y-415836065D01*
X142265351Y-415836065D02*
X142265351Y-416359875D01*
X143122494Y-416312256D02*
X143027256Y-416359875D01*
X143027256Y-416359875D02*
X142836780Y-416359875D01*
X142836780Y-416359875D02*
X142741542Y-416312256D01*
X142741542Y-416312256D02*
X142693923Y-416217017D01*
X142693923Y-416217017D02*
X142693923Y-415836065D01*
X142693923Y-415836065D02*
X142741542Y-415740827D01*
X142741542Y-415740827D02*
X142836780Y-415693208D01*
X142836780Y-415693208D02*
X143027256Y-415693208D01*
X143027256Y-415693208D02*
X143122494Y-415740827D01*
X143122494Y-415740827D02*
X143170113Y-415836065D01*
X143170113Y-415836065D02*
X143170113Y-415931303D01*
X143170113Y-415931303D02*
X142693923Y-416026541D01*
X143598685Y-416359875D02*
X143598685Y-415693208D01*
X143598685Y-415883684D02*
X143646304Y-415788446D01*
X143646304Y-415788446D02*
X143693923Y-415740827D01*
X143693923Y-415740827D02*
X143789161Y-415693208D01*
X143789161Y-415693208D02*
X143884399Y-415693208D01*
X144217733Y-416264636D02*
X144265352Y-416312256D01*
X144265352Y-416312256D02*
X144217733Y-416359875D01*
X144217733Y-416359875D02*
X144170114Y-416312256D01*
X144170114Y-416312256D02*
X144217733Y-416264636D01*
X144217733Y-416264636D02*
X144217733Y-416359875D01*
X144217733Y-415740827D02*
X144265352Y-415788446D01*
X144265352Y-415788446D02*
X144217733Y-415836065D01*
X144217733Y-415836065D02*
X144170114Y-415788446D01*
X144170114Y-415788446D02*
X144217733Y-415740827D01*
X144217733Y-415740827D02*
X144217733Y-415836065D01*
X145455828Y-416359875D02*
X145455828Y-415359875D01*
X145455828Y-415359875D02*
X145836780Y-415359875D01*
X145836780Y-415359875D02*
X145932018Y-415407494D01*
X145932018Y-415407494D02*
X145979637Y-415455113D01*
X145979637Y-415455113D02*
X146027256Y-415550351D01*
X146027256Y-415550351D02*
X146027256Y-415693208D01*
X146027256Y-415693208D02*
X145979637Y-415788446D01*
X145979637Y-415788446D02*
X145932018Y-415836065D01*
X145932018Y-415836065D02*
X145836780Y-415883684D01*
X145836780Y-415883684D02*
X145455828Y-415883684D01*
X146598685Y-416359875D02*
X146503447Y-416312256D01*
X146503447Y-416312256D02*
X146455828Y-416264636D01*
X146455828Y-416264636D02*
X146408209Y-416169398D01*
X146408209Y-416169398D02*
X146408209Y-415883684D01*
X146408209Y-415883684D02*
X146455828Y-415788446D01*
X146455828Y-415788446D02*
X146503447Y-415740827D01*
X146503447Y-415740827D02*
X146598685Y-415693208D01*
X146598685Y-415693208D02*
X146741542Y-415693208D01*
X146741542Y-415693208D02*
X146836780Y-415740827D01*
X146836780Y-415740827D02*
X146884399Y-415788446D01*
X146884399Y-415788446D02*
X146932018Y-415883684D01*
X146932018Y-415883684D02*
X146932018Y-416169398D01*
X146932018Y-416169398D02*
X146884399Y-416264636D01*
X146884399Y-416264636D02*
X146836780Y-416312256D01*
X146836780Y-416312256D02*
X146741542Y-416359875D01*
X146741542Y-416359875D02*
X146598685Y-416359875D01*
X147503447Y-416359875D02*
X147408209Y-416312256D01*
X147408209Y-416312256D02*
X147360590Y-416217017D01*
X147360590Y-416217017D02*
X147360590Y-415359875D01*
X147789162Y-415693208D02*
X148027257Y-416359875D01*
X148265352Y-415693208D02*
X148027257Y-416359875D01*
X148027257Y-416359875D02*
X147932019Y-416597970D01*
X147932019Y-416597970D02*
X147884400Y-416645589D01*
X147884400Y-416645589D02*
X147789162Y-416693208D01*
X148646305Y-416359875D02*
X148646305Y-415693208D01*
X148646305Y-415359875D02*
X148598686Y-415407494D01*
X148598686Y-415407494D02*
X148646305Y-415455113D01*
X148646305Y-415455113D02*
X148693924Y-415407494D01*
X148693924Y-415407494D02*
X148646305Y-415359875D01*
X148646305Y-415359875D02*
X148646305Y-415455113D01*
X149122495Y-416359875D02*
X149122495Y-415693208D01*
X149122495Y-415788446D02*
X149170114Y-415740827D01*
X149170114Y-415740827D02*
X149265352Y-415693208D01*
X149265352Y-415693208D02*
X149408209Y-415693208D01*
X149408209Y-415693208D02*
X149503447Y-415740827D01*
X149503447Y-415740827D02*
X149551066Y-415836065D01*
X149551066Y-415836065D02*
X149551066Y-416359875D01*
X149551066Y-415836065D02*
X149598685Y-415740827D01*
X149598685Y-415740827D02*
X149693923Y-415693208D01*
X149693923Y-415693208D02*
X149836780Y-415693208D01*
X149836780Y-415693208D02*
X149932019Y-415740827D01*
X149932019Y-415740827D02*
X149979638Y-415836065D01*
X149979638Y-415836065D02*
X149979638Y-416359875D01*
X150455828Y-416359875D02*
X150455828Y-415693208D01*
X150455828Y-415359875D02*
X150408209Y-415407494D01*
X150408209Y-415407494D02*
X150455828Y-415455113D01*
X150455828Y-415455113D02*
X150503447Y-415407494D01*
X150503447Y-415407494D02*
X150455828Y-415359875D01*
X150455828Y-415359875D02*
X150455828Y-415455113D01*
X151360589Y-416359875D02*
X151360589Y-415359875D01*
X151360589Y-416312256D02*
X151265351Y-416359875D01*
X151265351Y-416359875D02*
X151074875Y-416359875D01*
X151074875Y-416359875D02*
X150979637Y-416312256D01*
X150979637Y-416312256D02*
X150932018Y-416264636D01*
X150932018Y-416264636D02*
X150884399Y-416169398D01*
X150884399Y-416169398D02*
X150884399Y-415883684D01*
X150884399Y-415883684D02*
X150932018Y-415788446D01*
X150932018Y-415788446D02*
X150979637Y-415740827D01*
X150979637Y-415740827D02*
X151074875Y-415693208D01*
X151074875Y-415693208D02*
X151265351Y-415693208D01*
X151265351Y-415693208D02*
X151360589Y-415740827D01*
X152217732Y-416312256D02*
X152122494Y-416359875D01*
X152122494Y-416359875D02*
X151932018Y-416359875D01*
X151932018Y-416359875D02*
X151836780Y-416312256D01*
X151836780Y-416312256D02*
X151789161Y-416217017D01*
X151789161Y-416217017D02*
X151789161Y-415836065D01*
X151789161Y-415836065D02*
X151836780Y-415740827D01*
X151836780Y-415740827D02*
X151932018Y-415693208D01*
X151932018Y-415693208D02*
X152122494Y-415693208D01*
X152122494Y-415693208D02*
X152217732Y-415740827D01*
X152217732Y-415740827D02*
X152265351Y-415836065D01*
X152265351Y-415836065D02*
X152265351Y-415931303D01*
X152265351Y-415931303D02*
X151789161Y-416026541D01*
X137693922Y-416969819D02*
X138265350Y-416969819D01*
X137979636Y-417969819D02*
X137979636Y-416969819D01*
X138598684Y-417969819D02*
X138598684Y-416969819D01*
X139027255Y-417969819D02*
X139027255Y-417446009D01*
X139027255Y-417446009D02*
X138979636Y-417350771D01*
X138979636Y-417350771D02*
X138884398Y-417303152D01*
X138884398Y-417303152D02*
X138741541Y-417303152D01*
X138741541Y-417303152D02*
X138646303Y-417350771D01*
X138646303Y-417350771D02*
X138598684Y-417398390D01*
X139503446Y-417969819D02*
X139503446Y-417303152D01*
X139503446Y-416969819D02*
X139455827Y-417017438D01*
X139455827Y-417017438D02*
X139503446Y-417065057D01*
X139503446Y-417065057D02*
X139551065Y-417017438D01*
X139551065Y-417017438D02*
X139503446Y-416969819D01*
X139503446Y-416969819D02*
X139503446Y-417065057D01*
X140408207Y-417922200D02*
X140312969Y-417969819D01*
X140312969Y-417969819D02*
X140122493Y-417969819D01*
X140122493Y-417969819D02*
X140027255Y-417922200D01*
X140027255Y-417922200D02*
X139979636Y-417874580D01*
X139979636Y-417874580D02*
X139932017Y-417779342D01*
X139932017Y-417779342D02*
X139932017Y-417493628D01*
X139932017Y-417493628D02*
X139979636Y-417398390D01*
X139979636Y-417398390D02*
X140027255Y-417350771D01*
X140027255Y-417350771D02*
X140122493Y-417303152D01*
X140122493Y-417303152D02*
X140312969Y-417303152D01*
X140312969Y-417303152D02*
X140408207Y-417350771D01*
X140836779Y-417969819D02*
X140836779Y-416969819D01*
X140932017Y-417588866D02*
X141217731Y-417969819D01*
X141217731Y-417303152D02*
X140836779Y-417684104D01*
X141646303Y-417303152D02*
X141646303Y-417969819D01*
X141646303Y-417398390D02*
X141693922Y-417350771D01*
X141693922Y-417350771D02*
X141789160Y-417303152D01*
X141789160Y-417303152D02*
X141932017Y-417303152D01*
X141932017Y-417303152D02*
X142027255Y-417350771D01*
X142027255Y-417350771D02*
X142074874Y-417446009D01*
X142074874Y-417446009D02*
X142074874Y-417969819D01*
X142932017Y-417922200D02*
X142836779Y-417969819D01*
X142836779Y-417969819D02*
X142646303Y-417969819D01*
X142646303Y-417969819D02*
X142551065Y-417922200D01*
X142551065Y-417922200D02*
X142503446Y-417826961D01*
X142503446Y-417826961D02*
X142503446Y-417446009D01*
X142503446Y-417446009D02*
X142551065Y-417350771D01*
X142551065Y-417350771D02*
X142646303Y-417303152D01*
X142646303Y-417303152D02*
X142836779Y-417303152D01*
X142836779Y-417303152D02*
X142932017Y-417350771D01*
X142932017Y-417350771D02*
X142979636Y-417446009D01*
X142979636Y-417446009D02*
X142979636Y-417541247D01*
X142979636Y-417541247D02*
X142503446Y-417636485D01*
X143360589Y-417922200D02*
X143455827Y-417969819D01*
X143455827Y-417969819D02*
X143646303Y-417969819D01*
X143646303Y-417969819D02*
X143741541Y-417922200D01*
X143741541Y-417922200D02*
X143789160Y-417826961D01*
X143789160Y-417826961D02*
X143789160Y-417779342D01*
X143789160Y-417779342D02*
X143741541Y-417684104D01*
X143741541Y-417684104D02*
X143646303Y-417636485D01*
X143646303Y-417636485D02*
X143503446Y-417636485D01*
X143503446Y-417636485D02*
X143408208Y-417588866D01*
X143408208Y-417588866D02*
X143360589Y-417493628D01*
X143360589Y-417493628D02*
X143360589Y-417446009D01*
X143360589Y-417446009D02*
X143408208Y-417350771D01*
X143408208Y-417350771D02*
X143503446Y-417303152D01*
X143503446Y-417303152D02*
X143646303Y-417303152D01*
X143646303Y-417303152D02*
X143741541Y-417350771D01*
X144170113Y-417922200D02*
X144265351Y-417969819D01*
X144265351Y-417969819D02*
X144455827Y-417969819D01*
X144455827Y-417969819D02*
X144551065Y-417922200D01*
X144551065Y-417922200D02*
X144598684Y-417826961D01*
X144598684Y-417826961D02*
X144598684Y-417779342D01*
X144598684Y-417779342D02*
X144551065Y-417684104D01*
X144551065Y-417684104D02*
X144455827Y-417636485D01*
X144455827Y-417636485D02*
X144312970Y-417636485D01*
X144312970Y-417636485D02*
X144217732Y-417588866D01*
X144217732Y-417588866D02*
X144170113Y-417493628D01*
X144170113Y-417493628D02*
X144170113Y-417446009D01*
X144170113Y-417446009D02*
X144217732Y-417350771D01*
X144217732Y-417350771D02*
X144312970Y-417303152D01*
X144312970Y-417303152D02*
X144455827Y-417303152D01*
X144455827Y-417303152D02*
X144551065Y-417350771D01*
X145027256Y-417874580D02*
X145074875Y-417922200D01*
X145074875Y-417922200D02*
X145027256Y-417969819D01*
X145027256Y-417969819D02*
X144979637Y-417922200D01*
X144979637Y-417922200D02*
X145027256Y-417874580D01*
X145027256Y-417874580D02*
X145027256Y-417969819D01*
X145027256Y-417350771D02*
X145074875Y-417398390D01*
X145074875Y-417398390D02*
X145027256Y-417446009D01*
X145027256Y-417446009D02*
X144979637Y-417398390D01*
X144979637Y-417398390D02*
X145027256Y-417350771D01*
X145027256Y-417350771D02*
X145027256Y-417446009D01*
X146455827Y-416969819D02*
X146551065Y-416969819D01*
X146551065Y-416969819D02*
X146646303Y-417017438D01*
X146646303Y-417017438D02*
X146693922Y-417065057D01*
X146693922Y-417065057D02*
X146741541Y-417160295D01*
X146741541Y-417160295D02*
X146789160Y-417350771D01*
X146789160Y-417350771D02*
X146789160Y-417588866D01*
X146789160Y-417588866D02*
X146741541Y-417779342D01*
X146741541Y-417779342D02*
X146693922Y-417874580D01*
X146693922Y-417874580D02*
X146646303Y-417922200D01*
X146646303Y-417922200D02*
X146551065Y-417969819D01*
X146551065Y-417969819D02*
X146455827Y-417969819D01*
X146455827Y-417969819D02*
X146360589Y-417922200D01*
X146360589Y-417922200D02*
X146312970Y-417874580D01*
X146312970Y-417874580D02*
X146265351Y-417779342D01*
X146265351Y-417779342D02*
X146217732Y-417588866D01*
X146217732Y-417588866D02*
X146217732Y-417350771D01*
X146217732Y-417350771D02*
X146265351Y-417160295D01*
X146265351Y-417160295D02*
X146312970Y-417065057D01*
X146312970Y-417065057D02*
X146360589Y-417017438D01*
X146360589Y-417017438D02*
X146455827Y-416969819D01*
X147217732Y-417874580D02*
X147265351Y-417922200D01*
X147265351Y-417922200D02*
X147217732Y-417969819D01*
X147217732Y-417969819D02*
X147170113Y-417922200D01*
X147170113Y-417922200D02*
X147217732Y-417874580D01*
X147217732Y-417874580D02*
X147217732Y-417969819D01*
X147646303Y-417065057D02*
X147693922Y-417017438D01*
X147693922Y-417017438D02*
X147789160Y-416969819D01*
X147789160Y-416969819D02*
X148027255Y-416969819D01*
X148027255Y-416969819D02*
X148122493Y-417017438D01*
X148122493Y-417017438D02*
X148170112Y-417065057D01*
X148170112Y-417065057D02*
X148217731Y-417160295D01*
X148217731Y-417160295D02*
X148217731Y-417255533D01*
X148217731Y-417255533D02*
X148170112Y-417398390D01*
X148170112Y-417398390D02*
X147598684Y-417969819D01*
X147598684Y-417969819D02*
X148217731Y-417969819D01*
X148836779Y-416969819D02*
X148932017Y-416969819D01*
X148932017Y-416969819D02*
X149027255Y-417017438D01*
X149027255Y-417017438D02*
X149074874Y-417065057D01*
X149074874Y-417065057D02*
X149122493Y-417160295D01*
X149122493Y-417160295D02*
X149170112Y-417350771D01*
X149170112Y-417350771D02*
X149170112Y-417588866D01*
X149170112Y-417588866D02*
X149122493Y-417779342D01*
X149122493Y-417779342D02*
X149074874Y-417874580D01*
X149074874Y-417874580D02*
X149027255Y-417922200D01*
X149027255Y-417922200D02*
X148932017Y-417969819D01*
X148932017Y-417969819D02*
X148836779Y-417969819D01*
X148836779Y-417969819D02*
X148741541Y-417922200D01*
X148741541Y-417922200D02*
X148693922Y-417874580D01*
X148693922Y-417874580D02*
X148646303Y-417779342D01*
X148646303Y-417779342D02*
X148598684Y-417588866D01*
X148598684Y-417588866D02*
X148598684Y-417350771D01*
X148598684Y-417350771D02*
X148646303Y-417160295D01*
X148646303Y-417160295D02*
X148693922Y-417065057D01*
X148693922Y-417065057D02*
X148741541Y-417017438D01*
X148741541Y-417017438D02*
X148836779Y-416969819D01*
X149598684Y-417969819D02*
X149598684Y-417303152D01*
X149598684Y-417398390D02*
X149646303Y-417350771D01*
X149646303Y-417350771D02*
X149741541Y-417303152D01*
X149741541Y-417303152D02*
X149884398Y-417303152D01*
X149884398Y-417303152D02*
X149979636Y-417350771D01*
X149979636Y-417350771D02*
X150027255Y-417446009D01*
X150027255Y-417446009D02*
X150027255Y-417969819D01*
X150027255Y-417446009D02*
X150074874Y-417350771D01*
X150074874Y-417350771D02*
X150170112Y-417303152D01*
X150170112Y-417303152D02*
X150312969Y-417303152D01*
X150312969Y-417303152D02*
X150408208Y-417350771D01*
X150408208Y-417350771D02*
X150455827Y-417446009D01*
X150455827Y-417446009D02*
X150455827Y-417969819D01*
X150932017Y-417969819D02*
X150932017Y-417303152D01*
X150932017Y-417398390D02*
X150979636Y-417350771D01*
X150979636Y-417350771D02*
X151074874Y-417303152D01*
X151074874Y-417303152D02*
X151217731Y-417303152D01*
X151217731Y-417303152D02*
X151312969Y-417350771D01*
X151312969Y-417350771D02*
X151360588Y-417446009D01*
X151360588Y-417446009D02*
X151360588Y-417969819D01*
X151360588Y-417446009D02*
X151408207Y-417350771D01*
X151408207Y-417350771D02*
X151503445Y-417303152D01*
X151503445Y-417303152D02*
X151646302Y-417303152D01*
X151646302Y-417303152D02*
X151741541Y-417350771D01*
X151741541Y-417350771D02*
X151789160Y-417446009D01*
X151789160Y-417446009D02*
X151789160Y-417969819D01*
X137889160Y-357412256D02*
X138032017Y-357459875D01*
X138032017Y-357459875D02*
X138270112Y-357459875D01*
X138270112Y-357459875D02*
X138365350Y-357412256D01*
X138365350Y-357412256D02*
X138412969Y-357364636D01*
X138412969Y-357364636D02*
X138460588Y-357269398D01*
X138460588Y-357269398D02*
X138460588Y-357174160D01*
X138460588Y-357174160D02*
X138412969Y-357078922D01*
X138412969Y-357078922D02*
X138365350Y-357031303D01*
X138365350Y-357031303D02*
X138270112Y-356983684D01*
X138270112Y-356983684D02*
X138079636Y-356936065D01*
X138079636Y-356936065D02*
X137984398Y-356888446D01*
X137984398Y-356888446D02*
X137936779Y-356840827D01*
X137936779Y-356840827D02*
X137889160Y-356745589D01*
X137889160Y-356745589D02*
X137889160Y-356650351D01*
X137889160Y-356650351D02*
X137936779Y-356555113D01*
X137936779Y-356555113D02*
X137984398Y-356507494D01*
X137984398Y-356507494D02*
X138079636Y-356459875D01*
X138079636Y-356459875D02*
X138317731Y-356459875D01*
X138317731Y-356459875D02*
X138460588Y-356507494D01*
X138746303Y-356793208D02*
X139127255Y-356793208D01*
X138889160Y-356459875D02*
X138889160Y-357317017D01*
X138889160Y-357317017D02*
X138936779Y-357412256D01*
X138936779Y-357412256D02*
X139032017Y-357459875D01*
X139032017Y-357459875D02*
X139127255Y-357459875D01*
X139460589Y-357459875D02*
X139460589Y-356793208D01*
X139460589Y-356459875D02*
X139412970Y-356507494D01*
X139412970Y-356507494D02*
X139460589Y-356555113D01*
X139460589Y-356555113D02*
X139508208Y-356507494D01*
X139508208Y-356507494D02*
X139460589Y-356459875D01*
X139460589Y-356459875D02*
X139460589Y-356555113D01*
X139793922Y-356793208D02*
X140174874Y-356793208D01*
X139936779Y-357459875D02*
X139936779Y-356602732D01*
X139936779Y-356602732D02*
X139984398Y-356507494D01*
X139984398Y-356507494D02*
X140079636Y-356459875D01*
X140079636Y-356459875D02*
X140174874Y-356459875D01*
X140365351Y-356793208D02*
X140746303Y-356793208D01*
X140508208Y-357459875D02*
X140508208Y-356602732D01*
X140508208Y-356602732D02*
X140555827Y-356507494D01*
X140555827Y-356507494D02*
X140651065Y-356459875D01*
X140651065Y-356459875D02*
X140746303Y-356459875D01*
X141460589Y-357412256D02*
X141365351Y-357459875D01*
X141365351Y-357459875D02*
X141174875Y-357459875D01*
X141174875Y-357459875D02*
X141079637Y-357412256D01*
X141079637Y-357412256D02*
X141032018Y-357317017D01*
X141032018Y-357317017D02*
X141032018Y-356936065D01*
X141032018Y-356936065D02*
X141079637Y-356840827D01*
X141079637Y-356840827D02*
X141174875Y-356793208D01*
X141174875Y-356793208D02*
X141365351Y-356793208D01*
X141365351Y-356793208D02*
X141460589Y-356840827D01*
X141460589Y-356840827D02*
X141508208Y-356936065D01*
X141508208Y-356936065D02*
X141508208Y-357031303D01*
X141508208Y-357031303D02*
X141032018Y-357126541D01*
X141936780Y-356793208D02*
X141936780Y-357459875D01*
X141936780Y-356888446D02*
X141984399Y-356840827D01*
X141984399Y-356840827D02*
X142079637Y-356793208D01*
X142079637Y-356793208D02*
X142222494Y-356793208D01*
X142222494Y-356793208D02*
X142317732Y-356840827D01*
X142317732Y-356840827D02*
X142365351Y-356936065D01*
X142365351Y-356936065D02*
X142365351Y-357459875D01*
X143222494Y-357412256D02*
X143127256Y-357459875D01*
X143127256Y-357459875D02*
X142936780Y-357459875D01*
X142936780Y-357459875D02*
X142841542Y-357412256D01*
X142841542Y-357412256D02*
X142793923Y-357317017D01*
X142793923Y-357317017D02*
X142793923Y-356936065D01*
X142793923Y-356936065D02*
X142841542Y-356840827D01*
X142841542Y-356840827D02*
X142936780Y-356793208D01*
X142936780Y-356793208D02*
X143127256Y-356793208D01*
X143127256Y-356793208D02*
X143222494Y-356840827D01*
X143222494Y-356840827D02*
X143270113Y-356936065D01*
X143270113Y-356936065D02*
X143270113Y-357031303D01*
X143270113Y-357031303D02*
X142793923Y-357126541D01*
X143698685Y-357459875D02*
X143698685Y-356793208D01*
X143698685Y-356983684D02*
X143746304Y-356888446D01*
X143746304Y-356888446D02*
X143793923Y-356840827D01*
X143793923Y-356840827D02*
X143889161Y-356793208D01*
X143889161Y-356793208D02*
X143984399Y-356793208D01*
X144317733Y-357364636D02*
X144365352Y-357412256D01*
X144365352Y-357412256D02*
X144317733Y-357459875D01*
X144317733Y-357459875D02*
X144270114Y-357412256D01*
X144270114Y-357412256D02*
X144317733Y-357364636D01*
X144317733Y-357364636D02*
X144317733Y-357459875D01*
X144317733Y-356840827D02*
X144365352Y-356888446D01*
X144365352Y-356888446D02*
X144317733Y-356936065D01*
X144317733Y-356936065D02*
X144270114Y-356888446D01*
X144270114Y-356888446D02*
X144317733Y-356840827D01*
X144317733Y-356840827D02*
X144317733Y-356936065D01*
X145555828Y-357459875D02*
X145555828Y-356459875D01*
X145555828Y-356459875D02*
X145936780Y-356459875D01*
X145936780Y-356459875D02*
X146032018Y-356507494D01*
X146032018Y-356507494D02*
X146079637Y-356555113D01*
X146079637Y-356555113D02*
X146127256Y-356650351D01*
X146127256Y-356650351D02*
X146127256Y-356793208D01*
X146127256Y-356793208D02*
X146079637Y-356888446D01*
X146079637Y-356888446D02*
X146032018Y-356936065D01*
X146032018Y-356936065D02*
X145936780Y-356983684D01*
X145936780Y-356983684D02*
X145555828Y-356983684D01*
X146698685Y-357459875D02*
X146603447Y-357412256D01*
X146603447Y-357412256D02*
X146555828Y-357364636D01*
X146555828Y-357364636D02*
X146508209Y-357269398D01*
X146508209Y-357269398D02*
X146508209Y-356983684D01*
X146508209Y-356983684D02*
X146555828Y-356888446D01*
X146555828Y-356888446D02*
X146603447Y-356840827D01*
X146603447Y-356840827D02*
X146698685Y-356793208D01*
X146698685Y-356793208D02*
X146841542Y-356793208D01*
X146841542Y-356793208D02*
X146936780Y-356840827D01*
X146936780Y-356840827D02*
X146984399Y-356888446D01*
X146984399Y-356888446D02*
X147032018Y-356983684D01*
X147032018Y-356983684D02*
X147032018Y-357269398D01*
X147032018Y-357269398D02*
X146984399Y-357364636D01*
X146984399Y-357364636D02*
X146936780Y-357412256D01*
X146936780Y-357412256D02*
X146841542Y-357459875D01*
X146841542Y-357459875D02*
X146698685Y-357459875D01*
X147603447Y-357459875D02*
X147508209Y-357412256D01*
X147508209Y-357412256D02*
X147460590Y-357317017D01*
X147460590Y-357317017D02*
X147460590Y-356459875D01*
X147889162Y-356793208D02*
X148127257Y-357459875D01*
X148365352Y-356793208D02*
X148127257Y-357459875D01*
X148127257Y-357459875D02*
X148032019Y-357697970D01*
X148032019Y-357697970D02*
X147984400Y-357745589D01*
X147984400Y-357745589D02*
X147889162Y-357793208D01*
X148746305Y-357459875D02*
X148746305Y-356793208D01*
X148746305Y-356459875D02*
X148698686Y-356507494D01*
X148698686Y-356507494D02*
X148746305Y-356555113D01*
X148746305Y-356555113D02*
X148793924Y-356507494D01*
X148793924Y-356507494D02*
X148746305Y-356459875D01*
X148746305Y-356459875D02*
X148746305Y-356555113D01*
X149222495Y-357459875D02*
X149222495Y-356793208D01*
X149222495Y-356888446D02*
X149270114Y-356840827D01*
X149270114Y-356840827D02*
X149365352Y-356793208D01*
X149365352Y-356793208D02*
X149508209Y-356793208D01*
X149508209Y-356793208D02*
X149603447Y-356840827D01*
X149603447Y-356840827D02*
X149651066Y-356936065D01*
X149651066Y-356936065D02*
X149651066Y-357459875D01*
X149651066Y-356936065D02*
X149698685Y-356840827D01*
X149698685Y-356840827D02*
X149793923Y-356793208D01*
X149793923Y-356793208D02*
X149936780Y-356793208D01*
X149936780Y-356793208D02*
X150032019Y-356840827D01*
X150032019Y-356840827D02*
X150079638Y-356936065D01*
X150079638Y-356936065D02*
X150079638Y-357459875D01*
X150555828Y-357459875D02*
X150555828Y-356793208D01*
X150555828Y-356459875D02*
X150508209Y-356507494D01*
X150508209Y-356507494D02*
X150555828Y-356555113D01*
X150555828Y-356555113D02*
X150603447Y-356507494D01*
X150603447Y-356507494D02*
X150555828Y-356459875D01*
X150555828Y-356459875D02*
X150555828Y-356555113D01*
X151460589Y-357459875D02*
X151460589Y-356459875D01*
X151460589Y-357412256D02*
X151365351Y-357459875D01*
X151365351Y-357459875D02*
X151174875Y-357459875D01*
X151174875Y-357459875D02*
X151079637Y-357412256D01*
X151079637Y-357412256D02*
X151032018Y-357364636D01*
X151032018Y-357364636D02*
X150984399Y-357269398D01*
X150984399Y-357269398D02*
X150984399Y-356983684D01*
X150984399Y-356983684D02*
X151032018Y-356888446D01*
X151032018Y-356888446D02*
X151079637Y-356840827D01*
X151079637Y-356840827D02*
X151174875Y-356793208D01*
X151174875Y-356793208D02*
X151365351Y-356793208D01*
X151365351Y-356793208D02*
X151460589Y-356840827D01*
X152317732Y-357412256D02*
X152222494Y-357459875D01*
X152222494Y-357459875D02*
X152032018Y-357459875D01*
X152032018Y-357459875D02*
X151936780Y-357412256D01*
X151936780Y-357412256D02*
X151889161Y-357317017D01*
X151889161Y-357317017D02*
X151889161Y-356936065D01*
X151889161Y-356936065D02*
X151936780Y-356840827D01*
X151936780Y-356840827D02*
X152032018Y-356793208D01*
X152032018Y-356793208D02*
X152222494Y-356793208D01*
X152222494Y-356793208D02*
X152317732Y-356840827D01*
X152317732Y-356840827D02*
X152365351Y-356936065D01*
X152365351Y-356936065D02*
X152365351Y-357031303D01*
X152365351Y-357031303D02*
X151889161Y-357126541D01*
X137793922Y-358069819D02*
X138365350Y-358069819D01*
X138079636Y-359069819D02*
X138079636Y-358069819D01*
X138698684Y-359069819D02*
X138698684Y-358069819D01*
X139127255Y-359069819D02*
X139127255Y-358546009D01*
X139127255Y-358546009D02*
X139079636Y-358450771D01*
X139079636Y-358450771D02*
X138984398Y-358403152D01*
X138984398Y-358403152D02*
X138841541Y-358403152D01*
X138841541Y-358403152D02*
X138746303Y-358450771D01*
X138746303Y-358450771D02*
X138698684Y-358498390D01*
X139603446Y-359069819D02*
X139603446Y-358403152D01*
X139603446Y-358069819D02*
X139555827Y-358117438D01*
X139555827Y-358117438D02*
X139603446Y-358165057D01*
X139603446Y-358165057D02*
X139651065Y-358117438D01*
X139651065Y-358117438D02*
X139603446Y-358069819D01*
X139603446Y-358069819D02*
X139603446Y-358165057D01*
X140508207Y-359022200D02*
X140412969Y-359069819D01*
X140412969Y-359069819D02*
X140222493Y-359069819D01*
X140222493Y-359069819D02*
X140127255Y-359022200D01*
X140127255Y-359022200D02*
X140079636Y-358974580D01*
X140079636Y-358974580D02*
X140032017Y-358879342D01*
X140032017Y-358879342D02*
X140032017Y-358593628D01*
X140032017Y-358593628D02*
X140079636Y-358498390D01*
X140079636Y-358498390D02*
X140127255Y-358450771D01*
X140127255Y-358450771D02*
X140222493Y-358403152D01*
X140222493Y-358403152D02*
X140412969Y-358403152D01*
X140412969Y-358403152D02*
X140508207Y-358450771D01*
X140936779Y-359069819D02*
X140936779Y-358069819D01*
X141032017Y-358688866D02*
X141317731Y-359069819D01*
X141317731Y-358403152D02*
X140936779Y-358784104D01*
X141746303Y-358403152D02*
X141746303Y-359069819D01*
X141746303Y-358498390D02*
X141793922Y-358450771D01*
X141793922Y-358450771D02*
X141889160Y-358403152D01*
X141889160Y-358403152D02*
X142032017Y-358403152D01*
X142032017Y-358403152D02*
X142127255Y-358450771D01*
X142127255Y-358450771D02*
X142174874Y-358546009D01*
X142174874Y-358546009D02*
X142174874Y-359069819D01*
X143032017Y-359022200D02*
X142936779Y-359069819D01*
X142936779Y-359069819D02*
X142746303Y-359069819D01*
X142746303Y-359069819D02*
X142651065Y-359022200D01*
X142651065Y-359022200D02*
X142603446Y-358926961D01*
X142603446Y-358926961D02*
X142603446Y-358546009D01*
X142603446Y-358546009D02*
X142651065Y-358450771D01*
X142651065Y-358450771D02*
X142746303Y-358403152D01*
X142746303Y-358403152D02*
X142936779Y-358403152D01*
X142936779Y-358403152D02*
X143032017Y-358450771D01*
X143032017Y-358450771D02*
X143079636Y-358546009D01*
X143079636Y-358546009D02*
X143079636Y-358641247D01*
X143079636Y-358641247D02*
X142603446Y-358736485D01*
X143460589Y-359022200D02*
X143555827Y-359069819D01*
X143555827Y-359069819D02*
X143746303Y-359069819D01*
X143746303Y-359069819D02*
X143841541Y-359022200D01*
X143841541Y-359022200D02*
X143889160Y-358926961D01*
X143889160Y-358926961D02*
X143889160Y-358879342D01*
X143889160Y-358879342D02*
X143841541Y-358784104D01*
X143841541Y-358784104D02*
X143746303Y-358736485D01*
X143746303Y-358736485D02*
X143603446Y-358736485D01*
X143603446Y-358736485D02*
X143508208Y-358688866D01*
X143508208Y-358688866D02*
X143460589Y-358593628D01*
X143460589Y-358593628D02*
X143460589Y-358546009D01*
X143460589Y-358546009D02*
X143508208Y-358450771D01*
X143508208Y-358450771D02*
X143603446Y-358403152D01*
X143603446Y-358403152D02*
X143746303Y-358403152D01*
X143746303Y-358403152D02*
X143841541Y-358450771D01*
X144270113Y-359022200D02*
X144365351Y-359069819D01*
X144365351Y-359069819D02*
X144555827Y-359069819D01*
X144555827Y-359069819D02*
X144651065Y-359022200D01*
X144651065Y-359022200D02*
X144698684Y-358926961D01*
X144698684Y-358926961D02*
X144698684Y-358879342D01*
X144698684Y-358879342D02*
X144651065Y-358784104D01*
X144651065Y-358784104D02*
X144555827Y-358736485D01*
X144555827Y-358736485D02*
X144412970Y-358736485D01*
X144412970Y-358736485D02*
X144317732Y-358688866D01*
X144317732Y-358688866D02*
X144270113Y-358593628D01*
X144270113Y-358593628D02*
X144270113Y-358546009D01*
X144270113Y-358546009D02*
X144317732Y-358450771D01*
X144317732Y-358450771D02*
X144412970Y-358403152D01*
X144412970Y-358403152D02*
X144555827Y-358403152D01*
X144555827Y-358403152D02*
X144651065Y-358450771D01*
X145127256Y-358974580D02*
X145174875Y-359022200D01*
X145174875Y-359022200D02*
X145127256Y-359069819D01*
X145127256Y-359069819D02*
X145079637Y-359022200D01*
X145079637Y-359022200D02*
X145127256Y-358974580D01*
X145127256Y-358974580D02*
X145127256Y-359069819D01*
X145127256Y-358450771D02*
X145174875Y-358498390D01*
X145174875Y-358498390D02*
X145127256Y-358546009D01*
X145127256Y-358546009D02*
X145079637Y-358498390D01*
X145079637Y-358498390D02*
X145127256Y-358450771D01*
X145127256Y-358450771D02*
X145127256Y-358546009D01*
X146555827Y-358069819D02*
X146651065Y-358069819D01*
X146651065Y-358069819D02*
X146746303Y-358117438D01*
X146746303Y-358117438D02*
X146793922Y-358165057D01*
X146793922Y-358165057D02*
X146841541Y-358260295D01*
X146841541Y-358260295D02*
X146889160Y-358450771D01*
X146889160Y-358450771D02*
X146889160Y-358688866D01*
X146889160Y-358688866D02*
X146841541Y-358879342D01*
X146841541Y-358879342D02*
X146793922Y-358974580D01*
X146793922Y-358974580D02*
X146746303Y-359022200D01*
X146746303Y-359022200D02*
X146651065Y-359069819D01*
X146651065Y-359069819D02*
X146555827Y-359069819D01*
X146555827Y-359069819D02*
X146460589Y-359022200D01*
X146460589Y-359022200D02*
X146412970Y-358974580D01*
X146412970Y-358974580D02*
X146365351Y-358879342D01*
X146365351Y-358879342D02*
X146317732Y-358688866D01*
X146317732Y-358688866D02*
X146317732Y-358450771D01*
X146317732Y-358450771D02*
X146365351Y-358260295D01*
X146365351Y-358260295D02*
X146412970Y-358165057D01*
X146412970Y-358165057D02*
X146460589Y-358117438D01*
X146460589Y-358117438D02*
X146555827Y-358069819D01*
X147317732Y-358974580D02*
X147365351Y-359022200D01*
X147365351Y-359022200D02*
X147317732Y-359069819D01*
X147317732Y-359069819D02*
X147270113Y-359022200D01*
X147270113Y-359022200D02*
X147317732Y-358974580D01*
X147317732Y-358974580D02*
X147317732Y-359069819D01*
X147746303Y-358165057D02*
X147793922Y-358117438D01*
X147793922Y-358117438D02*
X147889160Y-358069819D01*
X147889160Y-358069819D02*
X148127255Y-358069819D01*
X148127255Y-358069819D02*
X148222493Y-358117438D01*
X148222493Y-358117438D02*
X148270112Y-358165057D01*
X148270112Y-358165057D02*
X148317731Y-358260295D01*
X148317731Y-358260295D02*
X148317731Y-358355533D01*
X148317731Y-358355533D02*
X148270112Y-358498390D01*
X148270112Y-358498390D02*
X147698684Y-359069819D01*
X147698684Y-359069819D02*
X148317731Y-359069819D01*
X148936779Y-358069819D02*
X149032017Y-358069819D01*
X149032017Y-358069819D02*
X149127255Y-358117438D01*
X149127255Y-358117438D02*
X149174874Y-358165057D01*
X149174874Y-358165057D02*
X149222493Y-358260295D01*
X149222493Y-358260295D02*
X149270112Y-358450771D01*
X149270112Y-358450771D02*
X149270112Y-358688866D01*
X149270112Y-358688866D02*
X149222493Y-358879342D01*
X149222493Y-358879342D02*
X149174874Y-358974580D01*
X149174874Y-358974580D02*
X149127255Y-359022200D01*
X149127255Y-359022200D02*
X149032017Y-359069819D01*
X149032017Y-359069819D02*
X148936779Y-359069819D01*
X148936779Y-359069819D02*
X148841541Y-359022200D01*
X148841541Y-359022200D02*
X148793922Y-358974580D01*
X148793922Y-358974580D02*
X148746303Y-358879342D01*
X148746303Y-358879342D02*
X148698684Y-358688866D01*
X148698684Y-358688866D02*
X148698684Y-358450771D01*
X148698684Y-358450771D02*
X148746303Y-358260295D01*
X148746303Y-358260295D02*
X148793922Y-358165057D01*
X148793922Y-358165057D02*
X148841541Y-358117438D01*
X148841541Y-358117438D02*
X148936779Y-358069819D01*
X149698684Y-359069819D02*
X149698684Y-358403152D01*
X149698684Y-358498390D02*
X149746303Y-358450771D01*
X149746303Y-358450771D02*
X149841541Y-358403152D01*
X149841541Y-358403152D02*
X149984398Y-358403152D01*
X149984398Y-358403152D02*
X150079636Y-358450771D01*
X150079636Y-358450771D02*
X150127255Y-358546009D01*
X150127255Y-358546009D02*
X150127255Y-359069819D01*
X150127255Y-358546009D02*
X150174874Y-358450771D01*
X150174874Y-358450771D02*
X150270112Y-358403152D01*
X150270112Y-358403152D02*
X150412969Y-358403152D01*
X150412969Y-358403152D02*
X150508208Y-358450771D01*
X150508208Y-358450771D02*
X150555827Y-358546009D01*
X150555827Y-358546009D02*
X150555827Y-359069819D01*
X151032017Y-359069819D02*
X151032017Y-358403152D01*
X151032017Y-358498390D02*
X151079636Y-358450771D01*
X151079636Y-358450771D02*
X151174874Y-358403152D01*
X151174874Y-358403152D02*
X151317731Y-358403152D01*
X151317731Y-358403152D02*
X151412969Y-358450771D01*
X151412969Y-358450771D02*
X151460588Y-358546009D01*
X151460588Y-358546009D02*
X151460588Y-359069819D01*
X151460588Y-358546009D02*
X151508207Y-358450771D01*
X151508207Y-358450771D02*
X151603445Y-358403152D01*
X151603445Y-358403152D02*
X151746302Y-358403152D01*
X151746302Y-358403152D02*
X151841541Y-358450771D01*
X151841541Y-358450771D02*
X151889160Y-358546009D01*
X151889160Y-358546009D02*
X151889160Y-359069819D01*
X137989160Y-591212256D02*
X138132017Y-591259875D01*
X138132017Y-591259875D02*
X138370112Y-591259875D01*
X138370112Y-591259875D02*
X138465350Y-591212256D01*
X138465350Y-591212256D02*
X138512969Y-591164636D01*
X138512969Y-591164636D02*
X138560588Y-591069398D01*
X138560588Y-591069398D02*
X138560588Y-590974160D01*
X138560588Y-590974160D02*
X138512969Y-590878922D01*
X138512969Y-590878922D02*
X138465350Y-590831303D01*
X138465350Y-590831303D02*
X138370112Y-590783684D01*
X138370112Y-590783684D02*
X138179636Y-590736065D01*
X138179636Y-590736065D02*
X138084398Y-590688446D01*
X138084398Y-590688446D02*
X138036779Y-590640827D01*
X138036779Y-590640827D02*
X137989160Y-590545589D01*
X137989160Y-590545589D02*
X137989160Y-590450351D01*
X137989160Y-590450351D02*
X138036779Y-590355113D01*
X138036779Y-590355113D02*
X138084398Y-590307494D01*
X138084398Y-590307494D02*
X138179636Y-590259875D01*
X138179636Y-590259875D02*
X138417731Y-590259875D01*
X138417731Y-590259875D02*
X138560588Y-590307494D01*
X138846303Y-590593208D02*
X139227255Y-590593208D01*
X138989160Y-590259875D02*
X138989160Y-591117017D01*
X138989160Y-591117017D02*
X139036779Y-591212256D01*
X139036779Y-591212256D02*
X139132017Y-591259875D01*
X139132017Y-591259875D02*
X139227255Y-591259875D01*
X139560589Y-591259875D02*
X139560589Y-590593208D01*
X139560589Y-590259875D02*
X139512970Y-590307494D01*
X139512970Y-590307494D02*
X139560589Y-590355113D01*
X139560589Y-590355113D02*
X139608208Y-590307494D01*
X139608208Y-590307494D02*
X139560589Y-590259875D01*
X139560589Y-590259875D02*
X139560589Y-590355113D01*
X139893922Y-590593208D02*
X140274874Y-590593208D01*
X140036779Y-591259875D02*
X140036779Y-590402732D01*
X140036779Y-590402732D02*
X140084398Y-590307494D01*
X140084398Y-590307494D02*
X140179636Y-590259875D01*
X140179636Y-590259875D02*
X140274874Y-590259875D01*
X140465351Y-590593208D02*
X140846303Y-590593208D01*
X140608208Y-591259875D02*
X140608208Y-590402732D01*
X140608208Y-590402732D02*
X140655827Y-590307494D01*
X140655827Y-590307494D02*
X140751065Y-590259875D01*
X140751065Y-590259875D02*
X140846303Y-590259875D01*
X141560589Y-591212256D02*
X141465351Y-591259875D01*
X141465351Y-591259875D02*
X141274875Y-591259875D01*
X141274875Y-591259875D02*
X141179637Y-591212256D01*
X141179637Y-591212256D02*
X141132018Y-591117017D01*
X141132018Y-591117017D02*
X141132018Y-590736065D01*
X141132018Y-590736065D02*
X141179637Y-590640827D01*
X141179637Y-590640827D02*
X141274875Y-590593208D01*
X141274875Y-590593208D02*
X141465351Y-590593208D01*
X141465351Y-590593208D02*
X141560589Y-590640827D01*
X141560589Y-590640827D02*
X141608208Y-590736065D01*
X141608208Y-590736065D02*
X141608208Y-590831303D01*
X141608208Y-590831303D02*
X141132018Y-590926541D01*
X142036780Y-590593208D02*
X142036780Y-591259875D01*
X142036780Y-590688446D02*
X142084399Y-590640827D01*
X142084399Y-590640827D02*
X142179637Y-590593208D01*
X142179637Y-590593208D02*
X142322494Y-590593208D01*
X142322494Y-590593208D02*
X142417732Y-590640827D01*
X142417732Y-590640827D02*
X142465351Y-590736065D01*
X142465351Y-590736065D02*
X142465351Y-591259875D01*
X143322494Y-591212256D02*
X143227256Y-591259875D01*
X143227256Y-591259875D02*
X143036780Y-591259875D01*
X143036780Y-591259875D02*
X142941542Y-591212256D01*
X142941542Y-591212256D02*
X142893923Y-591117017D01*
X142893923Y-591117017D02*
X142893923Y-590736065D01*
X142893923Y-590736065D02*
X142941542Y-590640827D01*
X142941542Y-590640827D02*
X143036780Y-590593208D01*
X143036780Y-590593208D02*
X143227256Y-590593208D01*
X143227256Y-590593208D02*
X143322494Y-590640827D01*
X143322494Y-590640827D02*
X143370113Y-590736065D01*
X143370113Y-590736065D02*
X143370113Y-590831303D01*
X143370113Y-590831303D02*
X142893923Y-590926541D01*
X143798685Y-591259875D02*
X143798685Y-590593208D01*
X143798685Y-590783684D02*
X143846304Y-590688446D01*
X143846304Y-590688446D02*
X143893923Y-590640827D01*
X143893923Y-590640827D02*
X143989161Y-590593208D01*
X143989161Y-590593208D02*
X144084399Y-590593208D01*
X144417733Y-591164636D02*
X144465352Y-591212256D01*
X144465352Y-591212256D02*
X144417733Y-591259875D01*
X144417733Y-591259875D02*
X144370114Y-591212256D01*
X144370114Y-591212256D02*
X144417733Y-591164636D01*
X144417733Y-591164636D02*
X144417733Y-591259875D01*
X144417733Y-590640827D02*
X144465352Y-590688446D01*
X144465352Y-590688446D02*
X144417733Y-590736065D01*
X144417733Y-590736065D02*
X144370114Y-590688446D01*
X144370114Y-590688446D02*
X144417733Y-590640827D01*
X144417733Y-590640827D02*
X144417733Y-590736065D01*
X145655828Y-591259875D02*
X145655828Y-590259875D01*
X145655828Y-590259875D02*
X146036780Y-590259875D01*
X146036780Y-590259875D02*
X146132018Y-590307494D01*
X146132018Y-590307494D02*
X146179637Y-590355113D01*
X146179637Y-590355113D02*
X146227256Y-590450351D01*
X146227256Y-590450351D02*
X146227256Y-590593208D01*
X146227256Y-590593208D02*
X146179637Y-590688446D01*
X146179637Y-590688446D02*
X146132018Y-590736065D01*
X146132018Y-590736065D02*
X146036780Y-590783684D01*
X146036780Y-590783684D02*
X145655828Y-590783684D01*
X146798685Y-591259875D02*
X146703447Y-591212256D01*
X146703447Y-591212256D02*
X146655828Y-591164636D01*
X146655828Y-591164636D02*
X146608209Y-591069398D01*
X146608209Y-591069398D02*
X146608209Y-590783684D01*
X146608209Y-590783684D02*
X146655828Y-590688446D01*
X146655828Y-590688446D02*
X146703447Y-590640827D01*
X146703447Y-590640827D02*
X146798685Y-590593208D01*
X146798685Y-590593208D02*
X146941542Y-590593208D01*
X146941542Y-590593208D02*
X147036780Y-590640827D01*
X147036780Y-590640827D02*
X147084399Y-590688446D01*
X147084399Y-590688446D02*
X147132018Y-590783684D01*
X147132018Y-590783684D02*
X147132018Y-591069398D01*
X147132018Y-591069398D02*
X147084399Y-591164636D01*
X147084399Y-591164636D02*
X147036780Y-591212256D01*
X147036780Y-591212256D02*
X146941542Y-591259875D01*
X146941542Y-591259875D02*
X146798685Y-591259875D01*
X147703447Y-591259875D02*
X147608209Y-591212256D01*
X147608209Y-591212256D02*
X147560590Y-591117017D01*
X147560590Y-591117017D02*
X147560590Y-590259875D01*
X147989162Y-590593208D02*
X148227257Y-591259875D01*
X148465352Y-590593208D02*
X148227257Y-591259875D01*
X148227257Y-591259875D02*
X148132019Y-591497970D01*
X148132019Y-591497970D02*
X148084400Y-591545589D01*
X148084400Y-591545589D02*
X147989162Y-591593208D01*
X148846305Y-591259875D02*
X148846305Y-590593208D01*
X148846305Y-590259875D02*
X148798686Y-590307494D01*
X148798686Y-590307494D02*
X148846305Y-590355113D01*
X148846305Y-590355113D02*
X148893924Y-590307494D01*
X148893924Y-590307494D02*
X148846305Y-590259875D01*
X148846305Y-590259875D02*
X148846305Y-590355113D01*
X149322495Y-591259875D02*
X149322495Y-590593208D01*
X149322495Y-590688446D02*
X149370114Y-590640827D01*
X149370114Y-590640827D02*
X149465352Y-590593208D01*
X149465352Y-590593208D02*
X149608209Y-590593208D01*
X149608209Y-590593208D02*
X149703447Y-590640827D01*
X149703447Y-590640827D02*
X149751066Y-590736065D01*
X149751066Y-590736065D02*
X149751066Y-591259875D01*
X149751066Y-590736065D02*
X149798685Y-590640827D01*
X149798685Y-590640827D02*
X149893923Y-590593208D01*
X149893923Y-590593208D02*
X150036780Y-590593208D01*
X150036780Y-590593208D02*
X150132019Y-590640827D01*
X150132019Y-590640827D02*
X150179638Y-590736065D01*
X150179638Y-590736065D02*
X150179638Y-591259875D01*
X150655828Y-591259875D02*
X150655828Y-590593208D01*
X150655828Y-590259875D02*
X150608209Y-590307494D01*
X150608209Y-590307494D02*
X150655828Y-590355113D01*
X150655828Y-590355113D02*
X150703447Y-590307494D01*
X150703447Y-590307494D02*
X150655828Y-590259875D01*
X150655828Y-590259875D02*
X150655828Y-590355113D01*
X151560589Y-591259875D02*
X151560589Y-590259875D01*
X151560589Y-591212256D02*
X151465351Y-591259875D01*
X151465351Y-591259875D02*
X151274875Y-591259875D01*
X151274875Y-591259875D02*
X151179637Y-591212256D01*
X151179637Y-591212256D02*
X151132018Y-591164636D01*
X151132018Y-591164636D02*
X151084399Y-591069398D01*
X151084399Y-591069398D02*
X151084399Y-590783684D01*
X151084399Y-590783684D02*
X151132018Y-590688446D01*
X151132018Y-590688446D02*
X151179637Y-590640827D01*
X151179637Y-590640827D02*
X151274875Y-590593208D01*
X151274875Y-590593208D02*
X151465351Y-590593208D01*
X151465351Y-590593208D02*
X151560589Y-590640827D01*
X152417732Y-591212256D02*
X152322494Y-591259875D01*
X152322494Y-591259875D02*
X152132018Y-591259875D01*
X152132018Y-591259875D02*
X152036780Y-591212256D01*
X152036780Y-591212256D02*
X151989161Y-591117017D01*
X151989161Y-591117017D02*
X151989161Y-590736065D01*
X151989161Y-590736065D02*
X152036780Y-590640827D01*
X152036780Y-590640827D02*
X152132018Y-590593208D01*
X152132018Y-590593208D02*
X152322494Y-590593208D01*
X152322494Y-590593208D02*
X152417732Y-590640827D01*
X152417732Y-590640827D02*
X152465351Y-590736065D01*
X152465351Y-590736065D02*
X152465351Y-590831303D01*
X152465351Y-590831303D02*
X151989161Y-590926541D01*
X137893922Y-591869819D02*
X138465350Y-591869819D01*
X138179636Y-592869819D02*
X138179636Y-591869819D01*
X138798684Y-592869819D02*
X138798684Y-591869819D01*
X139227255Y-592869819D02*
X139227255Y-592346009D01*
X139227255Y-592346009D02*
X139179636Y-592250771D01*
X139179636Y-592250771D02*
X139084398Y-592203152D01*
X139084398Y-592203152D02*
X138941541Y-592203152D01*
X138941541Y-592203152D02*
X138846303Y-592250771D01*
X138846303Y-592250771D02*
X138798684Y-592298390D01*
X139703446Y-592869819D02*
X139703446Y-592203152D01*
X139703446Y-591869819D02*
X139655827Y-591917438D01*
X139655827Y-591917438D02*
X139703446Y-591965057D01*
X139703446Y-591965057D02*
X139751065Y-591917438D01*
X139751065Y-591917438D02*
X139703446Y-591869819D01*
X139703446Y-591869819D02*
X139703446Y-591965057D01*
X140608207Y-592822200D02*
X140512969Y-592869819D01*
X140512969Y-592869819D02*
X140322493Y-592869819D01*
X140322493Y-592869819D02*
X140227255Y-592822200D01*
X140227255Y-592822200D02*
X140179636Y-592774580D01*
X140179636Y-592774580D02*
X140132017Y-592679342D01*
X140132017Y-592679342D02*
X140132017Y-592393628D01*
X140132017Y-592393628D02*
X140179636Y-592298390D01*
X140179636Y-592298390D02*
X140227255Y-592250771D01*
X140227255Y-592250771D02*
X140322493Y-592203152D01*
X140322493Y-592203152D02*
X140512969Y-592203152D01*
X140512969Y-592203152D02*
X140608207Y-592250771D01*
X141036779Y-592869819D02*
X141036779Y-591869819D01*
X141132017Y-592488866D02*
X141417731Y-592869819D01*
X141417731Y-592203152D02*
X141036779Y-592584104D01*
X141846303Y-592203152D02*
X141846303Y-592869819D01*
X141846303Y-592298390D02*
X141893922Y-592250771D01*
X141893922Y-592250771D02*
X141989160Y-592203152D01*
X141989160Y-592203152D02*
X142132017Y-592203152D01*
X142132017Y-592203152D02*
X142227255Y-592250771D01*
X142227255Y-592250771D02*
X142274874Y-592346009D01*
X142274874Y-592346009D02*
X142274874Y-592869819D01*
X143132017Y-592822200D02*
X143036779Y-592869819D01*
X143036779Y-592869819D02*
X142846303Y-592869819D01*
X142846303Y-592869819D02*
X142751065Y-592822200D01*
X142751065Y-592822200D02*
X142703446Y-592726961D01*
X142703446Y-592726961D02*
X142703446Y-592346009D01*
X142703446Y-592346009D02*
X142751065Y-592250771D01*
X142751065Y-592250771D02*
X142846303Y-592203152D01*
X142846303Y-592203152D02*
X143036779Y-592203152D01*
X143036779Y-592203152D02*
X143132017Y-592250771D01*
X143132017Y-592250771D02*
X143179636Y-592346009D01*
X143179636Y-592346009D02*
X143179636Y-592441247D01*
X143179636Y-592441247D02*
X142703446Y-592536485D01*
X143560589Y-592822200D02*
X143655827Y-592869819D01*
X143655827Y-592869819D02*
X143846303Y-592869819D01*
X143846303Y-592869819D02*
X143941541Y-592822200D01*
X143941541Y-592822200D02*
X143989160Y-592726961D01*
X143989160Y-592726961D02*
X143989160Y-592679342D01*
X143989160Y-592679342D02*
X143941541Y-592584104D01*
X143941541Y-592584104D02*
X143846303Y-592536485D01*
X143846303Y-592536485D02*
X143703446Y-592536485D01*
X143703446Y-592536485D02*
X143608208Y-592488866D01*
X143608208Y-592488866D02*
X143560589Y-592393628D01*
X143560589Y-592393628D02*
X143560589Y-592346009D01*
X143560589Y-592346009D02*
X143608208Y-592250771D01*
X143608208Y-592250771D02*
X143703446Y-592203152D01*
X143703446Y-592203152D02*
X143846303Y-592203152D01*
X143846303Y-592203152D02*
X143941541Y-592250771D01*
X144370113Y-592822200D02*
X144465351Y-592869819D01*
X144465351Y-592869819D02*
X144655827Y-592869819D01*
X144655827Y-592869819D02*
X144751065Y-592822200D01*
X144751065Y-592822200D02*
X144798684Y-592726961D01*
X144798684Y-592726961D02*
X144798684Y-592679342D01*
X144798684Y-592679342D02*
X144751065Y-592584104D01*
X144751065Y-592584104D02*
X144655827Y-592536485D01*
X144655827Y-592536485D02*
X144512970Y-592536485D01*
X144512970Y-592536485D02*
X144417732Y-592488866D01*
X144417732Y-592488866D02*
X144370113Y-592393628D01*
X144370113Y-592393628D02*
X144370113Y-592346009D01*
X144370113Y-592346009D02*
X144417732Y-592250771D01*
X144417732Y-592250771D02*
X144512970Y-592203152D01*
X144512970Y-592203152D02*
X144655827Y-592203152D01*
X144655827Y-592203152D02*
X144751065Y-592250771D01*
X145227256Y-592774580D02*
X145274875Y-592822200D01*
X145274875Y-592822200D02*
X145227256Y-592869819D01*
X145227256Y-592869819D02*
X145179637Y-592822200D01*
X145179637Y-592822200D02*
X145227256Y-592774580D01*
X145227256Y-592774580D02*
X145227256Y-592869819D01*
X145227256Y-592250771D02*
X145274875Y-592298390D01*
X145274875Y-592298390D02*
X145227256Y-592346009D01*
X145227256Y-592346009D02*
X145179637Y-592298390D01*
X145179637Y-592298390D02*
X145227256Y-592250771D01*
X145227256Y-592250771D02*
X145227256Y-592346009D01*
X146655827Y-591869819D02*
X146751065Y-591869819D01*
X146751065Y-591869819D02*
X146846303Y-591917438D01*
X146846303Y-591917438D02*
X146893922Y-591965057D01*
X146893922Y-591965057D02*
X146941541Y-592060295D01*
X146941541Y-592060295D02*
X146989160Y-592250771D01*
X146989160Y-592250771D02*
X146989160Y-592488866D01*
X146989160Y-592488866D02*
X146941541Y-592679342D01*
X146941541Y-592679342D02*
X146893922Y-592774580D01*
X146893922Y-592774580D02*
X146846303Y-592822200D01*
X146846303Y-592822200D02*
X146751065Y-592869819D01*
X146751065Y-592869819D02*
X146655827Y-592869819D01*
X146655827Y-592869819D02*
X146560589Y-592822200D01*
X146560589Y-592822200D02*
X146512970Y-592774580D01*
X146512970Y-592774580D02*
X146465351Y-592679342D01*
X146465351Y-592679342D02*
X146417732Y-592488866D01*
X146417732Y-592488866D02*
X146417732Y-592250771D01*
X146417732Y-592250771D02*
X146465351Y-592060295D01*
X146465351Y-592060295D02*
X146512970Y-591965057D01*
X146512970Y-591965057D02*
X146560589Y-591917438D01*
X146560589Y-591917438D02*
X146655827Y-591869819D01*
X147417732Y-592774580D02*
X147465351Y-592822200D01*
X147465351Y-592822200D02*
X147417732Y-592869819D01*
X147417732Y-592869819D02*
X147370113Y-592822200D01*
X147370113Y-592822200D02*
X147417732Y-592774580D01*
X147417732Y-592774580D02*
X147417732Y-592869819D01*
X147846303Y-591965057D02*
X147893922Y-591917438D01*
X147893922Y-591917438D02*
X147989160Y-591869819D01*
X147989160Y-591869819D02*
X148227255Y-591869819D01*
X148227255Y-591869819D02*
X148322493Y-591917438D01*
X148322493Y-591917438D02*
X148370112Y-591965057D01*
X148370112Y-591965057D02*
X148417731Y-592060295D01*
X148417731Y-592060295D02*
X148417731Y-592155533D01*
X148417731Y-592155533D02*
X148370112Y-592298390D01*
X148370112Y-592298390D02*
X147798684Y-592869819D01*
X147798684Y-592869819D02*
X148417731Y-592869819D01*
X149036779Y-591869819D02*
X149132017Y-591869819D01*
X149132017Y-591869819D02*
X149227255Y-591917438D01*
X149227255Y-591917438D02*
X149274874Y-591965057D01*
X149274874Y-591965057D02*
X149322493Y-592060295D01*
X149322493Y-592060295D02*
X149370112Y-592250771D01*
X149370112Y-592250771D02*
X149370112Y-592488866D01*
X149370112Y-592488866D02*
X149322493Y-592679342D01*
X149322493Y-592679342D02*
X149274874Y-592774580D01*
X149274874Y-592774580D02*
X149227255Y-592822200D01*
X149227255Y-592822200D02*
X149132017Y-592869819D01*
X149132017Y-592869819D02*
X149036779Y-592869819D01*
X149036779Y-592869819D02*
X148941541Y-592822200D01*
X148941541Y-592822200D02*
X148893922Y-592774580D01*
X148893922Y-592774580D02*
X148846303Y-592679342D01*
X148846303Y-592679342D02*
X148798684Y-592488866D01*
X148798684Y-592488866D02*
X148798684Y-592250771D01*
X148798684Y-592250771D02*
X148846303Y-592060295D01*
X148846303Y-592060295D02*
X148893922Y-591965057D01*
X148893922Y-591965057D02*
X148941541Y-591917438D01*
X148941541Y-591917438D02*
X149036779Y-591869819D01*
X149798684Y-592869819D02*
X149798684Y-592203152D01*
X149798684Y-592298390D02*
X149846303Y-592250771D01*
X149846303Y-592250771D02*
X149941541Y-592203152D01*
X149941541Y-592203152D02*
X150084398Y-592203152D01*
X150084398Y-592203152D02*
X150179636Y-592250771D01*
X150179636Y-592250771D02*
X150227255Y-592346009D01*
X150227255Y-592346009D02*
X150227255Y-592869819D01*
X150227255Y-592346009D02*
X150274874Y-592250771D01*
X150274874Y-592250771D02*
X150370112Y-592203152D01*
X150370112Y-592203152D02*
X150512969Y-592203152D01*
X150512969Y-592203152D02*
X150608208Y-592250771D01*
X150608208Y-592250771D02*
X150655827Y-592346009D01*
X150655827Y-592346009D02*
X150655827Y-592869819D01*
X151132017Y-592869819D02*
X151132017Y-592203152D01*
X151132017Y-592298390D02*
X151179636Y-592250771D01*
X151179636Y-592250771D02*
X151274874Y-592203152D01*
X151274874Y-592203152D02*
X151417731Y-592203152D01*
X151417731Y-592203152D02*
X151512969Y-592250771D01*
X151512969Y-592250771D02*
X151560588Y-592346009D01*
X151560588Y-592346009D02*
X151560588Y-592869819D01*
X151560588Y-592346009D02*
X151608207Y-592250771D01*
X151608207Y-592250771D02*
X151703445Y-592203152D01*
X151703445Y-592203152D02*
X151846302Y-592203152D01*
X151846302Y-592203152D02*
X151941541Y-592250771D01*
X151941541Y-592250771D02*
X151989160Y-592346009D01*
X151989160Y-592346009D02*
X151989160Y-592869819D01*
X138089160Y-124012256D02*
X138232017Y-124059875D01*
X138232017Y-124059875D02*
X138470112Y-124059875D01*
X138470112Y-124059875D02*
X138565350Y-124012256D01*
X138565350Y-124012256D02*
X138612969Y-123964636D01*
X138612969Y-123964636D02*
X138660588Y-123869398D01*
X138660588Y-123869398D02*
X138660588Y-123774160D01*
X138660588Y-123774160D02*
X138612969Y-123678922D01*
X138612969Y-123678922D02*
X138565350Y-123631303D01*
X138565350Y-123631303D02*
X138470112Y-123583684D01*
X138470112Y-123583684D02*
X138279636Y-123536065D01*
X138279636Y-123536065D02*
X138184398Y-123488446D01*
X138184398Y-123488446D02*
X138136779Y-123440827D01*
X138136779Y-123440827D02*
X138089160Y-123345589D01*
X138089160Y-123345589D02*
X138089160Y-123250351D01*
X138089160Y-123250351D02*
X138136779Y-123155113D01*
X138136779Y-123155113D02*
X138184398Y-123107494D01*
X138184398Y-123107494D02*
X138279636Y-123059875D01*
X138279636Y-123059875D02*
X138517731Y-123059875D01*
X138517731Y-123059875D02*
X138660588Y-123107494D01*
X138946303Y-123393208D02*
X139327255Y-123393208D01*
X139089160Y-123059875D02*
X139089160Y-123917017D01*
X139089160Y-123917017D02*
X139136779Y-124012256D01*
X139136779Y-124012256D02*
X139232017Y-124059875D01*
X139232017Y-124059875D02*
X139327255Y-124059875D01*
X139660589Y-124059875D02*
X139660589Y-123393208D01*
X139660589Y-123059875D02*
X139612970Y-123107494D01*
X139612970Y-123107494D02*
X139660589Y-123155113D01*
X139660589Y-123155113D02*
X139708208Y-123107494D01*
X139708208Y-123107494D02*
X139660589Y-123059875D01*
X139660589Y-123059875D02*
X139660589Y-123155113D01*
X139993922Y-123393208D02*
X140374874Y-123393208D01*
X140136779Y-124059875D02*
X140136779Y-123202732D01*
X140136779Y-123202732D02*
X140184398Y-123107494D01*
X140184398Y-123107494D02*
X140279636Y-123059875D01*
X140279636Y-123059875D02*
X140374874Y-123059875D01*
X140565351Y-123393208D02*
X140946303Y-123393208D01*
X140708208Y-124059875D02*
X140708208Y-123202732D01*
X140708208Y-123202732D02*
X140755827Y-123107494D01*
X140755827Y-123107494D02*
X140851065Y-123059875D01*
X140851065Y-123059875D02*
X140946303Y-123059875D01*
X141660589Y-124012256D02*
X141565351Y-124059875D01*
X141565351Y-124059875D02*
X141374875Y-124059875D01*
X141374875Y-124059875D02*
X141279637Y-124012256D01*
X141279637Y-124012256D02*
X141232018Y-123917017D01*
X141232018Y-123917017D02*
X141232018Y-123536065D01*
X141232018Y-123536065D02*
X141279637Y-123440827D01*
X141279637Y-123440827D02*
X141374875Y-123393208D01*
X141374875Y-123393208D02*
X141565351Y-123393208D01*
X141565351Y-123393208D02*
X141660589Y-123440827D01*
X141660589Y-123440827D02*
X141708208Y-123536065D01*
X141708208Y-123536065D02*
X141708208Y-123631303D01*
X141708208Y-123631303D02*
X141232018Y-123726541D01*
X142136780Y-123393208D02*
X142136780Y-124059875D01*
X142136780Y-123488446D02*
X142184399Y-123440827D01*
X142184399Y-123440827D02*
X142279637Y-123393208D01*
X142279637Y-123393208D02*
X142422494Y-123393208D01*
X142422494Y-123393208D02*
X142517732Y-123440827D01*
X142517732Y-123440827D02*
X142565351Y-123536065D01*
X142565351Y-123536065D02*
X142565351Y-124059875D01*
X143422494Y-124012256D02*
X143327256Y-124059875D01*
X143327256Y-124059875D02*
X143136780Y-124059875D01*
X143136780Y-124059875D02*
X143041542Y-124012256D01*
X143041542Y-124012256D02*
X142993923Y-123917017D01*
X142993923Y-123917017D02*
X142993923Y-123536065D01*
X142993923Y-123536065D02*
X143041542Y-123440827D01*
X143041542Y-123440827D02*
X143136780Y-123393208D01*
X143136780Y-123393208D02*
X143327256Y-123393208D01*
X143327256Y-123393208D02*
X143422494Y-123440827D01*
X143422494Y-123440827D02*
X143470113Y-123536065D01*
X143470113Y-123536065D02*
X143470113Y-123631303D01*
X143470113Y-123631303D02*
X142993923Y-123726541D01*
X143898685Y-124059875D02*
X143898685Y-123393208D01*
X143898685Y-123583684D02*
X143946304Y-123488446D01*
X143946304Y-123488446D02*
X143993923Y-123440827D01*
X143993923Y-123440827D02*
X144089161Y-123393208D01*
X144089161Y-123393208D02*
X144184399Y-123393208D01*
X144517733Y-123964636D02*
X144565352Y-124012256D01*
X144565352Y-124012256D02*
X144517733Y-124059875D01*
X144517733Y-124059875D02*
X144470114Y-124012256D01*
X144470114Y-124012256D02*
X144517733Y-123964636D01*
X144517733Y-123964636D02*
X144517733Y-124059875D01*
X144517733Y-123440827D02*
X144565352Y-123488446D01*
X144565352Y-123488446D02*
X144517733Y-123536065D01*
X144517733Y-123536065D02*
X144470114Y-123488446D01*
X144470114Y-123488446D02*
X144517733Y-123440827D01*
X144517733Y-123440827D02*
X144517733Y-123536065D01*
X145755828Y-124059875D02*
X145755828Y-123059875D01*
X145755828Y-123059875D02*
X146136780Y-123059875D01*
X146136780Y-123059875D02*
X146232018Y-123107494D01*
X146232018Y-123107494D02*
X146279637Y-123155113D01*
X146279637Y-123155113D02*
X146327256Y-123250351D01*
X146327256Y-123250351D02*
X146327256Y-123393208D01*
X146327256Y-123393208D02*
X146279637Y-123488446D01*
X146279637Y-123488446D02*
X146232018Y-123536065D01*
X146232018Y-123536065D02*
X146136780Y-123583684D01*
X146136780Y-123583684D02*
X145755828Y-123583684D01*
X146898685Y-124059875D02*
X146803447Y-124012256D01*
X146803447Y-124012256D02*
X146755828Y-123964636D01*
X146755828Y-123964636D02*
X146708209Y-123869398D01*
X146708209Y-123869398D02*
X146708209Y-123583684D01*
X146708209Y-123583684D02*
X146755828Y-123488446D01*
X146755828Y-123488446D02*
X146803447Y-123440827D01*
X146803447Y-123440827D02*
X146898685Y-123393208D01*
X146898685Y-123393208D02*
X147041542Y-123393208D01*
X147041542Y-123393208D02*
X147136780Y-123440827D01*
X147136780Y-123440827D02*
X147184399Y-123488446D01*
X147184399Y-123488446D02*
X147232018Y-123583684D01*
X147232018Y-123583684D02*
X147232018Y-123869398D01*
X147232018Y-123869398D02*
X147184399Y-123964636D01*
X147184399Y-123964636D02*
X147136780Y-124012256D01*
X147136780Y-124012256D02*
X147041542Y-124059875D01*
X147041542Y-124059875D02*
X146898685Y-124059875D01*
X147803447Y-124059875D02*
X147708209Y-124012256D01*
X147708209Y-124012256D02*
X147660590Y-123917017D01*
X147660590Y-123917017D02*
X147660590Y-123059875D01*
X148089162Y-123393208D02*
X148327257Y-124059875D01*
X148565352Y-123393208D02*
X148327257Y-124059875D01*
X148327257Y-124059875D02*
X148232019Y-124297970D01*
X148232019Y-124297970D02*
X148184400Y-124345589D01*
X148184400Y-124345589D02*
X148089162Y-124393208D01*
X148946305Y-124059875D02*
X148946305Y-123393208D01*
X148946305Y-123059875D02*
X148898686Y-123107494D01*
X148898686Y-123107494D02*
X148946305Y-123155113D01*
X148946305Y-123155113D02*
X148993924Y-123107494D01*
X148993924Y-123107494D02*
X148946305Y-123059875D01*
X148946305Y-123059875D02*
X148946305Y-123155113D01*
X149422495Y-124059875D02*
X149422495Y-123393208D01*
X149422495Y-123488446D02*
X149470114Y-123440827D01*
X149470114Y-123440827D02*
X149565352Y-123393208D01*
X149565352Y-123393208D02*
X149708209Y-123393208D01*
X149708209Y-123393208D02*
X149803447Y-123440827D01*
X149803447Y-123440827D02*
X149851066Y-123536065D01*
X149851066Y-123536065D02*
X149851066Y-124059875D01*
X149851066Y-123536065D02*
X149898685Y-123440827D01*
X149898685Y-123440827D02*
X149993923Y-123393208D01*
X149993923Y-123393208D02*
X150136780Y-123393208D01*
X150136780Y-123393208D02*
X150232019Y-123440827D01*
X150232019Y-123440827D02*
X150279638Y-123536065D01*
X150279638Y-123536065D02*
X150279638Y-124059875D01*
X150755828Y-124059875D02*
X150755828Y-123393208D01*
X150755828Y-123059875D02*
X150708209Y-123107494D01*
X150708209Y-123107494D02*
X150755828Y-123155113D01*
X150755828Y-123155113D02*
X150803447Y-123107494D01*
X150803447Y-123107494D02*
X150755828Y-123059875D01*
X150755828Y-123059875D02*
X150755828Y-123155113D01*
X151660589Y-124059875D02*
X151660589Y-123059875D01*
X151660589Y-124012256D02*
X151565351Y-124059875D01*
X151565351Y-124059875D02*
X151374875Y-124059875D01*
X151374875Y-124059875D02*
X151279637Y-124012256D01*
X151279637Y-124012256D02*
X151232018Y-123964636D01*
X151232018Y-123964636D02*
X151184399Y-123869398D01*
X151184399Y-123869398D02*
X151184399Y-123583684D01*
X151184399Y-123583684D02*
X151232018Y-123488446D01*
X151232018Y-123488446D02*
X151279637Y-123440827D01*
X151279637Y-123440827D02*
X151374875Y-123393208D01*
X151374875Y-123393208D02*
X151565351Y-123393208D01*
X151565351Y-123393208D02*
X151660589Y-123440827D01*
X152517732Y-124012256D02*
X152422494Y-124059875D01*
X152422494Y-124059875D02*
X152232018Y-124059875D01*
X152232018Y-124059875D02*
X152136780Y-124012256D01*
X152136780Y-124012256D02*
X152089161Y-123917017D01*
X152089161Y-123917017D02*
X152089161Y-123536065D01*
X152089161Y-123536065D02*
X152136780Y-123440827D01*
X152136780Y-123440827D02*
X152232018Y-123393208D01*
X152232018Y-123393208D02*
X152422494Y-123393208D01*
X152422494Y-123393208D02*
X152517732Y-123440827D01*
X152517732Y-123440827D02*
X152565351Y-123536065D01*
X152565351Y-123536065D02*
X152565351Y-123631303D01*
X152565351Y-123631303D02*
X152089161Y-123726541D01*
X137993922Y-124669819D02*
X138565350Y-124669819D01*
X138279636Y-125669819D02*
X138279636Y-124669819D01*
X138898684Y-125669819D02*
X138898684Y-124669819D01*
X139327255Y-125669819D02*
X139327255Y-125146009D01*
X139327255Y-125146009D02*
X139279636Y-125050771D01*
X139279636Y-125050771D02*
X139184398Y-125003152D01*
X139184398Y-125003152D02*
X139041541Y-125003152D01*
X139041541Y-125003152D02*
X138946303Y-125050771D01*
X138946303Y-125050771D02*
X138898684Y-125098390D01*
X139803446Y-125669819D02*
X139803446Y-125003152D01*
X139803446Y-124669819D02*
X139755827Y-124717438D01*
X139755827Y-124717438D02*
X139803446Y-124765057D01*
X139803446Y-124765057D02*
X139851065Y-124717438D01*
X139851065Y-124717438D02*
X139803446Y-124669819D01*
X139803446Y-124669819D02*
X139803446Y-124765057D01*
X140708207Y-125622200D02*
X140612969Y-125669819D01*
X140612969Y-125669819D02*
X140422493Y-125669819D01*
X140422493Y-125669819D02*
X140327255Y-125622200D01*
X140327255Y-125622200D02*
X140279636Y-125574580D01*
X140279636Y-125574580D02*
X140232017Y-125479342D01*
X140232017Y-125479342D02*
X140232017Y-125193628D01*
X140232017Y-125193628D02*
X140279636Y-125098390D01*
X140279636Y-125098390D02*
X140327255Y-125050771D01*
X140327255Y-125050771D02*
X140422493Y-125003152D01*
X140422493Y-125003152D02*
X140612969Y-125003152D01*
X140612969Y-125003152D02*
X140708207Y-125050771D01*
X141136779Y-125669819D02*
X141136779Y-124669819D01*
X141232017Y-125288866D02*
X141517731Y-125669819D01*
X141517731Y-125003152D02*
X141136779Y-125384104D01*
X141946303Y-125003152D02*
X141946303Y-125669819D01*
X141946303Y-125098390D02*
X141993922Y-125050771D01*
X141993922Y-125050771D02*
X142089160Y-125003152D01*
X142089160Y-125003152D02*
X142232017Y-125003152D01*
X142232017Y-125003152D02*
X142327255Y-125050771D01*
X142327255Y-125050771D02*
X142374874Y-125146009D01*
X142374874Y-125146009D02*
X142374874Y-125669819D01*
X143232017Y-125622200D02*
X143136779Y-125669819D01*
X143136779Y-125669819D02*
X142946303Y-125669819D01*
X142946303Y-125669819D02*
X142851065Y-125622200D01*
X142851065Y-125622200D02*
X142803446Y-125526961D01*
X142803446Y-125526961D02*
X142803446Y-125146009D01*
X142803446Y-125146009D02*
X142851065Y-125050771D01*
X142851065Y-125050771D02*
X142946303Y-125003152D01*
X142946303Y-125003152D02*
X143136779Y-125003152D01*
X143136779Y-125003152D02*
X143232017Y-125050771D01*
X143232017Y-125050771D02*
X143279636Y-125146009D01*
X143279636Y-125146009D02*
X143279636Y-125241247D01*
X143279636Y-125241247D02*
X142803446Y-125336485D01*
X143660589Y-125622200D02*
X143755827Y-125669819D01*
X143755827Y-125669819D02*
X143946303Y-125669819D01*
X143946303Y-125669819D02*
X144041541Y-125622200D01*
X144041541Y-125622200D02*
X144089160Y-125526961D01*
X144089160Y-125526961D02*
X144089160Y-125479342D01*
X144089160Y-125479342D02*
X144041541Y-125384104D01*
X144041541Y-125384104D02*
X143946303Y-125336485D01*
X143946303Y-125336485D02*
X143803446Y-125336485D01*
X143803446Y-125336485D02*
X143708208Y-125288866D01*
X143708208Y-125288866D02*
X143660589Y-125193628D01*
X143660589Y-125193628D02*
X143660589Y-125146009D01*
X143660589Y-125146009D02*
X143708208Y-125050771D01*
X143708208Y-125050771D02*
X143803446Y-125003152D01*
X143803446Y-125003152D02*
X143946303Y-125003152D01*
X143946303Y-125003152D02*
X144041541Y-125050771D01*
X144470113Y-125622200D02*
X144565351Y-125669819D01*
X144565351Y-125669819D02*
X144755827Y-125669819D01*
X144755827Y-125669819D02*
X144851065Y-125622200D01*
X144851065Y-125622200D02*
X144898684Y-125526961D01*
X144898684Y-125526961D02*
X144898684Y-125479342D01*
X144898684Y-125479342D02*
X144851065Y-125384104D01*
X144851065Y-125384104D02*
X144755827Y-125336485D01*
X144755827Y-125336485D02*
X144612970Y-125336485D01*
X144612970Y-125336485D02*
X144517732Y-125288866D01*
X144517732Y-125288866D02*
X144470113Y-125193628D01*
X144470113Y-125193628D02*
X144470113Y-125146009D01*
X144470113Y-125146009D02*
X144517732Y-125050771D01*
X144517732Y-125050771D02*
X144612970Y-125003152D01*
X144612970Y-125003152D02*
X144755827Y-125003152D01*
X144755827Y-125003152D02*
X144851065Y-125050771D01*
X145327256Y-125574580D02*
X145374875Y-125622200D01*
X145374875Y-125622200D02*
X145327256Y-125669819D01*
X145327256Y-125669819D02*
X145279637Y-125622200D01*
X145279637Y-125622200D02*
X145327256Y-125574580D01*
X145327256Y-125574580D02*
X145327256Y-125669819D01*
X145327256Y-125050771D02*
X145374875Y-125098390D01*
X145374875Y-125098390D02*
X145327256Y-125146009D01*
X145327256Y-125146009D02*
X145279637Y-125098390D01*
X145279637Y-125098390D02*
X145327256Y-125050771D01*
X145327256Y-125050771D02*
X145327256Y-125146009D01*
X146755827Y-124669819D02*
X146851065Y-124669819D01*
X146851065Y-124669819D02*
X146946303Y-124717438D01*
X146946303Y-124717438D02*
X146993922Y-124765057D01*
X146993922Y-124765057D02*
X147041541Y-124860295D01*
X147041541Y-124860295D02*
X147089160Y-125050771D01*
X147089160Y-125050771D02*
X147089160Y-125288866D01*
X147089160Y-125288866D02*
X147041541Y-125479342D01*
X147041541Y-125479342D02*
X146993922Y-125574580D01*
X146993922Y-125574580D02*
X146946303Y-125622200D01*
X146946303Y-125622200D02*
X146851065Y-125669819D01*
X146851065Y-125669819D02*
X146755827Y-125669819D01*
X146755827Y-125669819D02*
X146660589Y-125622200D01*
X146660589Y-125622200D02*
X146612970Y-125574580D01*
X146612970Y-125574580D02*
X146565351Y-125479342D01*
X146565351Y-125479342D02*
X146517732Y-125288866D01*
X146517732Y-125288866D02*
X146517732Y-125050771D01*
X146517732Y-125050771D02*
X146565351Y-124860295D01*
X146565351Y-124860295D02*
X146612970Y-124765057D01*
X146612970Y-124765057D02*
X146660589Y-124717438D01*
X146660589Y-124717438D02*
X146755827Y-124669819D01*
X147517732Y-125574580D02*
X147565351Y-125622200D01*
X147565351Y-125622200D02*
X147517732Y-125669819D01*
X147517732Y-125669819D02*
X147470113Y-125622200D01*
X147470113Y-125622200D02*
X147517732Y-125574580D01*
X147517732Y-125574580D02*
X147517732Y-125669819D01*
X147946303Y-124765057D02*
X147993922Y-124717438D01*
X147993922Y-124717438D02*
X148089160Y-124669819D01*
X148089160Y-124669819D02*
X148327255Y-124669819D01*
X148327255Y-124669819D02*
X148422493Y-124717438D01*
X148422493Y-124717438D02*
X148470112Y-124765057D01*
X148470112Y-124765057D02*
X148517731Y-124860295D01*
X148517731Y-124860295D02*
X148517731Y-124955533D01*
X148517731Y-124955533D02*
X148470112Y-125098390D01*
X148470112Y-125098390D02*
X147898684Y-125669819D01*
X147898684Y-125669819D02*
X148517731Y-125669819D01*
X149136779Y-124669819D02*
X149232017Y-124669819D01*
X149232017Y-124669819D02*
X149327255Y-124717438D01*
X149327255Y-124717438D02*
X149374874Y-124765057D01*
X149374874Y-124765057D02*
X149422493Y-124860295D01*
X149422493Y-124860295D02*
X149470112Y-125050771D01*
X149470112Y-125050771D02*
X149470112Y-125288866D01*
X149470112Y-125288866D02*
X149422493Y-125479342D01*
X149422493Y-125479342D02*
X149374874Y-125574580D01*
X149374874Y-125574580D02*
X149327255Y-125622200D01*
X149327255Y-125622200D02*
X149232017Y-125669819D01*
X149232017Y-125669819D02*
X149136779Y-125669819D01*
X149136779Y-125669819D02*
X149041541Y-125622200D01*
X149041541Y-125622200D02*
X148993922Y-125574580D01*
X148993922Y-125574580D02*
X148946303Y-125479342D01*
X148946303Y-125479342D02*
X148898684Y-125288866D01*
X148898684Y-125288866D02*
X148898684Y-125050771D01*
X148898684Y-125050771D02*
X148946303Y-124860295D01*
X148946303Y-124860295D02*
X148993922Y-124765057D01*
X148993922Y-124765057D02*
X149041541Y-124717438D01*
X149041541Y-124717438D02*
X149136779Y-124669819D01*
X149898684Y-125669819D02*
X149898684Y-125003152D01*
X149898684Y-125098390D02*
X149946303Y-125050771D01*
X149946303Y-125050771D02*
X150041541Y-125003152D01*
X150041541Y-125003152D02*
X150184398Y-125003152D01*
X150184398Y-125003152D02*
X150279636Y-125050771D01*
X150279636Y-125050771D02*
X150327255Y-125146009D01*
X150327255Y-125146009D02*
X150327255Y-125669819D01*
X150327255Y-125146009D02*
X150374874Y-125050771D01*
X150374874Y-125050771D02*
X150470112Y-125003152D01*
X150470112Y-125003152D02*
X150612969Y-125003152D01*
X150612969Y-125003152D02*
X150708208Y-125050771D01*
X150708208Y-125050771D02*
X150755827Y-125146009D01*
X150755827Y-125146009D02*
X150755827Y-125669819D01*
X151232017Y-125669819D02*
X151232017Y-125003152D01*
X151232017Y-125098390D02*
X151279636Y-125050771D01*
X151279636Y-125050771D02*
X151374874Y-125003152D01*
X151374874Y-125003152D02*
X151517731Y-125003152D01*
X151517731Y-125003152D02*
X151612969Y-125050771D01*
X151612969Y-125050771D02*
X151660588Y-125146009D01*
X151660588Y-125146009D02*
X151660588Y-125669819D01*
X151660588Y-125146009D02*
X151708207Y-125050771D01*
X151708207Y-125050771D02*
X151803445Y-125003152D01*
X151803445Y-125003152D02*
X151946302Y-125003152D01*
X151946302Y-125003152D02*
X152041541Y-125050771D01*
X152041541Y-125050771D02*
X152089160Y-125146009D01*
X152089160Y-125146009D02*
X152089160Y-125669819D01*
X138089160Y-299612256D02*
X138232017Y-299659875D01*
X138232017Y-299659875D02*
X138470112Y-299659875D01*
X138470112Y-299659875D02*
X138565350Y-299612256D01*
X138565350Y-299612256D02*
X138612969Y-299564636D01*
X138612969Y-299564636D02*
X138660588Y-299469398D01*
X138660588Y-299469398D02*
X138660588Y-299374160D01*
X138660588Y-299374160D02*
X138612969Y-299278922D01*
X138612969Y-299278922D02*
X138565350Y-299231303D01*
X138565350Y-299231303D02*
X138470112Y-299183684D01*
X138470112Y-299183684D02*
X138279636Y-299136065D01*
X138279636Y-299136065D02*
X138184398Y-299088446D01*
X138184398Y-299088446D02*
X138136779Y-299040827D01*
X138136779Y-299040827D02*
X138089160Y-298945589D01*
X138089160Y-298945589D02*
X138089160Y-298850351D01*
X138089160Y-298850351D02*
X138136779Y-298755113D01*
X138136779Y-298755113D02*
X138184398Y-298707494D01*
X138184398Y-298707494D02*
X138279636Y-298659875D01*
X138279636Y-298659875D02*
X138517731Y-298659875D01*
X138517731Y-298659875D02*
X138660588Y-298707494D01*
X138946303Y-298993208D02*
X139327255Y-298993208D01*
X139089160Y-298659875D02*
X139089160Y-299517017D01*
X139089160Y-299517017D02*
X139136779Y-299612256D01*
X139136779Y-299612256D02*
X139232017Y-299659875D01*
X139232017Y-299659875D02*
X139327255Y-299659875D01*
X139660589Y-299659875D02*
X139660589Y-298993208D01*
X139660589Y-298659875D02*
X139612970Y-298707494D01*
X139612970Y-298707494D02*
X139660589Y-298755113D01*
X139660589Y-298755113D02*
X139708208Y-298707494D01*
X139708208Y-298707494D02*
X139660589Y-298659875D01*
X139660589Y-298659875D02*
X139660589Y-298755113D01*
X139993922Y-298993208D02*
X140374874Y-298993208D01*
X140136779Y-299659875D02*
X140136779Y-298802732D01*
X140136779Y-298802732D02*
X140184398Y-298707494D01*
X140184398Y-298707494D02*
X140279636Y-298659875D01*
X140279636Y-298659875D02*
X140374874Y-298659875D01*
X140565351Y-298993208D02*
X140946303Y-298993208D01*
X140708208Y-299659875D02*
X140708208Y-298802732D01*
X140708208Y-298802732D02*
X140755827Y-298707494D01*
X140755827Y-298707494D02*
X140851065Y-298659875D01*
X140851065Y-298659875D02*
X140946303Y-298659875D01*
X141660589Y-299612256D02*
X141565351Y-299659875D01*
X141565351Y-299659875D02*
X141374875Y-299659875D01*
X141374875Y-299659875D02*
X141279637Y-299612256D01*
X141279637Y-299612256D02*
X141232018Y-299517017D01*
X141232018Y-299517017D02*
X141232018Y-299136065D01*
X141232018Y-299136065D02*
X141279637Y-299040827D01*
X141279637Y-299040827D02*
X141374875Y-298993208D01*
X141374875Y-298993208D02*
X141565351Y-298993208D01*
X141565351Y-298993208D02*
X141660589Y-299040827D01*
X141660589Y-299040827D02*
X141708208Y-299136065D01*
X141708208Y-299136065D02*
X141708208Y-299231303D01*
X141708208Y-299231303D02*
X141232018Y-299326541D01*
X142136780Y-298993208D02*
X142136780Y-299659875D01*
X142136780Y-299088446D02*
X142184399Y-299040827D01*
X142184399Y-299040827D02*
X142279637Y-298993208D01*
X142279637Y-298993208D02*
X142422494Y-298993208D01*
X142422494Y-298993208D02*
X142517732Y-299040827D01*
X142517732Y-299040827D02*
X142565351Y-299136065D01*
X142565351Y-299136065D02*
X142565351Y-299659875D01*
X143422494Y-299612256D02*
X143327256Y-299659875D01*
X143327256Y-299659875D02*
X143136780Y-299659875D01*
X143136780Y-299659875D02*
X143041542Y-299612256D01*
X143041542Y-299612256D02*
X142993923Y-299517017D01*
X142993923Y-299517017D02*
X142993923Y-299136065D01*
X142993923Y-299136065D02*
X143041542Y-299040827D01*
X143041542Y-299040827D02*
X143136780Y-298993208D01*
X143136780Y-298993208D02*
X143327256Y-298993208D01*
X143327256Y-298993208D02*
X143422494Y-299040827D01*
X143422494Y-299040827D02*
X143470113Y-299136065D01*
X143470113Y-299136065D02*
X143470113Y-299231303D01*
X143470113Y-299231303D02*
X142993923Y-299326541D01*
X143898685Y-299659875D02*
X143898685Y-298993208D01*
X143898685Y-299183684D02*
X143946304Y-299088446D01*
X143946304Y-299088446D02*
X143993923Y-299040827D01*
X143993923Y-299040827D02*
X144089161Y-298993208D01*
X144089161Y-298993208D02*
X144184399Y-298993208D01*
X144517733Y-299564636D02*
X144565352Y-299612256D01*
X144565352Y-299612256D02*
X144517733Y-299659875D01*
X144517733Y-299659875D02*
X144470114Y-299612256D01*
X144470114Y-299612256D02*
X144517733Y-299564636D01*
X144517733Y-299564636D02*
X144517733Y-299659875D01*
X144517733Y-299040827D02*
X144565352Y-299088446D01*
X144565352Y-299088446D02*
X144517733Y-299136065D01*
X144517733Y-299136065D02*
X144470114Y-299088446D01*
X144470114Y-299088446D02*
X144517733Y-299040827D01*
X144517733Y-299040827D02*
X144517733Y-299136065D01*
X145755828Y-299659875D02*
X145755828Y-298659875D01*
X145755828Y-298659875D02*
X146136780Y-298659875D01*
X146136780Y-298659875D02*
X146232018Y-298707494D01*
X146232018Y-298707494D02*
X146279637Y-298755113D01*
X146279637Y-298755113D02*
X146327256Y-298850351D01*
X146327256Y-298850351D02*
X146327256Y-298993208D01*
X146327256Y-298993208D02*
X146279637Y-299088446D01*
X146279637Y-299088446D02*
X146232018Y-299136065D01*
X146232018Y-299136065D02*
X146136780Y-299183684D01*
X146136780Y-299183684D02*
X145755828Y-299183684D01*
X146898685Y-299659875D02*
X146803447Y-299612256D01*
X146803447Y-299612256D02*
X146755828Y-299564636D01*
X146755828Y-299564636D02*
X146708209Y-299469398D01*
X146708209Y-299469398D02*
X146708209Y-299183684D01*
X146708209Y-299183684D02*
X146755828Y-299088446D01*
X146755828Y-299088446D02*
X146803447Y-299040827D01*
X146803447Y-299040827D02*
X146898685Y-298993208D01*
X146898685Y-298993208D02*
X147041542Y-298993208D01*
X147041542Y-298993208D02*
X147136780Y-299040827D01*
X147136780Y-299040827D02*
X147184399Y-299088446D01*
X147184399Y-299088446D02*
X147232018Y-299183684D01*
X147232018Y-299183684D02*
X147232018Y-299469398D01*
X147232018Y-299469398D02*
X147184399Y-299564636D01*
X147184399Y-299564636D02*
X147136780Y-299612256D01*
X147136780Y-299612256D02*
X147041542Y-299659875D01*
X147041542Y-299659875D02*
X146898685Y-299659875D01*
X147803447Y-299659875D02*
X147708209Y-299612256D01*
X147708209Y-299612256D02*
X147660590Y-299517017D01*
X147660590Y-299517017D02*
X147660590Y-298659875D01*
X148089162Y-298993208D02*
X148327257Y-299659875D01*
X148565352Y-298993208D02*
X148327257Y-299659875D01*
X148327257Y-299659875D02*
X148232019Y-299897970D01*
X148232019Y-299897970D02*
X148184400Y-299945589D01*
X148184400Y-299945589D02*
X148089162Y-299993208D01*
X148946305Y-299659875D02*
X148946305Y-298993208D01*
X148946305Y-298659875D02*
X148898686Y-298707494D01*
X148898686Y-298707494D02*
X148946305Y-298755113D01*
X148946305Y-298755113D02*
X148993924Y-298707494D01*
X148993924Y-298707494D02*
X148946305Y-298659875D01*
X148946305Y-298659875D02*
X148946305Y-298755113D01*
X149422495Y-299659875D02*
X149422495Y-298993208D01*
X149422495Y-299088446D02*
X149470114Y-299040827D01*
X149470114Y-299040827D02*
X149565352Y-298993208D01*
X149565352Y-298993208D02*
X149708209Y-298993208D01*
X149708209Y-298993208D02*
X149803447Y-299040827D01*
X149803447Y-299040827D02*
X149851066Y-299136065D01*
X149851066Y-299136065D02*
X149851066Y-299659875D01*
X149851066Y-299136065D02*
X149898685Y-299040827D01*
X149898685Y-299040827D02*
X149993923Y-298993208D01*
X149993923Y-298993208D02*
X150136780Y-298993208D01*
X150136780Y-298993208D02*
X150232019Y-299040827D01*
X150232019Y-299040827D02*
X150279638Y-299136065D01*
X150279638Y-299136065D02*
X150279638Y-299659875D01*
X150755828Y-299659875D02*
X150755828Y-298993208D01*
X150755828Y-298659875D02*
X150708209Y-298707494D01*
X150708209Y-298707494D02*
X150755828Y-298755113D01*
X150755828Y-298755113D02*
X150803447Y-298707494D01*
X150803447Y-298707494D02*
X150755828Y-298659875D01*
X150755828Y-298659875D02*
X150755828Y-298755113D01*
X151660589Y-299659875D02*
X151660589Y-298659875D01*
X151660589Y-299612256D02*
X151565351Y-299659875D01*
X151565351Y-299659875D02*
X151374875Y-299659875D01*
X151374875Y-299659875D02*
X151279637Y-299612256D01*
X151279637Y-299612256D02*
X151232018Y-299564636D01*
X151232018Y-299564636D02*
X151184399Y-299469398D01*
X151184399Y-299469398D02*
X151184399Y-299183684D01*
X151184399Y-299183684D02*
X151232018Y-299088446D01*
X151232018Y-299088446D02*
X151279637Y-299040827D01*
X151279637Y-299040827D02*
X151374875Y-298993208D01*
X151374875Y-298993208D02*
X151565351Y-298993208D01*
X151565351Y-298993208D02*
X151660589Y-299040827D01*
X152517732Y-299612256D02*
X152422494Y-299659875D01*
X152422494Y-299659875D02*
X152232018Y-299659875D01*
X152232018Y-299659875D02*
X152136780Y-299612256D01*
X152136780Y-299612256D02*
X152089161Y-299517017D01*
X152089161Y-299517017D02*
X152089161Y-299136065D01*
X152089161Y-299136065D02*
X152136780Y-299040827D01*
X152136780Y-299040827D02*
X152232018Y-298993208D01*
X152232018Y-298993208D02*
X152422494Y-298993208D01*
X152422494Y-298993208D02*
X152517732Y-299040827D01*
X152517732Y-299040827D02*
X152565351Y-299136065D01*
X152565351Y-299136065D02*
X152565351Y-299231303D01*
X152565351Y-299231303D02*
X152089161Y-299326541D01*
X137993922Y-300269819D02*
X138565350Y-300269819D01*
X138279636Y-301269819D02*
X138279636Y-300269819D01*
X138898684Y-301269819D02*
X138898684Y-300269819D01*
X139327255Y-301269819D02*
X139327255Y-300746009D01*
X139327255Y-300746009D02*
X139279636Y-300650771D01*
X139279636Y-300650771D02*
X139184398Y-300603152D01*
X139184398Y-300603152D02*
X139041541Y-300603152D01*
X139041541Y-300603152D02*
X138946303Y-300650771D01*
X138946303Y-300650771D02*
X138898684Y-300698390D01*
X139803446Y-301269819D02*
X139803446Y-300603152D01*
X139803446Y-300269819D02*
X139755827Y-300317438D01*
X139755827Y-300317438D02*
X139803446Y-300365057D01*
X139803446Y-300365057D02*
X139851065Y-300317438D01*
X139851065Y-300317438D02*
X139803446Y-300269819D01*
X139803446Y-300269819D02*
X139803446Y-300365057D01*
X140708207Y-301222200D02*
X140612969Y-301269819D01*
X140612969Y-301269819D02*
X140422493Y-301269819D01*
X140422493Y-301269819D02*
X140327255Y-301222200D01*
X140327255Y-301222200D02*
X140279636Y-301174580D01*
X140279636Y-301174580D02*
X140232017Y-301079342D01*
X140232017Y-301079342D02*
X140232017Y-300793628D01*
X140232017Y-300793628D02*
X140279636Y-300698390D01*
X140279636Y-300698390D02*
X140327255Y-300650771D01*
X140327255Y-300650771D02*
X140422493Y-300603152D01*
X140422493Y-300603152D02*
X140612969Y-300603152D01*
X140612969Y-300603152D02*
X140708207Y-300650771D01*
X141136779Y-301269819D02*
X141136779Y-300269819D01*
X141232017Y-300888866D02*
X141517731Y-301269819D01*
X141517731Y-300603152D02*
X141136779Y-300984104D01*
X141946303Y-300603152D02*
X141946303Y-301269819D01*
X141946303Y-300698390D02*
X141993922Y-300650771D01*
X141993922Y-300650771D02*
X142089160Y-300603152D01*
X142089160Y-300603152D02*
X142232017Y-300603152D01*
X142232017Y-300603152D02*
X142327255Y-300650771D01*
X142327255Y-300650771D02*
X142374874Y-300746009D01*
X142374874Y-300746009D02*
X142374874Y-301269819D01*
X143232017Y-301222200D02*
X143136779Y-301269819D01*
X143136779Y-301269819D02*
X142946303Y-301269819D01*
X142946303Y-301269819D02*
X142851065Y-301222200D01*
X142851065Y-301222200D02*
X142803446Y-301126961D01*
X142803446Y-301126961D02*
X142803446Y-300746009D01*
X142803446Y-300746009D02*
X142851065Y-300650771D01*
X142851065Y-300650771D02*
X142946303Y-300603152D01*
X142946303Y-300603152D02*
X143136779Y-300603152D01*
X143136779Y-300603152D02*
X143232017Y-300650771D01*
X143232017Y-300650771D02*
X143279636Y-300746009D01*
X143279636Y-300746009D02*
X143279636Y-300841247D01*
X143279636Y-300841247D02*
X142803446Y-300936485D01*
X143660589Y-301222200D02*
X143755827Y-301269819D01*
X143755827Y-301269819D02*
X143946303Y-301269819D01*
X143946303Y-301269819D02*
X144041541Y-301222200D01*
X144041541Y-301222200D02*
X144089160Y-301126961D01*
X144089160Y-301126961D02*
X144089160Y-301079342D01*
X144089160Y-301079342D02*
X144041541Y-300984104D01*
X144041541Y-300984104D02*
X143946303Y-300936485D01*
X143946303Y-300936485D02*
X143803446Y-300936485D01*
X143803446Y-300936485D02*
X143708208Y-300888866D01*
X143708208Y-300888866D02*
X143660589Y-300793628D01*
X143660589Y-300793628D02*
X143660589Y-300746009D01*
X143660589Y-300746009D02*
X143708208Y-300650771D01*
X143708208Y-300650771D02*
X143803446Y-300603152D01*
X143803446Y-300603152D02*
X143946303Y-300603152D01*
X143946303Y-300603152D02*
X144041541Y-300650771D01*
X144470113Y-301222200D02*
X144565351Y-301269819D01*
X144565351Y-301269819D02*
X144755827Y-301269819D01*
X144755827Y-301269819D02*
X144851065Y-301222200D01*
X144851065Y-301222200D02*
X144898684Y-301126961D01*
X144898684Y-301126961D02*
X144898684Y-301079342D01*
X144898684Y-301079342D02*
X144851065Y-300984104D01*
X144851065Y-300984104D02*
X144755827Y-300936485D01*
X144755827Y-300936485D02*
X144612970Y-300936485D01*
X144612970Y-300936485D02*
X144517732Y-300888866D01*
X144517732Y-300888866D02*
X144470113Y-300793628D01*
X144470113Y-300793628D02*
X144470113Y-300746009D01*
X144470113Y-300746009D02*
X144517732Y-300650771D01*
X144517732Y-300650771D02*
X144612970Y-300603152D01*
X144612970Y-300603152D02*
X144755827Y-300603152D01*
X144755827Y-300603152D02*
X144851065Y-300650771D01*
X145327256Y-301174580D02*
X145374875Y-301222200D01*
X145374875Y-301222200D02*
X145327256Y-301269819D01*
X145327256Y-301269819D02*
X145279637Y-301222200D01*
X145279637Y-301222200D02*
X145327256Y-301174580D01*
X145327256Y-301174580D02*
X145327256Y-301269819D01*
X145327256Y-300650771D02*
X145374875Y-300698390D01*
X145374875Y-300698390D02*
X145327256Y-300746009D01*
X145327256Y-300746009D02*
X145279637Y-300698390D01*
X145279637Y-300698390D02*
X145327256Y-300650771D01*
X145327256Y-300650771D02*
X145327256Y-300746009D01*
X146755827Y-300269819D02*
X146851065Y-300269819D01*
X146851065Y-300269819D02*
X146946303Y-300317438D01*
X146946303Y-300317438D02*
X146993922Y-300365057D01*
X146993922Y-300365057D02*
X147041541Y-300460295D01*
X147041541Y-300460295D02*
X147089160Y-300650771D01*
X147089160Y-300650771D02*
X147089160Y-300888866D01*
X147089160Y-300888866D02*
X147041541Y-301079342D01*
X147041541Y-301079342D02*
X146993922Y-301174580D01*
X146993922Y-301174580D02*
X146946303Y-301222200D01*
X146946303Y-301222200D02*
X146851065Y-301269819D01*
X146851065Y-301269819D02*
X146755827Y-301269819D01*
X146755827Y-301269819D02*
X146660589Y-301222200D01*
X146660589Y-301222200D02*
X146612970Y-301174580D01*
X146612970Y-301174580D02*
X146565351Y-301079342D01*
X146565351Y-301079342D02*
X146517732Y-300888866D01*
X146517732Y-300888866D02*
X146517732Y-300650771D01*
X146517732Y-300650771D02*
X146565351Y-300460295D01*
X146565351Y-300460295D02*
X146612970Y-300365057D01*
X146612970Y-300365057D02*
X146660589Y-300317438D01*
X146660589Y-300317438D02*
X146755827Y-300269819D01*
X147517732Y-301174580D02*
X147565351Y-301222200D01*
X147565351Y-301222200D02*
X147517732Y-301269819D01*
X147517732Y-301269819D02*
X147470113Y-301222200D01*
X147470113Y-301222200D02*
X147517732Y-301174580D01*
X147517732Y-301174580D02*
X147517732Y-301269819D01*
X147946303Y-300365057D02*
X147993922Y-300317438D01*
X147993922Y-300317438D02*
X148089160Y-300269819D01*
X148089160Y-300269819D02*
X148327255Y-300269819D01*
X148327255Y-300269819D02*
X148422493Y-300317438D01*
X148422493Y-300317438D02*
X148470112Y-300365057D01*
X148470112Y-300365057D02*
X148517731Y-300460295D01*
X148517731Y-300460295D02*
X148517731Y-300555533D01*
X148517731Y-300555533D02*
X148470112Y-300698390D01*
X148470112Y-300698390D02*
X147898684Y-301269819D01*
X147898684Y-301269819D02*
X148517731Y-301269819D01*
X149136779Y-300269819D02*
X149232017Y-300269819D01*
X149232017Y-300269819D02*
X149327255Y-300317438D01*
X149327255Y-300317438D02*
X149374874Y-300365057D01*
X149374874Y-300365057D02*
X149422493Y-300460295D01*
X149422493Y-300460295D02*
X149470112Y-300650771D01*
X149470112Y-300650771D02*
X149470112Y-300888866D01*
X149470112Y-300888866D02*
X149422493Y-301079342D01*
X149422493Y-301079342D02*
X149374874Y-301174580D01*
X149374874Y-301174580D02*
X149327255Y-301222200D01*
X149327255Y-301222200D02*
X149232017Y-301269819D01*
X149232017Y-301269819D02*
X149136779Y-301269819D01*
X149136779Y-301269819D02*
X149041541Y-301222200D01*
X149041541Y-301222200D02*
X148993922Y-301174580D01*
X148993922Y-301174580D02*
X148946303Y-301079342D01*
X148946303Y-301079342D02*
X148898684Y-300888866D01*
X148898684Y-300888866D02*
X148898684Y-300650771D01*
X148898684Y-300650771D02*
X148946303Y-300460295D01*
X148946303Y-300460295D02*
X148993922Y-300365057D01*
X148993922Y-300365057D02*
X149041541Y-300317438D01*
X149041541Y-300317438D02*
X149136779Y-300269819D01*
X149898684Y-301269819D02*
X149898684Y-300603152D01*
X149898684Y-300698390D02*
X149946303Y-300650771D01*
X149946303Y-300650771D02*
X150041541Y-300603152D01*
X150041541Y-300603152D02*
X150184398Y-300603152D01*
X150184398Y-300603152D02*
X150279636Y-300650771D01*
X150279636Y-300650771D02*
X150327255Y-300746009D01*
X150327255Y-300746009D02*
X150327255Y-301269819D01*
X150327255Y-300746009D02*
X150374874Y-300650771D01*
X150374874Y-300650771D02*
X150470112Y-300603152D01*
X150470112Y-300603152D02*
X150612969Y-300603152D01*
X150612969Y-300603152D02*
X150708208Y-300650771D01*
X150708208Y-300650771D02*
X150755827Y-300746009D01*
X150755827Y-300746009D02*
X150755827Y-301269819D01*
X151232017Y-301269819D02*
X151232017Y-300603152D01*
X151232017Y-300698390D02*
X151279636Y-300650771D01*
X151279636Y-300650771D02*
X151374874Y-300603152D01*
X151374874Y-300603152D02*
X151517731Y-300603152D01*
X151517731Y-300603152D02*
X151612969Y-300650771D01*
X151612969Y-300650771D02*
X151660588Y-300746009D01*
X151660588Y-300746009D02*
X151660588Y-301269819D01*
X151660588Y-300746009D02*
X151708207Y-300650771D01*
X151708207Y-300650771D02*
X151803445Y-300603152D01*
X151803445Y-300603152D02*
X151946302Y-300603152D01*
X151946302Y-300603152D02*
X152041541Y-300650771D01*
X152041541Y-300650771D02*
X152089160Y-300746009D01*
X152089160Y-300746009D02*
X152089160Y-301269819D01*
X138289160Y-474412256D02*
X138432017Y-474459875D01*
X138432017Y-474459875D02*
X138670112Y-474459875D01*
X138670112Y-474459875D02*
X138765350Y-474412256D01*
X138765350Y-474412256D02*
X138812969Y-474364636D01*
X138812969Y-474364636D02*
X138860588Y-474269398D01*
X138860588Y-474269398D02*
X138860588Y-474174160D01*
X138860588Y-474174160D02*
X138812969Y-474078922D01*
X138812969Y-474078922D02*
X138765350Y-474031303D01*
X138765350Y-474031303D02*
X138670112Y-473983684D01*
X138670112Y-473983684D02*
X138479636Y-473936065D01*
X138479636Y-473936065D02*
X138384398Y-473888446D01*
X138384398Y-473888446D02*
X138336779Y-473840827D01*
X138336779Y-473840827D02*
X138289160Y-473745589D01*
X138289160Y-473745589D02*
X138289160Y-473650351D01*
X138289160Y-473650351D02*
X138336779Y-473555113D01*
X138336779Y-473555113D02*
X138384398Y-473507494D01*
X138384398Y-473507494D02*
X138479636Y-473459875D01*
X138479636Y-473459875D02*
X138717731Y-473459875D01*
X138717731Y-473459875D02*
X138860588Y-473507494D01*
X139146303Y-473793208D02*
X139527255Y-473793208D01*
X139289160Y-473459875D02*
X139289160Y-474317017D01*
X139289160Y-474317017D02*
X139336779Y-474412256D01*
X139336779Y-474412256D02*
X139432017Y-474459875D01*
X139432017Y-474459875D02*
X139527255Y-474459875D01*
X139860589Y-474459875D02*
X139860589Y-473793208D01*
X139860589Y-473459875D02*
X139812970Y-473507494D01*
X139812970Y-473507494D02*
X139860589Y-473555113D01*
X139860589Y-473555113D02*
X139908208Y-473507494D01*
X139908208Y-473507494D02*
X139860589Y-473459875D01*
X139860589Y-473459875D02*
X139860589Y-473555113D01*
X140193922Y-473793208D02*
X140574874Y-473793208D01*
X140336779Y-474459875D02*
X140336779Y-473602732D01*
X140336779Y-473602732D02*
X140384398Y-473507494D01*
X140384398Y-473507494D02*
X140479636Y-473459875D01*
X140479636Y-473459875D02*
X140574874Y-473459875D01*
X140765351Y-473793208D02*
X141146303Y-473793208D01*
X140908208Y-474459875D02*
X140908208Y-473602732D01*
X140908208Y-473602732D02*
X140955827Y-473507494D01*
X140955827Y-473507494D02*
X141051065Y-473459875D01*
X141051065Y-473459875D02*
X141146303Y-473459875D01*
X141860589Y-474412256D02*
X141765351Y-474459875D01*
X141765351Y-474459875D02*
X141574875Y-474459875D01*
X141574875Y-474459875D02*
X141479637Y-474412256D01*
X141479637Y-474412256D02*
X141432018Y-474317017D01*
X141432018Y-474317017D02*
X141432018Y-473936065D01*
X141432018Y-473936065D02*
X141479637Y-473840827D01*
X141479637Y-473840827D02*
X141574875Y-473793208D01*
X141574875Y-473793208D02*
X141765351Y-473793208D01*
X141765351Y-473793208D02*
X141860589Y-473840827D01*
X141860589Y-473840827D02*
X141908208Y-473936065D01*
X141908208Y-473936065D02*
X141908208Y-474031303D01*
X141908208Y-474031303D02*
X141432018Y-474126541D01*
X142336780Y-473793208D02*
X142336780Y-474459875D01*
X142336780Y-473888446D02*
X142384399Y-473840827D01*
X142384399Y-473840827D02*
X142479637Y-473793208D01*
X142479637Y-473793208D02*
X142622494Y-473793208D01*
X142622494Y-473793208D02*
X142717732Y-473840827D01*
X142717732Y-473840827D02*
X142765351Y-473936065D01*
X142765351Y-473936065D02*
X142765351Y-474459875D01*
X143622494Y-474412256D02*
X143527256Y-474459875D01*
X143527256Y-474459875D02*
X143336780Y-474459875D01*
X143336780Y-474459875D02*
X143241542Y-474412256D01*
X143241542Y-474412256D02*
X143193923Y-474317017D01*
X143193923Y-474317017D02*
X143193923Y-473936065D01*
X143193923Y-473936065D02*
X143241542Y-473840827D01*
X143241542Y-473840827D02*
X143336780Y-473793208D01*
X143336780Y-473793208D02*
X143527256Y-473793208D01*
X143527256Y-473793208D02*
X143622494Y-473840827D01*
X143622494Y-473840827D02*
X143670113Y-473936065D01*
X143670113Y-473936065D02*
X143670113Y-474031303D01*
X143670113Y-474031303D02*
X143193923Y-474126541D01*
X144098685Y-474459875D02*
X144098685Y-473793208D01*
X144098685Y-473983684D02*
X144146304Y-473888446D01*
X144146304Y-473888446D02*
X144193923Y-473840827D01*
X144193923Y-473840827D02*
X144289161Y-473793208D01*
X144289161Y-473793208D02*
X144384399Y-473793208D01*
X144717733Y-474364636D02*
X144765352Y-474412256D01*
X144765352Y-474412256D02*
X144717733Y-474459875D01*
X144717733Y-474459875D02*
X144670114Y-474412256D01*
X144670114Y-474412256D02*
X144717733Y-474364636D01*
X144717733Y-474364636D02*
X144717733Y-474459875D01*
X144717733Y-473840827D02*
X144765352Y-473888446D01*
X144765352Y-473888446D02*
X144717733Y-473936065D01*
X144717733Y-473936065D02*
X144670114Y-473888446D01*
X144670114Y-473888446D02*
X144717733Y-473840827D01*
X144717733Y-473840827D02*
X144717733Y-473936065D01*
X145955828Y-474459875D02*
X145955828Y-473459875D01*
X145955828Y-473459875D02*
X146336780Y-473459875D01*
X146336780Y-473459875D02*
X146432018Y-473507494D01*
X146432018Y-473507494D02*
X146479637Y-473555113D01*
X146479637Y-473555113D02*
X146527256Y-473650351D01*
X146527256Y-473650351D02*
X146527256Y-473793208D01*
X146527256Y-473793208D02*
X146479637Y-473888446D01*
X146479637Y-473888446D02*
X146432018Y-473936065D01*
X146432018Y-473936065D02*
X146336780Y-473983684D01*
X146336780Y-473983684D02*
X145955828Y-473983684D01*
X147098685Y-474459875D02*
X147003447Y-474412256D01*
X147003447Y-474412256D02*
X146955828Y-474364636D01*
X146955828Y-474364636D02*
X146908209Y-474269398D01*
X146908209Y-474269398D02*
X146908209Y-473983684D01*
X146908209Y-473983684D02*
X146955828Y-473888446D01*
X146955828Y-473888446D02*
X147003447Y-473840827D01*
X147003447Y-473840827D02*
X147098685Y-473793208D01*
X147098685Y-473793208D02*
X147241542Y-473793208D01*
X147241542Y-473793208D02*
X147336780Y-473840827D01*
X147336780Y-473840827D02*
X147384399Y-473888446D01*
X147384399Y-473888446D02*
X147432018Y-473983684D01*
X147432018Y-473983684D02*
X147432018Y-474269398D01*
X147432018Y-474269398D02*
X147384399Y-474364636D01*
X147384399Y-474364636D02*
X147336780Y-474412256D01*
X147336780Y-474412256D02*
X147241542Y-474459875D01*
X147241542Y-474459875D02*
X147098685Y-474459875D01*
X148003447Y-474459875D02*
X147908209Y-474412256D01*
X147908209Y-474412256D02*
X147860590Y-474317017D01*
X147860590Y-474317017D02*
X147860590Y-473459875D01*
X148289162Y-473793208D02*
X148527257Y-474459875D01*
X148765352Y-473793208D02*
X148527257Y-474459875D01*
X148527257Y-474459875D02*
X148432019Y-474697970D01*
X148432019Y-474697970D02*
X148384400Y-474745589D01*
X148384400Y-474745589D02*
X148289162Y-474793208D01*
X149146305Y-474459875D02*
X149146305Y-473793208D01*
X149146305Y-473459875D02*
X149098686Y-473507494D01*
X149098686Y-473507494D02*
X149146305Y-473555113D01*
X149146305Y-473555113D02*
X149193924Y-473507494D01*
X149193924Y-473507494D02*
X149146305Y-473459875D01*
X149146305Y-473459875D02*
X149146305Y-473555113D01*
X149622495Y-474459875D02*
X149622495Y-473793208D01*
X149622495Y-473888446D02*
X149670114Y-473840827D01*
X149670114Y-473840827D02*
X149765352Y-473793208D01*
X149765352Y-473793208D02*
X149908209Y-473793208D01*
X149908209Y-473793208D02*
X150003447Y-473840827D01*
X150003447Y-473840827D02*
X150051066Y-473936065D01*
X150051066Y-473936065D02*
X150051066Y-474459875D01*
X150051066Y-473936065D02*
X150098685Y-473840827D01*
X150098685Y-473840827D02*
X150193923Y-473793208D01*
X150193923Y-473793208D02*
X150336780Y-473793208D01*
X150336780Y-473793208D02*
X150432019Y-473840827D01*
X150432019Y-473840827D02*
X150479638Y-473936065D01*
X150479638Y-473936065D02*
X150479638Y-474459875D01*
X150955828Y-474459875D02*
X150955828Y-473793208D01*
X150955828Y-473459875D02*
X150908209Y-473507494D01*
X150908209Y-473507494D02*
X150955828Y-473555113D01*
X150955828Y-473555113D02*
X151003447Y-473507494D01*
X151003447Y-473507494D02*
X150955828Y-473459875D01*
X150955828Y-473459875D02*
X150955828Y-473555113D01*
X151860589Y-474459875D02*
X151860589Y-473459875D01*
X151860589Y-474412256D02*
X151765351Y-474459875D01*
X151765351Y-474459875D02*
X151574875Y-474459875D01*
X151574875Y-474459875D02*
X151479637Y-474412256D01*
X151479637Y-474412256D02*
X151432018Y-474364636D01*
X151432018Y-474364636D02*
X151384399Y-474269398D01*
X151384399Y-474269398D02*
X151384399Y-473983684D01*
X151384399Y-473983684D02*
X151432018Y-473888446D01*
X151432018Y-473888446D02*
X151479637Y-473840827D01*
X151479637Y-473840827D02*
X151574875Y-473793208D01*
X151574875Y-473793208D02*
X151765351Y-473793208D01*
X151765351Y-473793208D02*
X151860589Y-473840827D01*
X152717732Y-474412256D02*
X152622494Y-474459875D01*
X152622494Y-474459875D02*
X152432018Y-474459875D01*
X152432018Y-474459875D02*
X152336780Y-474412256D01*
X152336780Y-474412256D02*
X152289161Y-474317017D01*
X152289161Y-474317017D02*
X152289161Y-473936065D01*
X152289161Y-473936065D02*
X152336780Y-473840827D01*
X152336780Y-473840827D02*
X152432018Y-473793208D01*
X152432018Y-473793208D02*
X152622494Y-473793208D01*
X152622494Y-473793208D02*
X152717732Y-473840827D01*
X152717732Y-473840827D02*
X152765351Y-473936065D01*
X152765351Y-473936065D02*
X152765351Y-474031303D01*
X152765351Y-474031303D02*
X152289161Y-474126541D01*
X138193922Y-475069819D02*
X138765350Y-475069819D01*
X138479636Y-476069819D02*
X138479636Y-475069819D01*
X139098684Y-476069819D02*
X139098684Y-475069819D01*
X139527255Y-476069819D02*
X139527255Y-475546009D01*
X139527255Y-475546009D02*
X139479636Y-475450771D01*
X139479636Y-475450771D02*
X139384398Y-475403152D01*
X139384398Y-475403152D02*
X139241541Y-475403152D01*
X139241541Y-475403152D02*
X139146303Y-475450771D01*
X139146303Y-475450771D02*
X139098684Y-475498390D01*
X140003446Y-476069819D02*
X140003446Y-475403152D01*
X140003446Y-475069819D02*
X139955827Y-475117438D01*
X139955827Y-475117438D02*
X140003446Y-475165057D01*
X140003446Y-475165057D02*
X140051065Y-475117438D01*
X140051065Y-475117438D02*
X140003446Y-475069819D01*
X140003446Y-475069819D02*
X140003446Y-475165057D01*
X140908207Y-476022200D02*
X140812969Y-476069819D01*
X140812969Y-476069819D02*
X140622493Y-476069819D01*
X140622493Y-476069819D02*
X140527255Y-476022200D01*
X140527255Y-476022200D02*
X140479636Y-475974580D01*
X140479636Y-475974580D02*
X140432017Y-475879342D01*
X140432017Y-475879342D02*
X140432017Y-475593628D01*
X140432017Y-475593628D02*
X140479636Y-475498390D01*
X140479636Y-475498390D02*
X140527255Y-475450771D01*
X140527255Y-475450771D02*
X140622493Y-475403152D01*
X140622493Y-475403152D02*
X140812969Y-475403152D01*
X140812969Y-475403152D02*
X140908207Y-475450771D01*
X141336779Y-476069819D02*
X141336779Y-475069819D01*
X141432017Y-475688866D02*
X141717731Y-476069819D01*
X141717731Y-475403152D02*
X141336779Y-475784104D01*
X142146303Y-475403152D02*
X142146303Y-476069819D01*
X142146303Y-475498390D02*
X142193922Y-475450771D01*
X142193922Y-475450771D02*
X142289160Y-475403152D01*
X142289160Y-475403152D02*
X142432017Y-475403152D01*
X142432017Y-475403152D02*
X142527255Y-475450771D01*
X142527255Y-475450771D02*
X142574874Y-475546009D01*
X142574874Y-475546009D02*
X142574874Y-476069819D01*
X143432017Y-476022200D02*
X143336779Y-476069819D01*
X143336779Y-476069819D02*
X143146303Y-476069819D01*
X143146303Y-476069819D02*
X143051065Y-476022200D01*
X143051065Y-476022200D02*
X143003446Y-475926961D01*
X143003446Y-475926961D02*
X143003446Y-475546009D01*
X143003446Y-475546009D02*
X143051065Y-475450771D01*
X143051065Y-475450771D02*
X143146303Y-475403152D01*
X143146303Y-475403152D02*
X143336779Y-475403152D01*
X143336779Y-475403152D02*
X143432017Y-475450771D01*
X143432017Y-475450771D02*
X143479636Y-475546009D01*
X143479636Y-475546009D02*
X143479636Y-475641247D01*
X143479636Y-475641247D02*
X143003446Y-475736485D01*
X143860589Y-476022200D02*
X143955827Y-476069819D01*
X143955827Y-476069819D02*
X144146303Y-476069819D01*
X144146303Y-476069819D02*
X144241541Y-476022200D01*
X144241541Y-476022200D02*
X144289160Y-475926961D01*
X144289160Y-475926961D02*
X144289160Y-475879342D01*
X144289160Y-475879342D02*
X144241541Y-475784104D01*
X144241541Y-475784104D02*
X144146303Y-475736485D01*
X144146303Y-475736485D02*
X144003446Y-475736485D01*
X144003446Y-475736485D02*
X143908208Y-475688866D01*
X143908208Y-475688866D02*
X143860589Y-475593628D01*
X143860589Y-475593628D02*
X143860589Y-475546009D01*
X143860589Y-475546009D02*
X143908208Y-475450771D01*
X143908208Y-475450771D02*
X144003446Y-475403152D01*
X144003446Y-475403152D02*
X144146303Y-475403152D01*
X144146303Y-475403152D02*
X144241541Y-475450771D01*
X144670113Y-476022200D02*
X144765351Y-476069819D01*
X144765351Y-476069819D02*
X144955827Y-476069819D01*
X144955827Y-476069819D02*
X145051065Y-476022200D01*
X145051065Y-476022200D02*
X145098684Y-475926961D01*
X145098684Y-475926961D02*
X145098684Y-475879342D01*
X145098684Y-475879342D02*
X145051065Y-475784104D01*
X145051065Y-475784104D02*
X144955827Y-475736485D01*
X144955827Y-475736485D02*
X144812970Y-475736485D01*
X144812970Y-475736485D02*
X144717732Y-475688866D01*
X144717732Y-475688866D02*
X144670113Y-475593628D01*
X144670113Y-475593628D02*
X144670113Y-475546009D01*
X144670113Y-475546009D02*
X144717732Y-475450771D01*
X144717732Y-475450771D02*
X144812970Y-475403152D01*
X144812970Y-475403152D02*
X144955827Y-475403152D01*
X144955827Y-475403152D02*
X145051065Y-475450771D01*
X145527256Y-475974580D02*
X145574875Y-476022200D01*
X145574875Y-476022200D02*
X145527256Y-476069819D01*
X145527256Y-476069819D02*
X145479637Y-476022200D01*
X145479637Y-476022200D02*
X145527256Y-475974580D01*
X145527256Y-475974580D02*
X145527256Y-476069819D01*
X145527256Y-475450771D02*
X145574875Y-475498390D01*
X145574875Y-475498390D02*
X145527256Y-475546009D01*
X145527256Y-475546009D02*
X145479637Y-475498390D01*
X145479637Y-475498390D02*
X145527256Y-475450771D01*
X145527256Y-475450771D02*
X145527256Y-475546009D01*
X146955827Y-475069819D02*
X147051065Y-475069819D01*
X147051065Y-475069819D02*
X147146303Y-475117438D01*
X147146303Y-475117438D02*
X147193922Y-475165057D01*
X147193922Y-475165057D02*
X147241541Y-475260295D01*
X147241541Y-475260295D02*
X147289160Y-475450771D01*
X147289160Y-475450771D02*
X147289160Y-475688866D01*
X147289160Y-475688866D02*
X147241541Y-475879342D01*
X147241541Y-475879342D02*
X147193922Y-475974580D01*
X147193922Y-475974580D02*
X147146303Y-476022200D01*
X147146303Y-476022200D02*
X147051065Y-476069819D01*
X147051065Y-476069819D02*
X146955827Y-476069819D01*
X146955827Y-476069819D02*
X146860589Y-476022200D01*
X146860589Y-476022200D02*
X146812970Y-475974580D01*
X146812970Y-475974580D02*
X146765351Y-475879342D01*
X146765351Y-475879342D02*
X146717732Y-475688866D01*
X146717732Y-475688866D02*
X146717732Y-475450771D01*
X146717732Y-475450771D02*
X146765351Y-475260295D01*
X146765351Y-475260295D02*
X146812970Y-475165057D01*
X146812970Y-475165057D02*
X146860589Y-475117438D01*
X146860589Y-475117438D02*
X146955827Y-475069819D01*
X147717732Y-475974580D02*
X147765351Y-476022200D01*
X147765351Y-476022200D02*
X147717732Y-476069819D01*
X147717732Y-476069819D02*
X147670113Y-476022200D01*
X147670113Y-476022200D02*
X147717732Y-475974580D01*
X147717732Y-475974580D02*
X147717732Y-476069819D01*
X148146303Y-475165057D02*
X148193922Y-475117438D01*
X148193922Y-475117438D02*
X148289160Y-475069819D01*
X148289160Y-475069819D02*
X148527255Y-475069819D01*
X148527255Y-475069819D02*
X148622493Y-475117438D01*
X148622493Y-475117438D02*
X148670112Y-475165057D01*
X148670112Y-475165057D02*
X148717731Y-475260295D01*
X148717731Y-475260295D02*
X148717731Y-475355533D01*
X148717731Y-475355533D02*
X148670112Y-475498390D01*
X148670112Y-475498390D02*
X148098684Y-476069819D01*
X148098684Y-476069819D02*
X148717731Y-476069819D01*
X149336779Y-475069819D02*
X149432017Y-475069819D01*
X149432017Y-475069819D02*
X149527255Y-475117438D01*
X149527255Y-475117438D02*
X149574874Y-475165057D01*
X149574874Y-475165057D02*
X149622493Y-475260295D01*
X149622493Y-475260295D02*
X149670112Y-475450771D01*
X149670112Y-475450771D02*
X149670112Y-475688866D01*
X149670112Y-475688866D02*
X149622493Y-475879342D01*
X149622493Y-475879342D02*
X149574874Y-475974580D01*
X149574874Y-475974580D02*
X149527255Y-476022200D01*
X149527255Y-476022200D02*
X149432017Y-476069819D01*
X149432017Y-476069819D02*
X149336779Y-476069819D01*
X149336779Y-476069819D02*
X149241541Y-476022200D01*
X149241541Y-476022200D02*
X149193922Y-475974580D01*
X149193922Y-475974580D02*
X149146303Y-475879342D01*
X149146303Y-475879342D02*
X149098684Y-475688866D01*
X149098684Y-475688866D02*
X149098684Y-475450771D01*
X149098684Y-475450771D02*
X149146303Y-475260295D01*
X149146303Y-475260295D02*
X149193922Y-475165057D01*
X149193922Y-475165057D02*
X149241541Y-475117438D01*
X149241541Y-475117438D02*
X149336779Y-475069819D01*
X150098684Y-476069819D02*
X150098684Y-475403152D01*
X150098684Y-475498390D02*
X150146303Y-475450771D01*
X150146303Y-475450771D02*
X150241541Y-475403152D01*
X150241541Y-475403152D02*
X150384398Y-475403152D01*
X150384398Y-475403152D02*
X150479636Y-475450771D01*
X150479636Y-475450771D02*
X150527255Y-475546009D01*
X150527255Y-475546009D02*
X150527255Y-476069819D01*
X150527255Y-475546009D02*
X150574874Y-475450771D01*
X150574874Y-475450771D02*
X150670112Y-475403152D01*
X150670112Y-475403152D02*
X150812969Y-475403152D01*
X150812969Y-475403152D02*
X150908208Y-475450771D01*
X150908208Y-475450771D02*
X150955827Y-475546009D01*
X150955827Y-475546009D02*
X150955827Y-476069819D01*
X151432017Y-476069819D02*
X151432017Y-475403152D01*
X151432017Y-475498390D02*
X151479636Y-475450771D01*
X151479636Y-475450771D02*
X151574874Y-475403152D01*
X151574874Y-475403152D02*
X151717731Y-475403152D01*
X151717731Y-475403152D02*
X151812969Y-475450771D01*
X151812969Y-475450771D02*
X151860588Y-475546009D01*
X151860588Y-475546009D02*
X151860588Y-476069819D01*
X151860588Y-475546009D02*
X151908207Y-475450771D01*
X151908207Y-475450771D02*
X152003445Y-475403152D01*
X152003445Y-475403152D02*
X152146302Y-475403152D01*
X152146302Y-475403152D02*
X152241541Y-475450771D01*
X152241541Y-475450771D02*
X152289160Y-475546009D01*
X152289160Y-475546009D02*
X152289160Y-476069819D01*
X138289160Y-532712256D02*
X138432017Y-532759875D01*
X138432017Y-532759875D02*
X138670112Y-532759875D01*
X138670112Y-532759875D02*
X138765350Y-532712256D01*
X138765350Y-532712256D02*
X138812969Y-532664636D01*
X138812969Y-532664636D02*
X138860588Y-532569398D01*
X138860588Y-532569398D02*
X138860588Y-532474160D01*
X138860588Y-532474160D02*
X138812969Y-532378922D01*
X138812969Y-532378922D02*
X138765350Y-532331303D01*
X138765350Y-532331303D02*
X138670112Y-532283684D01*
X138670112Y-532283684D02*
X138479636Y-532236065D01*
X138479636Y-532236065D02*
X138384398Y-532188446D01*
X138384398Y-532188446D02*
X138336779Y-532140827D01*
X138336779Y-532140827D02*
X138289160Y-532045589D01*
X138289160Y-532045589D02*
X138289160Y-531950351D01*
X138289160Y-531950351D02*
X138336779Y-531855113D01*
X138336779Y-531855113D02*
X138384398Y-531807494D01*
X138384398Y-531807494D02*
X138479636Y-531759875D01*
X138479636Y-531759875D02*
X138717731Y-531759875D01*
X138717731Y-531759875D02*
X138860588Y-531807494D01*
X139146303Y-532093208D02*
X139527255Y-532093208D01*
X139289160Y-531759875D02*
X139289160Y-532617017D01*
X139289160Y-532617017D02*
X139336779Y-532712256D01*
X139336779Y-532712256D02*
X139432017Y-532759875D01*
X139432017Y-532759875D02*
X139527255Y-532759875D01*
X139860589Y-532759875D02*
X139860589Y-532093208D01*
X139860589Y-531759875D02*
X139812970Y-531807494D01*
X139812970Y-531807494D02*
X139860589Y-531855113D01*
X139860589Y-531855113D02*
X139908208Y-531807494D01*
X139908208Y-531807494D02*
X139860589Y-531759875D01*
X139860589Y-531759875D02*
X139860589Y-531855113D01*
X140193922Y-532093208D02*
X140574874Y-532093208D01*
X140336779Y-532759875D02*
X140336779Y-531902732D01*
X140336779Y-531902732D02*
X140384398Y-531807494D01*
X140384398Y-531807494D02*
X140479636Y-531759875D01*
X140479636Y-531759875D02*
X140574874Y-531759875D01*
X140765351Y-532093208D02*
X141146303Y-532093208D01*
X140908208Y-532759875D02*
X140908208Y-531902732D01*
X140908208Y-531902732D02*
X140955827Y-531807494D01*
X140955827Y-531807494D02*
X141051065Y-531759875D01*
X141051065Y-531759875D02*
X141146303Y-531759875D01*
X141860589Y-532712256D02*
X141765351Y-532759875D01*
X141765351Y-532759875D02*
X141574875Y-532759875D01*
X141574875Y-532759875D02*
X141479637Y-532712256D01*
X141479637Y-532712256D02*
X141432018Y-532617017D01*
X141432018Y-532617017D02*
X141432018Y-532236065D01*
X141432018Y-532236065D02*
X141479637Y-532140827D01*
X141479637Y-532140827D02*
X141574875Y-532093208D01*
X141574875Y-532093208D02*
X141765351Y-532093208D01*
X141765351Y-532093208D02*
X141860589Y-532140827D01*
X141860589Y-532140827D02*
X141908208Y-532236065D01*
X141908208Y-532236065D02*
X141908208Y-532331303D01*
X141908208Y-532331303D02*
X141432018Y-532426541D01*
X142336780Y-532093208D02*
X142336780Y-532759875D01*
X142336780Y-532188446D02*
X142384399Y-532140827D01*
X142384399Y-532140827D02*
X142479637Y-532093208D01*
X142479637Y-532093208D02*
X142622494Y-532093208D01*
X142622494Y-532093208D02*
X142717732Y-532140827D01*
X142717732Y-532140827D02*
X142765351Y-532236065D01*
X142765351Y-532236065D02*
X142765351Y-532759875D01*
X143622494Y-532712256D02*
X143527256Y-532759875D01*
X143527256Y-532759875D02*
X143336780Y-532759875D01*
X143336780Y-532759875D02*
X143241542Y-532712256D01*
X143241542Y-532712256D02*
X143193923Y-532617017D01*
X143193923Y-532617017D02*
X143193923Y-532236065D01*
X143193923Y-532236065D02*
X143241542Y-532140827D01*
X143241542Y-532140827D02*
X143336780Y-532093208D01*
X143336780Y-532093208D02*
X143527256Y-532093208D01*
X143527256Y-532093208D02*
X143622494Y-532140827D01*
X143622494Y-532140827D02*
X143670113Y-532236065D01*
X143670113Y-532236065D02*
X143670113Y-532331303D01*
X143670113Y-532331303D02*
X143193923Y-532426541D01*
X144098685Y-532759875D02*
X144098685Y-532093208D01*
X144098685Y-532283684D02*
X144146304Y-532188446D01*
X144146304Y-532188446D02*
X144193923Y-532140827D01*
X144193923Y-532140827D02*
X144289161Y-532093208D01*
X144289161Y-532093208D02*
X144384399Y-532093208D01*
X144717733Y-532664636D02*
X144765352Y-532712256D01*
X144765352Y-532712256D02*
X144717733Y-532759875D01*
X144717733Y-532759875D02*
X144670114Y-532712256D01*
X144670114Y-532712256D02*
X144717733Y-532664636D01*
X144717733Y-532664636D02*
X144717733Y-532759875D01*
X144717733Y-532140827D02*
X144765352Y-532188446D01*
X144765352Y-532188446D02*
X144717733Y-532236065D01*
X144717733Y-532236065D02*
X144670114Y-532188446D01*
X144670114Y-532188446D02*
X144717733Y-532140827D01*
X144717733Y-532140827D02*
X144717733Y-532236065D01*
X145955828Y-532759875D02*
X145955828Y-531759875D01*
X145955828Y-531759875D02*
X146336780Y-531759875D01*
X146336780Y-531759875D02*
X146432018Y-531807494D01*
X146432018Y-531807494D02*
X146479637Y-531855113D01*
X146479637Y-531855113D02*
X146527256Y-531950351D01*
X146527256Y-531950351D02*
X146527256Y-532093208D01*
X146527256Y-532093208D02*
X146479637Y-532188446D01*
X146479637Y-532188446D02*
X146432018Y-532236065D01*
X146432018Y-532236065D02*
X146336780Y-532283684D01*
X146336780Y-532283684D02*
X145955828Y-532283684D01*
X147098685Y-532759875D02*
X147003447Y-532712256D01*
X147003447Y-532712256D02*
X146955828Y-532664636D01*
X146955828Y-532664636D02*
X146908209Y-532569398D01*
X146908209Y-532569398D02*
X146908209Y-532283684D01*
X146908209Y-532283684D02*
X146955828Y-532188446D01*
X146955828Y-532188446D02*
X147003447Y-532140827D01*
X147003447Y-532140827D02*
X147098685Y-532093208D01*
X147098685Y-532093208D02*
X147241542Y-532093208D01*
X147241542Y-532093208D02*
X147336780Y-532140827D01*
X147336780Y-532140827D02*
X147384399Y-532188446D01*
X147384399Y-532188446D02*
X147432018Y-532283684D01*
X147432018Y-532283684D02*
X147432018Y-532569398D01*
X147432018Y-532569398D02*
X147384399Y-532664636D01*
X147384399Y-532664636D02*
X147336780Y-532712256D01*
X147336780Y-532712256D02*
X147241542Y-532759875D01*
X147241542Y-532759875D02*
X147098685Y-532759875D01*
X148003447Y-532759875D02*
X147908209Y-532712256D01*
X147908209Y-532712256D02*
X147860590Y-532617017D01*
X147860590Y-532617017D02*
X147860590Y-531759875D01*
X148289162Y-532093208D02*
X148527257Y-532759875D01*
X148765352Y-532093208D02*
X148527257Y-532759875D01*
X148527257Y-532759875D02*
X148432019Y-532997970D01*
X148432019Y-532997970D02*
X148384400Y-533045589D01*
X148384400Y-533045589D02*
X148289162Y-533093208D01*
X149146305Y-532759875D02*
X149146305Y-532093208D01*
X149146305Y-531759875D02*
X149098686Y-531807494D01*
X149098686Y-531807494D02*
X149146305Y-531855113D01*
X149146305Y-531855113D02*
X149193924Y-531807494D01*
X149193924Y-531807494D02*
X149146305Y-531759875D01*
X149146305Y-531759875D02*
X149146305Y-531855113D01*
X149622495Y-532759875D02*
X149622495Y-532093208D01*
X149622495Y-532188446D02*
X149670114Y-532140827D01*
X149670114Y-532140827D02*
X149765352Y-532093208D01*
X149765352Y-532093208D02*
X149908209Y-532093208D01*
X149908209Y-532093208D02*
X150003447Y-532140827D01*
X150003447Y-532140827D02*
X150051066Y-532236065D01*
X150051066Y-532236065D02*
X150051066Y-532759875D01*
X150051066Y-532236065D02*
X150098685Y-532140827D01*
X150098685Y-532140827D02*
X150193923Y-532093208D01*
X150193923Y-532093208D02*
X150336780Y-532093208D01*
X150336780Y-532093208D02*
X150432019Y-532140827D01*
X150432019Y-532140827D02*
X150479638Y-532236065D01*
X150479638Y-532236065D02*
X150479638Y-532759875D01*
X150955828Y-532759875D02*
X150955828Y-532093208D01*
X150955828Y-531759875D02*
X150908209Y-531807494D01*
X150908209Y-531807494D02*
X150955828Y-531855113D01*
X150955828Y-531855113D02*
X151003447Y-531807494D01*
X151003447Y-531807494D02*
X150955828Y-531759875D01*
X150955828Y-531759875D02*
X150955828Y-531855113D01*
X151860589Y-532759875D02*
X151860589Y-531759875D01*
X151860589Y-532712256D02*
X151765351Y-532759875D01*
X151765351Y-532759875D02*
X151574875Y-532759875D01*
X151574875Y-532759875D02*
X151479637Y-532712256D01*
X151479637Y-532712256D02*
X151432018Y-532664636D01*
X151432018Y-532664636D02*
X151384399Y-532569398D01*
X151384399Y-532569398D02*
X151384399Y-532283684D01*
X151384399Y-532283684D02*
X151432018Y-532188446D01*
X151432018Y-532188446D02*
X151479637Y-532140827D01*
X151479637Y-532140827D02*
X151574875Y-532093208D01*
X151574875Y-532093208D02*
X151765351Y-532093208D01*
X151765351Y-532093208D02*
X151860589Y-532140827D01*
X152717732Y-532712256D02*
X152622494Y-532759875D01*
X152622494Y-532759875D02*
X152432018Y-532759875D01*
X152432018Y-532759875D02*
X152336780Y-532712256D01*
X152336780Y-532712256D02*
X152289161Y-532617017D01*
X152289161Y-532617017D02*
X152289161Y-532236065D01*
X152289161Y-532236065D02*
X152336780Y-532140827D01*
X152336780Y-532140827D02*
X152432018Y-532093208D01*
X152432018Y-532093208D02*
X152622494Y-532093208D01*
X152622494Y-532093208D02*
X152717732Y-532140827D01*
X152717732Y-532140827D02*
X152765351Y-532236065D01*
X152765351Y-532236065D02*
X152765351Y-532331303D01*
X152765351Y-532331303D02*
X152289161Y-532426541D01*
X138193922Y-533369819D02*
X138765350Y-533369819D01*
X138479636Y-534369819D02*
X138479636Y-533369819D01*
X139098684Y-534369819D02*
X139098684Y-533369819D01*
X139527255Y-534369819D02*
X139527255Y-533846009D01*
X139527255Y-533846009D02*
X139479636Y-533750771D01*
X139479636Y-533750771D02*
X139384398Y-533703152D01*
X139384398Y-533703152D02*
X139241541Y-533703152D01*
X139241541Y-533703152D02*
X139146303Y-533750771D01*
X139146303Y-533750771D02*
X139098684Y-533798390D01*
X140003446Y-534369819D02*
X140003446Y-533703152D01*
X140003446Y-533369819D02*
X139955827Y-533417438D01*
X139955827Y-533417438D02*
X140003446Y-533465057D01*
X140003446Y-533465057D02*
X140051065Y-533417438D01*
X140051065Y-533417438D02*
X140003446Y-533369819D01*
X140003446Y-533369819D02*
X140003446Y-533465057D01*
X140908207Y-534322200D02*
X140812969Y-534369819D01*
X140812969Y-534369819D02*
X140622493Y-534369819D01*
X140622493Y-534369819D02*
X140527255Y-534322200D01*
X140527255Y-534322200D02*
X140479636Y-534274580D01*
X140479636Y-534274580D02*
X140432017Y-534179342D01*
X140432017Y-534179342D02*
X140432017Y-533893628D01*
X140432017Y-533893628D02*
X140479636Y-533798390D01*
X140479636Y-533798390D02*
X140527255Y-533750771D01*
X140527255Y-533750771D02*
X140622493Y-533703152D01*
X140622493Y-533703152D02*
X140812969Y-533703152D01*
X140812969Y-533703152D02*
X140908207Y-533750771D01*
X141336779Y-534369819D02*
X141336779Y-533369819D01*
X141432017Y-533988866D02*
X141717731Y-534369819D01*
X141717731Y-533703152D02*
X141336779Y-534084104D01*
X142146303Y-533703152D02*
X142146303Y-534369819D01*
X142146303Y-533798390D02*
X142193922Y-533750771D01*
X142193922Y-533750771D02*
X142289160Y-533703152D01*
X142289160Y-533703152D02*
X142432017Y-533703152D01*
X142432017Y-533703152D02*
X142527255Y-533750771D01*
X142527255Y-533750771D02*
X142574874Y-533846009D01*
X142574874Y-533846009D02*
X142574874Y-534369819D01*
X143432017Y-534322200D02*
X143336779Y-534369819D01*
X143336779Y-534369819D02*
X143146303Y-534369819D01*
X143146303Y-534369819D02*
X143051065Y-534322200D01*
X143051065Y-534322200D02*
X143003446Y-534226961D01*
X143003446Y-534226961D02*
X143003446Y-533846009D01*
X143003446Y-533846009D02*
X143051065Y-533750771D01*
X143051065Y-533750771D02*
X143146303Y-533703152D01*
X143146303Y-533703152D02*
X143336779Y-533703152D01*
X143336779Y-533703152D02*
X143432017Y-533750771D01*
X143432017Y-533750771D02*
X143479636Y-533846009D01*
X143479636Y-533846009D02*
X143479636Y-533941247D01*
X143479636Y-533941247D02*
X143003446Y-534036485D01*
X143860589Y-534322200D02*
X143955827Y-534369819D01*
X143955827Y-534369819D02*
X144146303Y-534369819D01*
X144146303Y-534369819D02*
X144241541Y-534322200D01*
X144241541Y-534322200D02*
X144289160Y-534226961D01*
X144289160Y-534226961D02*
X144289160Y-534179342D01*
X144289160Y-534179342D02*
X144241541Y-534084104D01*
X144241541Y-534084104D02*
X144146303Y-534036485D01*
X144146303Y-534036485D02*
X144003446Y-534036485D01*
X144003446Y-534036485D02*
X143908208Y-533988866D01*
X143908208Y-533988866D02*
X143860589Y-533893628D01*
X143860589Y-533893628D02*
X143860589Y-533846009D01*
X143860589Y-533846009D02*
X143908208Y-533750771D01*
X143908208Y-533750771D02*
X144003446Y-533703152D01*
X144003446Y-533703152D02*
X144146303Y-533703152D01*
X144146303Y-533703152D02*
X144241541Y-533750771D01*
X144670113Y-534322200D02*
X144765351Y-534369819D01*
X144765351Y-534369819D02*
X144955827Y-534369819D01*
X144955827Y-534369819D02*
X145051065Y-534322200D01*
X145051065Y-534322200D02*
X145098684Y-534226961D01*
X145098684Y-534226961D02*
X145098684Y-534179342D01*
X145098684Y-534179342D02*
X145051065Y-534084104D01*
X145051065Y-534084104D02*
X144955827Y-534036485D01*
X144955827Y-534036485D02*
X144812970Y-534036485D01*
X144812970Y-534036485D02*
X144717732Y-533988866D01*
X144717732Y-533988866D02*
X144670113Y-533893628D01*
X144670113Y-533893628D02*
X144670113Y-533846009D01*
X144670113Y-533846009D02*
X144717732Y-533750771D01*
X144717732Y-533750771D02*
X144812970Y-533703152D01*
X144812970Y-533703152D02*
X144955827Y-533703152D01*
X144955827Y-533703152D02*
X145051065Y-533750771D01*
X145527256Y-534274580D02*
X145574875Y-534322200D01*
X145574875Y-534322200D02*
X145527256Y-534369819D01*
X145527256Y-534369819D02*
X145479637Y-534322200D01*
X145479637Y-534322200D02*
X145527256Y-534274580D01*
X145527256Y-534274580D02*
X145527256Y-534369819D01*
X145527256Y-533750771D02*
X145574875Y-533798390D01*
X145574875Y-533798390D02*
X145527256Y-533846009D01*
X145527256Y-533846009D02*
X145479637Y-533798390D01*
X145479637Y-533798390D02*
X145527256Y-533750771D01*
X145527256Y-533750771D02*
X145527256Y-533846009D01*
X146955827Y-533369819D02*
X147051065Y-533369819D01*
X147051065Y-533369819D02*
X147146303Y-533417438D01*
X147146303Y-533417438D02*
X147193922Y-533465057D01*
X147193922Y-533465057D02*
X147241541Y-533560295D01*
X147241541Y-533560295D02*
X147289160Y-533750771D01*
X147289160Y-533750771D02*
X147289160Y-533988866D01*
X147289160Y-533988866D02*
X147241541Y-534179342D01*
X147241541Y-534179342D02*
X147193922Y-534274580D01*
X147193922Y-534274580D02*
X147146303Y-534322200D01*
X147146303Y-534322200D02*
X147051065Y-534369819D01*
X147051065Y-534369819D02*
X146955827Y-534369819D01*
X146955827Y-534369819D02*
X146860589Y-534322200D01*
X146860589Y-534322200D02*
X146812970Y-534274580D01*
X146812970Y-534274580D02*
X146765351Y-534179342D01*
X146765351Y-534179342D02*
X146717732Y-533988866D01*
X146717732Y-533988866D02*
X146717732Y-533750771D01*
X146717732Y-533750771D02*
X146765351Y-533560295D01*
X146765351Y-533560295D02*
X146812970Y-533465057D01*
X146812970Y-533465057D02*
X146860589Y-533417438D01*
X146860589Y-533417438D02*
X146955827Y-533369819D01*
X147717732Y-534274580D02*
X147765351Y-534322200D01*
X147765351Y-534322200D02*
X147717732Y-534369819D01*
X147717732Y-534369819D02*
X147670113Y-534322200D01*
X147670113Y-534322200D02*
X147717732Y-534274580D01*
X147717732Y-534274580D02*
X147717732Y-534369819D01*
X148146303Y-533465057D02*
X148193922Y-533417438D01*
X148193922Y-533417438D02*
X148289160Y-533369819D01*
X148289160Y-533369819D02*
X148527255Y-533369819D01*
X148527255Y-533369819D02*
X148622493Y-533417438D01*
X148622493Y-533417438D02*
X148670112Y-533465057D01*
X148670112Y-533465057D02*
X148717731Y-533560295D01*
X148717731Y-533560295D02*
X148717731Y-533655533D01*
X148717731Y-533655533D02*
X148670112Y-533798390D01*
X148670112Y-533798390D02*
X148098684Y-534369819D01*
X148098684Y-534369819D02*
X148717731Y-534369819D01*
X149336779Y-533369819D02*
X149432017Y-533369819D01*
X149432017Y-533369819D02*
X149527255Y-533417438D01*
X149527255Y-533417438D02*
X149574874Y-533465057D01*
X149574874Y-533465057D02*
X149622493Y-533560295D01*
X149622493Y-533560295D02*
X149670112Y-533750771D01*
X149670112Y-533750771D02*
X149670112Y-533988866D01*
X149670112Y-533988866D02*
X149622493Y-534179342D01*
X149622493Y-534179342D02*
X149574874Y-534274580D01*
X149574874Y-534274580D02*
X149527255Y-534322200D01*
X149527255Y-534322200D02*
X149432017Y-534369819D01*
X149432017Y-534369819D02*
X149336779Y-534369819D01*
X149336779Y-534369819D02*
X149241541Y-534322200D01*
X149241541Y-534322200D02*
X149193922Y-534274580D01*
X149193922Y-534274580D02*
X149146303Y-534179342D01*
X149146303Y-534179342D02*
X149098684Y-533988866D01*
X149098684Y-533988866D02*
X149098684Y-533750771D01*
X149098684Y-533750771D02*
X149146303Y-533560295D01*
X149146303Y-533560295D02*
X149193922Y-533465057D01*
X149193922Y-533465057D02*
X149241541Y-533417438D01*
X149241541Y-533417438D02*
X149336779Y-533369819D01*
X150098684Y-534369819D02*
X150098684Y-533703152D01*
X150098684Y-533798390D02*
X150146303Y-533750771D01*
X150146303Y-533750771D02*
X150241541Y-533703152D01*
X150241541Y-533703152D02*
X150384398Y-533703152D01*
X150384398Y-533703152D02*
X150479636Y-533750771D01*
X150479636Y-533750771D02*
X150527255Y-533846009D01*
X150527255Y-533846009D02*
X150527255Y-534369819D01*
X150527255Y-533846009D02*
X150574874Y-533750771D01*
X150574874Y-533750771D02*
X150670112Y-533703152D01*
X150670112Y-533703152D02*
X150812969Y-533703152D01*
X150812969Y-533703152D02*
X150908208Y-533750771D01*
X150908208Y-533750771D02*
X150955827Y-533846009D01*
X150955827Y-533846009D02*
X150955827Y-534369819D01*
X151432017Y-534369819D02*
X151432017Y-533703152D01*
X151432017Y-533798390D02*
X151479636Y-533750771D01*
X151479636Y-533750771D02*
X151574874Y-533703152D01*
X151574874Y-533703152D02*
X151717731Y-533703152D01*
X151717731Y-533703152D02*
X151812969Y-533750771D01*
X151812969Y-533750771D02*
X151860588Y-533846009D01*
X151860588Y-533846009D02*
X151860588Y-534369819D01*
X151860588Y-533846009D02*
X151908207Y-533750771D01*
X151908207Y-533750771D02*
X152003445Y-533703152D01*
X152003445Y-533703152D02*
X152146302Y-533703152D01*
X152146302Y-533703152D02*
X152241541Y-533750771D01*
X152241541Y-533750771D02*
X152289160Y-533846009D01*
X152289160Y-533846009D02*
X152289160Y-534369819D01*
X138389160Y-240612256D02*
X138532017Y-240659875D01*
X138532017Y-240659875D02*
X138770112Y-240659875D01*
X138770112Y-240659875D02*
X138865350Y-240612256D01*
X138865350Y-240612256D02*
X138912969Y-240564636D01*
X138912969Y-240564636D02*
X138960588Y-240469398D01*
X138960588Y-240469398D02*
X138960588Y-240374160D01*
X138960588Y-240374160D02*
X138912969Y-240278922D01*
X138912969Y-240278922D02*
X138865350Y-240231303D01*
X138865350Y-240231303D02*
X138770112Y-240183684D01*
X138770112Y-240183684D02*
X138579636Y-240136065D01*
X138579636Y-240136065D02*
X138484398Y-240088446D01*
X138484398Y-240088446D02*
X138436779Y-240040827D01*
X138436779Y-240040827D02*
X138389160Y-239945589D01*
X138389160Y-239945589D02*
X138389160Y-239850351D01*
X138389160Y-239850351D02*
X138436779Y-239755113D01*
X138436779Y-239755113D02*
X138484398Y-239707494D01*
X138484398Y-239707494D02*
X138579636Y-239659875D01*
X138579636Y-239659875D02*
X138817731Y-239659875D01*
X138817731Y-239659875D02*
X138960588Y-239707494D01*
X139246303Y-239993208D02*
X139627255Y-239993208D01*
X139389160Y-239659875D02*
X139389160Y-240517017D01*
X139389160Y-240517017D02*
X139436779Y-240612256D01*
X139436779Y-240612256D02*
X139532017Y-240659875D01*
X139532017Y-240659875D02*
X139627255Y-240659875D01*
X139960589Y-240659875D02*
X139960589Y-239993208D01*
X139960589Y-239659875D02*
X139912970Y-239707494D01*
X139912970Y-239707494D02*
X139960589Y-239755113D01*
X139960589Y-239755113D02*
X140008208Y-239707494D01*
X140008208Y-239707494D02*
X139960589Y-239659875D01*
X139960589Y-239659875D02*
X139960589Y-239755113D01*
X140293922Y-239993208D02*
X140674874Y-239993208D01*
X140436779Y-240659875D02*
X140436779Y-239802732D01*
X140436779Y-239802732D02*
X140484398Y-239707494D01*
X140484398Y-239707494D02*
X140579636Y-239659875D01*
X140579636Y-239659875D02*
X140674874Y-239659875D01*
X140865351Y-239993208D02*
X141246303Y-239993208D01*
X141008208Y-240659875D02*
X141008208Y-239802732D01*
X141008208Y-239802732D02*
X141055827Y-239707494D01*
X141055827Y-239707494D02*
X141151065Y-239659875D01*
X141151065Y-239659875D02*
X141246303Y-239659875D01*
X141960589Y-240612256D02*
X141865351Y-240659875D01*
X141865351Y-240659875D02*
X141674875Y-240659875D01*
X141674875Y-240659875D02*
X141579637Y-240612256D01*
X141579637Y-240612256D02*
X141532018Y-240517017D01*
X141532018Y-240517017D02*
X141532018Y-240136065D01*
X141532018Y-240136065D02*
X141579637Y-240040827D01*
X141579637Y-240040827D02*
X141674875Y-239993208D01*
X141674875Y-239993208D02*
X141865351Y-239993208D01*
X141865351Y-239993208D02*
X141960589Y-240040827D01*
X141960589Y-240040827D02*
X142008208Y-240136065D01*
X142008208Y-240136065D02*
X142008208Y-240231303D01*
X142008208Y-240231303D02*
X141532018Y-240326541D01*
X142436780Y-239993208D02*
X142436780Y-240659875D01*
X142436780Y-240088446D02*
X142484399Y-240040827D01*
X142484399Y-240040827D02*
X142579637Y-239993208D01*
X142579637Y-239993208D02*
X142722494Y-239993208D01*
X142722494Y-239993208D02*
X142817732Y-240040827D01*
X142817732Y-240040827D02*
X142865351Y-240136065D01*
X142865351Y-240136065D02*
X142865351Y-240659875D01*
X143722494Y-240612256D02*
X143627256Y-240659875D01*
X143627256Y-240659875D02*
X143436780Y-240659875D01*
X143436780Y-240659875D02*
X143341542Y-240612256D01*
X143341542Y-240612256D02*
X143293923Y-240517017D01*
X143293923Y-240517017D02*
X143293923Y-240136065D01*
X143293923Y-240136065D02*
X143341542Y-240040827D01*
X143341542Y-240040827D02*
X143436780Y-239993208D01*
X143436780Y-239993208D02*
X143627256Y-239993208D01*
X143627256Y-239993208D02*
X143722494Y-240040827D01*
X143722494Y-240040827D02*
X143770113Y-240136065D01*
X143770113Y-240136065D02*
X143770113Y-240231303D01*
X143770113Y-240231303D02*
X143293923Y-240326541D01*
X144198685Y-240659875D02*
X144198685Y-239993208D01*
X144198685Y-240183684D02*
X144246304Y-240088446D01*
X144246304Y-240088446D02*
X144293923Y-240040827D01*
X144293923Y-240040827D02*
X144389161Y-239993208D01*
X144389161Y-239993208D02*
X144484399Y-239993208D01*
X144817733Y-240564636D02*
X144865352Y-240612256D01*
X144865352Y-240612256D02*
X144817733Y-240659875D01*
X144817733Y-240659875D02*
X144770114Y-240612256D01*
X144770114Y-240612256D02*
X144817733Y-240564636D01*
X144817733Y-240564636D02*
X144817733Y-240659875D01*
X144817733Y-240040827D02*
X144865352Y-240088446D01*
X144865352Y-240088446D02*
X144817733Y-240136065D01*
X144817733Y-240136065D02*
X144770114Y-240088446D01*
X144770114Y-240088446D02*
X144817733Y-240040827D01*
X144817733Y-240040827D02*
X144817733Y-240136065D01*
X146055828Y-240659875D02*
X146055828Y-239659875D01*
X146055828Y-239659875D02*
X146436780Y-239659875D01*
X146436780Y-239659875D02*
X146532018Y-239707494D01*
X146532018Y-239707494D02*
X146579637Y-239755113D01*
X146579637Y-239755113D02*
X146627256Y-239850351D01*
X146627256Y-239850351D02*
X146627256Y-239993208D01*
X146627256Y-239993208D02*
X146579637Y-240088446D01*
X146579637Y-240088446D02*
X146532018Y-240136065D01*
X146532018Y-240136065D02*
X146436780Y-240183684D01*
X146436780Y-240183684D02*
X146055828Y-240183684D01*
X147198685Y-240659875D02*
X147103447Y-240612256D01*
X147103447Y-240612256D02*
X147055828Y-240564636D01*
X147055828Y-240564636D02*
X147008209Y-240469398D01*
X147008209Y-240469398D02*
X147008209Y-240183684D01*
X147008209Y-240183684D02*
X147055828Y-240088446D01*
X147055828Y-240088446D02*
X147103447Y-240040827D01*
X147103447Y-240040827D02*
X147198685Y-239993208D01*
X147198685Y-239993208D02*
X147341542Y-239993208D01*
X147341542Y-239993208D02*
X147436780Y-240040827D01*
X147436780Y-240040827D02*
X147484399Y-240088446D01*
X147484399Y-240088446D02*
X147532018Y-240183684D01*
X147532018Y-240183684D02*
X147532018Y-240469398D01*
X147532018Y-240469398D02*
X147484399Y-240564636D01*
X147484399Y-240564636D02*
X147436780Y-240612256D01*
X147436780Y-240612256D02*
X147341542Y-240659875D01*
X147341542Y-240659875D02*
X147198685Y-240659875D01*
X148103447Y-240659875D02*
X148008209Y-240612256D01*
X148008209Y-240612256D02*
X147960590Y-240517017D01*
X147960590Y-240517017D02*
X147960590Y-239659875D01*
X148389162Y-239993208D02*
X148627257Y-240659875D01*
X148865352Y-239993208D02*
X148627257Y-240659875D01*
X148627257Y-240659875D02*
X148532019Y-240897970D01*
X148532019Y-240897970D02*
X148484400Y-240945589D01*
X148484400Y-240945589D02*
X148389162Y-240993208D01*
X149246305Y-240659875D02*
X149246305Y-239993208D01*
X149246305Y-239659875D02*
X149198686Y-239707494D01*
X149198686Y-239707494D02*
X149246305Y-239755113D01*
X149246305Y-239755113D02*
X149293924Y-239707494D01*
X149293924Y-239707494D02*
X149246305Y-239659875D01*
X149246305Y-239659875D02*
X149246305Y-239755113D01*
X149722495Y-240659875D02*
X149722495Y-239993208D01*
X149722495Y-240088446D02*
X149770114Y-240040827D01*
X149770114Y-240040827D02*
X149865352Y-239993208D01*
X149865352Y-239993208D02*
X150008209Y-239993208D01*
X150008209Y-239993208D02*
X150103447Y-240040827D01*
X150103447Y-240040827D02*
X150151066Y-240136065D01*
X150151066Y-240136065D02*
X150151066Y-240659875D01*
X150151066Y-240136065D02*
X150198685Y-240040827D01*
X150198685Y-240040827D02*
X150293923Y-239993208D01*
X150293923Y-239993208D02*
X150436780Y-239993208D01*
X150436780Y-239993208D02*
X150532019Y-240040827D01*
X150532019Y-240040827D02*
X150579638Y-240136065D01*
X150579638Y-240136065D02*
X150579638Y-240659875D01*
X151055828Y-240659875D02*
X151055828Y-239993208D01*
X151055828Y-239659875D02*
X151008209Y-239707494D01*
X151008209Y-239707494D02*
X151055828Y-239755113D01*
X151055828Y-239755113D02*
X151103447Y-239707494D01*
X151103447Y-239707494D02*
X151055828Y-239659875D01*
X151055828Y-239659875D02*
X151055828Y-239755113D01*
X151960589Y-240659875D02*
X151960589Y-239659875D01*
X151960589Y-240612256D02*
X151865351Y-240659875D01*
X151865351Y-240659875D02*
X151674875Y-240659875D01*
X151674875Y-240659875D02*
X151579637Y-240612256D01*
X151579637Y-240612256D02*
X151532018Y-240564636D01*
X151532018Y-240564636D02*
X151484399Y-240469398D01*
X151484399Y-240469398D02*
X151484399Y-240183684D01*
X151484399Y-240183684D02*
X151532018Y-240088446D01*
X151532018Y-240088446D02*
X151579637Y-240040827D01*
X151579637Y-240040827D02*
X151674875Y-239993208D01*
X151674875Y-239993208D02*
X151865351Y-239993208D01*
X151865351Y-239993208D02*
X151960589Y-240040827D01*
X152817732Y-240612256D02*
X152722494Y-240659875D01*
X152722494Y-240659875D02*
X152532018Y-240659875D01*
X152532018Y-240659875D02*
X152436780Y-240612256D01*
X152436780Y-240612256D02*
X152389161Y-240517017D01*
X152389161Y-240517017D02*
X152389161Y-240136065D01*
X152389161Y-240136065D02*
X152436780Y-240040827D01*
X152436780Y-240040827D02*
X152532018Y-239993208D01*
X152532018Y-239993208D02*
X152722494Y-239993208D01*
X152722494Y-239993208D02*
X152817732Y-240040827D01*
X152817732Y-240040827D02*
X152865351Y-240136065D01*
X152865351Y-240136065D02*
X152865351Y-240231303D01*
X152865351Y-240231303D02*
X152389161Y-240326541D01*
X138293922Y-241269819D02*
X138865350Y-241269819D01*
X138579636Y-242269819D02*
X138579636Y-241269819D01*
X139198684Y-242269819D02*
X139198684Y-241269819D01*
X139627255Y-242269819D02*
X139627255Y-241746009D01*
X139627255Y-241746009D02*
X139579636Y-241650771D01*
X139579636Y-241650771D02*
X139484398Y-241603152D01*
X139484398Y-241603152D02*
X139341541Y-241603152D01*
X139341541Y-241603152D02*
X139246303Y-241650771D01*
X139246303Y-241650771D02*
X139198684Y-241698390D01*
X140103446Y-242269819D02*
X140103446Y-241603152D01*
X140103446Y-241269819D02*
X140055827Y-241317438D01*
X140055827Y-241317438D02*
X140103446Y-241365057D01*
X140103446Y-241365057D02*
X140151065Y-241317438D01*
X140151065Y-241317438D02*
X140103446Y-241269819D01*
X140103446Y-241269819D02*
X140103446Y-241365057D01*
X141008207Y-242222200D02*
X140912969Y-242269819D01*
X140912969Y-242269819D02*
X140722493Y-242269819D01*
X140722493Y-242269819D02*
X140627255Y-242222200D01*
X140627255Y-242222200D02*
X140579636Y-242174580D01*
X140579636Y-242174580D02*
X140532017Y-242079342D01*
X140532017Y-242079342D02*
X140532017Y-241793628D01*
X140532017Y-241793628D02*
X140579636Y-241698390D01*
X140579636Y-241698390D02*
X140627255Y-241650771D01*
X140627255Y-241650771D02*
X140722493Y-241603152D01*
X140722493Y-241603152D02*
X140912969Y-241603152D01*
X140912969Y-241603152D02*
X141008207Y-241650771D01*
X141436779Y-242269819D02*
X141436779Y-241269819D01*
X141532017Y-241888866D02*
X141817731Y-242269819D01*
X141817731Y-241603152D02*
X141436779Y-241984104D01*
X142246303Y-241603152D02*
X142246303Y-242269819D01*
X142246303Y-241698390D02*
X142293922Y-241650771D01*
X142293922Y-241650771D02*
X142389160Y-241603152D01*
X142389160Y-241603152D02*
X142532017Y-241603152D01*
X142532017Y-241603152D02*
X142627255Y-241650771D01*
X142627255Y-241650771D02*
X142674874Y-241746009D01*
X142674874Y-241746009D02*
X142674874Y-242269819D01*
X143532017Y-242222200D02*
X143436779Y-242269819D01*
X143436779Y-242269819D02*
X143246303Y-242269819D01*
X143246303Y-242269819D02*
X143151065Y-242222200D01*
X143151065Y-242222200D02*
X143103446Y-242126961D01*
X143103446Y-242126961D02*
X143103446Y-241746009D01*
X143103446Y-241746009D02*
X143151065Y-241650771D01*
X143151065Y-241650771D02*
X143246303Y-241603152D01*
X143246303Y-241603152D02*
X143436779Y-241603152D01*
X143436779Y-241603152D02*
X143532017Y-241650771D01*
X143532017Y-241650771D02*
X143579636Y-241746009D01*
X143579636Y-241746009D02*
X143579636Y-241841247D01*
X143579636Y-241841247D02*
X143103446Y-241936485D01*
X143960589Y-242222200D02*
X144055827Y-242269819D01*
X144055827Y-242269819D02*
X144246303Y-242269819D01*
X144246303Y-242269819D02*
X144341541Y-242222200D01*
X144341541Y-242222200D02*
X144389160Y-242126961D01*
X144389160Y-242126961D02*
X144389160Y-242079342D01*
X144389160Y-242079342D02*
X144341541Y-241984104D01*
X144341541Y-241984104D02*
X144246303Y-241936485D01*
X144246303Y-241936485D02*
X144103446Y-241936485D01*
X144103446Y-241936485D02*
X144008208Y-241888866D01*
X144008208Y-241888866D02*
X143960589Y-241793628D01*
X143960589Y-241793628D02*
X143960589Y-241746009D01*
X143960589Y-241746009D02*
X144008208Y-241650771D01*
X144008208Y-241650771D02*
X144103446Y-241603152D01*
X144103446Y-241603152D02*
X144246303Y-241603152D01*
X144246303Y-241603152D02*
X144341541Y-241650771D01*
X144770113Y-242222200D02*
X144865351Y-242269819D01*
X144865351Y-242269819D02*
X145055827Y-242269819D01*
X145055827Y-242269819D02*
X145151065Y-242222200D01*
X145151065Y-242222200D02*
X145198684Y-242126961D01*
X145198684Y-242126961D02*
X145198684Y-242079342D01*
X145198684Y-242079342D02*
X145151065Y-241984104D01*
X145151065Y-241984104D02*
X145055827Y-241936485D01*
X145055827Y-241936485D02*
X144912970Y-241936485D01*
X144912970Y-241936485D02*
X144817732Y-241888866D01*
X144817732Y-241888866D02*
X144770113Y-241793628D01*
X144770113Y-241793628D02*
X144770113Y-241746009D01*
X144770113Y-241746009D02*
X144817732Y-241650771D01*
X144817732Y-241650771D02*
X144912970Y-241603152D01*
X144912970Y-241603152D02*
X145055827Y-241603152D01*
X145055827Y-241603152D02*
X145151065Y-241650771D01*
X145627256Y-242174580D02*
X145674875Y-242222200D01*
X145674875Y-242222200D02*
X145627256Y-242269819D01*
X145627256Y-242269819D02*
X145579637Y-242222200D01*
X145579637Y-242222200D02*
X145627256Y-242174580D01*
X145627256Y-242174580D02*
X145627256Y-242269819D01*
X145627256Y-241650771D02*
X145674875Y-241698390D01*
X145674875Y-241698390D02*
X145627256Y-241746009D01*
X145627256Y-241746009D02*
X145579637Y-241698390D01*
X145579637Y-241698390D02*
X145627256Y-241650771D01*
X145627256Y-241650771D02*
X145627256Y-241746009D01*
X147055827Y-241269819D02*
X147151065Y-241269819D01*
X147151065Y-241269819D02*
X147246303Y-241317438D01*
X147246303Y-241317438D02*
X147293922Y-241365057D01*
X147293922Y-241365057D02*
X147341541Y-241460295D01*
X147341541Y-241460295D02*
X147389160Y-241650771D01*
X147389160Y-241650771D02*
X147389160Y-241888866D01*
X147389160Y-241888866D02*
X147341541Y-242079342D01*
X147341541Y-242079342D02*
X147293922Y-242174580D01*
X147293922Y-242174580D02*
X147246303Y-242222200D01*
X147246303Y-242222200D02*
X147151065Y-242269819D01*
X147151065Y-242269819D02*
X147055827Y-242269819D01*
X147055827Y-242269819D02*
X146960589Y-242222200D01*
X146960589Y-242222200D02*
X146912970Y-242174580D01*
X146912970Y-242174580D02*
X146865351Y-242079342D01*
X146865351Y-242079342D02*
X146817732Y-241888866D01*
X146817732Y-241888866D02*
X146817732Y-241650771D01*
X146817732Y-241650771D02*
X146865351Y-241460295D01*
X146865351Y-241460295D02*
X146912970Y-241365057D01*
X146912970Y-241365057D02*
X146960589Y-241317438D01*
X146960589Y-241317438D02*
X147055827Y-241269819D01*
X147817732Y-242174580D02*
X147865351Y-242222200D01*
X147865351Y-242222200D02*
X147817732Y-242269819D01*
X147817732Y-242269819D02*
X147770113Y-242222200D01*
X147770113Y-242222200D02*
X147817732Y-242174580D01*
X147817732Y-242174580D02*
X147817732Y-242269819D01*
X148246303Y-241365057D02*
X148293922Y-241317438D01*
X148293922Y-241317438D02*
X148389160Y-241269819D01*
X148389160Y-241269819D02*
X148627255Y-241269819D01*
X148627255Y-241269819D02*
X148722493Y-241317438D01*
X148722493Y-241317438D02*
X148770112Y-241365057D01*
X148770112Y-241365057D02*
X148817731Y-241460295D01*
X148817731Y-241460295D02*
X148817731Y-241555533D01*
X148817731Y-241555533D02*
X148770112Y-241698390D01*
X148770112Y-241698390D02*
X148198684Y-242269819D01*
X148198684Y-242269819D02*
X148817731Y-242269819D01*
X149436779Y-241269819D02*
X149532017Y-241269819D01*
X149532017Y-241269819D02*
X149627255Y-241317438D01*
X149627255Y-241317438D02*
X149674874Y-241365057D01*
X149674874Y-241365057D02*
X149722493Y-241460295D01*
X149722493Y-241460295D02*
X149770112Y-241650771D01*
X149770112Y-241650771D02*
X149770112Y-241888866D01*
X149770112Y-241888866D02*
X149722493Y-242079342D01*
X149722493Y-242079342D02*
X149674874Y-242174580D01*
X149674874Y-242174580D02*
X149627255Y-242222200D01*
X149627255Y-242222200D02*
X149532017Y-242269819D01*
X149532017Y-242269819D02*
X149436779Y-242269819D01*
X149436779Y-242269819D02*
X149341541Y-242222200D01*
X149341541Y-242222200D02*
X149293922Y-242174580D01*
X149293922Y-242174580D02*
X149246303Y-242079342D01*
X149246303Y-242079342D02*
X149198684Y-241888866D01*
X149198684Y-241888866D02*
X149198684Y-241650771D01*
X149198684Y-241650771D02*
X149246303Y-241460295D01*
X149246303Y-241460295D02*
X149293922Y-241365057D01*
X149293922Y-241365057D02*
X149341541Y-241317438D01*
X149341541Y-241317438D02*
X149436779Y-241269819D01*
X150198684Y-242269819D02*
X150198684Y-241603152D01*
X150198684Y-241698390D02*
X150246303Y-241650771D01*
X150246303Y-241650771D02*
X150341541Y-241603152D01*
X150341541Y-241603152D02*
X150484398Y-241603152D01*
X150484398Y-241603152D02*
X150579636Y-241650771D01*
X150579636Y-241650771D02*
X150627255Y-241746009D01*
X150627255Y-241746009D02*
X150627255Y-242269819D01*
X150627255Y-241746009D02*
X150674874Y-241650771D01*
X150674874Y-241650771D02*
X150770112Y-241603152D01*
X150770112Y-241603152D02*
X150912969Y-241603152D01*
X150912969Y-241603152D02*
X151008208Y-241650771D01*
X151008208Y-241650771D02*
X151055827Y-241746009D01*
X151055827Y-241746009D02*
X151055827Y-242269819D01*
X151532017Y-242269819D02*
X151532017Y-241603152D01*
X151532017Y-241698390D02*
X151579636Y-241650771D01*
X151579636Y-241650771D02*
X151674874Y-241603152D01*
X151674874Y-241603152D02*
X151817731Y-241603152D01*
X151817731Y-241603152D02*
X151912969Y-241650771D01*
X151912969Y-241650771D02*
X151960588Y-241746009D01*
X151960588Y-241746009D02*
X151960588Y-242269819D01*
X151960588Y-241746009D02*
X152008207Y-241650771D01*
X152008207Y-241650771D02*
X152103445Y-241603152D01*
X152103445Y-241603152D02*
X152246302Y-241603152D01*
X152246302Y-241603152D02*
X152341541Y-241650771D01*
X152341541Y-241650771D02*
X152389160Y-241746009D01*
X152389160Y-241746009D02*
X152389160Y-242269819D01*
X138889160Y-182312256D02*
X139032017Y-182359875D01*
X139032017Y-182359875D02*
X139270112Y-182359875D01*
X139270112Y-182359875D02*
X139365350Y-182312256D01*
X139365350Y-182312256D02*
X139412969Y-182264636D01*
X139412969Y-182264636D02*
X139460588Y-182169398D01*
X139460588Y-182169398D02*
X139460588Y-182074160D01*
X139460588Y-182074160D02*
X139412969Y-181978922D01*
X139412969Y-181978922D02*
X139365350Y-181931303D01*
X139365350Y-181931303D02*
X139270112Y-181883684D01*
X139270112Y-181883684D02*
X139079636Y-181836065D01*
X139079636Y-181836065D02*
X138984398Y-181788446D01*
X138984398Y-181788446D02*
X138936779Y-181740827D01*
X138936779Y-181740827D02*
X138889160Y-181645589D01*
X138889160Y-181645589D02*
X138889160Y-181550351D01*
X138889160Y-181550351D02*
X138936779Y-181455113D01*
X138936779Y-181455113D02*
X138984398Y-181407494D01*
X138984398Y-181407494D02*
X139079636Y-181359875D01*
X139079636Y-181359875D02*
X139317731Y-181359875D01*
X139317731Y-181359875D02*
X139460588Y-181407494D01*
X139746303Y-181693208D02*
X140127255Y-181693208D01*
X139889160Y-181359875D02*
X139889160Y-182217017D01*
X139889160Y-182217017D02*
X139936779Y-182312256D01*
X139936779Y-182312256D02*
X140032017Y-182359875D01*
X140032017Y-182359875D02*
X140127255Y-182359875D01*
X140460589Y-182359875D02*
X140460589Y-181693208D01*
X140460589Y-181359875D02*
X140412970Y-181407494D01*
X140412970Y-181407494D02*
X140460589Y-181455113D01*
X140460589Y-181455113D02*
X140508208Y-181407494D01*
X140508208Y-181407494D02*
X140460589Y-181359875D01*
X140460589Y-181359875D02*
X140460589Y-181455113D01*
X140793922Y-181693208D02*
X141174874Y-181693208D01*
X140936779Y-182359875D02*
X140936779Y-181502732D01*
X140936779Y-181502732D02*
X140984398Y-181407494D01*
X140984398Y-181407494D02*
X141079636Y-181359875D01*
X141079636Y-181359875D02*
X141174874Y-181359875D01*
X141365351Y-181693208D02*
X141746303Y-181693208D01*
X141508208Y-182359875D02*
X141508208Y-181502732D01*
X141508208Y-181502732D02*
X141555827Y-181407494D01*
X141555827Y-181407494D02*
X141651065Y-181359875D01*
X141651065Y-181359875D02*
X141746303Y-181359875D01*
X142460589Y-182312256D02*
X142365351Y-182359875D01*
X142365351Y-182359875D02*
X142174875Y-182359875D01*
X142174875Y-182359875D02*
X142079637Y-182312256D01*
X142079637Y-182312256D02*
X142032018Y-182217017D01*
X142032018Y-182217017D02*
X142032018Y-181836065D01*
X142032018Y-181836065D02*
X142079637Y-181740827D01*
X142079637Y-181740827D02*
X142174875Y-181693208D01*
X142174875Y-181693208D02*
X142365351Y-181693208D01*
X142365351Y-181693208D02*
X142460589Y-181740827D01*
X142460589Y-181740827D02*
X142508208Y-181836065D01*
X142508208Y-181836065D02*
X142508208Y-181931303D01*
X142508208Y-181931303D02*
X142032018Y-182026541D01*
X142936780Y-181693208D02*
X142936780Y-182359875D01*
X142936780Y-181788446D02*
X142984399Y-181740827D01*
X142984399Y-181740827D02*
X143079637Y-181693208D01*
X143079637Y-181693208D02*
X143222494Y-181693208D01*
X143222494Y-181693208D02*
X143317732Y-181740827D01*
X143317732Y-181740827D02*
X143365351Y-181836065D01*
X143365351Y-181836065D02*
X143365351Y-182359875D01*
X144222494Y-182312256D02*
X144127256Y-182359875D01*
X144127256Y-182359875D02*
X143936780Y-182359875D01*
X143936780Y-182359875D02*
X143841542Y-182312256D01*
X143841542Y-182312256D02*
X143793923Y-182217017D01*
X143793923Y-182217017D02*
X143793923Y-181836065D01*
X143793923Y-181836065D02*
X143841542Y-181740827D01*
X143841542Y-181740827D02*
X143936780Y-181693208D01*
X143936780Y-181693208D02*
X144127256Y-181693208D01*
X144127256Y-181693208D02*
X144222494Y-181740827D01*
X144222494Y-181740827D02*
X144270113Y-181836065D01*
X144270113Y-181836065D02*
X144270113Y-181931303D01*
X144270113Y-181931303D02*
X143793923Y-182026541D01*
X144698685Y-182359875D02*
X144698685Y-181693208D01*
X144698685Y-181883684D02*
X144746304Y-181788446D01*
X144746304Y-181788446D02*
X144793923Y-181740827D01*
X144793923Y-181740827D02*
X144889161Y-181693208D01*
X144889161Y-181693208D02*
X144984399Y-181693208D01*
X145317733Y-182264636D02*
X145365352Y-182312256D01*
X145365352Y-182312256D02*
X145317733Y-182359875D01*
X145317733Y-182359875D02*
X145270114Y-182312256D01*
X145270114Y-182312256D02*
X145317733Y-182264636D01*
X145317733Y-182264636D02*
X145317733Y-182359875D01*
X145317733Y-181740827D02*
X145365352Y-181788446D01*
X145365352Y-181788446D02*
X145317733Y-181836065D01*
X145317733Y-181836065D02*
X145270114Y-181788446D01*
X145270114Y-181788446D02*
X145317733Y-181740827D01*
X145317733Y-181740827D02*
X145317733Y-181836065D01*
X146555828Y-182359875D02*
X146555828Y-181359875D01*
X146555828Y-181359875D02*
X146936780Y-181359875D01*
X146936780Y-181359875D02*
X147032018Y-181407494D01*
X147032018Y-181407494D02*
X147079637Y-181455113D01*
X147079637Y-181455113D02*
X147127256Y-181550351D01*
X147127256Y-181550351D02*
X147127256Y-181693208D01*
X147127256Y-181693208D02*
X147079637Y-181788446D01*
X147079637Y-181788446D02*
X147032018Y-181836065D01*
X147032018Y-181836065D02*
X146936780Y-181883684D01*
X146936780Y-181883684D02*
X146555828Y-181883684D01*
X147698685Y-182359875D02*
X147603447Y-182312256D01*
X147603447Y-182312256D02*
X147555828Y-182264636D01*
X147555828Y-182264636D02*
X147508209Y-182169398D01*
X147508209Y-182169398D02*
X147508209Y-181883684D01*
X147508209Y-181883684D02*
X147555828Y-181788446D01*
X147555828Y-181788446D02*
X147603447Y-181740827D01*
X147603447Y-181740827D02*
X147698685Y-181693208D01*
X147698685Y-181693208D02*
X147841542Y-181693208D01*
X147841542Y-181693208D02*
X147936780Y-181740827D01*
X147936780Y-181740827D02*
X147984399Y-181788446D01*
X147984399Y-181788446D02*
X148032018Y-181883684D01*
X148032018Y-181883684D02*
X148032018Y-182169398D01*
X148032018Y-182169398D02*
X147984399Y-182264636D01*
X147984399Y-182264636D02*
X147936780Y-182312256D01*
X147936780Y-182312256D02*
X147841542Y-182359875D01*
X147841542Y-182359875D02*
X147698685Y-182359875D01*
X148603447Y-182359875D02*
X148508209Y-182312256D01*
X148508209Y-182312256D02*
X148460590Y-182217017D01*
X148460590Y-182217017D02*
X148460590Y-181359875D01*
X148889162Y-181693208D02*
X149127257Y-182359875D01*
X149365352Y-181693208D02*
X149127257Y-182359875D01*
X149127257Y-182359875D02*
X149032019Y-182597970D01*
X149032019Y-182597970D02*
X148984400Y-182645589D01*
X148984400Y-182645589D02*
X148889162Y-182693208D01*
X149746305Y-182359875D02*
X149746305Y-181693208D01*
X149746305Y-181359875D02*
X149698686Y-181407494D01*
X149698686Y-181407494D02*
X149746305Y-181455113D01*
X149746305Y-181455113D02*
X149793924Y-181407494D01*
X149793924Y-181407494D02*
X149746305Y-181359875D01*
X149746305Y-181359875D02*
X149746305Y-181455113D01*
X150222495Y-182359875D02*
X150222495Y-181693208D01*
X150222495Y-181788446D02*
X150270114Y-181740827D01*
X150270114Y-181740827D02*
X150365352Y-181693208D01*
X150365352Y-181693208D02*
X150508209Y-181693208D01*
X150508209Y-181693208D02*
X150603447Y-181740827D01*
X150603447Y-181740827D02*
X150651066Y-181836065D01*
X150651066Y-181836065D02*
X150651066Y-182359875D01*
X150651066Y-181836065D02*
X150698685Y-181740827D01*
X150698685Y-181740827D02*
X150793923Y-181693208D01*
X150793923Y-181693208D02*
X150936780Y-181693208D01*
X150936780Y-181693208D02*
X151032019Y-181740827D01*
X151032019Y-181740827D02*
X151079638Y-181836065D01*
X151079638Y-181836065D02*
X151079638Y-182359875D01*
X151555828Y-182359875D02*
X151555828Y-181693208D01*
X151555828Y-181359875D02*
X151508209Y-181407494D01*
X151508209Y-181407494D02*
X151555828Y-181455113D01*
X151555828Y-181455113D02*
X151603447Y-181407494D01*
X151603447Y-181407494D02*
X151555828Y-181359875D01*
X151555828Y-181359875D02*
X151555828Y-181455113D01*
X152460589Y-182359875D02*
X152460589Y-181359875D01*
X152460589Y-182312256D02*
X152365351Y-182359875D01*
X152365351Y-182359875D02*
X152174875Y-182359875D01*
X152174875Y-182359875D02*
X152079637Y-182312256D01*
X152079637Y-182312256D02*
X152032018Y-182264636D01*
X152032018Y-182264636D02*
X151984399Y-182169398D01*
X151984399Y-182169398D02*
X151984399Y-181883684D01*
X151984399Y-181883684D02*
X152032018Y-181788446D01*
X152032018Y-181788446D02*
X152079637Y-181740827D01*
X152079637Y-181740827D02*
X152174875Y-181693208D01*
X152174875Y-181693208D02*
X152365351Y-181693208D01*
X152365351Y-181693208D02*
X152460589Y-181740827D01*
X153317732Y-182312256D02*
X153222494Y-182359875D01*
X153222494Y-182359875D02*
X153032018Y-182359875D01*
X153032018Y-182359875D02*
X152936780Y-182312256D01*
X152936780Y-182312256D02*
X152889161Y-182217017D01*
X152889161Y-182217017D02*
X152889161Y-181836065D01*
X152889161Y-181836065D02*
X152936780Y-181740827D01*
X152936780Y-181740827D02*
X153032018Y-181693208D01*
X153032018Y-181693208D02*
X153222494Y-181693208D01*
X153222494Y-181693208D02*
X153317732Y-181740827D01*
X153317732Y-181740827D02*
X153365351Y-181836065D01*
X153365351Y-181836065D02*
X153365351Y-181931303D01*
X153365351Y-181931303D02*
X152889161Y-182026541D01*
X138793922Y-182969819D02*
X139365350Y-182969819D01*
X139079636Y-183969819D02*
X139079636Y-182969819D01*
X139698684Y-183969819D02*
X139698684Y-182969819D01*
X140127255Y-183969819D02*
X140127255Y-183446009D01*
X140127255Y-183446009D02*
X140079636Y-183350771D01*
X140079636Y-183350771D02*
X139984398Y-183303152D01*
X139984398Y-183303152D02*
X139841541Y-183303152D01*
X139841541Y-183303152D02*
X139746303Y-183350771D01*
X139746303Y-183350771D02*
X139698684Y-183398390D01*
X140603446Y-183969819D02*
X140603446Y-183303152D01*
X140603446Y-182969819D02*
X140555827Y-183017438D01*
X140555827Y-183017438D02*
X140603446Y-183065057D01*
X140603446Y-183065057D02*
X140651065Y-183017438D01*
X140651065Y-183017438D02*
X140603446Y-182969819D01*
X140603446Y-182969819D02*
X140603446Y-183065057D01*
X141508207Y-183922200D02*
X141412969Y-183969819D01*
X141412969Y-183969819D02*
X141222493Y-183969819D01*
X141222493Y-183969819D02*
X141127255Y-183922200D01*
X141127255Y-183922200D02*
X141079636Y-183874580D01*
X141079636Y-183874580D02*
X141032017Y-183779342D01*
X141032017Y-183779342D02*
X141032017Y-183493628D01*
X141032017Y-183493628D02*
X141079636Y-183398390D01*
X141079636Y-183398390D02*
X141127255Y-183350771D01*
X141127255Y-183350771D02*
X141222493Y-183303152D01*
X141222493Y-183303152D02*
X141412969Y-183303152D01*
X141412969Y-183303152D02*
X141508207Y-183350771D01*
X141936779Y-183969819D02*
X141936779Y-182969819D01*
X142032017Y-183588866D02*
X142317731Y-183969819D01*
X142317731Y-183303152D02*
X141936779Y-183684104D01*
X142746303Y-183303152D02*
X142746303Y-183969819D01*
X142746303Y-183398390D02*
X142793922Y-183350771D01*
X142793922Y-183350771D02*
X142889160Y-183303152D01*
X142889160Y-183303152D02*
X143032017Y-183303152D01*
X143032017Y-183303152D02*
X143127255Y-183350771D01*
X143127255Y-183350771D02*
X143174874Y-183446009D01*
X143174874Y-183446009D02*
X143174874Y-183969819D01*
X144032017Y-183922200D02*
X143936779Y-183969819D01*
X143936779Y-183969819D02*
X143746303Y-183969819D01*
X143746303Y-183969819D02*
X143651065Y-183922200D01*
X143651065Y-183922200D02*
X143603446Y-183826961D01*
X143603446Y-183826961D02*
X143603446Y-183446009D01*
X143603446Y-183446009D02*
X143651065Y-183350771D01*
X143651065Y-183350771D02*
X143746303Y-183303152D01*
X143746303Y-183303152D02*
X143936779Y-183303152D01*
X143936779Y-183303152D02*
X144032017Y-183350771D01*
X144032017Y-183350771D02*
X144079636Y-183446009D01*
X144079636Y-183446009D02*
X144079636Y-183541247D01*
X144079636Y-183541247D02*
X143603446Y-183636485D01*
X144460589Y-183922200D02*
X144555827Y-183969819D01*
X144555827Y-183969819D02*
X144746303Y-183969819D01*
X144746303Y-183969819D02*
X144841541Y-183922200D01*
X144841541Y-183922200D02*
X144889160Y-183826961D01*
X144889160Y-183826961D02*
X144889160Y-183779342D01*
X144889160Y-183779342D02*
X144841541Y-183684104D01*
X144841541Y-183684104D02*
X144746303Y-183636485D01*
X144746303Y-183636485D02*
X144603446Y-183636485D01*
X144603446Y-183636485D02*
X144508208Y-183588866D01*
X144508208Y-183588866D02*
X144460589Y-183493628D01*
X144460589Y-183493628D02*
X144460589Y-183446009D01*
X144460589Y-183446009D02*
X144508208Y-183350771D01*
X144508208Y-183350771D02*
X144603446Y-183303152D01*
X144603446Y-183303152D02*
X144746303Y-183303152D01*
X144746303Y-183303152D02*
X144841541Y-183350771D01*
X145270113Y-183922200D02*
X145365351Y-183969819D01*
X145365351Y-183969819D02*
X145555827Y-183969819D01*
X145555827Y-183969819D02*
X145651065Y-183922200D01*
X145651065Y-183922200D02*
X145698684Y-183826961D01*
X145698684Y-183826961D02*
X145698684Y-183779342D01*
X145698684Y-183779342D02*
X145651065Y-183684104D01*
X145651065Y-183684104D02*
X145555827Y-183636485D01*
X145555827Y-183636485D02*
X145412970Y-183636485D01*
X145412970Y-183636485D02*
X145317732Y-183588866D01*
X145317732Y-183588866D02*
X145270113Y-183493628D01*
X145270113Y-183493628D02*
X145270113Y-183446009D01*
X145270113Y-183446009D02*
X145317732Y-183350771D01*
X145317732Y-183350771D02*
X145412970Y-183303152D01*
X145412970Y-183303152D02*
X145555827Y-183303152D01*
X145555827Y-183303152D02*
X145651065Y-183350771D01*
X146127256Y-183874580D02*
X146174875Y-183922200D01*
X146174875Y-183922200D02*
X146127256Y-183969819D01*
X146127256Y-183969819D02*
X146079637Y-183922200D01*
X146079637Y-183922200D02*
X146127256Y-183874580D01*
X146127256Y-183874580D02*
X146127256Y-183969819D01*
X146127256Y-183350771D02*
X146174875Y-183398390D01*
X146174875Y-183398390D02*
X146127256Y-183446009D01*
X146127256Y-183446009D02*
X146079637Y-183398390D01*
X146079637Y-183398390D02*
X146127256Y-183350771D01*
X146127256Y-183350771D02*
X146127256Y-183446009D01*
X147555827Y-182969819D02*
X147651065Y-182969819D01*
X147651065Y-182969819D02*
X147746303Y-183017438D01*
X147746303Y-183017438D02*
X147793922Y-183065057D01*
X147793922Y-183065057D02*
X147841541Y-183160295D01*
X147841541Y-183160295D02*
X147889160Y-183350771D01*
X147889160Y-183350771D02*
X147889160Y-183588866D01*
X147889160Y-183588866D02*
X147841541Y-183779342D01*
X147841541Y-183779342D02*
X147793922Y-183874580D01*
X147793922Y-183874580D02*
X147746303Y-183922200D01*
X147746303Y-183922200D02*
X147651065Y-183969819D01*
X147651065Y-183969819D02*
X147555827Y-183969819D01*
X147555827Y-183969819D02*
X147460589Y-183922200D01*
X147460589Y-183922200D02*
X147412970Y-183874580D01*
X147412970Y-183874580D02*
X147365351Y-183779342D01*
X147365351Y-183779342D02*
X147317732Y-183588866D01*
X147317732Y-183588866D02*
X147317732Y-183350771D01*
X147317732Y-183350771D02*
X147365351Y-183160295D01*
X147365351Y-183160295D02*
X147412970Y-183065057D01*
X147412970Y-183065057D02*
X147460589Y-183017438D01*
X147460589Y-183017438D02*
X147555827Y-182969819D01*
X148317732Y-183874580D02*
X148365351Y-183922200D01*
X148365351Y-183922200D02*
X148317732Y-183969819D01*
X148317732Y-183969819D02*
X148270113Y-183922200D01*
X148270113Y-183922200D02*
X148317732Y-183874580D01*
X148317732Y-183874580D02*
X148317732Y-183969819D01*
X148746303Y-183065057D02*
X148793922Y-183017438D01*
X148793922Y-183017438D02*
X148889160Y-182969819D01*
X148889160Y-182969819D02*
X149127255Y-182969819D01*
X149127255Y-182969819D02*
X149222493Y-183017438D01*
X149222493Y-183017438D02*
X149270112Y-183065057D01*
X149270112Y-183065057D02*
X149317731Y-183160295D01*
X149317731Y-183160295D02*
X149317731Y-183255533D01*
X149317731Y-183255533D02*
X149270112Y-183398390D01*
X149270112Y-183398390D02*
X148698684Y-183969819D01*
X148698684Y-183969819D02*
X149317731Y-183969819D01*
X149936779Y-182969819D02*
X150032017Y-182969819D01*
X150032017Y-182969819D02*
X150127255Y-183017438D01*
X150127255Y-183017438D02*
X150174874Y-183065057D01*
X150174874Y-183065057D02*
X150222493Y-183160295D01*
X150222493Y-183160295D02*
X150270112Y-183350771D01*
X150270112Y-183350771D02*
X150270112Y-183588866D01*
X150270112Y-183588866D02*
X150222493Y-183779342D01*
X150222493Y-183779342D02*
X150174874Y-183874580D01*
X150174874Y-183874580D02*
X150127255Y-183922200D01*
X150127255Y-183922200D02*
X150032017Y-183969819D01*
X150032017Y-183969819D02*
X149936779Y-183969819D01*
X149936779Y-183969819D02*
X149841541Y-183922200D01*
X149841541Y-183922200D02*
X149793922Y-183874580D01*
X149793922Y-183874580D02*
X149746303Y-183779342D01*
X149746303Y-183779342D02*
X149698684Y-183588866D01*
X149698684Y-183588866D02*
X149698684Y-183350771D01*
X149698684Y-183350771D02*
X149746303Y-183160295D01*
X149746303Y-183160295D02*
X149793922Y-183065057D01*
X149793922Y-183065057D02*
X149841541Y-183017438D01*
X149841541Y-183017438D02*
X149936779Y-182969819D01*
X150698684Y-183969819D02*
X150698684Y-183303152D01*
X150698684Y-183398390D02*
X150746303Y-183350771D01*
X150746303Y-183350771D02*
X150841541Y-183303152D01*
X150841541Y-183303152D02*
X150984398Y-183303152D01*
X150984398Y-183303152D02*
X151079636Y-183350771D01*
X151079636Y-183350771D02*
X151127255Y-183446009D01*
X151127255Y-183446009D02*
X151127255Y-183969819D01*
X151127255Y-183446009D02*
X151174874Y-183350771D01*
X151174874Y-183350771D02*
X151270112Y-183303152D01*
X151270112Y-183303152D02*
X151412969Y-183303152D01*
X151412969Y-183303152D02*
X151508208Y-183350771D01*
X151508208Y-183350771D02*
X151555827Y-183446009D01*
X151555827Y-183446009D02*
X151555827Y-183969819D01*
X152032017Y-183969819D02*
X152032017Y-183303152D01*
X152032017Y-183398390D02*
X152079636Y-183350771D01*
X152079636Y-183350771D02*
X152174874Y-183303152D01*
X152174874Y-183303152D02*
X152317731Y-183303152D01*
X152317731Y-183303152D02*
X152412969Y-183350771D01*
X152412969Y-183350771D02*
X152460588Y-183446009D01*
X152460588Y-183446009D02*
X152460588Y-183969819D01*
X152460588Y-183446009D02*
X152508207Y-183350771D01*
X152508207Y-183350771D02*
X152603445Y-183303152D01*
X152603445Y-183303152D02*
X152746302Y-183303152D01*
X152746302Y-183303152D02*
X152841541Y-183350771D01*
X152841541Y-183350771D02*
X152889160Y-183446009D01*
X152889160Y-183446009D02*
X152889160Y-183969819D01*
X140489160Y-647912256D02*
X140632017Y-647959875D01*
X140632017Y-647959875D02*
X140870112Y-647959875D01*
X140870112Y-647959875D02*
X140965350Y-647912256D01*
X140965350Y-647912256D02*
X141012969Y-647864636D01*
X141012969Y-647864636D02*
X141060588Y-647769398D01*
X141060588Y-647769398D02*
X141060588Y-647674160D01*
X141060588Y-647674160D02*
X141012969Y-647578922D01*
X141012969Y-647578922D02*
X140965350Y-647531303D01*
X140965350Y-647531303D02*
X140870112Y-647483684D01*
X140870112Y-647483684D02*
X140679636Y-647436065D01*
X140679636Y-647436065D02*
X140584398Y-647388446D01*
X140584398Y-647388446D02*
X140536779Y-647340827D01*
X140536779Y-647340827D02*
X140489160Y-647245589D01*
X140489160Y-647245589D02*
X140489160Y-647150351D01*
X140489160Y-647150351D02*
X140536779Y-647055113D01*
X140536779Y-647055113D02*
X140584398Y-647007494D01*
X140584398Y-647007494D02*
X140679636Y-646959875D01*
X140679636Y-646959875D02*
X140917731Y-646959875D01*
X140917731Y-646959875D02*
X141060588Y-647007494D01*
X141346303Y-647293208D02*
X141727255Y-647293208D01*
X141489160Y-646959875D02*
X141489160Y-647817017D01*
X141489160Y-647817017D02*
X141536779Y-647912256D01*
X141536779Y-647912256D02*
X141632017Y-647959875D01*
X141632017Y-647959875D02*
X141727255Y-647959875D01*
X142060589Y-647959875D02*
X142060589Y-647293208D01*
X142060589Y-646959875D02*
X142012970Y-647007494D01*
X142012970Y-647007494D02*
X142060589Y-647055113D01*
X142060589Y-647055113D02*
X142108208Y-647007494D01*
X142108208Y-647007494D02*
X142060589Y-646959875D01*
X142060589Y-646959875D02*
X142060589Y-647055113D01*
X142393922Y-647293208D02*
X142774874Y-647293208D01*
X142536779Y-647959875D02*
X142536779Y-647102732D01*
X142536779Y-647102732D02*
X142584398Y-647007494D01*
X142584398Y-647007494D02*
X142679636Y-646959875D01*
X142679636Y-646959875D02*
X142774874Y-646959875D01*
X142965351Y-647293208D02*
X143346303Y-647293208D01*
X143108208Y-647959875D02*
X143108208Y-647102732D01*
X143108208Y-647102732D02*
X143155827Y-647007494D01*
X143155827Y-647007494D02*
X143251065Y-646959875D01*
X143251065Y-646959875D02*
X143346303Y-646959875D01*
X144060589Y-647912256D02*
X143965351Y-647959875D01*
X143965351Y-647959875D02*
X143774875Y-647959875D01*
X143774875Y-647959875D02*
X143679637Y-647912256D01*
X143679637Y-647912256D02*
X143632018Y-647817017D01*
X143632018Y-647817017D02*
X143632018Y-647436065D01*
X143632018Y-647436065D02*
X143679637Y-647340827D01*
X143679637Y-647340827D02*
X143774875Y-647293208D01*
X143774875Y-647293208D02*
X143965351Y-647293208D01*
X143965351Y-647293208D02*
X144060589Y-647340827D01*
X144060589Y-647340827D02*
X144108208Y-647436065D01*
X144108208Y-647436065D02*
X144108208Y-647531303D01*
X144108208Y-647531303D02*
X143632018Y-647626541D01*
X144536780Y-647293208D02*
X144536780Y-647959875D01*
X144536780Y-647388446D02*
X144584399Y-647340827D01*
X144584399Y-647340827D02*
X144679637Y-647293208D01*
X144679637Y-647293208D02*
X144822494Y-647293208D01*
X144822494Y-647293208D02*
X144917732Y-647340827D01*
X144917732Y-647340827D02*
X144965351Y-647436065D01*
X144965351Y-647436065D02*
X144965351Y-647959875D01*
X145822494Y-647912256D02*
X145727256Y-647959875D01*
X145727256Y-647959875D02*
X145536780Y-647959875D01*
X145536780Y-647959875D02*
X145441542Y-647912256D01*
X145441542Y-647912256D02*
X145393923Y-647817017D01*
X145393923Y-647817017D02*
X145393923Y-647436065D01*
X145393923Y-647436065D02*
X145441542Y-647340827D01*
X145441542Y-647340827D02*
X145536780Y-647293208D01*
X145536780Y-647293208D02*
X145727256Y-647293208D01*
X145727256Y-647293208D02*
X145822494Y-647340827D01*
X145822494Y-647340827D02*
X145870113Y-647436065D01*
X145870113Y-647436065D02*
X145870113Y-647531303D01*
X145870113Y-647531303D02*
X145393923Y-647626541D01*
X146298685Y-647959875D02*
X146298685Y-647293208D01*
X146298685Y-647483684D02*
X146346304Y-647388446D01*
X146346304Y-647388446D02*
X146393923Y-647340827D01*
X146393923Y-647340827D02*
X146489161Y-647293208D01*
X146489161Y-647293208D02*
X146584399Y-647293208D01*
X146917733Y-647864636D02*
X146965352Y-647912256D01*
X146965352Y-647912256D02*
X146917733Y-647959875D01*
X146917733Y-647959875D02*
X146870114Y-647912256D01*
X146870114Y-647912256D02*
X146917733Y-647864636D01*
X146917733Y-647864636D02*
X146917733Y-647959875D01*
X146917733Y-647340827D02*
X146965352Y-647388446D01*
X146965352Y-647388446D02*
X146917733Y-647436065D01*
X146917733Y-647436065D02*
X146870114Y-647388446D01*
X146870114Y-647388446D02*
X146917733Y-647340827D01*
X146917733Y-647340827D02*
X146917733Y-647436065D01*
X148155828Y-647959875D02*
X148155828Y-646959875D01*
X148155828Y-646959875D02*
X148536780Y-646959875D01*
X148536780Y-646959875D02*
X148632018Y-647007494D01*
X148632018Y-647007494D02*
X148679637Y-647055113D01*
X148679637Y-647055113D02*
X148727256Y-647150351D01*
X148727256Y-647150351D02*
X148727256Y-647293208D01*
X148727256Y-647293208D02*
X148679637Y-647388446D01*
X148679637Y-647388446D02*
X148632018Y-647436065D01*
X148632018Y-647436065D02*
X148536780Y-647483684D01*
X148536780Y-647483684D02*
X148155828Y-647483684D01*
X149298685Y-647959875D02*
X149203447Y-647912256D01*
X149203447Y-647912256D02*
X149155828Y-647864636D01*
X149155828Y-647864636D02*
X149108209Y-647769398D01*
X149108209Y-647769398D02*
X149108209Y-647483684D01*
X149108209Y-647483684D02*
X149155828Y-647388446D01*
X149155828Y-647388446D02*
X149203447Y-647340827D01*
X149203447Y-647340827D02*
X149298685Y-647293208D01*
X149298685Y-647293208D02*
X149441542Y-647293208D01*
X149441542Y-647293208D02*
X149536780Y-647340827D01*
X149536780Y-647340827D02*
X149584399Y-647388446D01*
X149584399Y-647388446D02*
X149632018Y-647483684D01*
X149632018Y-647483684D02*
X149632018Y-647769398D01*
X149632018Y-647769398D02*
X149584399Y-647864636D01*
X149584399Y-647864636D02*
X149536780Y-647912256D01*
X149536780Y-647912256D02*
X149441542Y-647959875D01*
X149441542Y-647959875D02*
X149298685Y-647959875D01*
X150203447Y-647959875D02*
X150108209Y-647912256D01*
X150108209Y-647912256D02*
X150060590Y-647817017D01*
X150060590Y-647817017D02*
X150060590Y-646959875D01*
X150489162Y-647293208D02*
X150727257Y-647959875D01*
X150965352Y-647293208D02*
X150727257Y-647959875D01*
X150727257Y-647959875D02*
X150632019Y-648197970D01*
X150632019Y-648197970D02*
X150584400Y-648245589D01*
X150584400Y-648245589D02*
X150489162Y-648293208D01*
X151346305Y-647959875D02*
X151346305Y-647293208D01*
X151346305Y-646959875D02*
X151298686Y-647007494D01*
X151298686Y-647007494D02*
X151346305Y-647055113D01*
X151346305Y-647055113D02*
X151393924Y-647007494D01*
X151393924Y-647007494D02*
X151346305Y-646959875D01*
X151346305Y-646959875D02*
X151346305Y-647055113D01*
X151822495Y-647959875D02*
X151822495Y-647293208D01*
X151822495Y-647388446D02*
X151870114Y-647340827D01*
X151870114Y-647340827D02*
X151965352Y-647293208D01*
X151965352Y-647293208D02*
X152108209Y-647293208D01*
X152108209Y-647293208D02*
X152203447Y-647340827D01*
X152203447Y-647340827D02*
X152251066Y-647436065D01*
X152251066Y-647436065D02*
X152251066Y-647959875D01*
X152251066Y-647436065D02*
X152298685Y-647340827D01*
X152298685Y-647340827D02*
X152393923Y-647293208D01*
X152393923Y-647293208D02*
X152536780Y-647293208D01*
X152536780Y-647293208D02*
X152632019Y-647340827D01*
X152632019Y-647340827D02*
X152679638Y-647436065D01*
X152679638Y-647436065D02*
X152679638Y-647959875D01*
X153155828Y-647959875D02*
X153155828Y-647293208D01*
X153155828Y-646959875D02*
X153108209Y-647007494D01*
X153108209Y-647007494D02*
X153155828Y-647055113D01*
X153155828Y-647055113D02*
X153203447Y-647007494D01*
X153203447Y-647007494D02*
X153155828Y-646959875D01*
X153155828Y-646959875D02*
X153155828Y-647055113D01*
X154060589Y-647959875D02*
X154060589Y-646959875D01*
X154060589Y-647912256D02*
X153965351Y-647959875D01*
X153965351Y-647959875D02*
X153774875Y-647959875D01*
X153774875Y-647959875D02*
X153679637Y-647912256D01*
X153679637Y-647912256D02*
X153632018Y-647864636D01*
X153632018Y-647864636D02*
X153584399Y-647769398D01*
X153584399Y-647769398D02*
X153584399Y-647483684D01*
X153584399Y-647483684D02*
X153632018Y-647388446D01*
X153632018Y-647388446D02*
X153679637Y-647340827D01*
X153679637Y-647340827D02*
X153774875Y-647293208D01*
X153774875Y-647293208D02*
X153965351Y-647293208D01*
X153965351Y-647293208D02*
X154060589Y-647340827D01*
X154917732Y-647912256D02*
X154822494Y-647959875D01*
X154822494Y-647959875D02*
X154632018Y-647959875D01*
X154632018Y-647959875D02*
X154536780Y-647912256D01*
X154536780Y-647912256D02*
X154489161Y-647817017D01*
X154489161Y-647817017D02*
X154489161Y-647436065D01*
X154489161Y-647436065D02*
X154536780Y-647340827D01*
X154536780Y-647340827D02*
X154632018Y-647293208D01*
X154632018Y-647293208D02*
X154822494Y-647293208D01*
X154822494Y-647293208D02*
X154917732Y-647340827D01*
X154917732Y-647340827D02*
X154965351Y-647436065D01*
X154965351Y-647436065D02*
X154965351Y-647531303D01*
X154965351Y-647531303D02*
X154489161Y-647626541D01*
X140393922Y-648569819D02*
X140965350Y-648569819D01*
X140679636Y-649569819D02*
X140679636Y-648569819D01*
X141298684Y-649569819D02*
X141298684Y-648569819D01*
X141727255Y-649569819D02*
X141727255Y-649046009D01*
X141727255Y-649046009D02*
X141679636Y-648950771D01*
X141679636Y-648950771D02*
X141584398Y-648903152D01*
X141584398Y-648903152D02*
X141441541Y-648903152D01*
X141441541Y-648903152D02*
X141346303Y-648950771D01*
X141346303Y-648950771D02*
X141298684Y-648998390D01*
X142203446Y-649569819D02*
X142203446Y-648903152D01*
X142203446Y-648569819D02*
X142155827Y-648617438D01*
X142155827Y-648617438D02*
X142203446Y-648665057D01*
X142203446Y-648665057D02*
X142251065Y-648617438D01*
X142251065Y-648617438D02*
X142203446Y-648569819D01*
X142203446Y-648569819D02*
X142203446Y-648665057D01*
X143108207Y-649522200D02*
X143012969Y-649569819D01*
X143012969Y-649569819D02*
X142822493Y-649569819D01*
X142822493Y-649569819D02*
X142727255Y-649522200D01*
X142727255Y-649522200D02*
X142679636Y-649474580D01*
X142679636Y-649474580D02*
X142632017Y-649379342D01*
X142632017Y-649379342D02*
X142632017Y-649093628D01*
X142632017Y-649093628D02*
X142679636Y-648998390D01*
X142679636Y-648998390D02*
X142727255Y-648950771D01*
X142727255Y-648950771D02*
X142822493Y-648903152D01*
X142822493Y-648903152D02*
X143012969Y-648903152D01*
X143012969Y-648903152D02*
X143108207Y-648950771D01*
X143536779Y-649569819D02*
X143536779Y-648569819D01*
X143632017Y-649188866D02*
X143917731Y-649569819D01*
X143917731Y-648903152D02*
X143536779Y-649284104D01*
X144346303Y-648903152D02*
X144346303Y-649569819D01*
X144346303Y-648998390D02*
X144393922Y-648950771D01*
X144393922Y-648950771D02*
X144489160Y-648903152D01*
X144489160Y-648903152D02*
X144632017Y-648903152D01*
X144632017Y-648903152D02*
X144727255Y-648950771D01*
X144727255Y-648950771D02*
X144774874Y-649046009D01*
X144774874Y-649046009D02*
X144774874Y-649569819D01*
X145632017Y-649522200D02*
X145536779Y-649569819D01*
X145536779Y-649569819D02*
X145346303Y-649569819D01*
X145346303Y-649569819D02*
X145251065Y-649522200D01*
X145251065Y-649522200D02*
X145203446Y-649426961D01*
X145203446Y-649426961D02*
X145203446Y-649046009D01*
X145203446Y-649046009D02*
X145251065Y-648950771D01*
X145251065Y-648950771D02*
X145346303Y-648903152D01*
X145346303Y-648903152D02*
X145536779Y-648903152D01*
X145536779Y-648903152D02*
X145632017Y-648950771D01*
X145632017Y-648950771D02*
X145679636Y-649046009D01*
X145679636Y-649046009D02*
X145679636Y-649141247D01*
X145679636Y-649141247D02*
X145203446Y-649236485D01*
X146060589Y-649522200D02*
X146155827Y-649569819D01*
X146155827Y-649569819D02*
X146346303Y-649569819D01*
X146346303Y-649569819D02*
X146441541Y-649522200D01*
X146441541Y-649522200D02*
X146489160Y-649426961D01*
X146489160Y-649426961D02*
X146489160Y-649379342D01*
X146489160Y-649379342D02*
X146441541Y-649284104D01*
X146441541Y-649284104D02*
X146346303Y-649236485D01*
X146346303Y-649236485D02*
X146203446Y-649236485D01*
X146203446Y-649236485D02*
X146108208Y-649188866D01*
X146108208Y-649188866D02*
X146060589Y-649093628D01*
X146060589Y-649093628D02*
X146060589Y-649046009D01*
X146060589Y-649046009D02*
X146108208Y-648950771D01*
X146108208Y-648950771D02*
X146203446Y-648903152D01*
X146203446Y-648903152D02*
X146346303Y-648903152D01*
X146346303Y-648903152D02*
X146441541Y-648950771D01*
X146870113Y-649522200D02*
X146965351Y-649569819D01*
X146965351Y-649569819D02*
X147155827Y-649569819D01*
X147155827Y-649569819D02*
X147251065Y-649522200D01*
X147251065Y-649522200D02*
X147298684Y-649426961D01*
X147298684Y-649426961D02*
X147298684Y-649379342D01*
X147298684Y-649379342D02*
X147251065Y-649284104D01*
X147251065Y-649284104D02*
X147155827Y-649236485D01*
X147155827Y-649236485D02*
X147012970Y-649236485D01*
X147012970Y-649236485D02*
X146917732Y-649188866D01*
X146917732Y-649188866D02*
X146870113Y-649093628D01*
X146870113Y-649093628D02*
X146870113Y-649046009D01*
X146870113Y-649046009D02*
X146917732Y-648950771D01*
X146917732Y-648950771D02*
X147012970Y-648903152D01*
X147012970Y-648903152D02*
X147155827Y-648903152D01*
X147155827Y-648903152D02*
X147251065Y-648950771D01*
X147727256Y-649474580D02*
X147774875Y-649522200D01*
X147774875Y-649522200D02*
X147727256Y-649569819D01*
X147727256Y-649569819D02*
X147679637Y-649522200D01*
X147679637Y-649522200D02*
X147727256Y-649474580D01*
X147727256Y-649474580D02*
X147727256Y-649569819D01*
X147727256Y-648950771D02*
X147774875Y-648998390D01*
X147774875Y-648998390D02*
X147727256Y-649046009D01*
X147727256Y-649046009D02*
X147679637Y-648998390D01*
X147679637Y-648998390D02*
X147727256Y-648950771D01*
X147727256Y-648950771D02*
X147727256Y-649046009D01*
X149155827Y-648569819D02*
X149251065Y-648569819D01*
X149251065Y-648569819D02*
X149346303Y-648617438D01*
X149346303Y-648617438D02*
X149393922Y-648665057D01*
X149393922Y-648665057D02*
X149441541Y-648760295D01*
X149441541Y-648760295D02*
X149489160Y-648950771D01*
X149489160Y-648950771D02*
X149489160Y-649188866D01*
X149489160Y-649188866D02*
X149441541Y-649379342D01*
X149441541Y-649379342D02*
X149393922Y-649474580D01*
X149393922Y-649474580D02*
X149346303Y-649522200D01*
X149346303Y-649522200D02*
X149251065Y-649569819D01*
X149251065Y-649569819D02*
X149155827Y-649569819D01*
X149155827Y-649569819D02*
X149060589Y-649522200D01*
X149060589Y-649522200D02*
X149012970Y-649474580D01*
X149012970Y-649474580D02*
X148965351Y-649379342D01*
X148965351Y-649379342D02*
X148917732Y-649188866D01*
X148917732Y-649188866D02*
X148917732Y-648950771D01*
X148917732Y-648950771D02*
X148965351Y-648760295D01*
X148965351Y-648760295D02*
X149012970Y-648665057D01*
X149012970Y-648665057D02*
X149060589Y-648617438D01*
X149060589Y-648617438D02*
X149155827Y-648569819D01*
X149917732Y-649474580D02*
X149965351Y-649522200D01*
X149965351Y-649522200D02*
X149917732Y-649569819D01*
X149917732Y-649569819D02*
X149870113Y-649522200D01*
X149870113Y-649522200D02*
X149917732Y-649474580D01*
X149917732Y-649474580D02*
X149917732Y-649569819D01*
X150346303Y-648665057D02*
X150393922Y-648617438D01*
X150393922Y-648617438D02*
X150489160Y-648569819D01*
X150489160Y-648569819D02*
X150727255Y-648569819D01*
X150727255Y-648569819D02*
X150822493Y-648617438D01*
X150822493Y-648617438D02*
X150870112Y-648665057D01*
X150870112Y-648665057D02*
X150917731Y-648760295D01*
X150917731Y-648760295D02*
X150917731Y-648855533D01*
X150917731Y-648855533D02*
X150870112Y-648998390D01*
X150870112Y-648998390D02*
X150298684Y-649569819D01*
X150298684Y-649569819D02*
X150917731Y-649569819D01*
X151536779Y-648569819D02*
X151632017Y-648569819D01*
X151632017Y-648569819D02*
X151727255Y-648617438D01*
X151727255Y-648617438D02*
X151774874Y-648665057D01*
X151774874Y-648665057D02*
X151822493Y-648760295D01*
X151822493Y-648760295D02*
X151870112Y-648950771D01*
X151870112Y-648950771D02*
X151870112Y-649188866D01*
X151870112Y-649188866D02*
X151822493Y-649379342D01*
X151822493Y-649379342D02*
X151774874Y-649474580D01*
X151774874Y-649474580D02*
X151727255Y-649522200D01*
X151727255Y-649522200D02*
X151632017Y-649569819D01*
X151632017Y-649569819D02*
X151536779Y-649569819D01*
X151536779Y-649569819D02*
X151441541Y-649522200D01*
X151441541Y-649522200D02*
X151393922Y-649474580D01*
X151393922Y-649474580D02*
X151346303Y-649379342D01*
X151346303Y-649379342D02*
X151298684Y-649188866D01*
X151298684Y-649188866D02*
X151298684Y-648950771D01*
X151298684Y-648950771D02*
X151346303Y-648760295D01*
X151346303Y-648760295D02*
X151393922Y-648665057D01*
X151393922Y-648665057D02*
X151441541Y-648617438D01*
X151441541Y-648617438D02*
X151536779Y-648569819D01*
X152298684Y-649569819D02*
X152298684Y-648903152D01*
X152298684Y-648998390D02*
X152346303Y-648950771D01*
X152346303Y-648950771D02*
X152441541Y-648903152D01*
X152441541Y-648903152D02*
X152584398Y-648903152D01*
X152584398Y-648903152D02*
X152679636Y-648950771D01*
X152679636Y-648950771D02*
X152727255Y-649046009D01*
X152727255Y-649046009D02*
X152727255Y-649569819D01*
X152727255Y-649046009D02*
X152774874Y-648950771D01*
X152774874Y-648950771D02*
X152870112Y-648903152D01*
X152870112Y-648903152D02*
X153012969Y-648903152D01*
X153012969Y-648903152D02*
X153108208Y-648950771D01*
X153108208Y-648950771D02*
X153155827Y-649046009D01*
X153155827Y-649046009D02*
X153155827Y-649569819D01*
X153632017Y-649569819D02*
X153632017Y-648903152D01*
X153632017Y-648998390D02*
X153679636Y-648950771D01*
X153679636Y-648950771D02*
X153774874Y-648903152D01*
X153774874Y-648903152D02*
X153917731Y-648903152D01*
X153917731Y-648903152D02*
X154012969Y-648950771D01*
X154012969Y-648950771D02*
X154060588Y-649046009D01*
X154060588Y-649046009D02*
X154060588Y-649569819D01*
X154060588Y-649046009D02*
X154108207Y-648950771D01*
X154108207Y-648950771D02*
X154203445Y-648903152D01*
X154203445Y-648903152D02*
X154346302Y-648903152D01*
X154346302Y-648903152D02*
X154441541Y-648950771D01*
X154441541Y-648950771D02*
X154489160Y-649046009D01*
X154489160Y-649046009D02*
X154489160Y-649569819D01*
X143189160Y-75522200D02*
X143332017Y-75569819D01*
X143332017Y-75569819D02*
X143570112Y-75569819D01*
X143570112Y-75569819D02*
X143665350Y-75522200D01*
X143665350Y-75522200D02*
X143712969Y-75474580D01*
X143712969Y-75474580D02*
X143760588Y-75379342D01*
X143760588Y-75379342D02*
X143760588Y-75284104D01*
X143760588Y-75284104D02*
X143712969Y-75188866D01*
X143712969Y-75188866D02*
X143665350Y-75141247D01*
X143665350Y-75141247D02*
X143570112Y-75093628D01*
X143570112Y-75093628D02*
X143379636Y-75046009D01*
X143379636Y-75046009D02*
X143284398Y-74998390D01*
X143284398Y-74998390D02*
X143236779Y-74950771D01*
X143236779Y-74950771D02*
X143189160Y-74855533D01*
X143189160Y-74855533D02*
X143189160Y-74760295D01*
X143189160Y-74760295D02*
X143236779Y-74665057D01*
X143236779Y-74665057D02*
X143284398Y-74617438D01*
X143284398Y-74617438D02*
X143379636Y-74569819D01*
X143379636Y-74569819D02*
X143617731Y-74569819D01*
X143617731Y-74569819D02*
X143760588Y-74617438D01*
X144046303Y-74903152D02*
X144427255Y-74903152D01*
X144189160Y-74569819D02*
X144189160Y-75426961D01*
X144189160Y-75426961D02*
X144236779Y-75522200D01*
X144236779Y-75522200D02*
X144332017Y-75569819D01*
X144332017Y-75569819D02*
X144427255Y-75569819D01*
X144760589Y-75569819D02*
X144760589Y-74903152D01*
X144760589Y-74569819D02*
X144712970Y-74617438D01*
X144712970Y-74617438D02*
X144760589Y-74665057D01*
X144760589Y-74665057D02*
X144808208Y-74617438D01*
X144808208Y-74617438D02*
X144760589Y-74569819D01*
X144760589Y-74569819D02*
X144760589Y-74665057D01*
X145093922Y-74903152D02*
X145474874Y-74903152D01*
X145236779Y-75569819D02*
X145236779Y-74712676D01*
X145236779Y-74712676D02*
X145284398Y-74617438D01*
X145284398Y-74617438D02*
X145379636Y-74569819D01*
X145379636Y-74569819D02*
X145474874Y-74569819D01*
X145665351Y-74903152D02*
X146046303Y-74903152D01*
X145808208Y-75569819D02*
X145808208Y-74712676D01*
X145808208Y-74712676D02*
X145855827Y-74617438D01*
X145855827Y-74617438D02*
X145951065Y-74569819D01*
X145951065Y-74569819D02*
X146046303Y-74569819D01*
X146760589Y-75522200D02*
X146665351Y-75569819D01*
X146665351Y-75569819D02*
X146474875Y-75569819D01*
X146474875Y-75569819D02*
X146379637Y-75522200D01*
X146379637Y-75522200D02*
X146332018Y-75426961D01*
X146332018Y-75426961D02*
X146332018Y-75046009D01*
X146332018Y-75046009D02*
X146379637Y-74950771D01*
X146379637Y-74950771D02*
X146474875Y-74903152D01*
X146474875Y-74903152D02*
X146665351Y-74903152D01*
X146665351Y-74903152D02*
X146760589Y-74950771D01*
X146760589Y-74950771D02*
X146808208Y-75046009D01*
X146808208Y-75046009D02*
X146808208Y-75141247D01*
X146808208Y-75141247D02*
X146332018Y-75236485D01*
X147236780Y-74903152D02*
X147236780Y-75569819D01*
X147236780Y-74998390D02*
X147284399Y-74950771D01*
X147284399Y-74950771D02*
X147379637Y-74903152D01*
X147379637Y-74903152D02*
X147522494Y-74903152D01*
X147522494Y-74903152D02*
X147617732Y-74950771D01*
X147617732Y-74950771D02*
X147665351Y-75046009D01*
X147665351Y-75046009D02*
X147665351Y-75569819D01*
X148522494Y-75522200D02*
X148427256Y-75569819D01*
X148427256Y-75569819D02*
X148236780Y-75569819D01*
X148236780Y-75569819D02*
X148141542Y-75522200D01*
X148141542Y-75522200D02*
X148093923Y-75426961D01*
X148093923Y-75426961D02*
X148093923Y-75046009D01*
X148093923Y-75046009D02*
X148141542Y-74950771D01*
X148141542Y-74950771D02*
X148236780Y-74903152D01*
X148236780Y-74903152D02*
X148427256Y-74903152D01*
X148427256Y-74903152D02*
X148522494Y-74950771D01*
X148522494Y-74950771D02*
X148570113Y-75046009D01*
X148570113Y-75046009D02*
X148570113Y-75141247D01*
X148570113Y-75141247D02*
X148093923Y-75236485D01*
X148998685Y-75569819D02*
X148998685Y-74903152D01*
X148998685Y-75093628D02*
X149046304Y-74998390D01*
X149046304Y-74998390D02*
X149093923Y-74950771D01*
X149093923Y-74950771D02*
X149189161Y-74903152D01*
X149189161Y-74903152D02*
X149284399Y-74903152D01*
X149617733Y-75474580D02*
X149665352Y-75522200D01*
X149665352Y-75522200D02*
X149617733Y-75569819D01*
X149617733Y-75569819D02*
X149570114Y-75522200D01*
X149570114Y-75522200D02*
X149617733Y-75474580D01*
X149617733Y-75474580D02*
X149617733Y-75569819D01*
X149617733Y-74950771D02*
X149665352Y-74998390D01*
X149665352Y-74998390D02*
X149617733Y-75046009D01*
X149617733Y-75046009D02*
X149570114Y-74998390D01*
X149570114Y-74998390D02*
X149617733Y-74950771D01*
X149617733Y-74950771D02*
X149617733Y-75046009D01*
X150855828Y-75569819D02*
X150855828Y-74569819D01*
X150855828Y-74569819D02*
X151236780Y-74569819D01*
X151236780Y-74569819D02*
X151332018Y-74617438D01*
X151332018Y-74617438D02*
X151379637Y-74665057D01*
X151379637Y-74665057D02*
X151427256Y-74760295D01*
X151427256Y-74760295D02*
X151427256Y-74903152D01*
X151427256Y-74903152D02*
X151379637Y-74998390D01*
X151379637Y-74998390D02*
X151332018Y-75046009D01*
X151332018Y-75046009D02*
X151236780Y-75093628D01*
X151236780Y-75093628D02*
X150855828Y-75093628D01*
X151998685Y-75569819D02*
X151903447Y-75522200D01*
X151903447Y-75522200D02*
X151855828Y-75474580D01*
X151855828Y-75474580D02*
X151808209Y-75379342D01*
X151808209Y-75379342D02*
X151808209Y-75093628D01*
X151808209Y-75093628D02*
X151855828Y-74998390D01*
X151855828Y-74998390D02*
X151903447Y-74950771D01*
X151903447Y-74950771D02*
X151998685Y-74903152D01*
X151998685Y-74903152D02*
X152141542Y-74903152D01*
X152141542Y-74903152D02*
X152236780Y-74950771D01*
X152236780Y-74950771D02*
X152284399Y-74998390D01*
X152284399Y-74998390D02*
X152332018Y-75093628D01*
X152332018Y-75093628D02*
X152332018Y-75379342D01*
X152332018Y-75379342D02*
X152284399Y-75474580D01*
X152284399Y-75474580D02*
X152236780Y-75522200D01*
X152236780Y-75522200D02*
X152141542Y-75569819D01*
X152141542Y-75569819D02*
X151998685Y-75569819D01*
X152903447Y-75569819D02*
X152808209Y-75522200D01*
X152808209Y-75522200D02*
X152760590Y-75426961D01*
X152760590Y-75426961D02*
X152760590Y-74569819D01*
X153189162Y-74903152D02*
X153427257Y-75569819D01*
X153665352Y-74903152D02*
X153427257Y-75569819D01*
X153427257Y-75569819D02*
X153332019Y-75807914D01*
X153332019Y-75807914D02*
X153284400Y-75855533D01*
X153284400Y-75855533D02*
X153189162Y-75903152D01*
X154046305Y-75569819D02*
X154046305Y-74903152D01*
X154046305Y-74569819D02*
X153998686Y-74617438D01*
X153998686Y-74617438D02*
X154046305Y-74665057D01*
X154046305Y-74665057D02*
X154093924Y-74617438D01*
X154093924Y-74617438D02*
X154046305Y-74569819D01*
X154046305Y-74569819D02*
X154046305Y-74665057D01*
X154522495Y-75569819D02*
X154522495Y-74903152D01*
X154522495Y-74998390D02*
X154570114Y-74950771D01*
X154570114Y-74950771D02*
X154665352Y-74903152D01*
X154665352Y-74903152D02*
X154808209Y-74903152D01*
X154808209Y-74903152D02*
X154903447Y-74950771D01*
X154903447Y-74950771D02*
X154951066Y-75046009D01*
X154951066Y-75046009D02*
X154951066Y-75569819D01*
X154951066Y-75046009D02*
X154998685Y-74950771D01*
X154998685Y-74950771D02*
X155093923Y-74903152D01*
X155093923Y-74903152D02*
X155236780Y-74903152D01*
X155236780Y-74903152D02*
X155332019Y-74950771D01*
X155332019Y-74950771D02*
X155379638Y-75046009D01*
X155379638Y-75046009D02*
X155379638Y-75569819D01*
X155855828Y-75569819D02*
X155855828Y-74903152D01*
X155855828Y-74569819D02*
X155808209Y-74617438D01*
X155808209Y-74617438D02*
X155855828Y-74665057D01*
X155855828Y-74665057D02*
X155903447Y-74617438D01*
X155903447Y-74617438D02*
X155855828Y-74569819D01*
X155855828Y-74569819D02*
X155855828Y-74665057D01*
X156760589Y-75569819D02*
X156760589Y-74569819D01*
X156760589Y-75522200D02*
X156665351Y-75569819D01*
X156665351Y-75569819D02*
X156474875Y-75569819D01*
X156474875Y-75569819D02*
X156379637Y-75522200D01*
X156379637Y-75522200D02*
X156332018Y-75474580D01*
X156332018Y-75474580D02*
X156284399Y-75379342D01*
X156284399Y-75379342D02*
X156284399Y-75093628D01*
X156284399Y-75093628D02*
X156332018Y-74998390D01*
X156332018Y-74998390D02*
X156379637Y-74950771D01*
X156379637Y-74950771D02*
X156474875Y-74903152D01*
X156474875Y-74903152D02*
X156665351Y-74903152D01*
X156665351Y-74903152D02*
X156760589Y-74950771D01*
X157617732Y-75522200D02*
X157522494Y-75569819D01*
X157522494Y-75569819D02*
X157332018Y-75569819D01*
X157332018Y-75569819D02*
X157236780Y-75522200D01*
X157236780Y-75522200D02*
X157189161Y-75426961D01*
X157189161Y-75426961D02*
X157189161Y-75046009D01*
X157189161Y-75046009D02*
X157236780Y-74950771D01*
X157236780Y-74950771D02*
X157332018Y-74903152D01*
X157332018Y-74903152D02*
X157522494Y-74903152D01*
X157522494Y-74903152D02*
X157617732Y-74950771D01*
X157617732Y-74950771D02*
X157665351Y-75046009D01*
X157665351Y-75046009D02*
X157665351Y-75141247D01*
X157665351Y-75141247D02*
X157189161Y-75236485D01*
M02*
