G04 #@! TF.GenerationSoftware,KiCad,Pcbnew,10.0.3*
G04 #@! TF.CreationDate,2026-06-03T15:58:30+02:00*
G04 #@! TF.ProjectId,rapid_tank_level_indicator_sensor,72617069-645f-4746-916e-6b5f6c657665,rev?*
G04 #@! TF.SameCoordinates,Original*
G04 #@! TF.FileFunction,Legend,Top*
G04 #@! TF.FilePolarity,Positive*
%FSLAX46Y46*%
G04 Gerber Fmt 4.6, Leading zero omitted, Abs format (unit mm)*
G04 Created by KiCad (PCBNEW 10.0.3) date 2026-06-03 15:58:30*
%MOMM*%
%LPD*%
G01*
G04 APERTURE LIST*
%ADD10C,0.100000*%
%ADD11C,0.200000*%
%ADD12C,0.120000*%
%ADD13C,1.000000*%
G04 APERTURE END LIST*
D10*
X131500000Y-120000000D02*
X140500000Y-120000000D01*
X142200000Y-74000000D02*
X130400000Y-74000000D01*
X131461027Y-75205752D02*
X131841979Y-75205752D01*
X131603884Y-74872419D02*
X131603884Y-75729561D01*
X131603884Y-75729561D02*
X131651503Y-75824800D01*
X131651503Y-75824800D02*
X131746741Y-75872419D01*
X131746741Y-75872419D02*
X131841979Y-75872419D01*
X132175313Y-75872419D02*
X132175313Y-74872419D01*
X132603884Y-75872419D02*
X132603884Y-75348609D01*
X132603884Y-75348609D02*
X132556265Y-75253371D01*
X132556265Y-75253371D02*
X132461027Y-75205752D01*
X132461027Y-75205752D02*
X132318170Y-75205752D01*
X132318170Y-75205752D02*
X132222932Y-75253371D01*
X132222932Y-75253371D02*
X132175313Y-75300990D01*
X133080075Y-75872419D02*
X133080075Y-75205752D01*
X133080075Y-74872419D02*
X133032456Y-74920038D01*
X133032456Y-74920038D02*
X133080075Y-74967657D01*
X133080075Y-74967657D02*
X133127694Y-74920038D01*
X133127694Y-74920038D02*
X133080075Y-74872419D01*
X133080075Y-74872419D02*
X133080075Y-74967657D01*
X133508646Y-75824800D02*
X133603884Y-75872419D01*
X133603884Y-75872419D02*
X133794360Y-75872419D01*
X133794360Y-75872419D02*
X133889598Y-75824800D01*
X133889598Y-75824800D02*
X133937217Y-75729561D01*
X133937217Y-75729561D02*
X133937217Y-75681942D01*
X133937217Y-75681942D02*
X133889598Y-75586704D01*
X133889598Y-75586704D02*
X133794360Y-75539085D01*
X133794360Y-75539085D02*
X133651503Y-75539085D01*
X133651503Y-75539085D02*
X133556265Y-75491466D01*
X133556265Y-75491466D02*
X133508646Y-75396228D01*
X133508646Y-75396228D02*
X133508646Y-75348609D01*
X133508646Y-75348609D02*
X133556265Y-75253371D01*
X133556265Y-75253371D02*
X133651503Y-75205752D01*
X133651503Y-75205752D02*
X133794360Y-75205752D01*
X133794360Y-75205752D02*
X133889598Y-75253371D01*
X135080075Y-75824800D02*
X135175313Y-75872419D01*
X135175313Y-75872419D02*
X135365789Y-75872419D01*
X135365789Y-75872419D02*
X135461027Y-75824800D01*
X135461027Y-75824800D02*
X135508646Y-75729561D01*
X135508646Y-75729561D02*
X135508646Y-75681942D01*
X135508646Y-75681942D02*
X135461027Y-75586704D01*
X135461027Y-75586704D02*
X135365789Y-75539085D01*
X135365789Y-75539085D02*
X135222932Y-75539085D01*
X135222932Y-75539085D02*
X135127694Y-75491466D01*
X135127694Y-75491466D02*
X135080075Y-75396228D01*
X135080075Y-75396228D02*
X135080075Y-75348609D01*
X135080075Y-75348609D02*
X135127694Y-75253371D01*
X135127694Y-75253371D02*
X135222932Y-75205752D01*
X135222932Y-75205752D02*
X135365789Y-75205752D01*
X135365789Y-75205752D02*
X135461027Y-75253371D01*
X135937218Y-75872419D02*
X135937218Y-75205752D01*
X135937218Y-74872419D02*
X135889599Y-74920038D01*
X135889599Y-74920038D02*
X135937218Y-74967657D01*
X135937218Y-74967657D02*
X135984837Y-74920038D01*
X135984837Y-74920038D02*
X135937218Y-74872419D01*
X135937218Y-74872419D02*
X135937218Y-74967657D01*
X136841979Y-75872419D02*
X136841979Y-74872419D01*
X136841979Y-75824800D02*
X136746741Y-75872419D01*
X136746741Y-75872419D02*
X136556265Y-75872419D01*
X136556265Y-75872419D02*
X136461027Y-75824800D01*
X136461027Y-75824800D02*
X136413408Y-75777180D01*
X136413408Y-75777180D02*
X136365789Y-75681942D01*
X136365789Y-75681942D02*
X136365789Y-75396228D01*
X136365789Y-75396228D02*
X136413408Y-75300990D01*
X136413408Y-75300990D02*
X136461027Y-75253371D01*
X136461027Y-75253371D02*
X136556265Y-75205752D01*
X136556265Y-75205752D02*
X136746741Y-75205752D01*
X136746741Y-75205752D02*
X136841979Y-75253371D01*
X137699122Y-75824800D02*
X137603884Y-75872419D01*
X137603884Y-75872419D02*
X137413408Y-75872419D01*
X137413408Y-75872419D02*
X137318170Y-75824800D01*
X137318170Y-75824800D02*
X137270551Y-75729561D01*
X137270551Y-75729561D02*
X137270551Y-75348609D01*
X137270551Y-75348609D02*
X137318170Y-75253371D01*
X137318170Y-75253371D02*
X137413408Y-75205752D01*
X137413408Y-75205752D02*
X137603884Y-75205752D01*
X137603884Y-75205752D02*
X137699122Y-75253371D01*
X137699122Y-75253371D02*
X137746741Y-75348609D01*
X137746741Y-75348609D02*
X137746741Y-75443847D01*
X137746741Y-75443847D02*
X137270551Y-75539085D01*
X139365789Y-75205752D02*
X139365789Y-75872419D01*
X138937218Y-75205752D02*
X138937218Y-75729561D01*
X138937218Y-75729561D02*
X138984837Y-75824800D01*
X138984837Y-75824800D02*
X139080075Y-75872419D01*
X139080075Y-75872419D02*
X139222932Y-75872419D01*
X139222932Y-75872419D02*
X139318170Y-75824800D01*
X139318170Y-75824800D02*
X139365789Y-75777180D01*
X139841980Y-75205752D02*
X139841980Y-76205752D01*
X139841980Y-75253371D02*
X139937218Y-75205752D01*
X139937218Y-75205752D02*
X140127694Y-75205752D01*
X140127694Y-75205752D02*
X140222932Y-75253371D01*
X140222932Y-75253371D02*
X140270551Y-75300990D01*
X140270551Y-75300990D02*
X140318170Y-75396228D01*
X140318170Y-75396228D02*
X140318170Y-75681942D01*
X140318170Y-75681942D02*
X140270551Y-75777180D01*
X140270551Y-75777180D02*
X140222932Y-75824800D01*
X140222932Y-75824800D02*
X140127694Y-75872419D01*
X140127694Y-75872419D02*
X139937218Y-75872419D01*
X139937218Y-75872419D02*
X139841980Y-75824800D01*
D11*
X132976816Y-128367219D02*
X133548244Y-128367219D01*
X133262530Y-129367219D02*
X133262530Y-128367219D01*
X134262530Y-129319600D02*
X134167292Y-129367219D01*
X134167292Y-129367219D02*
X133976816Y-129367219D01*
X133976816Y-129367219D02*
X133881578Y-129319600D01*
X133881578Y-129319600D02*
X133833959Y-129224361D01*
X133833959Y-129224361D02*
X133833959Y-128843409D01*
X133833959Y-128843409D02*
X133881578Y-128748171D01*
X133881578Y-128748171D02*
X133976816Y-128700552D01*
X133976816Y-128700552D02*
X134167292Y-128700552D01*
X134167292Y-128700552D02*
X134262530Y-128748171D01*
X134262530Y-128748171D02*
X134310149Y-128843409D01*
X134310149Y-128843409D02*
X134310149Y-128938647D01*
X134310149Y-128938647D02*
X133833959Y-129033885D01*
X134738721Y-129367219D02*
X134738721Y-128700552D01*
X134738721Y-128795790D02*
X134786340Y-128748171D01*
X134786340Y-128748171D02*
X134881578Y-128700552D01*
X134881578Y-128700552D02*
X135024435Y-128700552D01*
X135024435Y-128700552D02*
X135119673Y-128748171D01*
X135119673Y-128748171D02*
X135167292Y-128843409D01*
X135167292Y-128843409D02*
X135167292Y-129367219D01*
X135167292Y-128843409D02*
X135214911Y-128748171D01*
X135214911Y-128748171D02*
X135310149Y-128700552D01*
X135310149Y-128700552D02*
X135453006Y-128700552D01*
X135453006Y-128700552D02*
X135548245Y-128748171D01*
X135548245Y-128748171D02*
X135595864Y-128843409D01*
X135595864Y-128843409D02*
X135595864Y-129367219D01*
X136072054Y-128700552D02*
X136072054Y-129700552D01*
X136072054Y-128748171D02*
X136167292Y-128700552D01*
X136167292Y-128700552D02*
X136357768Y-128700552D01*
X136357768Y-128700552D02*
X136453006Y-128748171D01*
X136453006Y-128748171D02*
X136500625Y-128795790D01*
X136500625Y-128795790D02*
X136548244Y-128891028D01*
X136548244Y-128891028D02*
X136548244Y-129176742D01*
X136548244Y-129176742D02*
X136500625Y-129271980D01*
X136500625Y-129271980D02*
X136453006Y-129319600D01*
X136453006Y-129319600D02*
X136357768Y-129367219D01*
X136357768Y-129367219D02*
X136167292Y-129367219D01*
X136167292Y-129367219D02*
X136072054Y-129319600D01*
X138262530Y-129367219D02*
X137691102Y-129367219D01*
X137976816Y-129367219D02*
X137976816Y-128367219D01*
X137976816Y-128367219D02*
X137881578Y-128510076D01*
X137881578Y-128510076D02*
X137786340Y-128605314D01*
X137786340Y-128605314D02*
X137691102Y-128652933D01*
X138881578Y-128367219D02*
X138976816Y-128367219D01*
X138976816Y-128367219D02*
X139072054Y-128414838D01*
X139072054Y-128414838D02*
X139119673Y-128462457D01*
X139119673Y-128462457D02*
X139167292Y-128557695D01*
X139167292Y-128557695D02*
X139214911Y-128748171D01*
X139214911Y-128748171D02*
X139214911Y-128986266D01*
X139214911Y-128986266D02*
X139167292Y-129176742D01*
X139167292Y-129176742D02*
X139119673Y-129271980D01*
X139119673Y-129271980D02*
X139072054Y-129319600D01*
X139072054Y-129319600D02*
X138976816Y-129367219D01*
X138976816Y-129367219D02*
X138881578Y-129367219D01*
X138881578Y-129367219D02*
X138786340Y-129319600D01*
X138786340Y-129319600D02*
X138738721Y-129271980D01*
X138738721Y-129271980D02*
X138691102Y-129176742D01*
X138691102Y-129176742D02*
X138643483Y-128986266D01*
X138643483Y-128986266D02*
X138643483Y-128748171D01*
X138643483Y-128748171D02*
X138691102Y-128557695D01*
X138691102Y-128557695D02*
X138738721Y-128462457D01*
X138738721Y-128462457D02*
X138786340Y-128414838D01*
X138786340Y-128414838D02*
X138881578Y-128367219D01*
X133476816Y-186617219D02*
X134048244Y-186617219D01*
X133762530Y-187617219D02*
X133762530Y-186617219D01*
X134762530Y-187569600D02*
X134667292Y-187617219D01*
X134667292Y-187617219D02*
X134476816Y-187617219D01*
X134476816Y-187617219D02*
X134381578Y-187569600D01*
X134381578Y-187569600D02*
X134333959Y-187474361D01*
X134333959Y-187474361D02*
X134333959Y-187093409D01*
X134333959Y-187093409D02*
X134381578Y-186998171D01*
X134381578Y-186998171D02*
X134476816Y-186950552D01*
X134476816Y-186950552D02*
X134667292Y-186950552D01*
X134667292Y-186950552D02*
X134762530Y-186998171D01*
X134762530Y-186998171D02*
X134810149Y-187093409D01*
X134810149Y-187093409D02*
X134810149Y-187188647D01*
X134810149Y-187188647D02*
X134333959Y-187283885D01*
X135238721Y-187617219D02*
X135238721Y-186950552D01*
X135238721Y-187045790D02*
X135286340Y-186998171D01*
X135286340Y-186998171D02*
X135381578Y-186950552D01*
X135381578Y-186950552D02*
X135524435Y-186950552D01*
X135524435Y-186950552D02*
X135619673Y-186998171D01*
X135619673Y-186998171D02*
X135667292Y-187093409D01*
X135667292Y-187093409D02*
X135667292Y-187617219D01*
X135667292Y-187093409D02*
X135714911Y-186998171D01*
X135714911Y-186998171D02*
X135810149Y-186950552D01*
X135810149Y-186950552D02*
X135953006Y-186950552D01*
X135953006Y-186950552D02*
X136048245Y-186998171D01*
X136048245Y-186998171D02*
X136095864Y-187093409D01*
X136095864Y-187093409D02*
X136095864Y-187617219D01*
X136572054Y-186950552D02*
X136572054Y-187950552D01*
X136572054Y-186998171D02*
X136667292Y-186950552D01*
X136667292Y-186950552D02*
X136857768Y-186950552D01*
X136857768Y-186950552D02*
X136953006Y-186998171D01*
X136953006Y-186998171D02*
X137000625Y-187045790D01*
X137000625Y-187045790D02*
X137048244Y-187141028D01*
X137048244Y-187141028D02*
X137048244Y-187426742D01*
X137048244Y-187426742D02*
X137000625Y-187521980D01*
X137000625Y-187521980D02*
X136953006Y-187569600D01*
X136953006Y-187569600D02*
X136857768Y-187617219D01*
X136857768Y-187617219D02*
X136667292Y-187617219D01*
X136667292Y-187617219D02*
X136572054Y-187569600D01*
X138286340Y-187617219D02*
X138476816Y-187617219D01*
X138476816Y-187617219D02*
X138572054Y-187569600D01*
X138572054Y-187569600D02*
X138619673Y-187521980D01*
X138619673Y-187521980D02*
X138714911Y-187379123D01*
X138714911Y-187379123D02*
X138762530Y-187188647D01*
X138762530Y-187188647D02*
X138762530Y-186807695D01*
X138762530Y-186807695D02*
X138714911Y-186712457D01*
X138714911Y-186712457D02*
X138667292Y-186664838D01*
X138667292Y-186664838D02*
X138572054Y-186617219D01*
X138572054Y-186617219D02*
X138381578Y-186617219D01*
X138381578Y-186617219D02*
X138286340Y-186664838D01*
X138286340Y-186664838D02*
X138238721Y-186712457D01*
X138238721Y-186712457D02*
X138191102Y-186807695D01*
X138191102Y-186807695D02*
X138191102Y-187045790D01*
X138191102Y-187045790D02*
X138238721Y-187141028D01*
X138238721Y-187141028D02*
X138286340Y-187188647D01*
X138286340Y-187188647D02*
X138381578Y-187236266D01*
X138381578Y-187236266D02*
X138572054Y-187236266D01*
X138572054Y-187236266D02*
X138667292Y-187188647D01*
X138667292Y-187188647D02*
X138714911Y-187141028D01*
X138714911Y-187141028D02*
X138762530Y-187045790D01*
X133476816Y-244867219D02*
X134048244Y-244867219D01*
X133762530Y-245867219D02*
X133762530Y-244867219D01*
X134762530Y-245819600D02*
X134667292Y-245867219D01*
X134667292Y-245867219D02*
X134476816Y-245867219D01*
X134476816Y-245867219D02*
X134381578Y-245819600D01*
X134381578Y-245819600D02*
X134333959Y-245724361D01*
X134333959Y-245724361D02*
X134333959Y-245343409D01*
X134333959Y-245343409D02*
X134381578Y-245248171D01*
X134381578Y-245248171D02*
X134476816Y-245200552D01*
X134476816Y-245200552D02*
X134667292Y-245200552D01*
X134667292Y-245200552D02*
X134762530Y-245248171D01*
X134762530Y-245248171D02*
X134810149Y-245343409D01*
X134810149Y-245343409D02*
X134810149Y-245438647D01*
X134810149Y-245438647D02*
X134333959Y-245533885D01*
X135238721Y-245867219D02*
X135238721Y-245200552D01*
X135238721Y-245295790D02*
X135286340Y-245248171D01*
X135286340Y-245248171D02*
X135381578Y-245200552D01*
X135381578Y-245200552D02*
X135524435Y-245200552D01*
X135524435Y-245200552D02*
X135619673Y-245248171D01*
X135619673Y-245248171D02*
X135667292Y-245343409D01*
X135667292Y-245343409D02*
X135667292Y-245867219D01*
X135667292Y-245343409D02*
X135714911Y-245248171D01*
X135714911Y-245248171D02*
X135810149Y-245200552D01*
X135810149Y-245200552D02*
X135953006Y-245200552D01*
X135953006Y-245200552D02*
X136048245Y-245248171D01*
X136048245Y-245248171D02*
X136095864Y-245343409D01*
X136095864Y-245343409D02*
X136095864Y-245867219D01*
X136572054Y-245200552D02*
X136572054Y-246200552D01*
X136572054Y-245248171D02*
X136667292Y-245200552D01*
X136667292Y-245200552D02*
X136857768Y-245200552D01*
X136857768Y-245200552D02*
X136953006Y-245248171D01*
X136953006Y-245248171D02*
X137000625Y-245295790D01*
X137000625Y-245295790D02*
X137048244Y-245391028D01*
X137048244Y-245391028D02*
X137048244Y-245676742D01*
X137048244Y-245676742D02*
X137000625Y-245771980D01*
X137000625Y-245771980D02*
X136953006Y-245819600D01*
X136953006Y-245819600D02*
X136857768Y-245867219D01*
X136857768Y-245867219D02*
X136667292Y-245867219D01*
X136667292Y-245867219D02*
X136572054Y-245819600D01*
X138381578Y-245295790D02*
X138286340Y-245248171D01*
X138286340Y-245248171D02*
X138238721Y-245200552D01*
X138238721Y-245200552D02*
X138191102Y-245105314D01*
X138191102Y-245105314D02*
X138191102Y-245057695D01*
X138191102Y-245057695D02*
X138238721Y-244962457D01*
X138238721Y-244962457D02*
X138286340Y-244914838D01*
X138286340Y-244914838D02*
X138381578Y-244867219D01*
X138381578Y-244867219D02*
X138572054Y-244867219D01*
X138572054Y-244867219D02*
X138667292Y-244914838D01*
X138667292Y-244914838D02*
X138714911Y-244962457D01*
X138714911Y-244962457D02*
X138762530Y-245057695D01*
X138762530Y-245057695D02*
X138762530Y-245105314D01*
X138762530Y-245105314D02*
X138714911Y-245200552D01*
X138714911Y-245200552D02*
X138667292Y-245248171D01*
X138667292Y-245248171D02*
X138572054Y-245295790D01*
X138572054Y-245295790D02*
X138381578Y-245295790D01*
X138381578Y-245295790D02*
X138286340Y-245343409D01*
X138286340Y-245343409D02*
X138238721Y-245391028D01*
X138238721Y-245391028D02*
X138191102Y-245486266D01*
X138191102Y-245486266D02*
X138191102Y-245676742D01*
X138191102Y-245676742D02*
X138238721Y-245771980D01*
X138238721Y-245771980D02*
X138286340Y-245819600D01*
X138286340Y-245819600D02*
X138381578Y-245867219D01*
X138381578Y-245867219D02*
X138572054Y-245867219D01*
X138572054Y-245867219D02*
X138667292Y-245819600D01*
X138667292Y-245819600D02*
X138714911Y-245771980D01*
X138714911Y-245771980D02*
X138762530Y-245676742D01*
X138762530Y-245676742D02*
X138762530Y-245486266D01*
X138762530Y-245486266D02*
X138714911Y-245391028D01*
X138714911Y-245391028D02*
X138667292Y-245343409D01*
X138667292Y-245343409D02*
X138572054Y-245295790D01*
X133476816Y-303117219D02*
X134048244Y-303117219D01*
X133762530Y-304117219D02*
X133762530Y-303117219D01*
X134762530Y-304069600D02*
X134667292Y-304117219D01*
X134667292Y-304117219D02*
X134476816Y-304117219D01*
X134476816Y-304117219D02*
X134381578Y-304069600D01*
X134381578Y-304069600D02*
X134333959Y-303974361D01*
X134333959Y-303974361D02*
X134333959Y-303593409D01*
X134333959Y-303593409D02*
X134381578Y-303498171D01*
X134381578Y-303498171D02*
X134476816Y-303450552D01*
X134476816Y-303450552D02*
X134667292Y-303450552D01*
X134667292Y-303450552D02*
X134762530Y-303498171D01*
X134762530Y-303498171D02*
X134810149Y-303593409D01*
X134810149Y-303593409D02*
X134810149Y-303688647D01*
X134810149Y-303688647D02*
X134333959Y-303783885D01*
X135238721Y-304117219D02*
X135238721Y-303450552D01*
X135238721Y-303545790D02*
X135286340Y-303498171D01*
X135286340Y-303498171D02*
X135381578Y-303450552D01*
X135381578Y-303450552D02*
X135524435Y-303450552D01*
X135524435Y-303450552D02*
X135619673Y-303498171D01*
X135619673Y-303498171D02*
X135667292Y-303593409D01*
X135667292Y-303593409D02*
X135667292Y-304117219D01*
X135667292Y-303593409D02*
X135714911Y-303498171D01*
X135714911Y-303498171D02*
X135810149Y-303450552D01*
X135810149Y-303450552D02*
X135953006Y-303450552D01*
X135953006Y-303450552D02*
X136048245Y-303498171D01*
X136048245Y-303498171D02*
X136095864Y-303593409D01*
X136095864Y-303593409D02*
X136095864Y-304117219D01*
X136572054Y-303450552D02*
X136572054Y-304450552D01*
X136572054Y-303498171D02*
X136667292Y-303450552D01*
X136667292Y-303450552D02*
X136857768Y-303450552D01*
X136857768Y-303450552D02*
X136953006Y-303498171D01*
X136953006Y-303498171D02*
X137000625Y-303545790D01*
X137000625Y-303545790D02*
X137048244Y-303641028D01*
X137048244Y-303641028D02*
X137048244Y-303926742D01*
X137048244Y-303926742D02*
X137000625Y-304021980D01*
X137000625Y-304021980D02*
X136953006Y-304069600D01*
X136953006Y-304069600D02*
X136857768Y-304117219D01*
X136857768Y-304117219D02*
X136667292Y-304117219D01*
X136667292Y-304117219D02*
X136572054Y-304069600D01*
X138143483Y-303117219D02*
X138810149Y-303117219D01*
X138810149Y-303117219D02*
X138381578Y-304117219D01*
X133476816Y-361617219D02*
X134048244Y-361617219D01*
X133762530Y-362617219D02*
X133762530Y-361617219D01*
X134762530Y-362569600D02*
X134667292Y-362617219D01*
X134667292Y-362617219D02*
X134476816Y-362617219D01*
X134476816Y-362617219D02*
X134381578Y-362569600D01*
X134381578Y-362569600D02*
X134333959Y-362474361D01*
X134333959Y-362474361D02*
X134333959Y-362093409D01*
X134333959Y-362093409D02*
X134381578Y-361998171D01*
X134381578Y-361998171D02*
X134476816Y-361950552D01*
X134476816Y-361950552D02*
X134667292Y-361950552D01*
X134667292Y-361950552D02*
X134762530Y-361998171D01*
X134762530Y-361998171D02*
X134810149Y-362093409D01*
X134810149Y-362093409D02*
X134810149Y-362188647D01*
X134810149Y-362188647D02*
X134333959Y-362283885D01*
X135238721Y-362617219D02*
X135238721Y-361950552D01*
X135238721Y-362045790D02*
X135286340Y-361998171D01*
X135286340Y-361998171D02*
X135381578Y-361950552D01*
X135381578Y-361950552D02*
X135524435Y-361950552D01*
X135524435Y-361950552D02*
X135619673Y-361998171D01*
X135619673Y-361998171D02*
X135667292Y-362093409D01*
X135667292Y-362093409D02*
X135667292Y-362617219D01*
X135667292Y-362093409D02*
X135714911Y-361998171D01*
X135714911Y-361998171D02*
X135810149Y-361950552D01*
X135810149Y-361950552D02*
X135953006Y-361950552D01*
X135953006Y-361950552D02*
X136048245Y-361998171D01*
X136048245Y-361998171D02*
X136095864Y-362093409D01*
X136095864Y-362093409D02*
X136095864Y-362617219D01*
X136572054Y-361950552D02*
X136572054Y-362950552D01*
X136572054Y-361998171D02*
X136667292Y-361950552D01*
X136667292Y-361950552D02*
X136857768Y-361950552D01*
X136857768Y-361950552D02*
X136953006Y-361998171D01*
X136953006Y-361998171D02*
X137000625Y-362045790D01*
X137000625Y-362045790D02*
X137048244Y-362141028D01*
X137048244Y-362141028D02*
X137048244Y-362426742D01*
X137048244Y-362426742D02*
X137000625Y-362521980D01*
X137000625Y-362521980D02*
X136953006Y-362569600D01*
X136953006Y-362569600D02*
X136857768Y-362617219D01*
X136857768Y-362617219D02*
X136667292Y-362617219D01*
X136667292Y-362617219D02*
X136572054Y-362569600D01*
X138667292Y-361617219D02*
X138476816Y-361617219D01*
X138476816Y-361617219D02*
X138381578Y-361664838D01*
X138381578Y-361664838D02*
X138333959Y-361712457D01*
X138333959Y-361712457D02*
X138238721Y-361855314D01*
X138238721Y-361855314D02*
X138191102Y-362045790D01*
X138191102Y-362045790D02*
X138191102Y-362426742D01*
X138191102Y-362426742D02*
X138238721Y-362521980D01*
X138238721Y-362521980D02*
X138286340Y-362569600D01*
X138286340Y-362569600D02*
X138381578Y-362617219D01*
X138381578Y-362617219D02*
X138572054Y-362617219D01*
X138572054Y-362617219D02*
X138667292Y-362569600D01*
X138667292Y-362569600D02*
X138714911Y-362521980D01*
X138714911Y-362521980D02*
X138762530Y-362426742D01*
X138762530Y-362426742D02*
X138762530Y-362188647D01*
X138762530Y-362188647D02*
X138714911Y-362093409D01*
X138714911Y-362093409D02*
X138667292Y-362045790D01*
X138667292Y-362045790D02*
X138572054Y-361998171D01*
X138572054Y-361998171D02*
X138381578Y-361998171D01*
X138381578Y-361998171D02*
X138286340Y-362045790D01*
X138286340Y-362045790D02*
X138238721Y-362093409D01*
X138238721Y-362093409D02*
X138191102Y-362188647D01*
X133476816Y-419867219D02*
X134048244Y-419867219D01*
X133762530Y-420867219D02*
X133762530Y-419867219D01*
X134762530Y-420819600D02*
X134667292Y-420867219D01*
X134667292Y-420867219D02*
X134476816Y-420867219D01*
X134476816Y-420867219D02*
X134381578Y-420819600D01*
X134381578Y-420819600D02*
X134333959Y-420724361D01*
X134333959Y-420724361D02*
X134333959Y-420343409D01*
X134333959Y-420343409D02*
X134381578Y-420248171D01*
X134381578Y-420248171D02*
X134476816Y-420200552D01*
X134476816Y-420200552D02*
X134667292Y-420200552D01*
X134667292Y-420200552D02*
X134762530Y-420248171D01*
X134762530Y-420248171D02*
X134810149Y-420343409D01*
X134810149Y-420343409D02*
X134810149Y-420438647D01*
X134810149Y-420438647D02*
X134333959Y-420533885D01*
X135238721Y-420867219D02*
X135238721Y-420200552D01*
X135238721Y-420295790D02*
X135286340Y-420248171D01*
X135286340Y-420248171D02*
X135381578Y-420200552D01*
X135381578Y-420200552D02*
X135524435Y-420200552D01*
X135524435Y-420200552D02*
X135619673Y-420248171D01*
X135619673Y-420248171D02*
X135667292Y-420343409D01*
X135667292Y-420343409D02*
X135667292Y-420867219D01*
X135667292Y-420343409D02*
X135714911Y-420248171D01*
X135714911Y-420248171D02*
X135810149Y-420200552D01*
X135810149Y-420200552D02*
X135953006Y-420200552D01*
X135953006Y-420200552D02*
X136048245Y-420248171D01*
X136048245Y-420248171D02*
X136095864Y-420343409D01*
X136095864Y-420343409D02*
X136095864Y-420867219D01*
X136572054Y-420200552D02*
X136572054Y-421200552D01*
X136572054Y-420248171D02*
X136667292Y-420200552D01*
X136667292Y-420200552D02*
X136857768Y-420200552D01*
X136857768Y-420200552D02*
X136953006Y-420248171D01*
X136953006Y-420248171D02*
X137000625Y-420295790D01*
X137000625Y-420295790D02*
X137048244Y-420391028D01*
X137048244Y-420391028D02*
X137048244Y-420676742D01*
X137048244Y-420676742D02*
X137000625Y-420771980D01*
X137000625Y-420771980D02*
X136953006Y-420819600D01*
X136953006Y-420819600D02*
X136857768Y-420867219D01*
X136857768Y-420867219D02*
X136667292Y-420867219D01*
X136667292Y-420867219D02*
X136572054Y-420819600D01*
X138714911Y-419867219D02*
X138238721Y-419867219D01*
X138238721Y-419867219D02*
X138191102Y-420343409D01*
X138191102Y-420343409D02*
X138238721Y-420295790D01*
X138238721Y-420295790D02*
X138333959Y-420248171D01*
X138333959Y-420248171D02*
X138572054Y-420248171D01*
X138572054Y-420248171D02*
X138667292Y-420295790D01*
X138667292Y-420295790D02*
X138714911Y-420343409D01*
X138714911Y-420343409D02*
X138762530Y-420438647D01*
X138762530Y-420438647D02*
X138762530Y-420676742D01*
X138762530Y-420676742D02*
X138714911Y-420771980D01*
X138714911Y-420771980D02*
X138667292Y-420819600D01*
X138667292Y-420819600D02*
X138572054Y-420867219D01*
X138572054Y-420867219D02*
X138333959Y-420867219D01*
X138333959Y-420867219D02*
X138238721Y-420819600D01*
X138238721Y-420819600D02*
X138191102Y-420771980D01*
X133476816Y-478367219D02*
X134048244Y-478367219D01*
X133762530Y-479367219D02*
X133762530Y-478367219D01*
X134762530Y-479319600D02*
X134667292Y-479367219D01*
X134667292Y-479367219D02*
X134476816Y-479367219D01*
X134476816Y-479367219D02*
X134381578Y-479319600D01*
X134381578Y-479319600D02*
X134333959Y-479224361D01*
X134333959Y-479224361D02*
X134333959Y-478843409D01*
X134333959Y-478843409D02*
X134381578Y-478748171D01*
X134381578Y-478748171D02*
X134476816Y-478700552D01*
X134476816Y-478700552D02*
X134667292Y-478700552D01*
X134667292Y-478700552D02*
X134762530Y-478748171D01*
X134762530Y-478748171D02*
X134810149Y-478843409D01*
X134810149Y-478843409D02*
X134810149Y-478938647D01*
X134810149Y-478938647D02*
X134333959Y-479033885D01*
X135238721Y-479367219D02*
X135238721Y-478700552D01*
X135238721Y-478795790D02*
X135286340Y-478748171D01*
X135286340Y-478748171D02*
X135381578Y-478700552D01*
X135381578Y-478700552D02*
X135524435Y-478700552D01*
X135524435Y-478700552D02*
X135619673Y-478748171D01*
X135619673Y-478748171D02*
X135667292Y-478843409D01*
X135667292Y-478843409D02*
X135667292Y-479367219D01*
X135667292Y-478843409D02*
X135714911Y-478748171D01*
X135714911Y-478748171D02*
X135810149Y-478700552D01*
X135810149Y-478700552D02*
X135953006Y-478700552D01*
X135953006Y-478700552D02*
X136048245Y-478748171D01*
X136048245Y-478748171D02*
X136095864Y-478843409D01*
X136095864Y-478843409D02*
X136095864Y-479367219D01*
X136572054Y-478700552D02*
X136572054Y-479700552D01*
X136572054Y-478748171D02*
X136667292Y-478700552D01*
X136667292Y-478700552D02*
X136857768Y-478700552D01*
X136857768Y-478700552D02*
X136953006Y-478748171D01*
X136953006Y-478748171D02*
X137000625Y-478795790D01*
X137000625Y-478795790D02*
X137048244Y-478891028D01*
X137048244Y-478891028D02*
X137048244Y-479176742D01*
X137048244Y-479176742D02*
X137000625Y-479271980D01*
X137000625Y-479271980D02*
X136953006Y-479319600D01*
X136953006Y-479319600D02*
X136857768Y-479367219D01*
X136857768Y-479367219D02*
X136667292Y-479367219D01*
X136667292Y-479367219D02*
X136572054Y-479319600D01*
X138667292Y-478700552D02*
X138667292Y-479367219D01*
X138429197Y-478319600D02*
X138191102Y-479033885D01*
X138191102Y-479033885D02*
X138810149Y-479033885D01*
X133476816Y-536367219D02*
X134048244Y-536367219D01*
X133762530Y-537367219D02*
X133762530Y-536367219D01*
X134762530Y-537319600D02*
X134667292Y-537367219D01*
X134667292Y-537367219D02*
X134476816Y-537367219D01*
X134476816Y-537367219D02*
X134381578Y-537319600D01*
X134381578Y-537319600D02*
X134333959Y-537224361D01*
X134333959Y-537224361D02*
X134333959Y-536843409D01*
X134333959Y-536843409D02*
X134381578Y-536748171D01*
X134381578Y-536748171D02*
X134476816Y-536700552D01*
X134476816Y-536700552D02*
X134667292Y-536700552D01*
X134667292Y-536700552D02*
X134762530Y-536748171D01*
X134762530Y-536748171D02*
X134810149Y-536843409D01*
X134810149Y-536843409D02*
X134810149Y-536938647D01*
X134810149Y-536938647D02*
X134333959Y-537033885D01*
X135238721Y-537367219D02*
X135238721Y-536700552D01*
X135238721Y-536795790D02*
X135286340Y-536748171D01*
X135286340Y-536748171D02*
X135381578Y-536700552D01*
X135381578Y-536700552D02*
X135524435Y-536700552D01*
X135524435Y-536700552D02*
X135619673Y-536748171D01*
X135619673Y-536748171D02*
X135667292Y-536843409D01*
X135667292Y-536843409D02*
X135667292Y-537367219D01*
X135667292Y-536843409D02*
X135714911Y-536748171D01*
X135714911Y-536748171D02*
X135810149Y-536700552D01*
X135810149Y-536700552D02*
X135953006Y-536700552D01*
X135953006Y-536700552D02*
X136048245Y-536748171D01*
X136048245Y-536748171D02*
X136095864Y-536843409D01*
X136095864Y-536843409D02*
X136095864Y-537367219D01*
X136572054Y-536700552D02*
X136572054Y-537700552D01*
X136572054Y-536748171D02*
X136667292Y-536700552D01*
X136667292Y-536700552D02*
X136857768Y-536700552D01*
X136857768Y-536700552D02*
X136953006Y-536748171D01*
X136953006Y-536748171D02*
X137000625Y-536795790D01*
X137000625Y-536795790D02*
X137048244Y-536891028D01*
X137048244Y-536891028D02*
X137048244Y-537176742D01*
X137048244Y-537176742D02*
X137000625Y-537271980D01*
X137000625Y-537271980D02*
X136953006Y-537319600D01*
X136953006Y-537319600D02*
X136857768Y-537367219D01*
X136857768Y-537367219D02*
X136667292Y-537367219D01*
X136667292Y-537367219D02*
X136572054Y-537319600D01*
X138143483Y-536367219D02*
X138762530Y-536367219D01*
X138762530Y-536367219D02*
X138429197Y-536748171D01*
X138429197Y-536748171D02*
X138572054Y-536748171D01*
X138572054Y-536748171D02*
X138667292Y-536795790D01*
X138667292Y-536795790D02*
X138714911Y-536843409D01*
X138714911Y-536843409D02*
X138762530Y-536938647D01*
X138762530Y-536938647D02*
X138762530Y-537176742D01*
X138762530Y-537176742D02*
X138714911Y-537271980D01*
X138714911Y-537271980D02*
X138667292Y-537319600D01*
X138667292Y-537319600D02*
X138572054Y-537367219D01*
X138572054Y-537367219D02*
X138286340Y-537367219D01*
X138286340Y-537367219D02*
X138191102Y-537319600D01*
X138191102Y-537319600D02*
X138143483Y-537271980D01*
X133476816Y-595367219D02*
X134048244Y-595367219D01*
X133762530Y-596367219D02*
X133762530Y-595367219D01*
X134762530Y-596319600D02*
X134667292Y-596367219D01*
X134667292Y-596367219D02*
X134476816Y-596367219D01*
X134476816Y-596367219D02*
X134381578Y-596319600D01*
X134381578Y-596319600D02*
X134333959Y-596224361D01*
X134333959Y-596224361D02*
X134333959Y-595843409D01*
X134333959Y-595843409D02*
X134381578Y-595748171D01*
X134381578Y-595748171D02*
X134476816Y-595700552D01*
X134476816Y-595700552D02*
X134667292Y-595700552D01*
X134667292Y-595700552D02*
X134762530Y-595748171D01*
X134762530Y-595748171D02*
X134810149Y-595843409D01*
X134810149Y-595843409D02*
X134810149Y-595938647D01*
X134810149Y-595938647D02*
X134333959Y-596033885D01*
X135238721Y-596367219D02*
X135238721Y-595700552D01*
X135238721Y-595795790D02*
X135286340Y-595748171D01*
X135286340Y-595748171D02*
X135381578Y-595700552D01*
X135381578Y-595700552D02*
X135524435Y-595700552D01*
X135524435Y-595700552D02*
X135619673Y-595748171D01*
X135619673Y-595748171D02*
X135667292Y-595843409D01*
X135667292Y-595843409D02*
X135667292Y-596367219D01*
X135667292Y-595843409D02*
X135714911Y-595748171D01*
X135714911Y-595748171D02*
X135810149Y-595700552D01*
X135810149Y-595700552D02*
X135953006Y-595700552D01*
X135953006Y-595700552D02*
X136048245Y-595748171D01*
X136048245Y-595748171D02*
X136095864Y-595843409D01*
X136095864Y-595843409D02*
X136095864Y-596367219D01*
X136572054Y-595700552D02*
X136572054Y-596700552D01*
X136572054Y-595748171D02*
X136667292Y-595700552D01*
X136667292Y-595700552D02*
X136857768Y-595700552D01*
X136857768Y-595700552D02*
X136953006Y-595748171D01*
X136953006Y-595748171D02*
X137000625Y-595795790D01*
X137000625Y-595795790D02*
X137048244Y-595891028D01*
X137048244Y-595891028D02*
X137048244Y-596176742D01*
X137048244Y-596176742D02*
X137000625Y-596271980D01*
X137000625Y-596271980D02*
X136953006Y-596319600D01*
X136953006Y-596319600D02*
X136857768Y-596367219D01*
X136857768Y-596367219D02*
X136667292Y-596367219D01*
X136667292Y-596367219D02*
X136572054Y-596319600D01*
X138191102Y-595462457D02*
X138238721Y-595414838D01*
X138238721Y-595414838D02*
X138333959Y-595367219D01*
X138333959Y-595367219D02*
X138572054Y-595367219D01*
X138572054Y-595367219D02*
X138667292Y-595414838D01*
X138667292Y-595414838D02*
X138714911Y-595462457D01*
X138714911Y-595462457D02*
X138762530Y-595557695D01*
X138762530Y-595557695D02*
X138762530Y-595652933D01*
X138762530Y-595652933D02*
X138714911Y-595795790D01*
X138714911Y-595795790D02*
X138143483Y-596367219D01*
X138143483Y-596367219D02*
X138762530Y-596367219D01*
X133476816Y-643617219D02*
X134048244Y-643617219D01*
X133762530Y-644617219D02*
X133762530Y-643617219D01*
X134762530Y-644569600D02*
X134667292Y-644617219D01*
X134667292Y-644617219D02*
X134476816Y-644617219D01*
X134476816Y-644617219D02*
X134381578Y-644569600D01*
X134381578Y-644569600D02*
X134333959Y-644474361D01*
X134333959Y-644474361D02*
X134333959Y-644093409D01*
X134333959Y-644093409D02*
X134381578Y-643998171D01*
X134381578Y-643998171D02*
X134476816Y-643950552D01*
X134476816Y-643950552D02*
X134667292Y-643950552D01*
X134667292Y-643950552D02*
X134762530Y-643998171D01*
X134762530Y-643998171D02*
X134810149Y-644093409D01*
X134810149Y-644093409D02*
X134810149Y-644188647D01*
X134810149Y-644188647D02*
X134333959Y-644283885D01*
X135238721Y-644617219D02*
X135238721Y-643950552D01*
X135238721Y-644045790D02*
X135286340Y-643998171D01*
X135286340Y-643998171D02*
X135381578Y-643950552D01*
X135381578Y-643950552D02*
X135524435Y-643950552D01*
X135524435Y-643950552D02*
X135619673Y-643998171D01*
X135619673Y-643998171D02*
X135667292Y-644093409D01*
X135667292Y-644093409D02*
X135667292Y-644617219D01*
X135667292Y-644093409D02*
X135714911Y-643998171D01*
X135714911Y-643998171D02*
X135810149Y-643950552D01*
X135810149Y-643950552D02*
X135953006Y-643950552D01*
X135953006Y-643950552D02*
X136048245Y-643998171D01*
X136048245Y-643998171D02*
X136095864Y-644093409D01*
X136095864Y-644093409D02*
X136095864Y-644617219D01*
X136572054Y-643950552D02*
X136572054Y-644950552D01*
X136572054Y-643998171D02*
X136667292Y-643950552D01*
X136667292Y-643950552D02*
X136857768Y-643950552D01*
X136857768Y-643950552D02*
X136953006Y-643998171D01*
X136953006Y-643998171D02*
X137000625Y-644045790D01*
X137000625Y-644045790D02*
X137048244Y-644141028D01*
X137048244Y-644141028D02*
X137048244Y-644426742D01*
X137048244Y-644426742D02*
X137000625Y-644521980D01*
X137000625Y-644521980D02*
X136953006Y-644569600D01*
X136953006Y-644569600D02*
X136857768Y-644617219D01*
X136857768Y-644617219D02*
X136667292Y-644617219D01*
X136667292Y-644617219D02*
X136572054Y-644569600D01*
X138762530Y-644617219D02*
X138191102Y-644617219D01*
X138476816Y-644617219D02*
X138476816Y-643617219D01*
X138476816Y-643617219D02*
X138381578Y-643760076D01*
X138381578Y-643760076D02*
X138286340Y-643855314D01*
X138286340Y-643855314D02*
X138191102Y-643902933D01*
G04 #@! TO.C,TP4*
D12*
X135700000Y-301800000D02*
G75*
G02*
X134300000Y-301800000I-700000J0D01*
G01*
X134300000Y-301800000D02*
G75*
G02*
X135700000Y-301800000I700000J0D01*
G01*
G04 #@! TO.C,TP6*
X135700000Y-243400000D02*
G75*
G02*
X134300000Y-243400000I-700000J0D01*
G01*
X134300000Y-243400000D02*
G75*
G02*
X135700000Y-243400000I700000J0D01*
G01*
G04 #@! TO.C,TP5*
X135700000Y-535100000D02*
G75*
G02*
X134300000Y-535100000I-700000J0D01*
G01*
X134300000Y-535100000D02*
G75*
G02*
X135700000Y-535100000I700000J0D01*
G01*
G04 #@! TO.C,TP7*
X135700000Y-476900000D02*
G75*
G02*
X134300000Y-476900000I-700000J0D01*
G01*
X134300000Y-476900000D02*
G75*
G02*
X135700000Y-476900000I700000J0D01*
G01*
G04 #@! TO.C,TP3*
X135700000Y-593900000D02*
G75*
G02*
X134300000Y-593900000I-700000J0D01*
G01*
X134300000Y-593900000D02*
G75*
G02*
X135700000Y-593900000I700000J0D01*
G01*
G04 #@! TO.C,TP8*
X135600000Y-185300000D02*
G75*
G02*
X134200000Y-185300000I-700000J0D01*
G01*
X134200000Y-185300000D02*
G75*
G02*
X135600000Y-185300000I700000J0D01*
G01*
G04 #@! TO.C,TP10*
X135700000Y-126800000D02*
G75*
G02*
X134300000Y-126800000I-700000J0D01*
G01*
X134300000Y-126800000D02*
G75*
G02*
X135700000Y-126800000I700000J0D01*
G01*
G04 #@! TO.C,TP2*
X135700000Y-360200000D02*
G75*
G02*
X134300000Y-360200000I-700000J0D01*
G01*
X134300000Y-360200000D02*
G75*
G02*
X135700000Y-360200000I700000J0D01*
G01*
G04 #@! TO.C,TP1*
X138900000Y-649300000D02*
G75*
G02*
X137500000Y-649300000I-700000J0D01*
G01*
X137500000Y-649300000D02*
G75*
G02*
X138900000Y-649300000I700000J0D01*
G01*
G04 #@! TO.C,TP9*
X135700000Y-418500000D02*
G75*
G02*
X134300000Y-418500000I-700000J0D01*
G01*
X134300000Y-418500000D02*
G75*
G02*
X135700000Y-418500000I700000J0D01*
G01*
G04 #@! TD*
%LPC*%
D13*
G04 #@! TO.C,TP4*
X135000000Y-301800000D03*
G04 #@! TD*
G04 #@! TO.C,TP6*
X135000000Y-243400000D03*
G04 #@! TD*
G04 #@! TO.C,TP5*
X135000000Y-535100000D03*
G04 #@! TD*
G04 #@! TO.C,TP7*
X135000000Y-476900000D03*
G04 #@! TD*
G04 #@! TO.C,TP3*
X135000000Y-593900000D03*
G04 #@! TD*
G04 #@! TO.C,TP8*
X134900000Y-185300000D03*
G04 #@! TD*
G04 #@! TO.C,TP10*
X135000000Y-126800000D03*
G04 #@! TD*
G04 #@! TO.C,TP2*
X135000000Y-360200000D03*
G04 #@! TD*
G04 #@! TO.C,TP1*
X138200000Y-649300000D03*
G04 #@! TD*
G04 #@! TO.C,TP9*
X135000000Y-418500000D03*
G04 #@! TD*
%LPD*%
M02*
