M48
; DRILL file KiCad 10.0.3 date 2026-06-03T15:58:30
; FORMAT={-:-/ absolute / metric / decimal}
; #@! TF.CreationDate,2026-06-03T15:58:30+02:00
; #@! TF.GenerationSoftware,Kicad,Pcbnew,10.0.3
; #@! TF.FileFunction,Plated,1,2,PTH
FMAT,2
METRIC
; #@! TA.AperFunction,Plated,PTH,ViaDrill
T1C0.300
%
G90
G05
T1
X130.4Y-243.4
X130.5Y-126.9
X130.5Y-177.7
X130.5Y-185.3
X130.5Y-293.9
X130.5Y-351.7
X130.5Y-410.6
X130.6Y-236.2
X130.7Y-301.8
X130.7Y-647.0
X130.7Y-648.0
X130.8Y-649.2
X131.3Y-650.3
X131.7Y-87.4
X131.7Y-95.4
X131.9Y-82.2
X132.0Y-116.4
X132.1Y-107.1
X132.1Y-651.0
X132.8Y-180.5
X132.8Y-238.8
X132.8Y-355.5
X132.9Y-126.8
X132.9Y-297.1
X132.9Y-413.9
X132.9Y-472.1
X132.9Y-530.5
X132.9Y-588.8
X133.0Y-121.7
X133.2Y-301.8
X133.3Y-185.3
X133.3Y-294.1
X133.4Y-177.5
X133.4Y-360.1
X133.4Y-410.4
X133.4Y-418.5
X133.4Y-535.1
X133.4Y-593.8
X133.4Y-642.9
X133.5Y-243.3
X133.5Y-352.0
X133.5Y-468.7
X133.5Y-476.9
X133.6Y-236.2
X133.6Y-526.9
X133.6Y-585.2
X133.6Y-651.6
X135.0Y-107.2
X135.0Y-116.4
X135.0Y-651.6
X135.1Y-87.5
X135.1Y-120.1
X135.2Y-123.4
X135.2Y-181.8
X135.2Y-240.1
X135.2Y-242.0
X135.2Y-298.4
X135.2Y-356.8
X135.2Y-415.1
X135.2Y-473.4
X135.2Y-648.4
X135.3Y-95.5
X135.3Y-358.8
X135.3Y-531.7
X135.3Y-590.1
X135.4Y-82.3
X135.4Y-125.4
X135.4Y-184.0
X135.4Y-300.4
X135.4Y-417.3
X135.4Y-475.5
X135.4Y-533.9
X135.4Y-592.4
X135.5Y-177.5
X135.7Y-236.2
X136.0Y-294.1
X136.1Y-651.6
X136.2Y-352.0
X136.4Y-126.8
X136.5Y-410.4
X136.6Y-243.3
X136.7Y-418.6
X136.7Y-468.7
X136.8Y-185.3
X136.8Y-360.2
X136.8Y-649.3
X136.9Y-301.8
X136.9Y-476.9
X136.9Y-535.0
X137.1Y-593.8
X137.1Y-651.5
X137.3Y-526.9
X137.3Y-585.1
X137.3Y-642.8
X138.1Y-651.4
X139.2Y-651.3
X140.0Y-650.8
X140.4Y-177.6
X140.5Y-126.7
X140.8Y-650.0
X140.9Y-642.8
X141.0Y-185.3
X141.0Y-301.8
X141.0Y-418.7
X141.0Y-468.7
X141.0Y-476.7
X141.0Y-593.7
X141.1Y-87.3
X141.1Y-95.5
X141.1Y-410.4
X141.1Y-526.8
X141.1Y-535.0
X141.1Y-585.1
X141.2Y-82.2
X141.2Y-116.4
X141.2Y-236.4
X141.2Y-243.3
X141.2Y-294.1
X141.2Y-360.2
X141.2Y-647.0
X141.3Y-107.1
X141.3Y-352.0
X141.3Y-648.0
X141.3Y-649.1
X141.6Y-177.6
M30
