G04 #@! TF.GenerationSoftware,KiCad,Pcbnew,10.0.3*
G04 #@! TF.CreationDate,2026-06-03T15:58:30+02:00*
G04 #@! TF.ProjectId,rapid_tank_level_indicator_sensor,72617069-645f-4746-916e-6b5f6c657665,rev?*
G04 #@! TF.SameCoordinates,Original*
G04 #@! TF.FileFunction,Copper,L1,Top*
G04 #@! TF.FilePolarity,Positive*
%FSLAX46Y46*%
G04 Gerber Fmt 4.6, Leading zero omitted, Abs format (unit mm)*
G04 Created by KiCad (PCBNEW 10.0.3) date 2026-06-03 15:58:30*
%MOMM*%
%LPD*%
G01*
G04 APERTURE LIST*
G04 #@! TA.AperFunction,SMDPad,CuDef*
%ADD10C,1.000000*%
G04 #@! TD*
G04 #@! TA.AperFunction,ViaPad*
%ADD11C,0.600000*%
G04 #@! TD*
G04 #@! TA.AperFunction,Conductor*
%ADD12C,0.200000*%
G04 #@! TD*
G04 APERTURE END LIST*
D10*
G04 #@! TO.P,TP4,1,1_1*
G04 #@! TO.N,TEMP_7*
X135000000Y-301800000D03*
G04 #@! TD*
G04 #@! TO.P,TP6,1,1_1*
G04 #@! TO.N,TEMP_8*
X135000000Y-243400000D03*
G04 #@! TD*
G04 #@! TO.P,TP5,1,1_1*
G04 #@! TO.N,TEMP_3*
X135000000Y-535100000D03*
G04 #@! TD*
G04 #@! TO.P,TP7,1,1_1*
G04 #@! TO.N,TEMP_4*
X135000000Y-476900000D03*
G04 #@! TD*
G04 #@! TO.P,TP3,1,1_1*
G04 #@! TO.N,TEMP_2*
X135000000Y-593900000D03*
G04 #@! TD*
G04 #@! TO.P,TP8,1,1_1*
G04 #@! TO.N,TEMP_9*
X134900000Y-185300000D03*
G04 #@! TD*
G04 #@! TO.P,TP10,1,1_1*
G04 #@! TO.N,TEMP_10*
X135000000Y-126800000D03*
G04 #@! TD*
G04 #@! TO.P,TP2,1,1_1*
G04 #@! TO.N,TEMP_6*
X135000000Y-360200000D03*
G04 #@! TD*
G04 #@! TO.P,TP1,1,1_1*
G04 #@! TO.N,TEMP_1*
X138200000Y-649300000D03*
G04 #@! TD*
G04 #@! TO.P,TP9,1,1_1*
G04 #@! TO.N,TEMP_5*
X135000000Y-418500000D03*
G04 #@! TD*
D11*
G04 #@! TO.N,TEMP_7*
X135400000Y-300400000D03*
G04 #@! TO.N,TEMP_8*
X135200000Y-242000000D03*
G04 #@! TO.N,TEMP_3*
X135400000Y-533900000D03*
G04 #@! TO.N,TEMP_4*
X135400000Y-475500000D03*
G04 #@! TO.N,TEMP_2*
X135400000Y-592400000D03*
G04 #@! TO.N,TEMP_9*
X135400000Y-184000000D03*
G04 #@! TO.N,TEMP_10*
X135400000Y-125400000D03*
G04 #@! TO.N,TEMP_6*
X135300000Y-358800000D03*
G04 #@! TO.N,TEMP_1*
X136800000Y-649300000D03*
G04 #@! TO.N,TEMP_5*
X135400000Y-417300000D03*
G04 #@! TO.N,GND_pos_con*
X133400000Y-410400000D03*
X141000000Y-593700000D03*
X132900000Y-588800000D03*
X130700000Y-648000000D03*
X132900000Y-530500000D03*
X136900000Y-476900000D03*
X141200000Y-243300000D03*
X133400000Y-593800000D03*
X137100000Y-651500000D03*
X133400000Y-177500000D03*
X141000000Y-185300000D03*
X135200000Y-298400000D03*
X141000000Y-418700000D03*
X133600000Y-526900000D03*
X141200000Y-647000000D03*
X135200000Y-123400000D03*
X135200000Y-473400000D03*
X135300000Y-531700000D03*
X132000000Y-116400000D03*
X140000000Y-650800000D03*
X133000000Y-121700000D03*
X130600000Y-236200000D03*
X141200000Y-360200000D03*
X135200000Y-415100000D03*
X130500000Y-351700000D03*
X141100000Y-410400000D03*
X141100000Y-526800000D03*
X132900000Y-472100000D03*
X135500000Y-177500000D03*
X133400000Y-360100000D03*
X141100000Y-95500000D03*
X132100000Y-107100000D03*
X132900000Y-297100000D03*
X135000000Y-107200000D03*
X135200000Y-240100000D03*
X136500000Y-410400000D03*
X130700000Y-647000000D03*
X133500000Y-476900000D03*
X131700000Y-87400000D03*
X141200000Y-82200000D03*
X133500000Y-243300000D03*
X133500000Y-352000000D03*
X136800000Y-360200000D03*
X137300000Y-585100000D03*
X130800000Y-649200000D03*
X131700000Y-95400000D03*
X135300000Y-590100000D03*
X141000000Y-468700000D03*
X132900000Y-126800000D03*
X133600000Y-236200000D03*
X141200000Y-116400000D03*
X130500000Y-410600000D03*
X136600000Y-243300000D03*
X141000000Y-476700000D03*
X141100000Y-535000000D03*
X140900000Y-642800000D03*
X141300000Y-352000000D03*
X141300000Y-649100000D03*
X140400000Y-177600000D03*
X131300000Y-650300000D03*
X132800000Y-355500000D03*
X130500000Y-177700000D03*
X137100000Y-593800000D03*
X136900000Y-535000000D03*
X133600000Y-651600000D03*
X130500000Y-126900000D03*
X137300000Y-526900000D03*
X133300000Y-185300000D03*
X141200000Y-294100000D03*
X136800000Y-185300000D03*
X133200000Y-301800000D03*
X135400000Y-82300000D03*
X135700000Y-236200000D03*
X136400000Y-126800000D03*
X139200000Y-651300000D03*
X133600000Y-585200000D03*
X133400000Y-535100000D03*
X133300000Y-294100000D03*
X135100000Y-87500000D03*
X132800000Y-180500000D03*
X141200000Y-236400000D03*
X138100000Y-651400000D03*
X133400000Y-418500000D03*
X130700000Y-301800000D03*
X140800000Y-650000000D03*
X136700000Y-418600000D03*
X133400000Y-642900000D03*
X130500000Y-185300000D03*
X135200000Y-648400000D03*
X132100000Y-651000000D03*
X141300000Y-107100000D03*
X132800000Y-238800000D03*
X135000000Y-651600000D03*
X136000000Y-294100000D03*
X135200000Y-181800000D03*
X140500000Y-126700000D03*
X136100000Y-651600000D03*
X136200000Y-352000000D03*
X141600000Y-177600000D03*
X130400000Y-243400000D03*
X132900000Y-413900000D03*
X136900000Y-301800000D03*
X141100000Y-585100000D03*
X137300000Y-642800000D03*
X136700000Y-468700000D03*
X135300000Y-95500000D03*
X141300000Y-648000000D03*
X130500000Y-293900000D03*
X141000000Y-301800000D03*
X135100000Y-120100000D03*
X135200000Y-356800000D03*
X131900000Y-82200000D03*
X141100000Y-87300000D03*
X135000000Y-116400000D03*
X133500000Y-468700000D03*
G04 #@! TD*
G04 #@! TO.N,TEMP_7*
D12*
X135000000Y-301400000D02*
X135400000Y-301000000D01*
X135000000Y-301800000D02*
X135000000Y-301400000D01*
X135400000Y-300400000D02*
X135400000Y-301000000D01*
G04 #@! TO.N,TEMP_8*
X135200000Y-242000000D02*
X135200000Y-243200000D01*
G04 #@! TO.N,TEMP_3*
X135400000Y-533900000D02*
X135400000Y-534700000D01*
X135400000Y-534700000D02*
X135000000Y-535100000D01*
G04 #@! TO.N,TEMP_4*
X135400000Y-475500000D02*
X135400000Y-476800000D01*
G04 #@! TO.N,TEMP_2*
X135400000Y-592400000D02*
X135400000Y-593900000D01*
G04 #@! TO.N,TEMP_9*
X135400000Y-184400000D02*
X134700000Y-185100000D01*
X135400000Y-184000000D02*
X135400000Y-184400000D01*
G04 #@! TO.N,TEMP_10*
X135400000Y-125400000D02*
X135400000Y-126700000D01*
G04 #@! TO.N,TEMP_6*
X135300000Y-359700000D02*
X134800000Y-360200000D01*
X135300000Y-358800000D02*
X135300000Y-359700000D01*
G04 #@! TO.N,TEMP_1*
X136800000Y-649300000D02*
X138200000Y-649300000D01*
G04 #@! TO.N,TEMP_5*
X135400000Y-417300000D02*
X135400000Y-418500000D01*
G04 #@! TD*
G04 #@! TA.AperFunction,Conductor*
G04 #@! TO.N,GND_pos_con*
G36*
X142442536Y-70019685D02*
G01*
X142488291Y-70072488D01*
X142499498Y-70124002D01*
X142497850Y-649345297D01*
X142497701Y-649351382D01*
X142481722Y-649676617D01*
X142481192Y-649683494D01*
X142473190Y-649759624D01*
X142472527Y-649764857D01*
X142430516Y-650048066D01*
X142429148Y-650055652D01*
X142414404Y-650125016D01*
X142413398Y-650129365D01*
X142342240Y-650413444D01*
X142339886Y-650421634D01*
X142321405Y-650478510D01*
X142320226Y-650481964D01*
X142217593Y-650768804D01*
X142214121Y-650777466D01*
X142198084Y-650813485D01*
X142196900Y-650816066D01*
X142057715Y-651110349D01*
X142051978Y-651121081D01*
X141869079Y-651426230D01*
X141862319Y-651436348D01*
X141650377Y-651722118D01*
X141642657Y-651731524D01*
X141403737Y-651995132D01*
X141395132Y-652003737D01*
X141131524Y-652242657D01*
X141122118Y-652250377D01*
X140836348Y-652462319D01*
X140826230Y-652469079D01*
X140521081Y-652651978D01*
X140510349Y-652657715D01*
X140216066Y-652796900D01*
X140213485Y-652798084D01*
X140177466Y-652814121D01*
X140168804Y-652817593D01*
X139881964Y-652920226D01*
X139878510Y-652921405D01*
X139821634Y-652939886D01*
X139813444Y-652942240D01*
X139529365Y-653013398D01*
X139525016Y-653014404D01*
X139455652Y-653029148D01*
X139448066Y-653030516D01*
X139164857Y-653072527D01*
X139159624Y-653073190D01*
X139083494Y-653081192D01*
X139076617Y-653081722D01*
X138751366Y-653097701D01*
X138745320Y-653097850D01*
X133502889Y-653099498D01*
X133497123Y-653099366D01*
X133169611Y-653084224D01*
X133163183Y-653083759D01*
X133088317Y-653076385D01*
X133083341Y-653075793D01*
X132796823Y-653035826D01*
X132789764Y-653034633D01*
X132721038Y-653020963D01*
X132716838Y-653020051D01*
X132429399Y-652952446D01*
X132421794Y-652950401D01*
X132364196Y-652932929D01*
X132360785Y-652931840D01*
X132316274Y-652916921D01*
X132070812Y-652834651D01*
X132062788Y-652831648D01*
X132023156Y-652815232D01*
X132020563Y-652814123D01*
X131906009Y-652763542D01*
X131724460Y-652683379D01*
X131716102Y-652679307D01*
X131706093Y-652673958D01*
X131704241Y-652672948D01*
X131517870Y-652569140D01*
X131399547Y-652503234D01*
X131389809Y-652497205D01*
X131094487Y-652294906D01*
X131085347Y-652288003D01*
X130809964Y-652059328D01*
X130801500Y-652051612D01*
X130548387Y-651798499D01*
X130540671Y-651790035D01*
X130488333Y-651727007D01*
X130311994Y-651514649D01*
X130305093Y-651505512D01*
X130102794Y-651210190D01*
X130096765Y-651200452D01*
X130012262Y-651048740D01*
X129927032Y-650895724D01*
X129926104Y-650894023D01*
X129920683Y-650883882D01*
X129916619Y-650875538D01*
X129785839Y-650579352D01*
X129784802Y-650576927D01*
X129768338Y-650537180D01*
X129765359Y-650529219D01*
X129668132Y-650239134D01*
X129667094Y-650235880D01*
X129649589Y-650178174D01*
X129647560Y-650170629D01*
X129579932Y-649883093D01*
X129579049Y-649879026D01*
X129565360Y-649810207D01*
X129564176Y-649803199D01*
X129524204Y-649516651D01*
X129523613Y-649511680D01*
X129516239Y-649436812D01*
X129515774Y-649430384D01*
X129511840Y-649345297D01*
X129506395Y-649227525D01*
X136249500Y-649227525D01*
X136249500Y-649372475D01*
X136286800Y-649511680D01*
X136287017Y-649512488D01*
X136359488Y-649638011D01*
X136359490Y-649638013D01*
X136359491Y-649638015D01*
X136461985Y-649740509D01*
X136461986Y-649740510D01*
X136461988Y-649740511D01*
X136587511Y-649812982D01*
X136587512Y-649812982D01*
X136587515Y-649812984D01*
X136727525Y-649850500D01*
X136727528Y-649850500D01*
X136872472Y-649850500D01*
X136872475Y-649850500D01*
X137012485Y-649812984D01*
X137138015Y-649740509D01*
X137191705Y-649686819D01*
X137218632Y-649672115D01*
X137244451Y-649655523D01*
X137250651Y-649654631D01*
X137253028Y-649653334D01*
X137279386Y-649650500D01*
X137465298Y-649650500D01*
X137532337Y-649670185D01*
X137568400Y-649705609D01*
X137617048Y-649778415D01*
X137617051Y-649778419D01*
X137721580Y-649882948D01*
X137721584Y-649882951D01*
X137844498Y-649965080D01*
X137844511Y-649965087D01*
X137969588Y-650016895D01*
X137981087Y-650021658D01*
X137981091Y-650021658D01*
X137981092Y-650021659D01*
X138126079Y-650050500D01*
X138126082Y-650050500D01*
X138273920Y-650050500D01*
X138371462Y-650031096D01*
X138418913Y-650021658D01*
X138555495Y-649965084D01*
X138678416Y-649882951D01*
X138782951Y-649778416D01*
X138865084Y-649655495D01*
X138866000Y-649653285D01*
X138877902Y-649624547D01*
X138921658Y-649518913D01*
X138950500Y-649373918D01*
X138950500Y-649226082D01*
X138950500Y-649226079D01*
X138921659Y-649081092D01*
X138921658Y-649081091D01*
X138921658Y-649081087D01*
X138872326Y-648961988D01*
X138865087Y-648944511D01*
X138865080Y-648944498D01*
X138782951Y-648821584D01*
X138782948Y-648821580D01*
X138678419Y-648717051D01*
X138678415Y-648717048D01*
X138555501Y-648634919D01*
X138555488Y-648634912D01*
X138418917Y-648578343D01*
X138418907Y-648578340D01*
X138273920Y-648549500D01*
X138273918Y-648549500D01*
X138126082Y-648549500D01*
X138126080Y-648549500D01*
X137981092Y-648578340D01*
X137981082Y-648578343D01*
X137844511Y-648634912D01*
X137844498Y-648634919D01*
X137721584Y-648717048D01*
X137721580Y-648717051D01*
X137617051Y-648821580D01*
X137617048Y-648821584D01*
X137568400Y-648894391D01*
X137562309Y-648899481D01*
X137559011Y-648906703D01*
X137535880Y-648921568D01*
X137514787Y-648939196D01*
X137505413Y-648941147D01*
X137500233Y-648944477D01*
X137465298Y-648949500D01*
X137279386Y-648949500D01*
X137212347Y-648929815D01*
X137191705Y-648913181D01*
X137138017Y-648859493D01*
X137138011Y-648859488D01*
X137012488Y-648787017D01*
X137012489Y-648787017D01*
X137001006Y-648783940D01*
X136872475Y-648749500D01*
X136727525Y-648749500D01*
X136598993Y-648783940D01*
X136587511Y-648787017D01*
X136461988Y-648859488D01*
X136461982Y-648859493D01*
X136359493Y-648961982D01*
X136359488Y-648961988D01*
X136287017Y-649087511D01*
X136287016Y-649087515D01*
X136249500Y-649227525D01*
X129506395Y-649227525D01*
X129500632Y-649102855D01*
X129500500Y-649097128D01*
X129500500Y-593973920D01*
X134249499Y-593973920D01*
X134278340Y-594118907D01*
X134278343Y-594118917D01*
X134334912Y-594255488D01*
X134334919Y-594255501D01*
X134417048Y-594378415D01*
X134417051Y-594378419D01*
X134521580Y-594482948D01*
X134521584Y-594482951D01*
X134644498Y-594565080D01*
X134644511Y-594565087D01*
X134781082Y-594621656D01*
X134781087Y-594621658D01*
X134781091Y-594621658D01*
X134781092Y-594621659D01*
X134926079Y-594650500D01*
X134926082Y-594650500D01*
X135073920Y-594650500D01*
X135171462Y-594631096D01*
X135218913Y-594621658D01*
X135355495Y-594565084D01*
X135478416Y-594482951D01*
X135582951Y-594378416D01*
X135665084Y-594255495D01*
X135721658Y-594118913D01*
X135750500Y-593973918D01*
X135750500Y-593826082D01*
X135750500Y-592879386D01*
X135770185Y-592812347D01*
X135786819Y-592791705D01*
X135840509Y-592738015D01*
X135912984Y-592612485D01*
X135950500Y-592472475D01*
X135950500Y-592327525D01*
X135912984Y-592187515D01*
X135840509Y-592061985D01*
X135738015Y-591959491D01*
X135738013Y-591959490D01*
X135738011Y-591959488D01*
X135612488Y-591887017D01*
X135612489Y-591887017D01*
X135601006Y-591883940D01*
X135472475Y-591849500D01*
X135327525Y-591849500D01*
X135198993Y-591883940D01*
X135187511Y-591887017D01*
X135061988Y-591959488D01*
X135061982Y-591959493D01*
X134959493Y-592061982D01*
X134959488Y-592061988D01*
X134887017Y-592187511D01*
X134887016Y-592187515D01*
X134849500Y-592327525D01*
X134849500Y-592472475D01*
X134887016Y-592612485D01*
X134887017Y-592612488D01*
X134959488Y-592738011D01*
X134959493Y-592738017D01*
X135013181Y-592791705D01*
X135027884Y-592818632D01*
X135044477Y-592844451D01*
X135045368Y-592850651D01*
X135046666Y-592853028D01*
X135049500Y-592879386D01*
X135049500Y-593025500D01*
X135029815Y-593092539D01*
X134977011Y-593138294D01*
X134932060Y-593148072D01*
X134932142Y-593148903D01*
X134926079Y-593149499D01*
X134781092Y-593178340D01*
X134781082Y-593178343D01*
X134644511Y-593234912D01*
X134644498Y-593234919D01*
X134521584Y-593317048D01*
X134521580Y-593317051D01*
X134417051Y-593421580D01*
X134417048Y-593421584D01*
X134334919Y-593544498D01*
X134334912Y-593544511D01*
X134278343Y-593681082D01*
X134278340Y-593681092D01*
X134249500Y-593826079D01*
X134249500Y-593826082D01*
X134249500Y-593973918D01*
X134249500Y-593973920D01*
X134249499Y-593973920D01*
X129500500Y-593973920D01*
X129500500Y-535173920D01*
X134249499Y-535173920D01*
X134278340Y-535318907D01*
X134278343Y-535318917D01*
X134334912Y-535455488D01*
X134334919Y-535455501D01*
X134417048Y-535578415D01*
X134417051Y-535578419D01*
X134521580Y-535682948D01*
X134521584Y-535682951D01*
X134644498Y-535765080D01*
X134644511Y-535765087D01*
X134781082Y-535821656D01*
X134781087Y-535821658D01*
X134781091Y-535821658D01*
X134781092Y-535821659D01*
X134926079Y-535850500D01*
X134926082Y-535850500D01*
X135073920Y-535850500D01*
X135171462Y-535831096D01*
X135218913Y-535821658D01*
X135355495Y-535765084D01*
X135478416Y-535682951D01*
X135582951Y-535578416D01*
X135665084Y-535455495D01*
X135721658Y-535318913D01*
X135750500Y-535173918D01*
X135750500Y-535026082D01*
X135750500Y-535026079D01*
X135724182Y-534893774D01*
X135726024Y-534837489D01*
X135726614Y-534835288D01*
X135750500Y-534746144D01*
X135750500Y-534379386D01*
X135770185Y-534312347D01*
X135786819Y-534291705D01*
X135840509Y-534238015D01*
X135912984Y-534112485D01*
X135950500Y-533972475D01*
X135950500Y-533827525D01*
X135912984Y-533687515D01*
X135840509Y-533561985D01*
X135738015Y-533459491D01*
X135738013Y-533459490D01*
X135738011Y-533459488D01*
X135612488Y-533387017D01*
X135612489Y-533387017D01*
X135601006Y-533383940D01*
X135472475Y-533349500D01*
X135327525Y-533349500D01*
X135198993Y-533383940D01*
X135187511Y-533387017D01*
X135061988Y-533459488D01*
X135061982Y-533459493D01*
X134959493Y-533561982D01*
X134959488Y-533561988D01*
X134887017Y-533687511D01*
X134887016Y-533687515D01*
X134849500Y-533827525D01*
X134849500Y-533972475D01*
X134887016Y-534112485D01*
X134887017Y-534112488D01*
X134927263Y-534182196D01*
X134943736Y-534250096D01*
X134920883Y-534316123D01*
X134865962Y-534359314D01*
X134844069Y-534365813D01*
X134781091Y-534378340D01*
X134781082Y-534378343D01*
X134644511Y-534434912D01*
X134644498Y-534434919D01*
X134521584Y-534517048D01*
X134521580Y-534517051D01*
X134417051Y-534621580D01*
X134417048Y-534621584D01*
X134334919Y-534744498D01*
X134334912Y-534744511D01*
X134278343Y-534881082D01*
X134278340Y-534881092D01*
X134249500Y-535026079D01*
X134249500Y-535026082D01*
X134249500Y-535173918D01*
X134249500Y-535173920D01*
X134249499Y-535173920D01*
X129500500Y-535173920D01*
X129500500Y-476973920D01*
X134249499Y-476973920D01*
X134278340Y-477118907D01*
X134278343Y-477118917D01*
X134334912Y-477255488D01*
X134334919Y-477255501D01*
X134417048Y-477378415D01*
X134417051Y-477378419D01*
X134521580Y-477482948D01*
X134521584Y-477482951D01*
X134644498Y-477565080D01*
X134644511Y-477565087D01*
X134781082Y-477621656D01*
X134781087Y-477621658D01*
X134781091Y-477621658D01*
X134781092Y-477621659D01*
X134926079Y-477650500D01*
X134926082Y-477650500D01*
X135073920Y-477650500D01*
X135171462Y-477631096D01*
X135218913Y-477621658D01*
X135355495Y-477565084D01*
X135478416Y-477482951D01*
X135582951Y-477378416D01*
X135665084Y-477255495D01*
X135721658Y-477118913D01*
X135750500Y-476973918D01*
X135750500Y-476826082D01*
X135750500Y-475979386D01*
X135770185Y-475912347D01*
X135786819Y-475891705D01*
X135840509Y-475838015D01*
X135912984Y-475712485D01*
X135950500Y-475572475D01*
X135950500Y-475427525D01*
X135912984Y-475287515D01*
X135840509Y-475161985D01*
X135738015Y-475059491D01*
X135738013Y-475059490D01*
X135738011Y-475059488D01*
X135612488Y-474987017D01*
X135612489Y-474987017D01*
X135601006Y-474983940D01*
X135472475Y-474949500D01*
X135327525Y-474949500D01*
X135198993Y-474983940D01*
X135187511Y-474987017D01*
X135061988Y-475059488D01*
X135061982Y-475059493D01*
X134959493Y-475161982D01*
X134959488Y-475161988D01*
X134887017Y-475287511D01*
X134887016Y-475287515D01*
X134849500Y-475427525D01*
X134849500Y-475572475D01*
X134887016Y-475712485D01*
X134887017Y-475712488D01*
X134959488Y-475838011D01*
X134959493Y-475838017D01*
X135013181Y-475891705D01*
X135027884Y-475918632D01*
X135044477Y-475944451D01*
X135045368Y-475950651D01*
X135046666Y-475953028D01*
X135049500Y-475979386D01*
X135049500Y-476025500D01*
X135029815Y-476092539D01*
X134977011Y-476138294D01*
X134932060Y-476148072D01*
X134932142Y-476148903D01*
X134926079Y-476149499D01*
X134781092Y-476178340D01*
X134781082Y-476178343D01*
X134644511Y-476234912D01*
X134644498Y-476234919D01*
X134521584Y-476317048D01*
X134521580Y-476317051D01*
X134417051Y-476421580D01*
X134417048Y-476421584D01*
X134334919Y-476544498D01*
X134334912Y-476544511D01*
X134278343Y-476681082D01*
X134278340Y-476681092D01*
X134249500Y-476826079D01*
X134249500Y-476826082D01*
X134249500Y-476973918D01*
X134249500Y-476973920D01*
X134249499Y-476973920D01*
X129500500Y-476973920D01*
X129500500Y-418573920D01*
X134249499Y-418573920D01*
X134278340Y-418718907D01*
X134278343Y-418718917D01*
X134334912Y-418855488D01*
X134334919Y-418855501D01*
X134417048Y-418978415D01*
X134417051Y-418978419D01*
X134521580Y-419082948D01*
X134521584Y-419082951D01*
X134644498Y-419165080D01*
X134644511Y-419165087D01*
X134781082Y-419221656D01*
X134781087Y-419221658D01*
X134781091Y-419221658D01*
X134781092Y-419221659D01*
X134926079Y-419250500D01*
X134926082Y-419250500D01*
X135073920Y-419250500D01*
X135171462Y-419231096D01*
X135218913Y-419221658D01*
X135355495Y-419165084D01*
X135478416Y-419082951D01*
X135582951Y-418978416D01*
X135665084Y-418855495D01*
X135721658Y-418718913D01*
X135750500Y-418573918D01*
X135750500Y-418426082D01*
X135750500Y-417779386D01*
X135770185Y-417712347D01*
X135786819Y-417691705D01*
X135840509Y-417638015D01*
X135912984Y-417512485D01*
X135950500Y-417372475D01*
X135950500Y-417227525D01*
X135912984Y-417087515D01*
X135840509Y-416961985D01*
X135738015Y-416859491D01*
X135738013Y-416859490D01*
X135738011Y-416859488D01*
X135612488Y-416787017D01*
X135612489Y-416787017D01*
X135601006Y-416783940D01*
X135472475Y-416749500D01*
X135327525Y-416749500D01*
X135198993Y-416783940D01*
X135187511Y-416787017D01*
X135061988Y-416859488D01*
X135061982Y-416859493D01*
X134959493Y-416961982D01*
X134959488Y-416961988D01*
X134887017Y-417087511D01*
X134887016Y-417087515D01*
X134849500Y-417227525D01*
X134849500Y-417372475D01*
X134887016Y-417512485D01*
X134887017Y-417512488D01*
X134927263Y-417582196D01*
X134943736Y-417650096D01*
X134920883Y-417716123D01*
X134865962Y-417759314D01*
X134844069Y-417765813D01*
X134781091Y-417778340D01*
X134781082Y-417778343D01*
X134644511Y-417834912D01*
X134644498Y-417834919D01*
X134521584Y-417917048D01*
X134521580Y-417917051D01*
X134417051Y-418021580D01*
X134417048Y-418021584D01*
X134334919Y-418144498D01*
X134334912Y-418144511D01*
X134278343Y-418281082D01*
X134278340Y-418281092D01*
X134249500Y-418426079D01*
X134249500Y-418426082D01*
X134249500Y-418573918D01*
X134249500Y-418573920D01*
X134249499Y-418573920D01*
X129500500Y-418573920D01*
X129500500Y-360273920D01*
X134249499Y-360273920D01*
X134278340Y-360418907D01*
X134278343Y-360418917D01*
X134334912Y-360555488D01*
X134334919Y-360555501D01*
X134417048Y-360678415D01*
X134417051Y-360678419D01*
X134521580Y-360782948D01*
X134521584Y-360782951D01*
X134644498Y-360865080D01*
X134644511Y-360865087D01*
X134781082Y-360921656D01*
X134781087Y-360921658D01*
X134781091Y-360921658D01*
X134781092Y-360921659D01*
X134926079Y-360950500D01*
X134926082Y-360950500D01*
X135073920Y-360950500D01*
X135171462Y-360931096D01*
X135218913Y-360921658D01*
X135355495Y-360865084D01*
X135478416Y-360782951D01*
X135582951Y-360678416D01*
X135665084Y-360555495D01*
X135721658Y-360418913D01*
X135750500Y-360273918D01*
X135750500Y-360126082D01*
X135750500Y-360126079D01*
X135721659Y-359981092D01*
X135721658Y-359981091D01*
X135721658Y-359981087D01*
X135721656Y-359981082D01*
X135665085Y-359844506D01*
X135662214Y-359839135D01*
X135664142Y-359838103D01*
X135646198Y-359780830D01*
X135649461Y-359754203D01*
X135649439Y-359754201D01*
X135649762Y-359751746D01*
X135650406Y-359746493D01*
X135650500Y-359746144D01*
X135650500Y-359653856D01*
X135650500Y-359279386D01*
X135670185Y-359212347D01*
X135686819Y-359191705D01*
X135740509Y-359138015D01*
X135812984Y-359012485D01*
X135850500Y-358872475D01*
X135850500Y-358727525D01*
X135812984Y-358587515D01*
X135740509Y-358461985D01*
X135638015Y-358359491D01*
X135638013Y-358359490D01*
X135638011Y-358359488D01*
X135512488Y-358287017D01*
X135512489Y-358287017D01*
X135501006Y-358283940D01*
X135372475Y-358249500D01*
X135227525Y-358249500D01*
X135098993Y-358283940D01*
X135087511Y-358287017D01*
X134961988Y-358359488D01*
X134961982Y-358359493D01*
X134859493Y-358461982D01*
X134859488Y-358461988D01*
X134787017Y-358587511D01*
X134787016Y-358587515D01*
X134749500Y-358727525D01*
X134749500Y-358872475D01*
X134787016Y-359012485D01*
X134787017Y-359012488D01*
X134859488Y-359138011D01*
X134859493Y-359138017D01*
X134913181Y-359191705D01*
X134927884Y-359218632D01*
X134944477Y-359244451D01*
X134945368Y-359250651D01*
X134946666Y-359253028D01*
X134949500Y-359279386D01*
X134949500Y-359343077D01*
X134929815Y-359410116D01*
X134877011Y-359455871D01*
X134849693Y-359464694D01*
X134781091Y-359478340D01*
X134781082Y-359478343D01*
X134644511Y-359534912D01*
X134644498Y-359534919D01*
X134521584Y-359617048D01*
X134521580Y-359617051D01*
X134417051Y-359721580D01*
X134417048Y-359721584D01*
X134334919Y-359844498D01*
X134334912Y-359844511D01*
X134278343Y-359981082D01*
X134278340Y-359981092D01*
X134249500Y-360126079D01*
X134249500Y-360126082D01*
X134249500Y-360273918D01*
X134249500Y-360273920D01*
X134249499Y-360273920D01*
X129500500Y-360273920D01*
X129500500Y-301873920D01*
X134249499Y-301873920D01*
X134278340Y-302018907D01*
X134278343Y-302018917D01*
X134334912Y-302155488D01*
X134334919Y-302155501D01*
X134417048Y-302278415D01*
X134417051Y-302278419D01*
X134521580Y-302382948D01*
X134521584Y-302382951D01*
X134644498Y-302465080D01*
X134644511Y-302465087D01*
X134781082Y-302521656D01*
X134781087Y-302521658D01*
X134781091Y-302521658D01*
X134781092Y-302521659D01*
X134926079Y-302550500D01*
X134926082Y-302550500D01*
X135073920Y-302550500D01*
X135171462Y-302531096D01*
X135218913Y-302521658D01*
X135355495Y-302465084D01*
X135478416Y-302382951D01*
X135582951Y-302278416D01*
X135665084Y-302155495D01*
X135721658Y-302018913D01*
X135750500Y-301873918D01*
X135750500Y-301726082D01*
X135750500Y-301726079D01*
X135721659Y-301581092D01*
X135721658Y-301581091D01*
X135721658Y-301581087D01*
X135721656Y-301581082D01*
X135665087Y-301444511D01*
X135665081Y-301444500D01*
X135635941Y-301400888D01*
X135615064Y-301334210D01*
X135633549Y-301266830D01*
X135651360Y-301244320D01*
X135680469Y-301215212D01*
X135726614Y-301135288D01*
X135730836Y-301119531D01*
X135750500Y-301046144D01*
X135750500Y-300879386D01*
X135770185Y-300812347D01*
X135786819Y-300791705D01*
X135811414Y-300767110D01*
X135840509Y-300738015D01*
X135912984Y-300612485D01*
X135950500Y-300472475D01*
X135950500Y-300327525D01*
X135912984Y-300187515D01*
X135840509Y-300061985D01*
X135738015Y-299959491D01*
X135738013Y-299959490D01*
X135738011Y-299959488D01*
X135612488Y-299887017D01*
X135612489Y-299887017D01*
X135601006Y-299883940D01*
X135472475Y-299849500D01*
X135327525Y-299849500D01*
X135198993Y-299883940D01*
X135187511Y-299887017D01*
X135061988Y-299959488D01*
X135061982Y-299959493D01*
X134959493Y-300061982D01*
X134959488Y-300061988D01*
X134887017Y-300187511D01*
X134887016Y-300187515D01*
X134849500Y-300327525D01*
X134849500Y-300472475D01*
X134887016Y-300612485D01*
X134887017Y-300612488D01*
X134959488Y-300738011D01*
X134959493Y-300738017D01*
X134975215Y-300753739D01*
X134979553Y-300761684D01*
X134986801Y-300767110D01*
X134996035Y-300791869D01*
X135008700Y-300815062D01*
X135008054Y-300824091D01*
X135011218Y-300832574D01*
X135005601Y-300858394D01*
X135003716Y-300884754D01*
X134997897Y-300893807D01*
X134996366Y-300900847D01*
X134975215Y-300929101D01*
X134863719Y-301040597D01*
X134802396Y-301074082D01*
X134800233Y-301074533D01*
X134781087Y-301078341D01*
X134781084Y-301078342D01*
X134644511Y-301134912D01*
X134644498Y-301134919D01*
X134521584Y-301217048D01*
X134521580Y-301217051D01*
X134417051Y-301321580D01*
X134417048Y-301321584D01*
X134334919Y-301444498D01*
X134334912Y-301444511D01*
X134278343Y-301581082D01*
X134278340Y-301581092D01*
X134249500Y-301726079D01*
X134249500Y-301726082D01*
X134249500Y-301873918D01*
X134249500Y-301873920D01*
X134249499Y-301873920D01*
X129500500Y-301873920D01*
X129500500Y-243473920D01*
X134249499Y-243473920D01*
X134278340Y-243618907D01*
X134278343Y-243618917D01*
X134334912Y-243755488D01*
X134334919Y-243755501D01*
X134417048Y-243878415D01*
X134417051Y-243878419D01*
X134521580Y-243982948D01*
X134521584Y-243982951D01*
X134644498Y-244065080D01*
X134644511Y-244065087D01*
X134781082Y-244121656D01*
X134781087Y-244121658D01*
X134781091Y-244121658D01*
X134781092Y-244121659D01*
X134926079Y-244150500D01*
X134926082Y-244150500D01*
X135073920Y-244150500D01*
X135171462Y-244131096D01*
X135218913Y-244121658D01*
X135355495Y-244065084D01*
X135478416Y-243982951D01*
X135582951Y-243878416D01*
X135665084Y-243755495D01*
X135721658Y-243618913D01*
X135750500Y-243473918D01*
X135750500Y-243326082D01*
X135750500Y-243326079D01*
X135721659Y-243181092D01*
X135721658Y-243181091D01*
X135721658Y-243181087D01*
X135721656Y-243181082D01*
X135665087Y-243044511D01*
X135665080Y-243044498D01*
X135582951Y-242921584D01*
X135579086Y-242916874D01*
X135581191Y-242915145D01*
X135553334Y-242864128D01*
X135550500Y-242837770D01*
X135550500Y-242479386D01*
X135570185Y-242412347D01*
X135586819Y-242391705D01*
X135640509Y-242338015D01*
X135712984Y-242212485D01*
X135750500Y-242072475D01*
X135750500Y-241927525D01*
X135712984Y-241787515D01*
X135640509Y-241661985D01*
X135538015Y-241559491D01*
X135538013Y-241559490D01*
X135538011Y-241559488D01*
X135412488Y-241487017D01*
X135412489Y-241487017D01*
X135401006Y-241483940D01*
X135272475Y-241449500D01*
X135127525Y-241449500D01*
X134998993Y-241483940D01*
X134987511Y-241487017D01*
X134861988Y-241559488D01*
X134861982Y-241559493D01*
X134759493Y-241661982D01*
X134759488Y-241661988D01*
X134687017Y-241787511D01*
X134687016Y-241787515D01*
X134649500Y-241927525D01*
X134649500Y-242072475D01*
X134687016Y-242212485D01*
X134687017Y-242212488D01*
X134759488Y-242338011D01*
X134759493Y-242338017D01*
X134813181Y-242391705D01*
X134827884Y-242418632D01*
X134844477Y-242444451D01*
X134845368Y-242450651D01*
X134846666Y-242453028D01*
X134849500Y-242479386D01*
X134849500Y-242567150D01*
X134829815Y-242634189D01*
X134777011Y-242679944D01*
X134772953Y-242681711D01*
X134644507Y-242734914D01*
X134644498Y-242734919D01*
X134521584Y-242817048D01*
X134521580Y-242817051D01*
X134417051Y-242921580D01*
X134417048Y-242921584D01*
X134334919Y-243044498D01*
X134334912Y-243044511D01*
X134278343Y-243181082D01*
X134278340Y-243181092D01*
X134249500Y-243326079D01*
X134249500Y-243326082D01*
X134249500Y-243473918D01*
X134249500Y-243473920D01*
X134249499Y-243473920D01*
X129500500Y-243473920D01*
X129500500Y-185373920D01*
X134149499Y-185373920D01*
X134178340Y-185518907D01*
X134178343Y-185518917D01*
X134234912Y-185655488D01*
X134234919Y-185655501D01*
X134317048Y-185778415D01*
X134317051Y-185778419D01*
X134421580Y-185882948D01*
X134421584Y-185882951D01*
X134544498Y-185965080D01*
X134544511Y-185965087D01*
X134681082Y-186021656D01*
X134681087Y-186021658D01*
X134681091Y-186021658D01*
X134681092Y-186021659D01*
X134826079Y-186050500D01*
X134826082Y-186050500D01*
X134973920Y-186050500D01*
X135071462Y-186031096D01*
X135118913Y-186021658D01*
X135255495Y-185965084D01*
X135378416Y-185882951D01*
X135482951Y-185778416D01*
X135565084Y-185655495D01*
X135621658Y-185518913D01*
X135650500Y-185373918D01*
X135650500Y-185226082D01*
X135650500Y-185226079D01*
X135621659Y-185081092D01*
X135621658Y-185081091D01*
X135621658Y-185081087D01*
X135621656Y-185081082D01*
X135565087Y-184944511D01*
X135565080Y-184944498D01*
X135535942Y-184900890D01*
X135515064Y-184834212D01*
X135533549Y-184766832D01*
X135551357Y-184744323D01*
X135680469Y-184615213D01*
X135726614Y-184535288D01*
X135732590Y-184512984D01*
X135748534Y-184453480D01*
X135748553Y-184453448D01*
X135780623Y-184397900D01*
X135840509Y-184338015D01*
X135912984Y-184212485D01*
X135950500Y-184072475D01*
X135950500Y-183927525D01*
X135912984Y-183787515D01*
X135840509Y-183661985D01*
X135738015Y-183559491D01*
X135738013Y-183559490D01*
X135738011Y-183559488D01*
X135612488Y-183487017D01*
X135612489Y-183487017D01*
X135601006Y-183483940D01*
X135472475Y-183449500D01*
X135327525Y-183449500D01*
X135198993Y-183483940D01*
X135187511Y-183487017D01*
X135061988Y-183559488D01*
X135061982Y-183559493D01*
X134959493Y-183661982D01*
X134959488Y-183661988D01*
X134887017Y-183787511D01*
X134887016Y-183787515D01*
X134849500Y-183927525D01*
X134849500Y-184072475D01*
X134887016Y-184212485D01*
X134887017Y-184212488D01*
X134914409Y-184259932D01*
X134920975Y-184286996D01*
X134930706Y-184313086D01*
X134929097Y-184320478D01*
X134930882Y-184327832D01*
X134921773Y-184354149D01*
X134915854Y-184381359D01*
X134909346Y-184390051D01*
X134908029Y-184393859D01*
X134894703Y-184409613D01*
X134763719Y-184540597D01*
X134702396Y-184574082D01*
X134700233Y-184574533D01*
X134681087Y-184578341D01*
X134681084Y-184578342D01*
X134544511Y-184634912D01*
X134544498Y-184634919D01*
X134421584Y-184717048D01*
X134421580Y-184717051D01*
X134317051Y-184821580D01*
X134317048Y-184821584D01*
X134234919Y-184944498D01*
X134234912Y-184944511D01*
X134178343Y-185081082D01*
X134178340Y-185081092D01*
X134149500Y-185226079D01*
X134149500Y-185226082D01*
X134149500Y-185373918D01*
X134149500Y-185373920D01*
X134149499Y-185373920D01*
X129500500Y-185373920D01*
X129500500Y-126873920D01*
X134249499Y-126873920D01*
X134278340Y-127018907D01*
X134278343Y-127018917D01*
X134334912Y-127155488D01*
X134334919Y-127155501D01*
X134417048Y-127278415D01*
X134417051Y-127278419D01*
X134521580Y-127382948D01*
X134521584Y-127382951D01*
X134644498Y-127465080D01*
X134644511Y-127465087D01*
X134781082Y-127521656D01*
X134781087Y-127521658D01*
X134781091Y-127521658D01*
X134781092Y-127521659D01*
X134926079Y-127550500D01*
X134926082Y-127550500D01*
X135073920Y-127550500D01*
X135171462Y-127531096D01*
X135218913Y-127521658D01*
X135355495Y-127465084D01*
X135478416Y-127382951D01*
X135582951Y-127278416D01*
X135665084Y-127155495D01*
X135721658Y-127018913D01*
X135750500Y-126873918D01*
X135750500Y-126726082D01*
X135750500Y-125879386D01*
X135770185Y-125812347D01*
X135786819Y-125791705D01*
X135840509Y-125738015D01*
X135912984Y-125612485D01*
X135950500Y-125472475D01*
X135950500Y-125327525D01*
X135912984Y-125187515D01*
X135840509Y-125061985D01*
X135738015Y-124959491D01*
X135738013Y-124959490D01*
X135738011Y-124959488D01*
X135612488Y-124887017D01*
X135612489Y-124887017D01*
X135601006Y-124883940D01*
X135472475Y-124849500D01*
X135327525Y-124849500D01*
X135198993Y-124883940D01*
X135187511Y-124887017D01*
X135061988Y-124959488D01*
X135061982Y-124959493D01*
X134959493Y-125061982D01*
X134959488Y-125061988D01*
X134887017Y-125187511D01*
X134887016Y-125187515D01*
X134849500Y-125327525D01*
X134849500Y-125472475D01*
X134887016Y-125612485D01*
X134887017Y-125612488D01*
X134959488Y-125738011D01*
X134959493Y-125738017D01*
X135013181Y-125791705D01*
X135027884Y-125818632D01*
X135044477Y-125844451D01*
X135045368Y-125850651D01*
X135046666Y-125853028D01*
X135049500Y-125879386D01*
X135049500Y-125925500D01*
X135029815Y-125992539D01*
X134977011Y-126038294D01*
X134932060Y-126048072D01*
X134932142Y-126048903D01*
X134926079Y-126049499D01*
X134781092Y-126078340D01*
X134781082Y-126078343D01*
X134644511Y-126134912D01*
X134644498Y-126134919D01*
X134521584Y-126217048D01*
X134521580Y-126217051D01*
X134417051Y-126321580D01*
X134417048Y-126321584D01*
X134334919Y-126444498D01*
X134334912Y-126444511D01*
X134278343Y-126581082D01*
X134278340Y-126581092D01*
X134249500Y-126726079D01*
X134249500Y-126726082D01*
X134249500Y-126873918D01*
X134249500Y-126873920D01*
X134249499Y-126873920D01*
X129500500Y-126873920D01*
X129500500Y-70124239D01*
X129520185Y-70057200D01*
X129572989Y-70011445D01*
X129624490Y-70000240D01*
X142375497Y-70000002D01*
X142442536Y-70019685D01*
G37*
G04 #@! TD.AperFunction*
G04 #@! TD*
M02*
