G04 #@! TF.GenerationSoftware,KiCad,Pcbnew,10.0.3*
G04 #@! TF.CreationDate,2026-06-03T15:58:30+02:00*
G04 #@! TF.ProjectId,rapid_tank_level_indicator_sensor,72617069-645f-4746-916e-6b5f6c657665,rev?*
G04 #@! TF.SameCoordinates,Original*
G04 #@! TF.FileFunction,Legend,Bot*
G04 #@! TF.FilePolarity,Positive*
%FSLAX46Y46*%
G04 Gerber Fmt 4.6, Leading zero omitted, Abs format (unit mm)*
G04 Created by KiCad (PCBNEW 10.0.3) date 2026-06-03 15:58:30*
%MOMM*%
%LPD*%
G01*
G04 APERTURE LIST*
G04 Aperture macros list*
%AMRoundRect*
0 Rectangle with rounded corners*
0 $1 Rounding radius*
0 $2 $3 $4 $5 $6 $7 $8 $9 X,Y pos of 4 corners*
0 Add a 4 corners polygon primitive as box body*
4,1,4,$2,$3,$4,$5,$6,$7,$8,$9,$2,$3,0*
0 Add four circle primitives for the rounded corners*
1,1,$1+$1,$2,$3*
1,1,$1+$1,$4,$5*
1,1,$1+$1,$6,$7*
1,1,$1+$1,$8,$9*
0 Add four rect primitives between the rounded corners*
20,1,$1+$1,$2,$3,$4,$5,0*
20,1,$1+$1,$4,$5,$6,$7,0*
20,1,$1+$1,$6,$7,$8,$9,0*
20,1,$1+$1,$8,$9,$2,$3,0*%
G04 Aperture macros list end*
%ADD10C,0.100000*%
%ADD11C,0.150000*%
%ADD12C,0.120000*%
%ADD13RoundRect,0.150000X0.587500X0.150000X-0.587500X0.150000X-0.587500X-0.150000X0.587500X-0.150000X0*%
%ADD14RoundRect,0.105000X0.245000X1.395000X-0.245000X1.395000X-0.245000X-1.395000X0.245000X-1.395000X0*%
G04 APERTURE END LIST*
D10*
X130491466Y-73503884D02*
X130491466Y-74265789D01*
X130872419Y-73884836D02*
X130110514Y-73884836D01*
X129872419Y-75218169D02*
X129872419Y-74741979D01*
X129872419Y-74741979D02*
X130348609Y-74694360D01*
X130348609Y-74694360D02*
X130300990Y-74741979D01*
X130300990Y-74741979D02*
X130253371Y-74837217D01*
X130253371Y-74837217D02*
X130253371Y-75075312D01*
X130253371Y-75075312D02*
X130300990Y-75170550D01*
X130300990Y-75170550D02*
X130348609Y-75218169D01*
X130348609Y-75218169D02*
X130443847Y-75265788D01*
X130443847Y-75265788D02*
X130681942Y-75265788D01*
X130681942Y-75265788D02*
X130777180Y-75218169D01*
X130777180Y-75218169D02*
X130824800Y-75170550D01*
X130824800Y-75170550D02*
X130872419Y-75075312D01*
X130872419Y-75075312D02*
X130872419Y-74837217D01*
X130872419Y-74837217D02*
X130824800Y-74741979D01*
X130824800Y-74741979D02*
X130777180Y-74694360D01*
X129872419Y-75551503D02*
X130872419Y-75884836D01*
X130872419Y-75884836D02*
X129872419Y-76218169D01*
X141879961Y-75472306D02*
X141927580Y-75567544D01*
X141927580Y-75567544D02*
X141927580Y-75710401D01*
X141927580Y-75710401D02*
X141879961Y-75853258D01*
X141879961Y-75853258D02*
X141784723Y-75948496D01*
X141784723Y-75948496D02*
X141689485Y-75996115D01*
X141689485Y-75996115D02*
X141499009Y-76043734D01*
X141499009Y-76043734D02*
X141356152Y-76043734D01*
X141356152Y-76043734D02*
X141165676Y-75996115D01*
X141165676Y-75996115D02*
X141070438Y-75948496D01*
X141070438Y-75948496D02*
X140975200Y-75853258D01*
X140975200Y-75853258D02*
X140927580Y-75710401D01*
X140927580Y-75710401D02*
X140927580Y-75615163D01*
X140927580Y-75615163D02*
X140975200Y-75472306D01*
X140975200Y-75472306D02*
X141022819Y-75424687D01*
X141022819Y-75424687D02*
X141356152Y-75424687D01*
X141356152Y-75424687D02*
X141356152Y-75615163D01*
X140927580Y-74996115D02*
X141927580Y-74996115D01*
X141927580Y-74996115D02*
X140927580Y-74424687D01*
X140927580Y-74424687D02*
X141927580Y-74424687D01*
X140927580Y-73948496D02*
X141927580Y-73948496D01*
X141927580Y-73948496D02*
X141927580Y-73710401D01*
X141927580Y-73710401D02*
X141879961Y-73567544D01*
X141879961Y-73567544D02*
X141784723Y-73472306D01*
X141784723Y-73472306D02*
X141689485Y-73424687D01*
X141689485Y-73424687D02*
X141499009Y-73377068D01*
X141499009Y-73377068D02*
X141356152Y-73377068D01*
X141356152Y-73377068D02*
X141165676Y-73424687D01*
X141165676Y-73424687D02*
X141070438Y-73472306D01*
X141070438Y-73472306D02*
X140975200Y-73567544D01*
X140975200Y-73567544D02*
X140927580Y-73710401D01*
X140927580Y-73710401D02*
X140927580Y-73948496D01*
D11*
X135206240Y-295479819D02*
X135206240Y-296289342D01*
X135206240Y-296289342D02*
X135158621Y-296384580D01*
X135158621Y-296384580D02*
X135111002Y-296432200D01*
X135111002Y-296432200D02*
X135015764Y-296479819D01*
X135015764Y-296479819D02*
X134825288Y-296479819D01*
X134825288Y-296479819D02*
X134730050Y-296432200D01*
X134730050Y-296432200D02*
X134682431Y-296384580D01*
X134682431Y-296384580D02*
X134634812Y-296289342D01*
X134634812Y-296289342D02*
X134634812Y-295479819D01*
X134253859Y-295479819D02*
X133587193Y-295479819D01*
X133587193Y-295479819D02*
X134015764Y-296479819D01*
X135688094Y-119954819D02*
X135688094Y-120764342D01*
X135688094Y-120764342D02*
X135640475Y-120859580D01*
X135640475Y-120859580D02*
X135592856Y-120907200D01*
X135592856Y-120907200D02*
X135497618Y-120954819D01*
X135497618Y-120954819D02*
X135307142Y-120954819D01*
X135307142Y-120954819D02*
X135211904Y-120907200D01*
X135211904Y-120907200D02*
X135164285Y-120859580D01*
X135164285Y-120859580D02*
X135116666Y-120764342D01*
X135116666Y-120764342D02*
X135116666Y-119954819D01*
X134116666Y-120954819D02*
X134688094Y-120954819D01*
X134402380Y-120954819D02*
X134402380Y-119954819D01*
X134402380Y-119954819D02*
X134497618Y-120097676D01*
X134497618Y-120097676D02*
X134592856Y-120192914D01*
X134592856Y-120192914D02*
X134688094Y-120240533D01*
X133211904Y-119954819D02*
X133688094Y-119954819D01*
X133688094Y-119954819D02*
X133735713Y-120431009D01*
X133735713Y-120431009D02*
X133688094Y-120383390D01*
X133688094Y-120383390D02*
X133592856Y-120335771D01*
X133592856Y-120335771D02*
X133354761Y-120335771D01*
X133354761Y-120335771D02*
X133259523Y-120383390D01*
X133259523Y-120383390D02*
X133211904Y-120431009D01*
X133211904Y-120431009D02*
X133164285Y-120526247D01*
X133164285Y-120526247D02*
X133164285Y-120764342D01*
X133164285Y-120764342D02*
X133211904Y-120859580D01*
X133211904Y-120859580D02*
X133259523Y-120907200D01*
X133259523Y-120907200D02*
X133354761Y-120954819D01*
X133354761Y-120954819D02*
X133592856Y-120954819D01*
X133592856Y-120954819D02*
X133688094Y-120907200D01*
X133688094Y-120907200D02*
X133735713Y-120859580D01*
X135211904Y-645479819D02*
X135211904Y-646289342D01*
X135211904Y-646289342D02*
X135164285Y-646384580D01*
X135164285Y-646384580D02*
X135116666Y-646432200D01*
X135116666Y-646432200D02*
X135021428Y-646479819D01*
X135021428Y-646479819D02*
X134830952Y-646479819D01*
X134830952Y-646479819D02*
X134735714Y-646432200D01*
X134735714Y-646432200D02*
X134688095Y-646384580D01*
X134688095Y-646384580D02*
X134640476Y-646289342D01*
X134640476Y-646289342D02*
X134640476Y-645479819D01*
X133735714Y-645813152D02*
X133735714Y-646479819D01*
X133973809Y-645432200D02*
X134211904Y-646146485D01*
X134211904Y-646146485D02*
X133592857Y-646146485D01*
X135206240Y-587146486D02*
X135206240Y-587956009D01*
X135206240Y-587956009D02*
X135158621Y-588051247D01*
X135158621Y-588051247D02*
X135111002Y-588098867D01*
X135111002Y-588098867D02*
X135015764Y-588146486D01*
X135015764Y-588146486D02*
X134825288Y-588146486D01*
X134825288Y-588146486D02*
X134730050Y-588098867D01*
X134730050Y-588098867D02*
X134682431Y-588051247D01*
X134682431Y-588051247D02*
X134634812Y-587956009D01*
X134634812Y-587956009D02*
X134634812Y-587146486D01*
X133730050Y-587146486D02*
X133920526Y-587146486D01*
X133920526Y-587146486D02*
X134015764Y-587194105D01*
X134015764Y-587194105D02*
X134063383Y-587241724D01*
X134063383Y-587241724D02*
X134158621Y-587384581D01*
X134158621Y-587384581D02*
X134206240Y-587575057D01*
X134206240Y-587575057D02*
X134206240Y-587956009D01*
X134206240Y-587956009D02*
X134158621Y-588051247D01*
X134158621Y-588051247D02*
X134111002Y-588098867D01*
X134111002Y-588098867D02*
X134015764Y-588146486D01*
X134015764Y-588146486D02*
X133825288Y-588146486D01*
X133825288Y-588146486D02*
X133730050Y-588098867D01*
X133730050Y-588098867D02*
X133682431Y-588051247D01*
X133682431Y-588051247D02*
X133634812Y-587956009D01*
X133634812Y-587956009D02*
X133634812Y-587717914D01*
X133634812Y-587717914D02*
X133682431Y-587622676D01*
X133682431Y-587622676D02*
X133730050Y-587575057D01*
X133730050Y-587575057D02*
X133825288Y-587527438D01*
X133825288Y-587527438D02*
X134015764Y-587527438D01*
X134015764Y-587527438D02*
X134111002Y-587575057D01*
X134111002Y-587575057D02*
X134158621Y-587622676D01*
X134158621Y-587622676D02*
X134206240Y-587717914D01*
X135206240Y-528813152D02*
X135206240Y-529622675D01*
X135206240Y-529622675D02*
X135158621Y-529717913D01*
X135158621Y-529717913D02*
X135111002Y-529765533D01*
X135111002Y-529765533D02*
X135015764Y-529813152D01*
X135015764Y-529813152D02*
X134825288Y-529813152D01*
X134825288Y-529813152D02*
X134730050Y-529765533D01*
X134730050Y-529765533D02*
X134682431Y-529717913D01*
X134682431Y-529717913D02*
X134634812Y-529622675D01*
X134634812Y-529622675D02*
X134634812Y-528813152D01*
X134015764Y-529241723D02*
X134111002Y-529194104D01*
X134111002Y-529194104D02*
X134158621Y-529146485D01*
X134158621Y-529146485D02*
X134206240Y-529051247D01*
X134206240Y-529051247D02*
X134206240Y-529003628D01*
X134206240Y-529003628D02*
X134158621Y-528908390D01*
X134158621Y-528908390D02*
X134111002Y-528860771D01*
X134111002Y-528860771D02*
X134015764Y-528813152D01*
X134015764Y-528813152D02*
X133825288Y-528813152D01*
X133825288Y-528813152D02*
X133730050Y-528860771D01*
X133730050Y-528860771D02*
X133682431Y-528908390D01*
X133682431Y-528908390D02*
X133634812Y-529003628D01*
X133634812Y-529003628D02*
X133634812Y-529051247D01*
X133634812Y-529051247D02*
X133682431Y-529146485D01*
X133682431Y-529146485D02*
X133730050Y-529194104D01*
X133730050Y-529194104D02*
X133825288Y-529241723D01*
X133825288Y-529241723D02*
X134015764Y-529241723D01*
X134015764Y-529241723D02*
X134111002Y-529289342D01*
X134111002Y-529289342D02*
X134158621Y-529336961D01*
X134158621Y-529336961D02*
X134206240Y-529432199D01*
X134206240Y-529432199D02*
X134206240Y-529622675D01*
X134206240Y-529622675D02*
X134158621Y-529717913D01*
X134158621Y-529717913D02*
X134111002Y-529765533D01*
X134111002Y-529765533D02*
X134015764Y-529813152D01*
X134015764Y-529813152D02*
X133825288Y-529813152D01*
X133825288Y-529813152D02*
X133730050Y-529765533D01*
X133730050Y-529765533D02*
X133682431Y-529717913D01*
X133682431Y-529717913D02*
X133634812Y-529622675D01*
X133634812Y-529622675D02*
X133634812Y-529432199D01*
X133634812Y-529432199D02*
X133682431Y-529336961D01*
X133682431Y-529336961D02*
X133730050Y-529289342D01*
X133730050Y-529289342D02*
X133825288Y-529241723D01*
X135206240Y-237146486D02*
X135206240Y-237956009D01*
X135206240Y-237956009D02*
X135158621Y-238051247D01*
X135158621Y-238051247D02*
X135111002Y-238098867D01*
X135111002Y-238098867D02*
X135015764Y-238146486D01*
X135015764Y-238146486D02*
X134825288Y-238146486D01*
X134825288Y-238146486D02*
X134730050Y-238098867D01*
X134730050Y-238098867D02*
X134682431Y-238051247D01*
X134682431Y-238051247D02*
X134634812Y-237956009D01*
X134634812Y-237956009D02*
X134634812Y-237146486D01*
X134111002Y-238146486D02*
X133920526Y-238146486D01*
X133920526Y-238146486D02*
X133825288Y-238098867D01*
X133825288Y-238098867D02*
X133777669Y-238051247D01*
X133777669Y-238051247D02*
X133682431Y-237908390D01*
X133682431Y-237908390D02*
X133634812Y-237717914D01*
X133634812Y-237717914D02*
X133634812Y-237336962D01*
X133634812Y-237336962D02*
X133682431Y-237241724D01*
X133682431Y-237241724D02*
X133730050Y-237194105D01*
X133730050Y-237194105D02*
X133825288Y-237146486D01*
X133825288Y-237146486D02*
X134015764Y-237146486D01*
X134015764Y-237146486D02*
X134111002Y-237194105D01*
X134111002Y-237194105D02*
X134158621Y-237241724D01*
X134158621Y-237241724D02*
X134206240Y-237336962D01*
X134206240Y-237336962D02*
X134206240Y-237575057D01*
X134206240Y-237575057D02*
X134158621Y-237670295D01*
X134158621Y-237670295D02*
X134111002Y-237717914D01*
X134111002Y-237717914D02*
X134015764Y-237765533D01*
X134015764Y-237765533D02*
X133825288Y-237765533D01*
X133825288Y-237765533D02*
X133730050Y-237717914D01*
X133730050Y-237717914D02*
X133682431Y-237670295D01*
X133682431Y-237670295D02*
X133634812Y-237575057D01*
X135682430Y-470154819D02*
X135682430Y-470964342D01*
X135682430Y-470964342D02*
X135634811Y-471059580D01*
X135634811Y-471059580D02*
X135587192Y-471107200D01*
X135587192Y-471107200D02*
X135491954Y-471154819D01*
X135491954Y-471154819D02*
X135301478Y-471154819D01*
X135301478Y-471154819D02*
X135206240Y-471107200D01*
X135206240Y-471107200D02*
X135158621Y-471059580D01*
X135158621Y-471059580D02*
X135111002Y-470964342D01*
X135111002Y-470964342D02*
X135111002Y-470154819D01*
X134111002Y-471154819D02*
X134682430Y-471154819D01*
X134396716Y-471154819D02*
X134396716Y-470154819D01*
X134396716Y-470154819D02*
X134491954Y-470297676D01*
X134491954Y-470297676D02*
X134587192Y-470392914D01*
X134587192Y-470392914D02*
X134682430Y-470440533D01*
X133730049Y-470250057D02*
X133682430Y-470202438D01*
X133682430Y-470202438D02*
X133587192Y-470154819D01*
X133587192Y-470154819D02*
X133349097Y-470154819D01*
X133349097Y-470154819D02*
X133253859Y-470202438D01*
X133253859Y-470202438D02*
X133206240Y-470250057D01*
X133206240Y-470250057D02*
X133158621Y-470345295D01*
X133158621Y-470345295D02*
X133158621Y-470440533D01*
X133158621Y-470440533D02*
X133206240Y-470583390D01*
X133206240Y-470583390D02*
X133777668Y-471154819D01*
X133777668Y-471154819D02*
X133158621Y-471154819D01*
X135838094Y-411654819D02*
X135838094Y-412464342D01*
X135838094Y-412464342D02*
X135790475Y-412559580D01*
X135790475Y-412559580D02*
X135742856Y-412607200D01*
X135742856Y-412607200D02*
X135647618Y-412654819D01*
X135647618Y-412654819D02*
X135457142Y-412654819D01*
X135457142Y-412654819D02*
X135361904Y-412607200D01*
X135361904Y-412607200D02*
X135314285Y-412559580D01*
X135314285Y-412559580D02*
X135266666Y-412464342D01*
X135266666Y-412464342D02*
X135266666Y-411654819D01*
X134266666Y-412654819D02*
X134838094Y-412654819D01*
X134552380Y-412654819D02*
X134552380Y-411654819D01*
X134552380Y-411654819D02*
X134647618Y-411797676D01*
X134647618Y-411797676D02*
X134742856Y-411892914D01*
X134742856Y-411892914D02*
X134838094Y-411940533D01*
X133409523Y-411988152D02*
X133409523Y-412654819D01*
X133647618Y-411607200D02*
X133885713Y-412321485D01*
X133885713Y-412321485D02*
X133266666Y-412321485D01*
X135682430Y-178554819D02*
X135682430Y-179364342D01*
X135682430Y-179364342D02*
X135634811Y-179459580D01*
X135634811Y-179459580D02*
X135587192Y-179507200D01*
X135587192Y-179507200D02*
X135491954Y-179554819D01*
X135491954Y-179554819D02*
X135301478Y-179554819D01*
X135301478Y-179554819D02*
X135206240Y-179507200D01*
X135206240Y-179507200D02*
X135158621Y-179459580D01*
X135158621Y-179459580D02*
X135111002Y-179364342D01*
X135111002Y-179364342D02*
X135111002Y-178554819D01*
X134111002Y-179554819D02*
X134682430Y-179554819D01*
X134396716Y-179554819D02*
X134396716Y-178554819D01*
X134396716Y-178554819D02*
X134491954Y-178697676D01*
X134491954Y-178697676D02*
X134587192Y-178792914D01*
X134587192Y-178792914D02*
X134682430Y-178840533D01*
X133777668Y-178554819D02*
X133158621Y-178554819D01*
X133158621Y-178554819D02*
X133491954Y-178935771D01*
X133491954Y-178935771D02*
X133349097Y-178935771D01*
X133349097Y-178935771D02*
X133253859Y-178983390D01*
X133253859Y-178983390D02*
X133206240Y-179031009D01*
X133206240Y-179031009D02*
X133158621Y-179126247D01*
X133158621Y-179126247D02*
X133158621Y-179364342D01*
X133158621Y-179364342D02*
X133206240Y-179459580D01*
X133206240Y-179459580D02*
X133253859Y-179507200D01*
X133253859Y-179507200D02*
X133349097Y-179554819D01*
X133349097Y-179554819D02*
X133634811Y-179554819D01*
X133634811Y-179554819D02*
X133730049Y-179507200D01*
X133730049Y-179507200D02*
X133777668Y-179459580D01*
X135688094Y-353354819D02*
X135688094Y-354164342D01*
X135688094Y-354164342D02*
X135640475Y-354259580D01*
X135640475Y-354259580D02*
X135592856Y-354307200D01*
X135592856Y-354307200D02*
X135497618Y-354354819D01*
X135497618Y-354354819D02*
X135307142Y-354354819D01*
X135307142Y-354354819D02*
X135211904Y-354307200D01*
X135211904Y-354307200D02*
X135164285Y-354259580D01*
X135164285Y-354259580D02*
X135116666Y-354164342D01*
X135116666Y-354164342D02*
X135116666Y-353354819D01*
X134116666Y-354354819D02*
X134688094Y-354354819D01*
X134402380Y-354354819D02*
X134402380Y-353354819D01*
X134402380Y-353354819D02*
X134497618Y-353497676D01*
X134497618Y-353497676D02*
X134592856Y-353592914D01*
X134592856Y-353592914D02*
X134688094Y-353640533D01*
X133497618Y-353354819D02*
X133402380Y-353354819D01*
X133402380Y-353354819D02*
X133307142Y-353402438D01*
X133307142Y-353402438D02*
X133259523Y-353450057D01*
X133259523Y-353450057D02*
X133211904Y-353545295D01*
X133211904Y-353545295D02*
X133164285Y-353735771D01*
X133164285Y-353735771D02*
X133164285Y-353973866D01*
X133164285Y-353973866D02*
X133211904Y-354164342D01*
X133211904Y-354164342D02*
X133259523Y-354259580D01*
X133259523Y-354259580D02*
X133307142Y-354307200D01*
X133307142Y-354307200D02*
X133402380Y-354354819D01*
X133402380Y-354354819D02*
X133497618Y-354354819D01*
X133497618Y-354354819D02*
X133592856Y-354307200D01*
X133592856Y-354307200D02*
X133640475Y-354259580D01*
X133640475Y-354259580D02*
X133688094Y-354164342D01*
X133688094Y-354164342D02*
X133735713Y-353973866D01*
X133735713Y-353973866D02*
X133735713Y-353735771D01*
X133735713Y-353735771D02*
X133688094Y-353545295D01*
X133688094Y-353545295D02*
X133640475Y-353450057D01*
X133640475Y-353450057D02*
X133592856Y-353402438D01*
X133592856Y-353402438D02*
X133497618Y-353354819D01*
G04 #@! TO.C,U7*
D12*
X134444336Y-296865000D02*
X133794336Y-296865000D01*
X134444336Y-296865000D02*
X135094336Y-296865000D01*
X134444336Y-299985000D02*
X133794336Y-299985000D01*
X134444336Y-299985000D02*
X135094336Y-299985000D01*
X135606836Y-296915000D02*
X135846836Y-296585000D01*
X135366836Y-296585000D01*
X135606836Y-296915000D01*
G36*
X135606836Y-296915000D02*
G01*
X135366836Y-296585000D01*
X135846836Y-296585000D01*
X135606836Y-296915000D01*
G37*
G04 #@! TO.C,U15*
X134450000Y-121865000D02*
X133800000Y-121865000D01*
X134450000Y-121865000D02*
X135100000Y-121865000D01*
X134450000Y-124985000D02*
X133800000Y-124985000D01*
X134450000Y-124985000D02*
X135100000Y-124985000D01*
X135612500Y-121915000D02*
X135852500Y-121585000D01*
X135372500Y-121585000D01*
X135612500Y-121915000D01*
G36*
X135612500Y-121915000D02*
G01*
X135372500Y-121585000D01*
X135852500Y-121585000D01*
X135612500Y-121915000D01*
G37*
G04 #@! TO.C,U4*
X134450000Y-646865000D02*
X133800000Y-646865000D01*
X134450000Y-646865000D02*
X135100000Y-646865000D01*
X134450000Y-649985000D02*
X133800000Y-649985000D01*
X134450000Y-649985000D02*
X135100000Y-649985000D01*
X135612500Y-646915000D02*
X135852500Y-646585000D01*
X135372500Y-646585000D01*
X135612500Y-646915000D01*
G36*
X135612500Y-646915000D02*
G01*
X135372500Y-646585000D01*
X135852500Y-646585000D01*
X135612500Y-646915000D01*
G37*
G04 #@! TO.C,U6*
X134444336Y-588531667D02*
X133794336Y-588531667D01*
X134444336Y-588531667D02*
X135094336Y-588531667D01*
X134444336Y-591651667D02*
X133794336Y-591651667D01*
X134444336Y-591651667D02*
X135094336Y-591651667D01*
X135606836Y-588581667D02*
X135846836Y-588251667D01*
X135366836Y-588251667D01*
X135606836Y-588581667D01*
G36*
X135606836Y-588581667D02*
G01*
X135366836Y-588251667D01*
X135846836Y-588251667D01*
X135606836Y-588581667D01*
G37*
G04 #@! TO.C,U8*
X134444336Y-530198333D02*
X133794336Y-530198333D01*
X134444336Y-530198333D02*
X135094336Y-530198333D01*
X134444336Y-533318333D02*
X133794336Y-533318333D01*
X134444336Y-533318333D02*
X135094336Y-533318333D01*
X135606836Y-530248333D02*
X135846836Y-529918333D01*
X135366836Y-529918333D01*
X135606836Y-530248333D01*
G36*
X135606836Y-530248333D02*
G01*
X135366836Y-529918333D01*
X135846836Y-529918333D01*
X135606836Y-530248333D01*
G37*
G04 #@! TO.C,U9*
X134444336Y-238531667D02*
X133794336Y-238531667D01*
X134444336Y-238531667D02*
X135094336Y-238531667D01*
X134444336Y-241651667D02*
X133794336Y-241651667D01*
X134444336Y-241651667D02*
X135094336Y-241651667D01*
X135606836Y-238581667D02*
X135846836Y-238251667D01*
X135366836Y-238251667D01*
X135606836Y-238581667D01*
G36*
X135606836Y-238581667D02*
G01*
X135366836Y-238251667D01*
X135846836Y-238251667D01*
X135606836Y-238581667D01*
G37*
G04 #@! TO.C,U12*
X134444336Y-471865000D02*
X133794336Y-471865000D01*
X134444336Y-471865000D02*
X135094336Y-471865000D01*
X134444336Y-474985000D02*
X133794336Y-474985000D01*
X134444336Y-474985000D02*
X135094336Y-474985000D01*
X135606836Y-471915000D02*
X135846836Y-471585000D01*
X135366836Y-471585000D01*
X135606836Y-471915000D01*
G36*
X135606836Y-471915000D02*
G01*
X135366836Y-471585000D01*
X135846836Y-471585000D01*
X135606836Y-471915000D01*
G37*
G04 #@! TO.C,U14*
X134450000Y-413565000D02*
X133800000Y-413565000D01*
X134450000Y-413565000D02*
X135100000Y-413565000D01*
X134450000Y-416685000D02*
X133800000Y-416685000D01*
X134450000Y-416685000D02*
X135100000Y-416685000D01*
X135612500Y-413615000D02*
X135852500Y-413285000D01*
X135372500Y-413285000D01*
X135612500Y-413615000D01*
G36*
X135612500Y-413615000D02*
G01*
X135372500Y-413285000D01*
X135852500Y-413285000D01*
X135612500Y-413615000D01*
G37*
G04 #@! TO.C,U13*
X134444336Y-180198333D02*
X133794336Y-180198333D01*
X134444336Y-180198333D02*
X135094336Y-180198333D01*
X134444336Y-183318333D02*
X133794336Y-183318333D01*
X134444336Y-183318333D02*
X135094336Y-183318333D01*
X135606836Y-180248333D02*
X135846836Y-179918333D01*
X135366836Y-179918333D01*
X135606836Y-180248333D01*
G36*
X135606836Y-180248333D02*
G01*
X135366836Y-179918333D01*
X135846836Y-179918333D01*
X135606836Y-180248333D01*
G37*
G04 #@! TO.C,U10*
X134450000Y-355265000D02*
X133800000Y-355265000D01*
X134450000Y-355265000D02*
X135100000Y-355265000D01*
X134450000Y-358385000D02*
X133800000Y-358385000D01*
X134450000Y-358385000D02*
X135100000Y-358385000D01*
X135612500Y-355315000D02*
X135852500Y-354985000D01*
X135372500Y-354985000D01*
X135612500Y-355315000D01*
G36*
X135612500Y-355315000D02*
G01*
X135372500Y-354985000D01*
X135852500Y-354985000D01*
X135612500Y-355315000D01*
G37*
G04 #@! TD*
%LPC*%
D13*
G04 #@! TO.C,U7*
X135381836Y-297475000D03*
X135381836Y-299375000D03*
X133506836Y-298425000D03*
G04 #@! TD*
G04 #@! TO.C,U15*
X135387500Y-122475000D03*
X135387500Y-124375000D03*
X133512500Y-123425000D03*
G04 #@! TD*
G04 #@! TO.C,U4*
X135387500Y-647475000D03*
X135387500Y-649375000D03*
X133512500Y-648425000D03*
G04 #@! TD*
G04 #@! TO.C,U6*
X135381836Y-589141667D03*
X135381836Y-591041667D03*
X133506836Y-590091667D03*
G04 #@! TD*
G04 #@! TO.C,U8*
X135381836Y-530808333D03*
X135381836Y-532708333D03*
X133506836Y-531758333D03*
G04 #@! TD*
G04 #@! TO.C,U9*
X135381836Y-239141667D03*
X135381836Y-241041667D03*
X133506836Y-240091667D03*
G04 #@! TD*
G04 #@! TO.C,U12*
X135381836Y-472475000D03*
X135381836Y-474375000D03*
X133506836Y-473425000D03*
G04 #@! TD*
G04 #@! TO.C,U14*
X135387500Y-414175000D03*
X135387500Y-416075000D03*
X133512500Y-415125000D03*
G04 #@! TD*
D14*
G04 #@! TO.C,J4*
X141500000Y-71520000D03*
X140500000Y-71520000D03*
X139500000Y-71520000D03*
X138500000Y-71520000D03*
X137500000Y-71520000D03*
X136500000Y-71520000D03*
X135500000Y-71520000D03*
X134500000Y-71520000D03*
X133500000Y-71520000D03*
X132500000Y-71520000D03*
X131500000Y-71520000D03*
X130500000Y-71520000D03*
G04 #@! TD*
D13*
G04 #@! TO.C,U13*
X135381836Y-180808333D03*
X135381836Y-182708333D03*
X133506836Y-181758333D03*
G04 #@! TD*
G04 #@! TO.C,U10*
X135387500Y-355875000D03*
X135387500Y-357775000D03*
X133512500Y-356825000D03*
G04 #@! TD*
%LPD*%
M02*
